<?xml version="1.0" encoding="utf-8"?>
<!-- Generator: Adobe Illustrator 24.0.2, SVG Export Plug-In . SVG Version: 6.00 Build 0)  -->
<svg version="1.1" id="Capa_1" xmlns="http://www.w3.org/2000/svg" xmlns:xlink="http://www.w3.org/1999/xlink" x="0px" y="0px"
	 viewBox="0 0 1920 1080" style="enable-background:new 0 0 1920 1080;" xml:space="preserve">
<style type="text/css">
	.st0{fill:#333333;}
</style>
<g>
	<path class="st0" d="M635.1,213.9c-0.8,0.2-1.6,0.5-2.4,0.7c-0.4,0.1-0.8,0.2-1.1,0.4c0.8-0.1,0.8-0.1,32.6-9.3
		c-0.1,0-0.3,0.1-0.4,0.1l-20.3,5.6C640.7,212.3,637.9,213.1,635.1,213.9L635.1,213.9z"/>
	<path class="st0" d="M616.4,221.1c-0.8,0.3-1.5,0.6-2.2,1c-0.3,0.2-0.7,0.4-1,0.6c0,0,0.1,0.1,0.1,0.1c3.3,0,28.1-8.3,30.1-9.8
		c0,0-0.1-0.1-0.1-0.1C640.7,213.1,623.6,218.3,616.4,221.1L616.4,221.1z"/>
	<path class="st0" d="M598.7,231.2c-0.7,0.4-1.4,0.7-2,1.1c-0.5,0.4-1.6,1.1-0.1,1.1c4.7-0.2,27-8.7,27.1-10.4
		C622.4,222.1,606.1,227.4,598.7,231.2L598.7,231.2z"/>
	<path class="st0" d="M582,244.1c-0.6,0.4-1.2,0.8-1.8,1.3c-0.5,0.4-1.8,1.8,1.1,1.4c6.7-0.8,25.6-9.6,23.5-10.9
		C603.2,234.8,588.9,239.7,582,244.1L582,244.1z"/>
	<path class="st0" d="M566.4,260c-0.6,0.4-1.1,0.9-1.6,1.4c-1.7,2.1,0.8,1.9,2.5,1.6c7.8-1.6,22.7-10.2,19.7-11.3
		C584.6,250.8,572.2,255.5,566.4,260L566.4,260z"/>
	<path class="st0" d="M551.8,278.9c-0.7,0.7-1.1,1.2-1.4,1.6c-1.9,3.2,3,1.9,4,1.6c8.4-2.4,19.7-10.7,15.9-11.6
		C567.2,269.7,556.5,274.6,551.8,278.9L551.8,278.9z"/>
	<path class="st0" d="M538.6,300.9c-0.6,0.7-0.9,1.2-1.2,1.6c-1.8,3.8,3.9,1.9,4.5,1.7c8-2.8,17.1-11.2,12.9-11.8
		C551.4,292,542.5,296.6,538.6,300.9L538.6,300.9z"/>
	<path class="st0" d="M526.7,326.1c-0.4,0.5-0.7,1.1-1,1.7c-1.3,3.5,2.6,2.6,4.8,1.7c7-3,13.9-10.7,10.3-11.6
		C537.8,317.2,530,321.8,526.7,326.1L526.7,326.1z"/>
	<path class="st0" d="M515.9,354.6c-0.4,0.6-0.6,1.1-0.9,1.7c-1.1,3.6,2.3,2.9,4.4,2c6.7-3.1,12.7-11.4,8.5-11.9
		C524.9,346.1,518.6,350.4,515.9,354.6L515.9,354.6z"/>
	<path class="st0" d="M506.5,386.4c-0.3,0.6-0.5,1.1-0.7,1.7c-0.8,3.7,2.3,3,4,2.2c5.7-2.8,10.8-11.2,7.1-11.8
		C514.2,378.1,508.7,382.2,506.5,386.4L506.5,386.4z"/>
	<path class="st0" d="M498.5,421.7c-0.2,0.6-0.4,1.1-0.6,1.7c-0.6,3.6,2,3.1,3.6,2.3c5.3-2.8,9.4-11.3,5.5-11.5
		C504.5,414,500.2,417.8,498.5,421.7L498.5,421.7z"/>
	<path class="st0" d="M491.9,460.3c-0.2,0.5-0.3,1.1-0.4,1.6c-0.4,3.5,1.8,3.1,3.1,2.3c4.4-2.6,7.7-10.7,4.4-11
		C496.8,453,493.2,456.6,491.9,460.3L491.9,460.3z"/>
	<path class="st0" d="M486.8,502.5c-0.2,0.5-0.3,1-0.3,1.5c-0.2,3.3,1.6,3,2.7,2.3c3.9-2.4,6.3-10.4,3.1-10.3
		C490.4,496.1,487.7,499.3,486.8,502.5L486.8,502.5z"/>
	<path class="st0" d="M483.1,548.3c-0.1,0.5-0.2,0.9-0.2,1.4c-0.1,2.9,1.4,2.7,2.2,2.1c3-2.1,4.8-9.4,2.2-9.3
		C485.9,542.6,483.8,545.4,483.1,548.3L483.1,548.3z"/>
	<path class="st0" d="M480.9,597.9c-0.1,0.4-0.1,0.8-0.1,1.3c0,2.7,1.2,2.5,1.9,2c2.4-1.8,3.7-8.5,1.6-8.5
		C483,592.6,481.4,595.2,480.9,597.9L480.9,597.9z"/>
	<path class="st0" d="M480.4,651c0,0.3-0.1,0.7-0.1,1c0.1,2.5,1.1,1.9,1.3,1.8c1.9-1.2,2.8-7.1,1.1-7.1
		C481.8,646.7,480.7,648.8,480.4,651L480.4,651z"/>
	<path class="st0" d="M481.4,708c0,0.3,0,0.5,0,0.8c0.1,1.5,0.6,1.6,0.9,1.4c1.2-0.8,1.7-5.4,0.6-5.5
		C482.2,704.7,481.6,706.4,481.4,708L481.4,708z"/>
	<path class="st0" d="M685.5,200.1c-0.8,0.2-1.7,0.4-2.5,0.7c-0.4,0.1-0.8,0.2-1.2,0.3c0.6-0.1,3.3-0.7,15.1-3.8
		c5.6-1.5,11.2-3,16.9-4.3l-27.9,7C685.8,200.1,685.7,200.1,685.5,200.1L685.5,200.1z"/>
	<path class="st0" d="M666,206.6c-0.8,0.3-1.6,0.6-2.3,0.9c-0.3,0.2-0.7,0.3-1,0.5c0,0,0.1,0.1,0.1,0.1c3.2,0,28.1-7.5,30.6-8.9
		c0,0,0-0.1,0-0.1C691.1,199.2,673.8,203.9,666,206.6L666,206.6z"/>
	<path class="st0" d="M647.4,215.9c-0.7,0.3-1.4,0.7-2.1,1.1c-0.5,0.3-1.7,1.1-0.2,1c4.8-0.1,27.2-7.9,27.7-9.6
		C671.7,207.5,654.9,212.5,647.4,215.9L647.4,215.9z"/>
	<path class="st0" d="M629.8,228c-0.7,0.4-1.3,0.8-1.9,1.2c-0.5,0.4-1.9,1.7,0.9,1.4c6.6-0.7,26-8.9,24.1-10.2
		C651.5,219.4,637,223.9,629.8,228L629.8,228z"/>
	<path class="st0" d="M613.1,243c-0.6,0.4-1.2,0.9-1.7,1.3c-1.8,2.1,0.7,1.9,2.3,1.6c7.9-1.4,23.2-9.5,20.3-10.6
		C631.8,234.4,619.2,238.8,613.1,243L613.1,243z"/>
	<path class="st0" d="M597.4,261.1c-0.8,0.6-1.2,1.1-1.5,1.5c-2.1,3,2.8,1.9,3.8,1.6c8.5-2.2,20.2-10.1,16.6-11
		C613.2,252.4,602.3,257,597.4,261.1L597.4,261.1z"/>
	<path class="st0" d="M582.8,282.3c-0.5,0.5-0.9,1-1.3,1.6c-2,3.7,3.7,1.9,4.4,1.7c8.1-2.6,17.7-10.6,13.5-11.2
		C596.1,273.8,586.9,278.2,582.8,282.3L582.8,282.3z"/>
	<path class="st0" d="M569.6,306.5c-0.4,0.5-0.8,1-1.1,1.6c-1.5,3.4,2.5,2.6,4.7,1.7c7.1-2.8,14.4-10.2,10.8-11.1
		C581.1,298.1,573.1,302.3,569.6,306.5L569.6,306.5z"/>
	<path class="st0" d="M557.3,334.1c-0.4,0.5-0.7,1.1-1,1.7c-1.2,3.5,2.4,2.8,4.4,2c6.8-2.8,13.2-10.8,9.1-11.4
		C566.9,325.9,560.2,330,557.3,334.1L557.3,334.1z"/>
	<path class="st0" d="M546.3,364.9c-0.3,0.5-0.6,1.1-0.8,1.7c-1,3.6,2.2,3,4,2.2c6-2.7,11.4-10.6,7.7-11.3
		C554.5,356.8,548.8,360.8,546.3,364.9L546.3,364.9z"/>
	<path class="st0" d="M536.7,399.1c-0.3,0.5-0.5,1.1-0.6,1.6c-0.7,3.5,1.9,3,3.5,2.2c5.4-2.6,9.8-10.8,6-11.1
		C543.1,391.6,538.6,395.3,536.7,399.1L536.7,399.1z"/>
	<path class="st0" d="M528.3,436.6c-0.2,0.5-0.4,1-0.5,1.6c-0.5,3.4,1.7,3,3.1,2.3c4.5-2.4,8.1-10.2,4.9-10.6
		C533.7,429.5,529.9,433,528.3,436.6L528.3,436.6z"/>
	<path class="st0" d="M521.4,477.7c-0.2,0.5-0.3,1-0.4,1.4c-0.4,3.2,1.4,2.9,2.6,2.3c4-2.3,6.7-10,3.5-10
		C525.3,471.5,522.5,474.5,521.4,477.7L521.4,477.7z"/>
	<path class="st0" d="M515.8,522.3c-0.1,0.4-0.2,0.9-0.3,1.3c-0.2,2.9,1.3,2.7,2.2,2.1c3.1-2,5.2-9.1,2.6-9
		C518.8,516.7,516.7,519.4,515.8,522.3L515.8,522.3z"/>
	<path class="st0" d="M511.6,570.6c-0.1,0.4-0.1,0.8-0.2,1.2c-0.1,2.6,1.1,2.5,1.8,2c2.5-1.7,4-8.2,1.9-8.2
		C513.9,565.5,512.2,568,511.6,570.6L511.6,570.6z"/>
	<path class="st0" d="M508.9,622.5c-0.1,0.3-0.1,0.7-0.1,1c0,2.4,0.9,2,1.2,1.8c1.9-1.1,3.1-6.8,1.4-6.9
		C510.5,618.3,509.3,620.3,508.9,622.5L508.9,622.5z"/>
	<path class="st0" d="M507.7,678.1c-0.1,0.2-0.1,0.5-0.1,0.8c0,1.9,0.8,1.4,0.9,1.4c1.2-0.8,2-5.2,0.8-5.3
		C508.7,674.9,507.9,676.6,507.7,678.1L507.7,678.1z"/>
	<polygon class="st0" points="508.7,738.7 509.3,736.5 508.7,735.7 508.1,738 508.7,738.7 	"/>
	<path class="st0" d="M732.9,188.4c-0.1,0-0.1,0-0.2,0.1c9.7-1.8,18.9-4.4,28.5-6.5l-21.1,4.7L732.9,188.4
		C733,188.4,733,188.4,732.9,188.4L732.9,188.4z"/>
	<path class="st0" d="M716.3,193.4c-0.8,0.2-1.6,0.5-2.4,0.8c-0.4,0.1-0.8,0.3-1.1,0.5c0,0,0,0.1,0.1,0.1c3,0,28.3-6.7,31-8.1
		C742.8,186.3,722.9,191.3,716.3,193.4L716.3,193.4z"/>
	<path class="st0" d="M660.6,227.4c-0.6,0.4-1.2,0.8-1.8,1.3c-1.9,1.9,0.6,1.8,2.3,1.5c7.9-1.3,23.7-8.8,20.9-9.9
		C679.5,219.3,666.6,223.7,660.6,227.4L660.6,227.4z"/>
	<path class="st0" d="M643.8,244.6c-0.6,0.4-1.1,0.9-1.6,1.4c-2.3,2.9,2.7,1.9,3.7,1.6c8.5-2,20.7-9.4,17.1-10.4
		C660.1,236.5,648.9,240.7,643.8,244.6L643.8,244.6z"/>
	<path class="st0" d="M628,264.9c-0.5,0.5-1,1-1.4,1.5c-2.2,3.5,3.6,1.9,4.3,1.7c8.2-2.4,18.1-9.9,14-10.7
		C641.7,256.9,632.4,261,628,264.9L628,264.9z"/>
	<path class="st0" d="M613.5,288.2c-0.5,0.5-0.8,1-1.2,1.5c-1.7,3.3,2.3,2.6,4.7,1.8c7.4-2.6,14.9-9.6,11.4-10.5
		C625.4,280.2,617.2,284.2,613.5,288.2L613.5,288.2z"/>
	<path class="st0" d="M599.8,314.8c-0.4,0.5-0.7,1.1-1,1.6c-1.4,3.4,2.1,2.9,4.3,2c6.9-2.6,13.7-10.3,9.6-10.9
		C609.8,307,602.9,310.9,599.8,314.8L599.8,314.8z"/>
	<path class="st0" d="M587.4,344.6c-0.3,0.5-0.6,1.1-0.9,1.6c-1.1,3.4,1.9,3,3.9,2.2c6.1-2.5,11.9-10.1,8.2-10.9
		C596,336.9,590,340.7,587.4,344.6L587.4,344.6z"/>
	<path class="st0" d="M576.1,377.7c-0.3,0.5-0.5,1-0.7,1.6c-0.9,3.4,1.7,3,3.5,2.2c5.5-2.4,10.3-10.3,6.5-10.7
		C582.9,370.6,578.2,374.1,576.1,377.7L576.1,377.7z"/>
	<path class="st0" d="M566.1,414.2c-0.2,0.5-0.4,1-0.6,1.5c-0.7,3.3,1.6,2.9,3,2.3c4.6-2.2,8.6-9.8,5.3-10.3
		C571.8,407.4,567.8,410.7,566.1,414.2L566.1,414.2z"/>
	<path class="st0" d="M557.4,454.1c-0.2,0.5-0.3,0.9-0.4,1.4c-0.5,3.1,1.4,2.9,2.6,2.3c4.1-2.1,7.2-9.6,3.9-9.7
		C561.6,448.1,558.6,451,557.4,454.1L557.4,454.1z"/>
	<path class="st0" d="M549.9,497.6c-0.1,0.4-0.2,0.9-0.3,1.3c-0.4,2.8,1.2,2.6,2.2,2.1c3.3-1.9,5.7-8.7,3-8.8
		C553.2,492.1,550.9,494.8,549.9,497.6L549.9,497.6z"/>
	<path class="st0" d="M543.8,544.6c-0.1,0.4-0.2,0.8-0.2,1.2c-0.2,2.6,1,2.4,1.8,2c2.6-1.6,4.3-7.9,2.3-8
		C546.3,539.7,544.5,542,543.8,544.6L543.8,544.6z"/>
	<path class="st0" d="M539.1,595.2c-0.1,0.3-0.1,0.6-0.2,1c-0.1,2.6,1.2,1.8,1.4,1.7c1.9-1.3,3.1-6.5,1.5-6.6
		C540.9,591.2,539.5,593.1,539.1,595.2L539.1,595.2z"/>
	<path class="st0" d="M535.7,649.5c0,0.2-0.1,0.5-0.1,0.7c0,1.8,0.7,1.5,0.9,1.4c1.3-0.7,2.1-5,1-5.2
		C536.9,646.3,536,647.9,535.7,649.5L535.7,649.5z"/>
	<polygon class="st0" points="534.4,708.7 535.1,706.6 534.5,705.7 533.8,708 534.4,708.7 	"/>
	<path class="st0" d="M784.2,177.1c0.1,0,15.5-3.2,23.9-4.8L784.2,177.1C784.2,177.1,784.2,177.1,784.2,177.1L784.2,177.1z"/>
	<path class="st0" d="M767,181.4c-0.8,0.2-1.6,0.5-2.5,0.7c-0.4,0.1-0.8,0.3-1.1,0.4c0,0,0,0.1,0,0.1c3.1,0.1,29.1-6.2,31.5-7.2
		C793.9,175.2,773.8,179.6,767,181.4L767,181.4z"/>
	<path class="st0" d="M690.9,229.5c-0.6,0.4-1.2,0.9-1.7,1.3c-2.1,2.4,1.2,2.1,2.7,1.8c8.2-1.4,22.2-8.9,18.6-9.9
		C707.6,221.8,696.2,225.8,690.9,229.5L690.9,229.5z"/>
	<path class="st0" d="M674,248.8c-0.5,0.4-1,0.9-1.5,1.4c-2.4,3.4,3.5,2,4.2,1.8c8-2.1,18.1-8.8,15-10
		C689.1,241,678.8,244.9,674,248.8L674,248.8z"/>
	<path class="st0" d="M658.2,271.2c-0.5,0.5-0.9,1-1.3,1.5c-1.8,3.2,2.2,2.6,4.6,1.8c7.4-2.3,15.4-9.1,12-10.1
		C670.6,263.6,662.2,267.4,658.2,271.2L658.2,271.2z"/>
	<path class="st0" d="M643.3,296.8c-0.4,0.5-0.8,1-1.1,1.5c-1.6,3.3,1.9,2.8,4.2,2c7.2-2.5,14.3-9.8,10.2-10.5
		C653.5,289.4,646.6,293,643.3,296.8L643.3,296.8z"/>
	<path class="st0" d="M629.5,325.6c-0.4,0.5-0.7,1-0.9,1.5c-1.3,3.3,1.9,2.9,3.7,2.2c6.3-2.3,12.5-9.7,8.8-10.5
		C638.3,318.3,632.2,321.8,629.5,325.6L629.5,325.6z"/>
	<path class="st0" d="M616.7,357.6c-0.3,0.5-0.6,1-0.8,1.5c-1.1,3.4,1.7,3.1,3.9,2c5.6-2.6,10.1-9.7,6.5-10
		C623.8,350.9,618.9,354.2,616.7,357.6L616.7,357.6z"/>
	<path class="st0" d="M605.1,393c-0.3,0.5-0.5,1-0.6,1.5c-0.8,3.2,1.4,2.9,2.9,2.3c4.8-2.1,9.1-9.4,5.8-10
		C611,386.5,606.9,389.7,605.1,393L605.1,393z"/>
	<path class="st0" d="M594.7,431.8c-0.2,0.4-0.4,0.9-0.5,1.4c-0.7,3,1.2,2.9,2.4,2.3c4.3-2,7.7-9.3,4.4-9.4
		C599.1,426.1,596.1,428.8,594.7,431.8L594.7,431.8z"/>
	<path class="st0" d="M585.4,474.1c-0.2,0.4-0.3,0.8-0.4,1.3c-0.5,2.7,1.1,2.6,2.1,2.1c3.3-1.7,6-8.4,3.4-8.5
		C589,468.9,586.5,471.4,585.4,474.1L585.4,474.1z"/>
	<path class="st0" d="M577.4,519.9c-0.1,0.4-0.2,0.8-0.3,1.2c-0.3,2.5,1,2.4,1.7,1.9c2.7-1.5,4.8-7.6,2.6-7.7
		C580.2,515.2,578.2,517.4,577.4,519.9L577.4,519.9z"/>
	<path class="st0" d="M570.7,569.2c-0.1,0.3-0.1,0.6-0.2,0.9c-0.2,2.1,0.8,2,1.3,1.6c2-1.3,3.5-6.3,1.8-6.4
		C572.7,565.3,571.2,567.2,570.7,569.2L570.7,569.2z"/>
	<path class="st0" d="M565.3,622.2c-0.1,0.2-0.1,0.5-0.1,0.7c-0.1,1.5,0.5,1.6,0.9,1.3c1.4-1,2.3-5.1,1.1-5
		C566.4,619.3,565.6,620.8,565.3,622.2L565.3,622.2z"/>
	<polygon class="st0" points="561.8,680 562.6,677.9 562,677.1 561.2,679.3 561.8,680 	"/>
	<polygon class="st0" points="558.8,739.6 559,738.8 558.8,738.6 558.6,739.2 558.8,739.6 	"/>
	<path class="st0" d="M839.3,166.4c4.4-0.8,8.8-1.6,13.2-2.3l-14,2.5C838.8,166.5,839.1,166.5,839.3,166.4L839.3,166.4z"/>
	<path class="st0" d="M818.2,170.8c-0.8,0.2-1.7,0.4-2.5,0.6c-0.4,0.1-0.8,0.2-1.2,0.4c1.4,0.6,30-5.7,31.8-6.3
		C845.5,165.3,825.5,169.1,818.2,170.8L818.2,170.8z"/>
	<path class="st0" d="M720.8,234.1c-0.6,0.4-1.1,0.9-1.5,1.4c-2.6,3.3,3.4,2,4.1,1.8c8.1-1.9,18.6-8.2,15.5-9.4
		C736.2,226.7,725.8,230.4,720.8,234.1L720.8,234.1z"/>
	<path class="st0" d="M703.9,255.5c-0.5,0.4-1,0.9-1.3,1.4c-2,3,2.1,2.5,4.5,1.8c6.9-1.9,16.2-8.5,12.5-9.6
		C716.7,248.4,708,251.9,703.9,255.5L703.9,255.5z"/>
	<path class="st0" d="M687.7,280.1c-0.5,0.5-0.8,1-1.2,1.5c-1.7,3.2,2,2.7,4.1,2c7.2-2.2,14.7-9.2,10.7-10
		C698.4,273.2,691.1,276.6,687.7,280.1L687.7,280.1z"/>
	<path class="st0" d="M672.5,307.9c-0.4,0.5-0.7,1-1,1.5c-1.5,3.3,1.8,3,4.4,2c6.3-2.5,12-8.9,8.5-9.8
		C681.8,301,675.5,304.3,672.5,307.9L672.5,307.9z"/>
	<path class="st0" d="M658.3,338.9c-0.3,0.5-0.6,1-0.8,1.5c-1.2,3.2,1.7,3,3.9,2c5.6-2.4,10.5-9.2,6.9-9.7
		C665.8,332.5,660.7,335.6,658.3,338.9L658.3,338.9z"/>
	<path class="st0" d="M645.2,373.2c-0.3,0.5-0.5,0.9-0.7,1.4c-1,3.1,1.5,3,3.4,2.1c4.9-2.3,8.9-8.8,5.8-9.4
		C651.5,367,647.2,369.9,645.2,373.2L645.2,373.2z"/>
	<path class="st0" d="M633.2,410.9c-0.2,0.4-0.4,0.9-0.6,1.3c-0.8,3,1.3,2.9,2.8,2.1c4.2-2.2,7.4-8.7,4.4-8.9
		C637.9,405.3,634.7,408,633.2,410.9L633.2,410.9z"/>
	<path class="st0" d="M622.2,451.9c-0.2,0.4-0.3,0.8-0.4,1.2c-0.6,2.7,1,2.6,2,2.1c3.4-1.6,6.4-8.1,3.8-8.2
		C626.2,446.9,623.5,449.1,622.2,451.9L622.2,451.9z"/>
	<path class="st0" d="M612.4,496.5c-0.1,0.4-0.2,0.7-0.3,1.1c-0.4,2.4,0.9,2.3,1.7,1.9c2.8-1.4,5.1-7.3,2.9-7.5
		C615.4,492,613.3,494.1,612.4,496.5L612.4,496.5z"/>
	<path class="st0" d="M603.8,544.5c-0.1,0.3-0.2,0.6-0.2,0.9c-0.3,2.5,1.1,1.7,1.3,1.7c2.1-1.2,3.7-6.1,2.1-6.2
		C605.9,540.8,604.4,542.6,603.8,544.5L603.8,544.5z"/>
	<path class="st0" d="M596.4,596.2c-0.1,0.2-0.1,0.5-0.2,0.7c-0.2,1.6,0.5,1.5,0.9,1.3c1.5-0.9,2.5-4.9,1.2-4.8
		C597.7,593.4,596.8,594.9,596.4,596.2L596.4,596.2z"/>
	<polygon class="st0" points="590.8,652.6 591.7,650.5 591.1,649.7 590.2,651.9 590.8,652.6 	"/>
	<polygon class="st0" points="585.7,710.7 585.9,710 585.7,709.7 585.5,710.4 585.7,710.7 	"/>
	<path class="st0" d="M869.8,161.5c-0.9,0.2-1.7,0.4-2.6,0.5c-0.4,0.1-0.8,0.2-1.2,0.3c1,0.6,30.2-4.9,32.1-5.4
		C897.4,156.8,876.9,160.1,869.8,161.5L869.8,161.5z"/>
	<path class="st0" d="M750.4,241.2c-0.5,0.4-1,0.9-1.4,1.3c-2.1,2.9,1.9,2.5,4.4,1.9c7.8-2,16.3-8,12.9-9
		C763.5,234.5,754.7,237.7,750.4,241.2L750.4,241.2z"/>
	<path class="st0" d="M732.9,264.8c-0.5,0.5-0.9,0.9-1.3,1.4c-1.9,3.1,1.7,2.8,4.1,2.1c7.3-2,15.1-8.7,11.2-9.5
		C744,258.2,736.5,261.4,732.9,264.8L732.9,264.8z"/>
	<path class="st0" d="M716.5,291.6c-0.4,0.5-0.7,0.9-1.1,1.4c-1.7,3.2,1.7,3,4.3,2c6.4-2.3,12.4-8.5,9-9.3
		C726.2,285,719.6,288.2,716.5,291.6L716.5,291.6z"/>
	<path class="st0" d="M701,321.6c-0.4,0.5-0.6,0.9-0.9,1.4c-1.4,3.1,1.6,3,3.8,2.1c5.8-2.2,10.9-8.7,7.4-9.3
		C708.7,315.4,703.5,318.3,701,321.6L701,321.6z"/>
	<path class="st0" d="M686.4,354.8c-0.3,0.5-0.5,0.9-0.8,1.4c-1.1,3,1.4,2.9,3.3,2.1c5-2.2,9.3-8.4,6.2-9
		C692.9,348.8,688.5,351.6,686.4,354.8L686.4,354.8z"/>
	<path class="st0" d="M672.8,391.3c-0.2,0.4-0.4,0.8-0.6,1.3c-0.9,2.9,1.2,2.8,2.8,2.1c4.4-2.1,7.9-8.3,4.7-8.5
		C677.8,386,674.4,388.5,672.8,391.3L672.8,391.3z"/>
	<path class="st0" d="M660.2,431.1c-0.2,0.4-0.3,0.8-0.5,1.2c-0.7,2.9,1.2,2.5,2.4,1.9c3.5-1.8,6.3-7.6,3.7-7.8
		C664.3,426.3,661.5,428.6,660.2,431.1L660.2,431.1z"/>
	<path class="st0" d="M648.7,474.4c-0.2,0.4-0.3,0.7-0.4,1.1c-0.5,2.4,0.9,2.3,1.6,1.9c2.8-1.3,5.3-7,3.2-7.2
		C651.9,470.1,649.7,472.1,648.7,474.4L648.7,474.4z"/>
	<path class="st0" d="M638.3,521.2c-0.1,0.3-0.2,0.6-0.3,0.9c-0.4,2.5,1.1,1.7,1.3,1.6c2.1-1.1,3.9-5.8,2.3-6
		C640.6,517.6,639,519.3,638.3,521.2L638.3,521.2z"/>
	<path class="st0" d="M629,571.5c-0.1,0.2-0.1,0.5-0.2,0.7c-0.2,1.5,0.4,1.5,0.9,1.3c1.5-0.9,2.7-4.7,1.4-4.7
		C630.5,568.8,629.5,570.1,629,571.5L629,571.5z"/>
	<polygon class="st0" points="621.4,626.5 622.4,624.5 621.8,623.7 620.8,625.8 621.4,626.5 	"/>
	<polygon class="st0" points="614.2,683.2 614.4,682.5 614.3,682.2 614,682.9 614.2,683.2 	"/>
	<path class="st0" d="M921.8,153.6c-0.9,0.2-1.8,0.3-2.6,0.5c-0.4,0.1-0.9,0.2-1.3,0.3c0.8,0.5,30.3-4.1,32.4-4.5
		C949.5,149.6,928.9,152.4,921.8,153.6L921.8,153.6z"/>
	<path class="st0" d="M779,250.9c-0.5,0.4-0.9,0.9-1.3,1.4c-2,2.9,1.5,2.7,3.9,2.1c7.2-1.7,15.2-7.6,12-8.9
		C791,244.5,783,247.4,779,250.9L779,250.9z"/>
	<path class="st0" d="M761.4,276.6c-0.4,0.4-0.8,0.9-1.1,1.4c-1.8,3.1,1.5,3,4.2,2.1c6.6-2.1,12.9-8,9.5-8.9
		C771.2,270.5,764.7,273.3,761.4,276.6L761.4,276.6z"/>
	<path class="st0" d="M744.5,305.5c-0.4,0.4-0.7,0.9-1,1.4c-1.5,3,1.4,2.9,3.7,2.1c6-2.1,11.4-8.3,7.8-8.9
		C752.5,299.8,747.2,302.5,744.5,305.5L744.5,305.5z"/>
	<path class="st0" d="M728.6,337.7c-0.3,0.4-0.6,0.9-0.8,1.3c-1.4,3.2,1.5,2.8,3.2,2.1c5.2-2,9.8-8,6.6-8.7
		C735.4,332,730.9,334.6,728.6,337.7L728.6,337.7z"/>
	<path class="st0" d="M713.5,373c-0.3,0.4-0.5,0.8-0.7,1.2c-1,2.8,1.1,2.8,2.7,2.1c4.4-1.9,8.2-8,5.1-8.2
		C718.8,368,715.3,370.3,713.5,373L713.5,373z"/>
	<path class="st0" d="M699.4,411.7c-0.2,0.4-0.4,0.8-0.5,1.2c-0.8,2.6,0.9,2.6,2.3,1.9c3.6-1.7,6.6-7.3,4.1-7.5
		C703.6,407.1,700.8,409.3,699.4,411.7L699.4,411.7z"/>
	<path class="st0" d="M686.2,453.8c-0.2,0.3-0.3,0.7-0.4,1.1c-0.6,2.3,0.8,2.3,1.9,1.8c3-1.5,5.4-6.6,3.2-6.9
		C689.5,449.6,687.3,451.6,686.2,453.8L686.2,453.8z"/>
	<path class="st0" d="M674,499.3c-0.1,0.3-0.2,0.6-0.3,0.9c-0.5,1.9,0.5,1.9,1.2,1.6c2.2-1,4.3-5.6,2.6-5.8
		C676.5,495.8,674.8,497.4,674,499.3L674,499.3z"/>
	<path class="st0" d="M662.9,548.2c-0.1,0.2-0.1,0.4-0.2,0.7c-0.3,1.4,0.4,1.5,0.8,1.3c1.6-0.8,2.9-4.6,1.6-4.5
		C664.4,545.6,663.4,547,662.9,548.2L662.9,548.2z"/>
	<polygon class="st0" points="653.4,601.8 654.5,599.9 653.9,599.1 652.8,601.1 653.4,601.8 	"/>
	<polygon class="st0" points="644.2,657.1 644.5,656.4 644.3,656.2 644,656.8 644.2,657.1 	"/>
	<path class="st0" d="M973.9,147c-0.9,0.1-1.8,0.3-2.7,0.4c-0.4,0.1-0.9,0.1-1.3,0.2c0.8,0.4,30.6-3.3,32.6-3.7
		C1000.9,143.8,980.8,146,973.9,147L973.9,147z"/>
	<path class="st0" d="M807,263.1c-0.5,0.4-0.9,0.8-1.2,1.3c-1.9,3,1.5,2.9,4.2,2.2c6.7-1.9,13.2-7.5,9.8-8.5
		C817.2,257.3,810.4,260,807,263.1L807,263.1z"/>
	<path class="st0" d="M788.9,291c-0.4,0.4-0.7,0.8-1,1.3c-1.6,2.9,1.3,2.9,3.7,2.2c6-1.9,11.7-7.8,8.1-8.5
		C797.2,285.4,791.8,288,788.9,291L788.9,291z"/>
	<path class="st0" d="M771.7,322c-0.4,0.4-0.6,0.9-0.9,1.3c-1.3,2.9,1.2,2.9,3.2,2.2c5.3-1.8,10-7.6,6.9-8.3
		C778.8,316.6,774.1,319.1,771.7,322L771.7,322z"/>
	<path class="st0" d="M755.3,356.2c-0.3,0.4-0.5,0.8-0.7,1.2c-1.1,2.8,1,2.8,2.7,2.1c4.5-1.7,8.6-7.6,5.5-7.9
		C760.8,351.4,757.2,353.6,755.3,356.2L755.3,356.2z"/>
	<path class="st0" d="M739.7,393.7c-0.2,0.4-0.4,0.7-0.6,1.1c-1,2.7,1,2.5,2.2,2c3.7-1.6,7-6.9,4.4-7.3
		C744.2,389.3,741.3,391.1,739.7,393.7L739.7,393.7z"/>
	<path class="st0" d="M724.9,434.6c-0.2,0.3-0.3,0.7-0.5,1c-0.7,2.3,0.7,2.3,1.8,1.8c3-1.4,5.6-6.4,3.5-6.7
		C728.4,430.5,726,432.4,724.9,434.6L724.9,434.6z"/>
	<path class="st0" d="M711.1,478.7c-0.1,0.3-0.2,0.6-0.3,0.8c-0.6,2.3,1,1.7,1.2,1.6c2.3-1,4.5-5.4,2.8-5.6
		C713.7,475.4,711.9,477,711.1,478.7L711.1,478.7z"/>
	<path class="st0" d="M698.2,526.4c-0.1,0.2-0.2,0.4-0.2,0.6c-0.3,1.3,0.3,1.5,0.8,1.3c1.6-0.7,3.1-4.1,1.9-4.4
		C700,523.7,698.8,525.1,698.2,526.4L698.2,526.4z"/>
	<polygon class="st0" points="686.8,578.6 687.9,576.8 687.4,575.9 686.2,577.9 686.8,578.6 	"/>
	<polygon class="st0" points="675.7,632.4 676,631.7 675.8,631.5 675.5,632.1 675.7,632.4 	"/>
	<path class="st0" d="M1026.3,141.7c-0.9,0.1-1.8,0.2-2.7,0.3c-0.5,0.1-0.9,0.1-1.4,0.2c2.1,0.3,32.4-2.8,32.7-2.8
		C1053.5,139.3,1033.7,140.9,1026.3,141.7L1026.3,141.7z"/>
	<path class="st0" d="M834.2,277.8c-0.4,0.4-0.8,0.8-1.1,1.2c-1.7,2.8,1.2,2.9,3.7,2.2c6.1-1.7,12.1-7.4,8.5-8.1
		C842.8,272.6,837.2,274.9,834.2,277.8L834.2,277.8z"/>
	<path class="st0" d="M815.7,307.7c-0.3,0.4-0.7,0.8-0.9,1.2c-1.5,2.8,1.1,2.8,3.2,2.2c5.4-1.6,10.4-7.1,7.2-7.9
		C823,302.6,818.3,304.9,815.7,307.7L815.7,307.7z"/>
	<path class="st0" d="M797.9,340.8c-0.3,0.4-0.6,0.8-0.8,1.1c-1.2,2.7,0.9,2.7,2.7,2.2c4.4-1.5,8.6-6.8,6-7.6
		C804.1,336,800.1,338.2,797.9,340.8L797.9,340.8z"/>
	<path class="st0" d="M780.9,377.1c-0.2,0.3-0.4,0.7-0.6,1.1c-1.1,2.6,1,2.4,2.2,1.9c3.8-1.4,7.2-6.6,4.6-7
		C785.5,372.9,782.5,374.9,780.9,377.1L780.9,377.1z"/>
	<path class="st0" d="M764.6,416.7c-0.2,0.3-0.4,0.7-0.5,1c-0.8,2.2,0.6,2.3,1.8,1.8c3.1-1.3,5.8-6,3.7-6.4
		C768.4,412.9,765.9,414.6,764.6,416.7L764.6,416.7z"/>
	<path class="st0" d="M749.3,459.6c-0.1,0.3-0.3,0.5-0.4,0.8c-0.7,2,0.5,1.9,1.4,1.5c2.3-1.1,4.3-5,2.7-5.4
		C752,456.5,750.2,457.9,749.3,459.6L749.3,459.6z"/>
	<path class="st0" d="M734.8,505.9c-0.1,0.2-0.2,0.4-0.3,0.6c-0.4,1.4,0.3,1.5,0.8,1.3c1.6-0.7,3.2-4.2,1.9-4.3
		C736.6,503.5,735.4,504.5,734.8,505.9L734.8,505.9z"/>
	<polygon class="st0" points="721.6,556.7 722.7,555 722.2,554.2 721,556 721.6,556.7 	"/>
	<polygon class="st0" points="708.6,609.1 708.9,608.5 708.8,608.2 708.4,608.9 708.6,609.1 	"/>
	<path class="st0" d="M1078.9,137.7c-0.9,0.1-1.8,0.1-2.7,0.2c-0.5,0-0.9,0.1-1.4,0.2c1.9,0.3,32.6-1.9,32.8-2
		C1106.1,136.1,1085.9,137.2,1078.9,137.7L1078.9,137.7z"/>
	<path class="st0" d="M860.5,294.8c-0.4,0.4-0.7,0.8-1,1.2c-1.5,2.6,0.7,3,3.6,2.1c5.4-1.8,10-6.6,7-7.5
		C868,290.1,863.2,292.2,860.5,294.8L860.5,294.8z"/>
	<path class="st0" d="M841.5,326.8c-0.3,0.4-0.6,0.7-0.8,1.1c-1.3,2.5,0.6,2.9,3,2c4.7-1.7,8.6-6.7,5.6-7.2
		C847.4,322.5,843.6,324.4,841.5,326.8L841.5,326.8z"/>
	<path class="st0" d="M823.2,362c-0.3,0.3-0.5,0.7-0.7,1c-1.1,2.3,0.7,2.5,2.1,2c3.9-1.3,7.5-6.3,4.9-6.7
		C827.9,358,824.8,359.8,823.2,362L823.2,362z"/>
	<path class="st0" d="M805.4,400.4c-0.2,0.3-0.4,0.6-0.5,1c-0.9,2.1,0.6,2.3,1.7,1.8c3.2-1.2,6.2-5.8,4-6.2
		C809.3,396.7,806.8,398.4,805.4,400.4L805.4,400.4z"/>
	<path class="st0" d="M788.5,442c-0.2,0.3-0.3,0.5-0.4,0.8c-0.7,2,0.6,1.9,1.3,1.5c2.4-1,4.6-4.8,3-5.2
		C791.4,439,789.5,440.4,788.5,442L788.5,442z"/>
	<path class="st0" d="M772.4,487c-0.1,0.2-0.2,0.4-0.3,0.6c-0.4,1.4,0.3,1.5,0.9,1.2c1.7-0.8,3.2-4,1.9-4
		C774.2,484.7,773,485.9,772.4,487L772.4,487z"/>
	<polygon class="st0" points="757.5,536.4 758.8,534.7 758.2,533.9 757,535.7 757.5,536.4 	"/>
	<polygon class="st0" points="742.7,587.4 743.2,586.7 743,586.5 742.6,587.1 742.7,587.4 	"/>
	<path class="st0" d="M1131.5,135.2c-0.9,0-1.8,0.1-2.8,0.2c-0.5,0-0.9,0.1-1.4,0.1c1.8,0.3,32.6-1.1,32.9-1.1
		C1158.9,134.3,1138.7,134.8,1131.5,135.2L1131.5,135.2z"/>
	<path class="st0" d="M1014.6,174.2c-0.7,0.3-1.3,0.6-1.9,0.9c-3,2.1,1.3,2.1,2.7,2.1c8.3-0.2,21.6-4.5,18.7-6
		C1031.8,170,1020.4,171.7,1014.6,174.2L1014.6,174.2z"/>
	<path class="st0" d="M992.1,190.2c-0.6,0.3-1.2,0.7-1.7,1c-2.7,2.3,1.4,2.4,4,2.2c8-0.8,18-5.2,14.8-6.5
		C1006.6,185.8,997.2,187.6,992.1,190.2L992.1,190.2z"/>
	<path class="st0" d="M885.9,314.3c-0.3,0.3-0.6,0.7-0.9,1.1c-1.4,2.4,0.5,2.9,3,2.1c4.8-1.6,8.9-6.3,5.9-6.9
		C892,310.2,888.1,312,885.9,314.3L885.9,314.3z"/>
	<path class="st0" d="M866.3,348.3c-0.3,0.3-0.5,0.7-0.7,1c-1.1,2.2,0.5,2.6,2.5,1.9c3.9-1.4,7.2-5.8,4.8-6.3
		C871.2,344.5,868,346.2,866.3,348.3L866.3,348.3z"/>
	<path class="st0" d="M847.2,385.5c-0.2,0.3-0.4,0.6-0.6,0.9c-1,2.1,0.5,2.3,1.7,1.9c3.2-1.1,6.4-5.5,4.2-6
		C851.2,382,848.6,383.6,847.2,385.5L847.2,385.5z"/>
	<path class="st0" d="M828.8,425.9c-0.1,0.2-0.3,0.5-0.4,0.7c-0.8,1.9,0.4,1.9,1.3,1.6c2.5-0.9,4.8-4.6,3.2-5
		C831.9,423,829.9,424.3,828.8,425.9L828.8,425.9z"/>
	<path class="st0" d="M811.2,469.5c-0.1,0.2-0.2,0.4-0.3,0.6c-0.5,1.4,0.3,1.5,0.9,1.2c1.8-0.7,3.4-3.8,2.1-3.9
		C813.1,467.3,811.8,468.5,811.2,469.5L811.2,469.5z"/>
	<polygon class="st0" points="794.6,517.6 796,516 795.5,515.2 794.1,516.9 794.6,517.6 	"/>
	<polygon class="st0" points="778.2,567.1 778.7,566.5 778.5,566.3 778,566.8 778.2,567.1 	"/>
	<path class="st0" d="M1184.2,133.9c-0.9,0-1.8,0-2.8,0.1c-0.5,0-0.9,0-1.4,0.1c1.6,0.3,32.6-0.2,32.9-0.2
		C1211.8,133.8,1191.6,133.8,1184.2,133.9L1184.2,133.9z"/>
	<path class="st0" d="M1018.9,202.2c-0.6,0.3-1.1,0.7-1.6,1.1c-2.6,2.4,1.2,2.7,4.5,2.3c7.4-0.9,15.6-5,12.9-6.4
		C1032.3,197.9,1023.6,199.6,1018.9,202.2L1018.9,202.2z"/>
	<path class="st0" d="M910.1,336.1c-0.3,0.3-0.5,0.6-0.7,1c-1.3,2.3,0.7,2.5,2.5,1.9c4-1.3,7.5-5.5,5-6.1
		C915.3,332.5,912,334.1,910.1,336.1L910.1,336.1z"/>
	<path class="st0" d="M889.8,372.1c-0.2,0.3-0.4,0.6-0.6,0.9c-1,2.1,0.6,2.3,2,1.8c3.2-1.2,6.1-5.1,4.1-5.6
		C894,368.8,891.3,370.2,889.8,372.1L889.8,372.1z"/>
	<path class="st0" d="M870.1,411.2c-0.2,0.2-0.3,0.5-0.5,0.7c-0.8,1.9,0.5,1.8,1.3,1.6c2.5-0.8,4.9-4.4,3.3-4.8
		C873.2,408.5,871.2,409.7,870.1,411.2L870.1,411.2z"/>
	<path class="st0" d="M851,453.6c-0.1,0.2-0.2,0.4-0.3,0.6c-0.5,1.3,0.2,1.5,0.9,1.2c1.8-0.7,3.5-3.6,2.2-3.8
		C853.1,451.5,851.8,452.4,851,453.6L851,453.6z"/>
	<polygon class="st0" points="832.9,500.2 834.3,498.7 833.8,497.9 832.4,499.5 832.9,500.2 	"/>
	<polygon class="st0" points="814.9,548.4 815.3,547.8 815.2,547.5 814.7,548.1 814.9,548.4 	"/>
	<polygon class="st0" points="1298.3,839.2 1299.1,839.8 1298.7,840.4 1297.9,839.8 1298.3,839.2 	"/>
	<path class="st0" d="M1284.9,802.9c-0.1-0.1-0.1-0.2-0.2-0.4c-0.3-0.9,0.5-1.4,1.3-1c1.1,0.5,1.4,2,0.4,2.1
		C1285.9,803.8,1285.2,803.4,1284.9,802.9L1284.9,802.9z"/>
	<path class="st0" d="M1270,766.2c-0.1-0.2-0.2-0.3-0.3-0.5c-0.6-1.6,0.8-2.1,2-1.6c1.9,0.8,2.4,3.1,0.6,3.3
		C1271.5,767.5,1270.5,766.9,1270,766.2L1270,766.2z"/>
	<path class="st0" d="M1253.5,729.9c-0.2-0.2-0.3-0.4-0.4-0.7c-0.8-1.9,0.9-2.8,2.8-2.2c2.5,0.9,3.4,3.8,1.2,4.3
		C1255.8,731.7,1254.3,730.9,1253.5,729.9L1253.5,729.9z"/>
	<path class="st0" d="M1235.6,694.1c-0.2-0.3-0.4-0.5-0.6-0.8c-1-2.3,1.1-3.4,3.6-2.6c3.3,1.1,4.4,4.5,1.7,5.2
		C1238.8,696.2,1236.8,695.4,1235.6,694.1L1235.6,694.1z"/>
	<path class="st0" d="M1216.4,658.9c-0.3-0.3-0.5-0.6-0.7-1c-1.5-3,1.6-4.1,4.4-3.2c4.1,1.3,5.6,5.4,2.3,6.2
		C1220.4,661.4,1217.9,660.5,1216.4,658.9L1216.4,658.9z"/>
	<path class="st0" d="M1195.9,624.4c-0.4-0.4-0.6-0.7-0.9-1.1c-1.8-3.5,1.9-4.7,5.2-3.8c5,1.4,6.9,6.2,2.9,7.2
		C1200.8,627.2,1197.7,626.2,1195.9,624.4L1195.9,624.4z"/>
	<path class="st0" d="M1174.4,590.6c-0.4-0.4-0.8-0.8-1.1-1.2c-2.2-3.8,2.1-5.3,6-4.2c5.8,1.5,8.1,6.8,3.4,7.9
		C1180.2,593.7,1176.6,592.6,1174.4,590.6L1174.4,590.6z"/>
	<path class="st0" d="M1151.8,557.7c-0.6-0.5-1-1-1.2-1.3c-2.4-4,1.8-6,6.9-4.8c6.4,1.6,9.3,7,4.6,8.6
		C1159.2,561.2,1154.6,560.1,1151.8,557.7L1151.8,557.7z"/>
	<path class="st0" d="M1128.4,525.7c-0.7-0.6-1.1-1.1-1.4-1.5c-3-4.5,2.6-6.4,7.9-5.2c7.4,1.7,10.7,7.5,5.3,9.3
		C1136.8,529.4,1131.5,528.3,1128.4,525.7L1128.4,525.7z"/>
	<path class="st0" d="M1104.3,494.8c-0.8-0.6-1.3-1.1-1.6-1.6c-3.3-4.7,2.8-7.1,9.6-5.4c7.7,2,10.8,7.7,5.1,9.6
		C1113.7,498.6,1107.8,497.4,1104.3,494.8L1104.3,494.8z"/>
	<path class="st0" d="M1079.4,464.9c-0.9-0.6-1.4-1.2-1.8-1.6c-3.9-5.3,3.8-7.5,10.8-5.9c8.7,2,12.1,8.1,5.7,10.1
		C1089.9,468.9,1083.3,467.7,1079.4,464.9L1079.4,464.9z"/>
	<path class="st0" d="M1053.9,436.3c-1-0.6-1.5-1.2-2-1.7c-4.4-5.5,4.2-8,11.9-6.3c9.6,2,13.4,8.4,6.4,10.6
		C1065.6,440.4,1058.3,439.2,1053.9,436.3L1053.9,436.3z"/>
	<path class="st0" d="M1028.2,408.9c-1.1-0.6-1.7-1.2-2.2-1.7c-4.4-5.2,3.7-8.4,12.8-6.7c9.8,1.9,14.2,7.9,7.8,10.5
		C1041.8,413,1033.2,412,1028.2,408.9L1028.2,408.9z"/>
	<path class="st0" d="M1001.9,382.9c-1.1-0.6-1.8-1.2-2.3-1.7c-5.1-5.7,5-8.5,14-7c10.7,1.8,15.5,7.9,8.5,10.7
		C1016.9,387,1007.5,386.1,1001.9,382.9L1001.9,382.9z"/>
	<path class="st0" d="M975.4,358.4c-1.2-0.6-2-1.3-2.5-1.7c-5.5-5.7,5.4-8.8,15.1-7.4c11.6,1.7,16.8,7.9,9.1,10.9
		C991.5,362.3,981.4,361.5,975.4,358.4L975.4,358.4z"/>
	<path class="st0" d="M948.9,335.3c-1.3-0.6-2.1-1.2-2.7-1.7c-5.8-5.6,5.8-8.9,16.1-7.6c11.5,1.4,17.3,7.1,10.6,10.4
		C967.3,339.1,955.7,338.6,948.9,335.3L948.9,335.3z"/>
	<path class="st0" d="M922.2,314c-1.4-0.6-2.2-1.2-2.9-1.6c-6.2-5.6,6.2-9,17.2-7.9c12.5,1.2,18.6,6.8,11.3,10.2
		C941.8,317.4,929.4,317.1,922.2,314L922.2,314z"/>
	<path class="st0" d="M895.5,294.4c-1.5-0.6-2.3-1.1-3-1.6c-6.6-5.4,6.7-9,18.4-8.2c12.4,0.9,19.1,5.9,12.8,9.5
		C917.9,297.4,903.6,297.6,895.5,294.4L895.5,294.4z"/>
	<path class="st0" d="M869,276.5c-1.5-0.5-2.4-1.1-3.2-1.5c-6.8-5.1,7.2-8.9,19.4-8.3c13.1,0.6,20.1,5.3,13.4,8.9
		C892.4,279,877.5,279.4,869,276.5L869,276.5z"/>
	<path class="st0" d="M842.6,260.6c-1.6-0.5-2.5-1-3.3-1.3c-6.8-4.6,6.5-8.4,18.7-8.5c13.8-0.1,22.5,4,16.7,7.9
		C868.9,262.3,852.1,263.4,842.6,260.6L842.6,260.6z"/>
	<path class="st0" d="M816.5,246.6c-1.7-0.4-2.6-0.8-3.4-1.2c-7-4.2,6.9-8.2,19.7-8.6c13.6-0.4,22.7,2.9,18.1,6.5
		C845.8,247.4,827.1,249.2,816.5,246.6L816.5,246.6z"/>
	<path class="st0" d="M790.8,234.7c-1.8-0.3-2.8-0.7-3.6-1c-7.1-3.6,6.6-7.5,18.7-8.5c15.1-1.2,26,1.6,20.8,5.5
		C821.3,234.6,801.8,236.8,790.8,234.7L790.8,234.7z"/>
	<path class="st0" d="M765.6,224.9c-1.8-0.3-2.8-0.5-3.6-0.8c-6.7-2.8,5.1-6.3,15.1-7.8c16.4-2.4,30.7-0.7,26.3,3.2
		C799,223.4,777.5,226.5,765.6,224.9L765.6,224.9z"/>
	<path class="st0" d="M741.3,217.2c-1.8-0.1-2.8-0.4-3.6-0.5c-5.6-1.9,3.1-4.7,9.2-6.1c16.4-3.8,36.2-3.8,33,0
		C776.9,214.2,753.9,218.2,741.3,217.2L741.3,217.2z"/>
	<path class="st0" d="M718.6,211.6c-1.7,0-2.6-0.1-3.4-0.3c-3-0.7-2.1-1.8,2.6-3.4c13.2-4.5,39.2-7,37.6-3.6
		C754.1,207.3,731.4,211.8,718.6,211.6L718.6,211.6z"/>
	<path class="st0" d="M696.6,208.3c-1.6,0.1-2.4,0.1-3.1,0c-0.9-0.1-2.9-0.3-0.1-1.6c8.3-3.8,38-8.6,38.3-6.2
		C731.8,202.8,708.3,207.7,696.6,208.3L696.6,208.3z"/>
	<path class="st0" d="M675.3,207.6c-1,0.1-1.9,0.2-2.9,0.3c-0.8,0-1,0-1.4-0.1c0.1-1.4,18.4-5.5,18.6-5.5c9.5-2.1,17.7-3.3,18.6-2.7
		C710,200.7,687,206.1,675.3,207.6L675.3,207.6z"/>
	<path class="st0" d="M654.7,209.4c-0.9,0.2-1.8,0.4-2.7,0.5c-0.4,0.1-0.8,0.1-1.2,0.2c1.8-1.3,32.2-8.9,35-8.8c0,0,0,0.1,0,0.1
		C683,202.9,663.5,207.6,654.7,209.4L654.7,209.4z"/>
	<path class="st0" d="M663.8,205.9c-6.8,1.9-13.6,3.7-20.3,5.6L663.8,205.9L663.8,205.9z"/>
	<polygon class="st0" points="1332.9,839.2 1333.6,839.8 1333.2,840.4 1332.5,839.8 1332.9,839.2 	"/>
	<path class="st0" d="M1321.2,802.6c-0.1-0.1-0.1-0.2-0.2-0.4c-0.3-1,0.6-1.3,1.3-1c1.1,0.5,1.3,2,0.3,2.2
		C1322.1,803.4,1321.5,803.1,1321.2,802.6L1321.2,802.6z"/>
	<path class="st0" d="M1307.9,765.6c-0.1-0.2-0.2-0.3-0.3-0.5c-0.5-1.5,0.8-2.1,2.1-1.6c1.8,0.8,2.2,3.1,0.5,3.3
		C1309.4,766.8,1308.4,766.3,1307.9,765.6L1307.9,765.6z"/>
	<path class="st0" d="M1293,728.9c-0.2-0.2-0.3-0.5-0.4-0.7c-0.7-2.1,1.2-2.7,2.8-2.1c2.8,1.1,2.9,4.2,0.9,4.4
		C1295.2,730.7,1293.8,730,1293,728.9L1293,728.9z"/>
	<path class="st0" d="M1276.6,692.8c-0.2-0.3-0.4-0.6-0.5-0.8c-1-2.5,1.4-3.3,3.5-2.5c3.1,1.2,4.1,4.6,1.5,5.2
		C1279.7,694.9,1277.7,694.2,1276.6,692.8L1276.6,692.8z"/>
	<path class="st0" d="M1258.8,657.3c-0.3-0.3-0.5-0.6-0.7-1c-1.4-3,1.7-4,4.4-3.1c3.9,1.4,5.3,5.5,2,6.3
		C1262.7,659.8,1260.2,658.9,1258.8,657.3L1258.8,657.3z"/>
	<path class="st0" d="M1239.6,622.4c-0.3-0.4-0.6-0.8-0.9-1.1c-1.7-3.5,2-4.7,5.3-3.6c4.9,1.6,6.6,6.4,2.6,7.2
		C1244.4,625.3,1241.4,624.3,1239.6,622.4L1239.6,622.4z"/>
	<path class="st0" d="M1219.4,588.2c-0.4-0.4-0.7-0.8-1-1.3c-2-3.8,2.2-5.2,6-4c5.6,1.7,7.7,7,3.2,8
		C1225,591.5,1221.5,590.3,1219.4,588.2L1219.4,588.2z"/>
	<path class="st0" d="M1198,555c-0.6-0.5-0.9-1-1.2-1.4c-2.3-4,1.9-6,6.9-4.6c6.3,1.8,9,7.2,4.3,8.6
		C1205.2,558.6,1200.7,557.4,1198,555L1198,555z"/>
	<path class="st0" d="M1175.7,522.6c-0.7-0.6-1.1-1.1-1.4-1.5c-2.8-4.6,2.7-6.3,7.9-5c7.2,1.8,10.4,7.7,5,9.3
		C1183.9,526.5,1178.7,525.2,1175.7,522.6L1175.7,522.6z"/>
	<path class="st0" d="M1152.5,491.2c-0.8-0.6-1.2-1.2-1.6-1.6c-3.2-4.8,3-6.7,8.8-5.4c7.9,1.8,11.5,8.1,5.7,9.9
		C1161.7,495.3,1156,494,1152.5,491.2L1152.5,491.2z"/>
	<path class="st0" d="M1128.6,461c-0.8-0.6-1.3-1.2-1.7-1.6c-3.6-5.1,3.3-7.2,9.7-5.8c9.1,1.9,13.1,8.4,6.4,10.4
		C1138.9,465.2,1132.4,463.9,1128.6,461L1128.6,461z"/>
	<path class="st0" d="M1104,432c-0.9-0.7-1.5-1.2-1.9-1.7c-4-5.3,3.6-7.6,10.7-6.3c9.5,1.8,14.3,8.2,8,10.7
		C1116.4,436.4,1108.5,435.1,1104,432L1104,432z"/>
	<path class="st0" d="M1078.9,404.1c-1-0.7-1.6-1.3-2.1-1.7c-4.4-5.4,3.9-7.8,11.6-6.5c10.3,1.8,15.5,8.2,8.7,10.9
		C1092.4,408.5,1083.9,407.3,1078.9,404.1L1078.9,404.1z"/>
	<path class="st0" d="M1053.4,377.7c-1.1-0.7-1.8-1.3-2.3-1.8c-4.8-5.5,4.2-8.1,12.7-6.9c11.2,1.7,16.9,8.3,9.5,11.1
		C1068.1,382.1,1058.8,380.9,1053.4,377.7L1053.4,377.7z"/>
	<path class="st0" d="M1027.4,352.7c-1.2-0.7-1.9-1.3-2.5-1.8c-5.4-5.8,5.5-8.6,15.1-7c11.5,1.9,16.5,8.2,8.9,11
		C1043.4,357,1033.3,356,1027.4,352.7L1027.4,352.7z"/>
	<path class="st0" d="M1001.3,329.2c-1.3-0.7-2.1-1.3-2.7-1.7c-5.8-5.8,5.9-8.7,16.2-7.2c11.3,1.6,17.1,7.5,10.4,10.5
		C1019.7,333.4,1008,332.6,1001.3,329.2L1001.3,329.2z"/>
	<path class="st0" d="M975,307.4c-1.4-0.6-2.2-1.2-2.8-1.7c-5.9-5.5,5.3-8.6,15.7-7.7c12.2,1.1,19.7,6.6,13.6,10.1
		C995.9,311.3,982.6,310.9,975,307.4L975,307.4z"/>
	<path class="st0" d="M948.6,287.2c-1.5-0.6-2.3-1.2-3-1.6c-6.2-5.3,5.7-8.6,16.8-7.9c13.3,0.8,21.1,6.2,14.4,9.8
		C970.9,290.7,956.7,290.6,948.6,287.2L948.6,287.2z"/>
	<path class="st0" d="M922.4,268.8c-1.6-0.6-2.4-1.1-3.2-1.5c-6.5-5,6.1-8.4,17.7-7.9c13.7,0.5,22,5.7,15,9.3
		C945.7,271.8,930.8,271.9,922.4,268.8L922.4,268.8z"/>
	<path class="st0" d="M896.1,252.3c-1.6-0.5-2.5-1-3.3-1.4c-6.8-4.7,6.5-8.3,18.7-8.1c13.8,0.2,22.5,4.5,16.7,8.2
		C922.4,254.7,905.6,255.4,896.1,252.3L896.1,252.3z"/>
	<path class="st0" d="M870,237.8c-1.7-0.5-2.6-0.9-3.4-1.3c-6.9-4.3,6.1-7.7,17.7-8.1c14.5-0.5,25.1,3.1,20.1,6.9
		C899.3,239.3,880.6,240.7,870,237.8L870,237.8z"/>
	<path class="st0" d="M844.3,225.3c-1.8-0.4-2.8-0.8-3.6-1.1c-6.6-3.5,5.2-7,16.6-7.9c15-1.2,27.4,1.6,23.6,5.3
		C876.7,225.7,855.9,227.8,844.3,225.3L844.3,225.3z"/>
	<path class="st0" d="M818.9,215c-1.8-0.3-2.8-0.6-3.7-0.9c-6.4-2.9,4.7-6.2,15.2-7.5c16.4-2,30.7,0.1,26.4,3.9
		C852.5,214.3,830.9,216.9,818.9,215L818.9,215z"/>
	<path class="st0" d="M794.4,206.7c-1.8-0.2-2.8-0.4-3.6-0.6c-5.7-2,3-4.7,9.2-5.9c16.4-3.4,36.3-2.9,33.3,0.9
		C830.2,204.6,807,208,794.4,206.7L794.4,206.7z"/>
	<path class="st0" d="M771.4,200.4c-1.7-0.1-2.6-0.2-3.4-0.3c-3-0.7-2.1-1.9,2.6-3.4c13.2-4.2,39.5-6,37.9-2.7
		C807.1,197,784.3,201,771.4,200.4L771.4,200.4z"/>
	<path class="st0" d="M748.9,196.6c-1.6,0-2.4,0-3.2-0.1c-1-0.1-3-0.4-0.3-1.6c9-3.9,40.4-8,38.6-5
		C782.7,192.3,760.1,196.3,748.9,196.6L748.9,196.6z"/>
	<path class="st0" d="M727.1,195.2c-1,0.1-2,0.2-3,0.2c-1.2,0-1.3,0-1.5-0.2c0.6-1,10.9-3.5,20.5-5.3c9.5-1.8,17.1-2.5,17.2-1.7
		C760.5,189.6,738.4,194.1,727.1,195.2L727.1,195.2z"/>
	<path class="st0" d="M705.9,196.4c-0.9,0.2-1.8,0.3-2.8,0.4c-0.4,0.1-0.8,0.1-1.3,0.1c0,0,0-0.1,0-0.1c3.5-1.5,32.1-8.1,35.4-7.8
		c0,0,0,0.1,0,0.2C734.6,190.6,714.8,194.8,705.9,196.4L705.9,196.4z"/>
	<path class="st0" d="M685.9,200l27.9-7c0.3-0.1,0.7-0.2,1.1-0.2c-0.8,0.3-6.8,1.8-15.1,3.8C695.2,197.7,690.5,198.9,685.9,200
		L685.9,200z"/>
	<polygon class="st0" points="1366.3,840.2 1367,840.9 1366.6,841.5 1365.9,840.8 1366.3,840.2 	"/>
	<path class="st0" d="M1356.3,803.3c-0.1-0.1-0.1-0.2-0.1-0.4c-0.2-1,0.6-1.3,1.2-1c1.1,0.5,1.3,2.1,0.3,2.2
		C1357.2,804.2,1356.6,803.9,1356.3,803.3L1356.3,803.3z"/>
	<path class="st0" d="M1344.8,766c-0.1-0.2-0.2-0.3-0.2-0.5c-0.4-1.6,0.8-2,1.9-1.6c1.8,0.7,2.3,3,0.7,3.3
		C1346.4,767.4,1345.3,766.9,1344.8,766L1344.8,766z"/>
	<path class="st0" d="M1331.5,729.1c-0.2-0.2-0.3-0.5-0.4-0.7c-0.6-1.9,1.1-2.8,2.9-2c2.4,1.1,2.9,4.2,0.7,4.4
		C1333.6,730.9,1332.3,730.2,1331.5,729.1L1331.5,729.1z"/>
	<path class="st0" d="M1316.7,692.6c-0.2-0.3-0.4-0.6-0.5-0.8c-0.9-2.5,1.5-3.3,3.5-2.4c3,1.3,3.9,4.7,1.3,5.2
		C1319.7,694.9,1317.8,694,1316.7,692.6L1316.7,692.6z"/>
	<path class="st0" d="M1300.4,656.8c-0.3-0.3-0.5-0.6-0.6-1c-1.2-3.1,1.7-4,4.3-3c3.8,1.5,5,5.6,1.8,6.3
		C1304.2,659.4,1301.7,658.4,1300.4,656.8L1300.4,656.8z"/>
	<path class="st0" d="M1282.6,621.5c-0.3-0.4-0.6-0.8-0.8-1.2c-1.6-3.5,2-4.6,5.2-3.4c4.7,1.7,6.3,6.5,2.4,7.2
		C1287.3,624.6,1284.3,623.4,1282.6,621.5L1282.6,621.5z"/>
	<path class="st0" d="M1263.6,587c-0.4-0.4-0.7-0.8-1-1.3c-1.8-3.6,1.9-5.2,6-3.8c5.5,1.8,7.4,7.1,2.9,8
		C1269.2,590.4,1265.7,589.1,1263.6,587L1263.6,587z"/>
	<path class="st0" d="M1243.5,553.4c-0.5-0.5-0.9-1-1.1-1.4c-2.3-4.3,2.5-5.7,7-4.4c6.1,1.9,8.7,7.4,4,8.7
		C1250.4,557.2,1246,555.9,1243.5,553.4L1243.5,553.4z"/>
	<path class="st0" d="M1222.3,520.7c-0.6-0.6-1-1.1-1.3-1.5c-2.7-4.6,2.9-6.2,7.9-4.8c7.1,2,10.1,7.9,4.7,9.4
		C1230.3,524.7,1225.2,523.3,1222.3,520.7L1222.3,520.7z"/>
	<path class="st0" d="M1200.2,488.9c-0.7-0.6-1.2-1.2-1.5-1.6c-3-4.9,3.1-6.6,8.7-5.1c7.9,2.1,11.3,8.3,5.4,9.9
		C1209.2,493.2,1203.5,491.7,1200.2,488.9L1200.2,488.9z"/>
	<path class="st0" d="M1177.2,458.3c-0.8-0.6-1.3-1.2-1.7-1.7c-3.5-5.2,3.4-7.1,9.7-5.6c8.9,2.1,12.7,8.7,6.2,10.5
		C1187.3,462.7,1181,461.2,1177.2,458.3L1177.2,458.3z"/>
	<path class="st0" d="M1153.5,428.8c-0.9-0.7-1.4-1.3-1.9-1.7c-3.9-5.4,3.7-7.5,10.7-6c9.3,2,13.9,8.5,7.7,10.8
		C1165.7,433.5,1158,432.1,1153.5,428.8L1153.5,428.8z"/>
	<path class="st0" d="M1129.2,400.6c-1-0.7-1.6-1.3-2.1-1.8c-4-5.2,3.2-7.9,11.7-6.2c10.1,2,15.1,8.6,8.4,11
		C1142.5,405.3,1134.1,403.9,1129.2,400.6L1129.2,400.6z"/>
	<path class="st0" d="M1104.4,373.7c-1.1-0.7-1.7-1.3-2.2-1.8c-4.7-5.6,4.3-8,12.7-6.6c11.1,1.9,16.6,8.6,9.2,11.3
		C1118.9,378.4,1109.7,377.1,1104.4,373.7L1104.4,373.7z"/>
	<path class="st0" d="M1079.1,348.3c-1.2-0.7-1.9-1.3-2.5-1.8c-5.1-5.7,4.7-8.2,13.7-6.8c11.4,1.7,17.6,8,10.9,11
		C1096,353,1085.2,351.9,1079.1,348.3L1079.1,348.3z"/>
	<path class="st0" d="M1053.5,324.3c-1.3-0.7-2-1.3-2.6-1.8c-5.4-5.6,5-8.3,14.7-7c12.1,1.6,18.8,7.8,11.6,10.9
		C1071.7,328.9,1060.2,327.8,1053.5,324.3L1053.5,324.3z"/>
	<path class="st0" d="M1027.7,302c-1.3-0.7-2.1-1.3-2.8-1.8c-5.8-5.6,5.3-8.4,15.7-7.3c13,1.4,20.2,7.6,12.5,10.8
		C1047.1,306.3,1034.7,305.4,1027.7,302L1027.7,302z"/>
	<path class="st0" d="M1001.6,281.3c-1.4-0.6-2.3-1.2-3-1.7c-6.2-5.4,5.7-8.4,16.7-7.4c13.2,1.2,20.9,6.6,14.2,10.1
		C1023.8,285.4,1009.7,284.9,1001.6,281.3L1001.6,281.3z"/>
	<path class="st0" d="M975.6,262.4c-1.5-0.6-2.4-1.2-3.1-1.6c-6.5-5.2,6-8.2,17.6-7.5c13.6,0.9,21.9,6.2,14.9,9.6
		C998.9,266,984.1,265.7,975.6,262.4L975.6,262.4z"/>
	<path class="st0" d="M949.6,245.4c-1.6-0.5-2.5-1.1-3.3-1.5c-6.6-4.8,5.7-7.8,16.8-7.6c14.4,0.2,24.5,4.9,18.4,8.6
		C975.8,248.4,959.1,248.7,949.6,245.4L949.6,245.4z"/>
	<path class="st0" d="M923.5,230.3c-1.7-0.5-2.6-0.9-3.4-1.3c-6.9-4.4,6.2-7.5,17.8-7.6c14.5-0.2,25,3.7,20.1,7.3
		C952.8,232.5,934.1,233.4,923.5,230.3L923.5,230.3z"/>
	<path class="st0" d="M897.7,217.3c-1.8-0.4-2.8-0.8-3.6-1.2c-6.6-3.7,5.2-6.8,16.7-7.5c16.1-0.9,28.6,2.5,23,6.3
		C928.4,218.7,908.8,219.9,897.7,217.3L897.7,217.3z"/>
	<path class="st0" d="M872.4,206.3c-1.8-0.3-2.8-0.7-3.7-1c-6.2-2.9,3.9-5.8,13-6.9c16.8-2,33.2,0.4,28.6,4.3
		C906,206.5,884.3,208.5,872.4,206.3L872.4,206.3z"/>
	<path class="st0" d="M847.6,197.4c-1.8-0.2-2.8-0.5-3.7-0.7c-5.8-2.1,3.1-4.6,9.2-5.7c16.5-3,36.5-2,33.4,1.7
		C883.5,196.3,860.6,199.1,847.6,197.4L847.6,197.4z"/>
	<path class="st0" d="M824.3,190.6c-1.7-0.1-2.6-0.3-3.5-0.4c-3.8-1-0.7-2.4,2.6-3.4c13.3-3.9,39.7-5.1,38.2-1.7
		C860.3,188.1,837.3,191.4,824.3,190.6L824.3,190.6z"/>
	<path class="st0" d="M801.6,186.1c-1.6,0-2.4-0.1-3.2-0.1c-1-0.2-3.1-0.5-0.3-1.7c8.9-3.7,40.5-7,38.8-4
		C835.5,182.7,812.9,186.1,801.6,186.1L801.6,186.1z"/>
	<path class="st0" d="M779.3,184.1c-1,0.1-2,0.1-3,0.1c-1.2-0.1-1.4-0.1-1.6-0.3c0.5-1,10.9-3.3,20.6-4.8c9.4-1.5,17.2-2.1,17.4-1.2
		C813,179.4,790.8,183.3,779.3,184.1L779.3,184.1z"/>
	<path class="st0" d="M757.5,184.6c-0.9,0.1-1.9,0.2-2.9,0.4c-0.4,0-0.9,0.1-1.3,0.1c0,0,0-0.1,0-0.1c3.1-1.4,32.4-7.2,35.8-6.8
		c0,0,0,0.1,0,0.2C786.6,179.6,766.3,183.3,757.5,184.6L757.5,184.6z"/>
	<path class="st0" d="M736.5,187.6c-0.9,0.2-1.7,0.4-2.6,0.6c-0.3,0.1-0.7,0.1-0.9,0.2l7.1-1.7l21.1-4.7c1.7-0.4,3.3-0.8,5-1
		c-0.2,0.1-0.5,0.2-5.9,1.4C752.4,184.2,744.4,185.9,736.5,187.6L736.5,187.6z"/>
	<polygon class="st0" points="1398.6,842.4 1399.2,843 1398.8,843.6 1398.2,843 1398.6,842.4 	"/>
	<path class="st0" d="M1390.5,805.2c-0.1-0.1-0.1-0.2-0.1-0.4c-0.2-0.9,0.5-1.3,1.2-1c1,0.5,1.2,2.2,0.2,2.2
		C1391.3,806.1,1390.7,805.7,1390.5,805.2L1390.5,805.2z"/>
	<path class="st0" d="M1380.7,767.6c-0.1-0.2-0.2-0.4-0.2-0.5c-0.3-1.6,0.9-2,1.9-1.5c1.7,0.8,2.1,3.1,0.6,3.4
		C1382,769,1381.1,768.3,1380.7,767.6L1380.7,767.6z"/>
	<path class="st0" d="M1369.1,730.3c-0.1-0.2-0.2-0.5-0.3-0.7c-0.5-1.9,1-2.7,2.6-2c2.5,1,3.1,4.1,1,4.5
		C1371.2,732.3,1369.8,731.5,1369.1,730.3L1369.1,730.3z"/>
	<path class="st0" d="M1355.9,693.6c-0.2-0.3-0.3-0.6-0.5-0.9c-0.7-2.4,1.4-3.3,3.5-2.3c2.9,1.4,3.7,4.8,1.1,5.2
		C1358.6,695.9,1356.8,695,1355.9,693.6L1355.9,693.6z"/>
	<path class="st0" d="M1341,657.4c-0.2-0.3-0.4-0.7-0.6-1c-1.1-3.1,1.8-3.9,4.4-2.8c3.7,1.6,4.7,5.8,1.6,6.3
		C1344.6,660.2,1342.3,659.1,1341,657.4L1341,657.4z"/>
	<path class="st0" d="M1324.7,621.9c-0.3-0.4-0.5-0.8-0.8-1.2c-1.4-3.5,2.1-4.5,5.2-3.3c4.6,1.8,6,6.6,2.1,7.3
		C1329.1,625,1326.3,623.8,1324.7,621.9L1324.7,621.9z"/>
	<path class="st0" d="M1307.1,587c-0.4-0.4-0.6-0.9-0.9-1.3c-1.8-3.9,2.4-5,6-3.7c5.3,2,7.1,7.3,2.6,8
		C1312.3,590.5,1309,589.2,1307.1,587L1307.1,587z"/>
	<path class="st0" d="M1288.2,553c-0.5-0.6-0.8-1.1-1.1-1.4c-2-4.1,2.2-5.8,6.9-4.1c6,2.1,8.3,7.6,3.7,8.8
		C1294.9,557,1290.6,555.5,1288.2,553L1288.2,553z"/>
	<path class="st0" d="M1268.2,519.9c-0.6-0.6-1-1.1-1.3-1.5c-2.5-4.7,3-6.1,7.9-4.5c7,2.2,9.7,8.1,4.4,9.5
		C1276,524.2,1271,522.6,1268.2,519.9L1268.2,519.9z"/>
	<path class="st0" d="M1247.3,487.8c-0.7-0.6-1.1-1.2-1.4-1.6c-2.9-4.9,3.2-6.4,8.7-4.9c7.8,2.3,11,8.5,5.1,10
		C1256,492.2,1250.5,490.7,1247.3,487.8L1247.3,487.8z"/>
	<path class="st0" d="M1225.2,456.8c-0.8-0.7-1.2-1.2-1.6-1.7c-3.3-5.2,3.5-6.9,9.7-5.3c8.8,2.3,12.4,9,5.8,10.6
		C1235.1,461.4,1228.9,459.8,1225.2,456.8L1225.2,456.8z"/>
	<path class="st0" d="M1202.5,426.9c-0.9-0.7-1.4-1.3-1.8-1.8c-3.7-5.5,3.8-7.3,10.7-5.7c9.2,2.2,13.6,8.8,7.4,10.9
		C1214.4,431.9,1206.8,430.3,1202.5,426.9L1202.5,426.9z"/>
	<path class="st0" d="M1179.1,398.3c-1-0.7-1.6-1.3-2-1.8c-3.8-5.2,3.3-7.7,11.6-5.9c10,2.2,14.8,8.9,8.1,11.1
		C1192.1,403.2,1183.8,401.6,1179.1,398.3L1179.1,398.3z"/>
	<path class="st0" d="M1155,371c-1.1-0.7-1.7-1.3-2.2-1.8c-4.5-5.7,4.4-7.8,12.6-6.2c10.9,2.2,16.3,9,8.9,11.4
		C1169.3,376,1160.2,374.4,1155,371L1155,371z"/>
	<path class="st0" d="M1130.4,345.1c-1.2-0.7-1.8-1.4-2.4-1.9c-4.9-5.8,4.8-8.1,13.7-6.5c11.3,2,17.3,8.4,10.6,11.2
		C1147,350.2,1136.4,348.8,1130.4,345.1L1130.4,345.1z"/>
	<path class="st0" d="M1105.4,320.7c-1.3-0.7-2-1.3-2.6-1.8c-5.3-5.7,5.1-8.1,14.6-6.6c12.1,1.8,18.6,8.2,11.4,11.2
		C1123.3,325.6,1111.9,324.3,1105.4,320.7L1105.4,320.7z"/>
	<path class="st0" d="M1080.1,297.9c-1.3-0.7-2.1-1.3-2.7-1.8c-5.7-5.7,5.4-8.2,15.6-6.9c13,1.7,20,8,12.2,11
		C1099.2,302.6,1087,301.4,1080.1,297.9L1080.1,297.9z"/>
	<path class="st0" d="M1054.4,276.7c-1.4-0.7-2.3-1.3-2.9-1.8c-6.1-5.5,5.7-8.2,16.7-7c13.2,1.4,20.8,7.1,14,10.4
		C1076.4,281.2,1062.4,280.4,1054.4,276.7L1054.4,276.7z"/>
	<path class="st0" d="M1028.7,257.3c-1.5-0.6-2.4-1.2-3.1-1.7c-5.7-4.8,4-7.8,15.9-7.2c13.6,0.8,23.2,6.1,17.4,9.6
		C1053.4,261.4,1037.6,261,1028.7,257.3L1028.7,257.3z"/>
	<path class="st0" d="M1002.9,239.8c-1.6-0.6-2.5-1.1-3.2-1.6c-6-4.5,4.3-7.6,16.8-7.2c14.4,0.5,24.5,5.5,18.3,9
		C1029,243.3,1012.3,243.2,1002.9,239.8L1002.9,239.8z"/>
	<path class="st0" d="M977.1,224.2c-1.7-0.5-2.6-1-3.4-1.4c-6.4-4.2,4.9-7.1,15.8-7.2c15.1-0.2,27.2,4.1,22,7.8
		C1006.2,227,987.6,227.5,977.1,224.2L977.1,224.2z"/>
	<path class="st0" d="M951.3,210.5c-1.7-0.5-2.8-0.9-3.6-1.3c-6.3-3.6,4.4-6.4,14.5-7c16.6-1,30.9,2.9,25.1,6.8
		C981.9,212.6,962.4,213.4,951.3,210.5L951.3,210.5z"/>
	<path class="st0" d="M925.9,199c-1.8-0.4-2.8-0.7-3.7-1.1c-6.6-3.2,4.4-5.7,12.9-6.5c16.9-1.7,33.3,1.2,28.8,4.9
		C959.5,199.9,937.9,201.5,925.9,199L925.9,199z"/>
	<path class="st0" d="M901,189.5c-1.8-0.3-2.9-0.6-3.7-0.8c-6.4-2.5,4.9-4.7,7.2-5.2c16.5-3,38.7-1.6,35.5,2.2
		C937.1,189.1,913.8,191.4,901,189.5L901,189.5z"/>
	<path class="st0" d="M877.5,182c-1.7-0.2-2.7-0.4-3.5-0.5c-3.9-1.1-0.8-2.4,2.5-3.3c13.3-3.6,39.8-4.1,38.4-0.7
		C913.6,180.4,890.6,183.2,877.5,182L877.5,182z"/>
	<path class="st0" d="M854.4,176.9c-1.6,0-2.5-0.1-3.3-0.2c-1-0.2-3.2-0.6-0.4-1.7c9-3.6,40.8-6,39.2-3
		C888.6,174.4,865.8,177.2,854.4,176.9L854.4,176.9z"/>
	<path class="st0" d="M831.7,174.2c-1,0-2.1,0-3.1,0c-1.2-0.1-1.4-0.1-1.6-0.4c0.5-1.1,11-3.1,20.7-4.3c8.3-1.1,17.4-1.7,17.6-0.7
		C865.7,170.4,843.3,173.8,831.7,174.2L831.7,174.2z"/>
	<path class="st0" d="M809.5,174c-1,0.1-1.9,0.2-2.9,0.3c-0.5,0-0.9,0-1.4,0c0-0.1,0-0.1,0-0.1c3-1.4,32.5-6.5,36.1-5.9
		c0,0.1,0,0.1,0.1,0.2C838.8,169.9,818.5,173.1,809.5,174L809.5,174z"/>
	<path class="st0" d="M788,176.4c-0.9,0.2-1.8,0.3-2.6,0.5c-0.4,0.1-0.8,0.2-1.3,0.2c0.1,0,0.1,0,0.1,0l24-4.8
		c5.3-1,8.6-1.6,9.7-1.7C817,171,803.5,173.5,788,176.4L788,176.4z"/>
	<polygon class="st0" points="1429.8,845.6 1430.4,846.3 1429.9,846.8 1429.3,846.1 1429.8,845.6 	"/>
	<path class="st0" d="M1423.5,808.1c-0.1-0.1-0.1-0.2-0.1-0.4c-0.1-0.9,0.6-1.3,1.2-0.9c1,0.5,1.1,2.2,0.1,2.2
		C1424.2,809,1423.7,808.7,1423.5,808.1L1423.5,808.1z"/>
	<path class="st0" d="M1415.5,770.2c-0.1-0.2-0.1-0.4-0.2-0.5c-0.3-1.6,0.9-1.9,1.9-1.5c1.6,0.8,1.9,3.2,0.4,3.4
		C1416.9,771.7,1415.9,771.1,1415.5,770.2L1415.5,770.2z"/>
	<path class="st0" d="M1405.6,732.7c-0.1-0.2-0.2-0.5-0.3-0.7c-0.5-2,1.2-2.6,2.6-1.9c2.5,1.2,2.7,4.2,0.8,4.5
		C1407.6,734.7,1406.3,733.9,1405.6,732.7L1405.6,732.7z"/>
	<path class="st0" d="M1394,695.6c-0.2-0.3-0.3-0.6-0.4-0.9c-0.6-2.3,1.3-3.2,3.2-2.3c3,1.3,3.9,5,1.2,5.4
		C1396.7,698,1394.9,697,1394,695.6L1394,695.6z"/>
	<path class="st0" d="M1380.8,659.1c-0.2-0.3-0.4-0.7-0.5-1c-1-3,1.7-3.7,4-2.9c3.8,1.5,5,6,1.7,6.5
		C1384.2,662,1382,660.8,1380.8,659.1L1380.8,659.1z"/>
	<path class="st0" d="M1365.9,623.3c-0.3-0.4-0.5-0.8-0.7-1.2c-1.2-3.2,1.6-4.5,4.8-3.3c4.5,1.6,6.2,6.5,2.7,7.4
		C1370.6,626.7,1367.5,625.4,1365.9,623.3L1365.9,623.3z"/>
	<path class="st0" d="M1349.8,588.1c-0.3-0.4-0.6-0.9-0.8-1.3c-1.5-3.5,1.8-4.9,5.4-3.7c5.2,1.7,7.4,7.2,3.3,8.2
		C1355.3,591.9,1351.7,590.5,1349.8,588.1L1349.8,588.1z"/>
	<path class="st0" d="M1332.2,553.8c-0.4-0.5-0.7-0.9-1-1.4c-1.8-3.9,2-5.5,6.2-4.2c6.1,1.9,8.8,7.9,4.1,9
		C1338.7,557.9,1334.5,556.4,1332.2,553.8L1332.2,553.8z"/>
	<path class="st0" d="M1313.4,520.4c-0.6-0.6-1-1.2-1.2-1.6c-2.4-4.7,3.1-6,7.8-4.3c6.8,2.3,9.3,8.3,4.1,9.5
		C1320.9,524.8,1316.1,523.1,1313.4,520.4L1313.4,520.4z"/>
	<path class="st0" d="M1293.6,487.9c-0.7-0.6-1.1-1.2-1.4-1.7c-2.7-5,3.3-6.4,8.7-4.6c7.4,2.4,10.4,8.8,4.8,10.1
		C1302.1,492.5,1296.6,490.8,1293.6,487.9L1293.6,487.9z"/>
	<path class="st0" d="M1272.7,456.5c-0.8-0.7-1.2-1.3-1.5-1.7c-3.2-5.3,3.6-6.8,9.7-5c8.6,2.5,12,9.2,5.5,10.7
		C1282.3,461.3,1276.2,459.5,1272.7,456.5L1272.7,456.5z"/>
	<path class="st0" d="M1250.9,426.2c-0.9-0.7-1.4-1.3-1.8-1.8c-3.6-5.5,3.9-7.2,10.7-5.4c9,2.4,13.2,9.1,7,11.1
		C1262.5,431.4,1255.1,429.6,1250.9,426.2L1250.9,426.2z"/>
	<path class="st0" d="M1228.4,397.1c-0.9-0.7-1.5-1.4-1.9-1.9c-3.9-5.7,4.2-7.4,11.6-5.6c9.8,2.4,14.5,9.2,7.8,11.3
		C1241.1,402.4,1233,400.6,1228.4,397.1L1228.4,397.1z"/>
	<path class="st0" d="M1205.1,369.4c-1-0.7-1.6-1.4-2.1-1.9c-4.4-5.8,4.5-7.7,12.6-5.9c10.8,2.4,15.9,9.3,8.6,11.6
		C1219.2,374.8,1210.2,373,1205.1,369.4L1205.1,369.4z"/>
	<path class="st0" d="M1181.2,343.1c-1.2-0.7-1.8-1.4-2.3-1.9c-4.8-5.9,4.8-7.9,13.7-6.1c11.1,2.2,17,8.8,10.3,11.4
		C1197.7,348.6,1187.1,346.9,1181.2,343.1L1181.2,343.1z"/>
	<path class="st0" d="M1156.9,318.2c-1.2-0.7-1.9-1.4-2.5-1.9c-5.2-5.8,5.2-7.9,14.6-6.3c11.9,2.1,18.2,8.6,11.1,11.4
		C1174.6,323.6,1163.3,322,1156.9,318.2L1156.9,318.2z"/>
	<path class="st0" d="M1132.1,295c-1.3-0.7-2.1-1.3-2.7-1.9c-4.9-5.1,3.6-7.9,14.1-6.7c12.8,1.5,21,7.9,14.4,11.1
		C1152.4,300.3,1139.4,299,1132.1,295L1132.1,295z"/>
	<path class="st0" d="M1106.9,273.4c-1.4-0.7-2.2-1.3-2.9-1.8c-5.4-5.1,3.8-7.9,15-6.8c13.7,1.4,22.6,7.6,15.5,10.9
		C1128.7,278.4,1114.8,277.2,1106.9,273.4L1106.9,273.4z"/>
	<path class="st0" d="M1081.6,253.5c-1.5-0.7-2.4-1.3-3.1-1.7c-5.9-5.1,5.4-7.6,15.9-6.8c13.8,1.1,23.1,6.5,17.1,10
		C1106.1,258.1,1090.4,257.3,1081.6,253.5L1081.6,253.5z"/>
	<path class="st0" d="M1056.1,235.4c-1.6-0.6-2.5-1.2-3.2-1.6c-6.5-5.1,5.8-7.4,16.8-6.8c14.6,0.8,24.4,5.9,18.2,9.4
		C1082,239.6,1065.4,239,1056.1,235.4L1056.1,235.4z"/>
	<path class="st0" d="M1030.5,219.2c-1.7-0.6-2.6-1.1-3.4-1.5c-6.3-4.4,4.9-6.9,15.7-6.8c15,0.2,27.1,4.7,21.9,8.3
		C1059.5,222.8,1040.9,222.8,1030.5,219.2L1030.5,219.2z"/>
	<path class="st0" d="M1004.9,205c-1.8-0.5-2.7-1-3.6-1.3c-6.3-3.8,4.4-6.3,14.5-6.6c16.6-0.6,30.8,3.6,25,7.4
		C1035.4,207.9,1015.9,208.2,1004.9,205L1004.9,205z"/>
	<path class="st0" d="M979.4,192.9c-1.8-0.4-2.8-0.8-3.7-1.1c-6.5-3.3,4.3-5.4,10.9-6.1c17.1-1.7,35.6,1.6,30.8,5.4
		C1013.1,194.7,991.4,195.7,979.4,192.9L979.4,192.9z"/>
	<path class="st0" d="M954.6,182.8c-1.8-0.3-2.8-0.6-3.7-0.9c-6.5-2.7,4.8-4.6,7.2-5c16.5-2.6,38.8-0.7,35.5,3.1
		C990.6,183.3,967.3,185,954.6,182.8L954.6,182.8z"/>
	<path class="st0" d="M930.9,174.8c-1.7-0.2-2.7-0.4-3.5-0.6c-3.9-1.2-0.8-2.5,2.4-3.3c13.3-3.3,39.9-3.1,38.5,0.2
		C967.1,174.1,944,176.3,930.9,174.8L930.9,174.8z"/>
	<path class="st0" d="M907.5,169.1c-1.6-0.1-2.6-0.2-3.3-0.3c-1-0.2-3.2-0.7-0.5-1.7c8.5-3.2,40.9-4.9,39.4-2
		C941.8,167.4,919,169.7,907.5,169.1L907.5,169.1z"/>
	<path class="st0" d="M884.5,165.7c-1.1,0-2.1,0-3.1-0.1c-1.2-0.1-1.4-0.2-1.7-0.4c0.8-2.1,36-6,38.5-4.3
		C920.4,162.5,896.8,165.6,884.5,165.7L884.5,165.7z"/>
	<path class="st0" d="M861.8,164.9c-1,0.1-2,0.1-2.9,0.2c-0.5,0-0.9,0-1.4,0c0,0,0-0.1-0.1-0.2c2.9-1.3,32.5-5.7,36.4-4.9
		c0,0.1,0,0.1,0.1,0.2C891.5,161.4,871.6,164.1,861.8,164.9L861.8,164.9z"/>
	<path class="st0" d="M839.7,166.5c-0.9,0.1-1.8,0.3-2.7,0.4c-0.4,0.1-0.9,0.1-1.3,0.2c0.9-0.3,1.9-0.4,2.8-0.6l14-2.5
		c12.9-2.2,16.4-2.6,17.3-2.7C868.9,162,846.6,165.5,839.7,166.5L839.7,166.5z"/>
	<polygon class="st0" points="1459.8,849.8 1460.3,850.5 1459.8,851 1459.3,850.3 1459.8,849.8 	"/>
	<path class="st0" d="M1455.3,812c0-0.1-0.1-0.3-0.1-0.4c-0.1-1,0.7-1.2,1.2-0.9c1,0.6,1,2.2,0,2.2
		C1456,813,1455.5,812.6,1455.3,812L1455.3,812z"/>
	<path class="st0" d="M1449.2,773.9c-0.1-0.2-0.1-0.3-0.2-0.5c-0.2-1.6,1-1.9,1.9-1.4c1.5,0.8,1.7,3.2,0.3,3.4
		C1450.5,775.4,1449.6,774.8,1449.2,773.9L1449.2,773.9z"/>
	<path class="st0" d="M1441.1,736.1c-0.1-0.2-0.2-0.5-0.3-0.7c-0.4-2,1.3-2.5,2.6-1.8c2.2,1.1,2.6,4.3,0.6,4.5
		C1443,738.2,1441.7,737.3,1441.1,736.1L1441.1,736.1z"/>
	<path class="st0" d="M1431.2,698.7c-0.2-0.3-0.3-0.6-0.4-0.9c-0.6-2.4,1.5-3,3.2-2.2c2.8,1.3,3.5,5.1,1,5.4
		C1433.7,701.2,1432,700.2,1431.2,698.7L1431.2,698.7z"/>
	<path class="st0" d="M1419.5,662c-0.2-0.3-0.4-0.7-0.5-1c-0.9-3.1,1.8-3.7,4-2.7c3.6,1.6,4.6,6.1,1.5,6.5
		C1422.8,664.9,1420.6,663.7,1419.5,662L1419.5,662z"/>
	<path class="st0" d="M1406.2,625.8c-0.3-0.4-0.5-0.8-0.6-1.2c-1.1-3.3,1.7-4.4,4.7-3.2c4.6,1.9,6,7.1,2,7.5
		C1410.3,629.2,1407.7,627.8,1406.2,625.8L1406.2,625.8z"/>
	<path class="st0" d="M1391.5,590.3c-0.3-0.4-0.6-0.9-0.8-1.3c-1.4-3.7,2.3-4.7,5.5-3.5c5.1,1.9,7.1,7.3,3,8.2
		C1396.8,594.3,1393.3,592.7,1391.5,590.3L1391.5,590.3z"/>
	<path class="st0" d="M1375.3,555.7c-0.4-0.5-0.7-1-1-1.5c-1.7-4.2,2.5-5.3,6.3-4c5.9,2.1,8.4,8.1,3.7,9.1
		C1381.5,560,1377.5,558.3,1375.3,555.7L1375.3,555.7z"/>
	<path class="st0" d="M1357.8,521.9c-0.6-0.6-0.9-1.2-1.1-1.6c-2.2-4.7,2.9-5.7,7.2-4.3c6.9,2.2,9.8,8.7,4.5,9.9
		C1365.1,526.5,1360.3,524.8,1357.8,521.9L1357.8,521.9z"/>
	<path class="st0" d="M1339.2,489.1c-0.7-0.7-1-1.2-1.3-1.7c-2.5-4.9,3.1-6,7.9-4.6c7.7,2.3,11.2,9.2,5.2,10.4
		C1347.4,493.9,1342.1,492.1,1339.2,489.1L1339.2,489.1z"/>
	<path class="st0" d="M1319.4,457.3c-0.7-0.7-1.2-1.3-1.5-1.8c-2.9-5.3,3.3-6.5,8.7-5c8.4,2.3,12.6,9.1,6.7,10.9
		C1329.5,462.6,1323,460.7,1319.4,457.3L1319.4,457.3z"/>
	<path class="st0" d="M1298.7,426.7c-0.8-0.7-1.3-1.3-1.7-1.8c-3.3-5.5,3.6-6.9,9.6-5.4c9.4,2.3,14.2,9.5,7.7,11.4
		C1310,432.2,1302.7,430.2,1298.7,426.7L1298.7,426.7z"/>
	<path class="st0" d="M1277.1,397.2c-0.9-0.7-1.5-1.4-1.9-1.9c-3.3-5,3-7.3,10.5-5.6c10.3,2.3,15.6,9.7,8.5,11.7
		C1289.6,402.8,1281.6,400.8,1277.1,397.2L1277.1,397.2z"/>
	<path class="st0" d="M1254.7,369.1c-1-0.8-1.6-1.4-2.1-1.9c-4-5.6,4-7.3,11.4-5.8c10.6,2.2,16.7,9.2,10.3,11.7
		C1269.5,375,1260,373,1254.7,369.1L1254.7,369.1z"/>
	<path class="st0" d="M1231.6,342.4c-1.1-0.8-1.8-1.4-2.3-2c-4.4-5.6,4.3-7.5,12.3-6c11.6,2.2,18.4,9.3,11.3,11.9
		C1247.7,348.2,1237.4,346.3,1231.6,342.4L1231.6,342.4z"/>
	<path class="st0" d="M1208,317.1c-1.2-0.8-1.9-1.4-2.5-1.9c-4.7-5.6,4.6-7.5,13.2-6.1c12.4,2,19.7,9.1,12.2,11.8
		C1225.4,322.8,1214.2,321,1208,317.1L1208,317.1z"/>
	<path class="st0" d="M1183.8,293.4c-1.3-0.7-2-1.4-2.6-1.9c-5.2-5.6,4.8-7.6,14.1-6.3c12.7,1.8,20.7,8.3,14.1,11.4
		C1203.8,299.1,1190.9,297.5,1183.8,293.4L1183.8,293.4z"/>
	<path class="st0" d="M1159.1,271.3c-1.4-0.7-2.2-1.4-2.9-1.9c-5.5-5.5,5.1-7.6,15-6.4c13.5,1.7,22.2,8.1,15.2,11.2
		C1180.7,276.8,1166.9,275.3,1159.1,271.3L1159.1,271.3z"/>
	<path class="st0" d="M1134.3,250.9c-1.5-0.7-2.3-1.3-3-1.8c-5.9-5.2,5.4-7.4,15.8-6.4c14.4,1.5,23.5,7.6,16.1,10.7
		C1157,256,1142.5,254.7,1134.3,250.9L1134.3,250.9z"/>
	<path class="st0" d="M1109.1,232.3c-1.6-0.6-2.5-1.2-3.2-1.7c-6-4.8,4.6-7,14.9-6.5c15.1,0.8,26.4,6.4,19.8,9.9
		C1134.9,237,1118.4,236.1,1109.1,232.3L1109.1,232.3z"/>
	<path class="st0" d="M1083.7,215.6c-1.7-0.6-2.6-1.1-3.4-1.6c-6-4.3,4.2-6.5,13.8-6.5c15.8,0.1,29.3,5.1,23.7,8.8
		C1112.6,219.8,1094.1,219.4,1083.7,215.6L1083.7,215.6z"/>
	<path class="st0" d="M1058.2,200.8c-1.8-0.5-2.7-1-3.6-1.4c-6-3.8,3.7-5.9,12.5-6.2c16.2-0.6,31.9,3.7,27.6,7.4
		C1090.6,204.3,1069.7,204.4,1058.2,200.8L1058.2,200.8z"/>
	<path class="st0" d="M1032.9,188.1c-1.8-0.5-2.8-0.9-3.7-1.2c-6.5-3.5,4.3-5.3,10.9-5.8c17.1-1.3,35.5,2.4,30.7,6.2
		C1066.5,190.7,1044.9,191.2,1032.9,188.1L1032.9,188.1z"/>
	<path class="st0" d="M1008,177.5c-1.8-0.4-2.8-0.7-3.7-1c-6.5-2.8,4.9-4.5,7.2-4.8c16.6-2.2,38.8,0.3,35.5,3.9
		C1044,178.9,1021.1,180,1008,177.5L1008,177.5z"/>
	<path class="st0" d="M984.2,168.8c-1.7-0.2-2.7-0.5-3.5-0.7c-3.9-1.3-0.9-2.5,2.4-3.2c14.1-3.1,42.1-2,38.4,1.5
		C1018.7,169.1,996.7,170.6,984.2,168.8L984.2,168.8z"/>
	<path class="st0" d="M960.7,162.5c-1.6-0.1-2.6-0.3-3.3-0.4c-1-0.2-3.7-0.9,0.2-2c10.5-3,40.2-3.6,38.7-0.8
		C995.1,161.7,972.3,163.4,960.7,162.5L960.7,162.5z"/>
	<path class="st0" d="M937.5,158.5c-1,0-2.1-0.1-3.2-0.1c-1-0.1-2.3-0.3-1.4-0.8c4.1-2.3,37.8-4.8,38.4-2.8
		C971.8,156.5,949.2,158.7,937.5,158.5L937.5,158.5z"/>
	<path class="st0" d="M914.4,157c-1,0-2,0.1-3,0.1c-0.5,0-1,0-1.5-0.1c0,0,0-0.1-0.1-0.2c2.7-1.3,34.8-5.2,36.8-3.9
		C945,154.4,922.7,156.6,914.4,157L914.4,157z"/>
	<path class="st0" d="M891.9,158c-0.9,0.1-1.9,0.2-2.8,0.3c-0.4,0.1-0.9,0.1-1.4,0.1c1.2-0.5,31.4-4.8,34.4-4.8
		C921.3,154.3,892.2,157.9,891.9,158L891.9,158z"/>
	<polygon class="st0" points="1488.4,854.9 1488.9,855.7 1488.4,856.2 1488,855.5 1488.4,854.9 	"/>
	<path class="st0" d="M1486,817c0-0.1-0.1-0.3-0.1-0.4c0-0.9,0.6-1.2,1.1-0.9c0.9,0.5,1,2.2,0.1,2.3
		C1486.6,818,1486.2,817.6,1486,817L1486,817z"/>
	<path class="st0" d="M1481.8,778.6c-0.1-0.2-0.1-0.4-0.1-0.5c-0.1-1.5,0.9-2,1.9-1.4c1.5,0.9,1.6,3.3,0.1,3.4
		C1482.9,780.2,1482.1,779.5,1481.8,778.6L1481.8,778.6z"/>
	<path class="st0" d="M1475.5,740.6c-0.1-0.2-0.2-0.5-0.2-0.7c-0.3-1.9,1.2-2.5,2.6-1.8c2.1,1.2,2.4,4.4,0.4,4.5
		C1477,742.7,1475.9,741.6,1475.5,740.6L1475.5,740.6z"/>
	<path class="st0" d="M1467.3,702.9c-0.1-0.3-0.2-0.6-0.3-0.9c-0.4-2.3,1.4-3.1,3.2-2.1c2.7,1.4,3.3,5.2,0.7,5.4
		C1469.6,705.5,1468,704.4,1467.3,702.9L1467.3,702.9z"/>
	<path class="st0" d="M1457.2,665.9c-0.2-0.3-0.3-0.7-0.5-1c-0.7-3.1,1.9-3.6,4-2.6c3.5,1.7,4.3,6.3,1.2,6.5
		C1460.3,668.9,1458.3,667.7,1457.2,665.9L1457.2,665.9z"/>
	<path class="st0" d="M1445.5,629.4c-0.2-0.4-0.4-0.8-0.6-1.2c-0.9-3.3,1.9-4.4,4.8-3.1c4.3,1.9,5.5,7.2,1.7,7.6
		C1449.3,632.9,1446.8,631.5,1445.5,629.4L1445.5,629.4z"/>
	<path class="st0" d="M1432.3,593.7c-0.3-0.4-0.5-0.9-0.7-1.3c-1.2-3.6,2-4.8,5.4-3.4c4.9,2,6.6,7.5,2.7,8.3
		C1437.3,597.7,1434,596.1,1432.3,593.7L1432.3,593.7z"/>
	<path class="st0" d="M1417.5,558.7c-0.4-0.5-0.6-1-0.9-1.5c-1.5-3.9,2.2-5.4,6.2-3.8c5.8,2.2,8,8.3,3.4,9.2
		C1423.5,563.1,1419.6,561.4,1417.5,558.7L1417.5,558.7z"/>
	<path class="st0" d="M1401.3,524.6c-0.5-0.6-0.8-1.1-1.1-1.6c-1.8-4.3,2.4-5.8,7.1-4.2c6.7,2.4,9.4,8.9,4.1,9.9
		C1408.3,529.4,1403.8,527.5,1401.3,524.6L1401.3,524.6z"/>
	<path class="st0" d="M1384,491.5c-0.6-0.7-1-1.3-1.3-1.7c-2.1-4.6,2.5-6.1,7.8-4.4c7.6,2.5,10.8,9.4,4.8,10.5
		C1391.9,496.5,1386.8,494.5,1384,491.5L1384,491.5z"/>
	<path class="st0" d="M1365.4,459.3c-0.7-0.7-1.1-1.3-1.4-1.8c-2.5-4.9,2.7-6.6,8.8-4.8c8.3,2.5,12.2,9.4,6.3,11
		C1375.2,464.8,1368.8,462.8,1365.4,459.3L1365.4,459.3z"/>
	<path class="st0" d="M1345.7,428.3c-0.8-0.7-1.3-1.4-1.6-1.9c-2.9-5.1,2.9-7,9.7-5.1c9,2.5,13.7,9.8,7.3,11.6
		C1356.8,434.1,1349.6,431.9,1345.7,428.3L1345.7,428.3z"/>
	<path class="st0" d="M1325.2,398.5c-0.9-0.8-1.4-1.4-1.8-1.9c-3.2-5.1,3.1-7.1,10.4-5.3c10.1,2.6,15.2,10,8.1,11.8
		C1337.4,404.3,1329.5,402.2,1325.2,398.5L1325.2,398.5z"/>
	<path class="st0" d="M1303.7,370c-1-0.8-1.6-1.5-2-2c-3.9-5.8,4.2-7.2,11.3-5.5c10.4,2.4,16.4,9.5,9.9,11.9
		C1318.2,376.2,1308.8,374,1303.7,370L1303.7,370z"/>
	<path class="st0" d="M1281.4,342.8c-1.1-0.8-1.7-1.5-2.2-2c-4-5.4,3.4-7.6,12.3-5.7c11.4,2.4,18,9.6,10.9,12.1
		C1297.2,349,1287,346.9,1281.4,342.8L1281.4,342.8z"/>
	<path class="st0" d="M1258.6,317.1c-1.2-0.8-1.8-1.4-2.4-2c-4.4-5.4,3.6-7.6,13.1-5.8c12.3,2.3,19.4,9.5,11.9,12.1
		C1275.6,323.2,1264.7,321.2,1258.6,317.1L1258.6,317.1z"/>
	<path class="st0" d="M1235,293c-1.3-0.8-2-1.4-2.6-2c-4.8-5.4,3.7-7.7,14-5.9c12.6,2.1,20.4,8.8,13.8,11.7
		C1254.8,299.1,1242,297.2,1235,293L1235,293z"/>
	<path class="st0" d="M1211,270.4c-1.4-0.8-2.1-1.4-2.8-1.9c-5.2-5.3,4-7.6,14.9-6c13.5,2,22,8.5,14.9,11.5
		C1232.2,276.4,1218.6,274.6,1211,270.4L1211,270.4z"/>
	<path class="st0" d="M1186.6,249.5c-1.5-0.7-2.3-1.3-3-1.9c-5.5-5.2,4.5-7.1,14.1-6.2c14.2,1.3,24.7,7.5,18.4,10.9
		C1210.6,255.2,1195.2,253.8,1186.6,249.5L1186.6,249.5z"/>
	<path class="st0" d="M1161.8,230.4c-1.6-0.7-2.4-1.3-3.2-1.8c-5.9-4.9,4.7-6.9,14.9-6.1c15.1,1.1,26.2,7,19.6,10.3
		C1187.4,235.8,1171,234.5,1161.8,230.4L1161.8,230.4z"/>
	<path class="st0" d="M1136.8,213.2c-1.6-0.6-2.6-1.2-3.4-1.7c-5.9-4.4,4.2-6.4,13.8-6.1c15.7,0.5,29.1,5.8,23.5,9.3
		C1165.5,218.1,1147.1,217.2,1136.8,213.2L1136.8,213.2z"/>
	<path class="st0" d="M1111.5,197.9c-1.7-0.6-2.7-1.1-3.5-1.5c-6-3.9,3.7-5.8,12.4-5.9c16.9-0.2,33,4.9,26.8,8.5
		C1141.8,202.2,1122.5,201.6,1111.5,197.9L1111.5,197.9z"/>
	<path class="st0" d="M1086.4,184.6c-1.8-0.5-2.8-1-3.7-1.3c-5.9-3.3,2.8-4.9,8.8-5.4c17.4-1.3,37.8,2.9,32.7,6.8
		C1119.8,188,1098.2,188,1086.4,184.6L1086.4,184.6z"/>
	<path class="st0" d="M1061.5,173.4c-1.8-0.4-2.9-0.8-3.7-1.1c-5.6-2.6,1.9-4,5.4-4.4c15.9-2.2,40.6,0.8,37.2,4.6
		C1097.4,175.7,1074.5,176.3,1061.5,173.4L1061.5,173.4z"/>
	<path class="st0" d="M1037.7,164.2c-1.7-0.3-2.7-0.6-3.5-0.8c-4-1.4-0.9-2.5,2.4-3.2c13.5-2.7,41.9-0.9,38.4,2.4
		C1072.1,165.4,1050.2,166.2,1037.7,164.2L1037.7,164.2z"/>
	<path class="st0" d="M1014,157.2c-1.7-0.2-2.6-0.4-3.4-0.5c-1-0.3-3.7-1,0.3-2c10.1-2.7,40.2-2.5,38.8,0.2
		C1048.5,157.3,1025.6,158.5,1014,157.2L1014,157.2z"/>
	<path class="st0" d="M990.5,152.6c-1.1,0-2.1-0.1-3.2-0.2c-0.9-0.1-2.7-0.4-1-1c6.4-2.3,39.6-3.6,38.2-1.5
		C1023.3,151.6,1001.5,153.1,990.5,152.6L990.5,152.6z"/>
	<path class="st0" d="M967.2,150.4c-1,0-2,0-3,0c-0.5,0-1,0-1.5-0.1c0,0-0.1-0.1-0.1-0.2c2.5-1.1,35-4.3,36.9-3
		C998.1,148.5,976.7,150.2,967.2,150.4L967.2,150.4z"/>
	<path class="st0" d="M944.3,150.7c-0.9,0.1-1.9,0.2-2.8,0.2c-0.5,0-0.9,0.1-1.4,0.1c0.8-0.5,31.5-4,34.6-3.9
		C974,147.8,950.6,150.1,944.3,150.7L944.3,150.7z"/>
	<polygon class="st0" points="1515.9,861.1 1516.3,861.8 1515.8,862.4 1515.4,861.6 1515.9,861.1 	"/>
	<path class="st0" d="M1515.4,822.9c0-0.1,0-0.3-0.1-0.4c0-1,0.7-1.1,1.1-0.9c0.9,0.5,0.8,2.2,0,2.3
		C1516,824,1515.6,823.5,1515.4,822.9L1515.4,822.9z"/>
	<path class="st0" d="M1513.1,784.3c-0.1-0.2-0.1-0.4-0.1-0.5c-0.1-1.5,1-1.8,1.8-1.4c1.5,0.8,1.5,3.4,0.1,3.5
		C1514.1,785.9,1513.4,785.2,1513.1,784.3L1513.1,784.3z"/>
	<path class="st0" d="M1508.6,746c-0.1-0.2-0.1-0.5-0.2-0.7c-0.2-2,1.3-2.4,2.4-1.8c2.1,1.1,2.4,4.5,0.4,4.7
		C1510.3,748.2,1509.1,747.3,1508.6,746L1508.6,746z"/>
	<path class="st0" d="M1502.3,708.2c-0.1-0.3-0.2-0.6-0.3-0.9c-0.3-2.3,1.5-3,3.2-2c2.7,1.5,3,5.3,0.5,5.5
		C1504.4,710.8,1502.9,709.7,1502.3,708.2L1502.3,708.2z"/>
	<path class="st0" d="M1493.9,670.9c-0.2-0.3-0.3-0.7-0.4-1c-0.6-3.1,2-3.5,4-2.5c3.4,1.8,4,6.4,0.9,6.6
		C1496.8,674,1494.9,672.7,1493.9,670.9L1493.9,670.9z"/>
	<path class="st0" d="M1483.8,634.2c-0.2-0.4-0.4-0.8-0.5-1.2c-0.8-3.3,2-4.3,4.8-2.9c4.2,2,5.1,7.4,1.4,7.6
		C1487.5,637.7,1485,636.2,1483.8,634.2L1483.8,634.2z"/>
	<path class="st0" d="M1472.1,598.1c-0.3-0.4-0.5-0.9-0.7-1.4c-1.1-3.9,2.5-4.5,5.4-3.2c4.7,2.1,6.2,7.7,2.3,8.4
		C1476.9,602.3,1473.7,600.6,1472.1,598.1L1472.1,598.1z"/>
	<path class="st0" d="M1458.8,562.9c-0.3-0.5-0.6-1-0.8-1.5c-1.3-3.9,2.3-5.3,6.2-3.6c5.6,2.4,7.6,8.5,3,9.2
		C1464.5,567.4,1460.8,565.6,1458.8,562.9L1458.8,562.9z"/>
	<path class="st0" d="M1444,528.4c-0.5-0.6-0.8-1.2-1-1.6c-1.7-4.4,2.5-5.7,7.1-4c6.5,2.5,9,9.2,3.7,10
		C1450.8,533.4,1446.4,531.4,1444,528.4L1444,528.4z"/>
	<path class="st0" d="M1428,495c-0.6-0.7-0.9-1.3-1.2-1.7c-2.1-4.8,3.3-5.9,7.9-4.2c7.3,2.6,10.3,9.7,4.4,10.6
		C1435.7,500.2,1430.7,498.1,1428,495L1428,495z"/>
	<path class="st0" d="M1410.6,462.5c-0.7-0.7-1.1-1.3-1.4-1.8c-2.6-5.3,3.6-6.3,8.7-4.6c8,2.7,11.7,9.6,5.9,11.1
		C1420.1,468.2,1413.9,466,1410.6,462.5L1410.6,462.5z"/>
	<path class="st0" d="M1392,431.2c-0.8-0.8-1.2-1.4-1.6-1.9c-3-5.6,3.8-6.6,9.6-4.8c9,2.8,13.4,10.1,6.9,11.7
		C1402.8,437.2,1395.8,434.8,1392,431.2L1392,431.2z"/>
	<path class="st0" d="M1372.6,401c-0.9-0.8-1.3-1.4-1.7-2c-3.2-5.5,4-6.8,10.4-5c9.8,2.8,14.7,10.3,7.7,12
		C1384.4,407.1,1376.7,404.7,1372.6,401L1372.6,401z"/>
	<path class="st0" d="M1352.1,372.1c-1-0.8-1.5-1.5-1.9-2c-3.8-5.9,4.3-7,11.3-5.2c10.2,2.7,15.9,9.9,9.5,12.1
		C1366.2,378.6,1357,376.2,1352.1,372.1L1352.1,372.1z"/>
	<path class="st0" d="M1330.7,344.5c-1.1-0.8-1.7-1.5-2.1-2c-3.9-5.5,3.6-7.4,12.3-5.4c11.2,2.7,17.5,10,10.6,12.3
		C1346.2,351.1,1336.2,348.7,1330.7,344.5L1330.7,344.5z"/>
	<path class="st0" d="M1308.6,318.4c-1.2-0.8-1.8-1.5-2.3-2c-4.4-5.8,4.8-7.2,13.1-5.4c12,2.6,18.9,9.9,11.5,12.3
		C1325.4,324.9,1314.6,322.5,1308.6,318.4L1308.6,318.4z"/>
	<path class="st0" d="M1285.8,293.8c-1.2-0.8-1.9-1.5-2.5-2c-4.5-5.4,3.9-7.5,14-5.6c12.4,2.4,20,9.2,13.4,11.9
		C1305.2,300.4,1292.7,298.2,1285.8,293.8L1285.8,293.8z"/>
	<path class="st0" d="M1262.3,270.8c-1.3-0.8-2.1-1.5-2.7-2c-5.1-5.5,4.3-7.1,13.3-5.9c14,1.9,23.6,9.1,16.2,12
		C1283.3,277.2,1269.8,275.1,1262.3,270.8L1262.3,270.8z"/>
	<path class="st0" d="M1238.6,249.4c-1.4-0.8-2.3-1.4-2.9-1.9c-5.4-5.3,4.5-6.9,14-5.8c14.1,1.7,24.4,8.1,18.1,11.2
		C1262.3,255.7,1247,253.8,1238.6,249.4L1238.6,249.4z"/>
	<path class="st0" d="M1214.2,229.8c-1.5-0.7-2.4-1.3-3.1-1.8c-5.8-5,4.4-6.5,13-5.9c15.5,1.1,28.1,7.6,21.1,10.9
		C1239.5,235.7,1223.2,234.1,1214.2,229.8L1214.2,229.8z"/>
	<path class="st0" d="M1189.6,212.1c-1.6-0.7-2.6-1.3-3.3-1.7c-6.1-4.8,4.6-6.2,13.7-5.7c15.6,0.8,28.9,6.5,23.2,9.9
		C1218,217.6,1199.7,216.3,1189.6,212.1L1189.6,212.1z"/>
	<path class="st0" d="M1164.6,196.3c-1.7-0.6-2.7-1.1-3.5-1.6c-5.9-4,3.7-5.7,12.4-5.6c16.8,0.2,32.7,5.6,26.6,9.1
		C1194.7,201.2,1175.5,200.2,1164.6,196.3L1164.6,196.3z"/>
	<path class="st0" d="M1139.6,182.4c-1.8-0.6-2.8-1-3.7-1.4c-5.8-3.4,2.8-4.8,8.9-5.2c17.2-0.9,37.6,3.8,32.5,7.5
		C1173,186.6,1151.5,186,1139.6,182.4L1139.6,182.4z"/>
	<path class="st0" d="M1114.9,170.6c-1.8-0.4-2.9-0.9-3.7-1.2c-5.6-2.7,1.9-3.9,5.4-4.3c16.3-1.9,40.6,1.7,37.1,5.5
		C1150.7,173.8,1127.9,173.8,1114.9,170.6L1114.9,170.6z"/>
	<path class="st0" d="M1091.1,160.8c-1.7-0.3-2.8-0.6-3.6-0.9c-4-1.5-0.9-2.5,2.3-3.1c13.5-2.4,41.9,0.1,38.4,3.4
		C1125.5,162.8,1103.6,163.2,1091.1,160.8L1091.1,160.8z"/>
	<path class="st0" d="M1067.4,153.3c-1.7-0.2-2.6-0.4-3.4-0.6c-1-0.3-3.7-1,0.2-2c10.1-2.4,40.3-1.5,38.9,1.2
		C1102,154.1,1079.9,154.9,1067.4,153.3L1067.4,153.3z"/>
	<path class="st0" d="M1043.7,148.1c-1.1-0.1-2.1-0.2-3.2-0.3c-0.9-0.2-2.7-0.5-1.1-1c6.5-2.2,39.7-2.7,38.3-0.5
		C1076.5,147.8,1054.7,148.8,1043.7,148.1L1043.7,148.1z"/>
	<path class="st0" d="M1020.1,145.2c-1,0-2,0-3-0.1c-0.5,0-1-0.1-1.5-0.2c0,0-0.1-0.1-0.1-0.2c3.1-1.5,35.4-3.2,37.1-2
		C1051.1,144.1,1029.6,145.3,1020.1,145.2L1020.1,145.2z"/>
	<path class="st0" d="M996.9,144.8c-1,0.1-1.9,0.1-2.9,0.2c-0.5,0-1,0-1.4,0c0.8-0.6,31.3-3.2,34.7-3c0,0-0.1,0.1-0.1,0.1
		C1023.3,142.9,1003.9,144.4,996.9,144.8L996.9,144.8z"/>
	<polygon class="st0" points="1542,868.2 1542.4,868.9 1541.9,869.5 1541.5,868.7 1542,868.2 	"/>
	<path class="st0" d="M1543.5,829.8c0-0.1,0-0.3,0-0.4c0.1-1,0.7-1.1,1.1-0.8c0.8,0.6,0.7,2.3-0.2,2.3
		C1544.1,830.9,1543.7,830.5,1543.5,829.8L1543.5,829.8z"/>
	<path class="st0" d="M1543.2,791c0-0.2-0.1-0.4-0.1-0.5c0-1.5,1-1.8,1.8-1.3c1.4,0.9,1.3,3.5-0.1,3.5
		C1544.2,792.6,1543.5,792,1543.2,791L1543.2,791z"/>
	<path class="st0" d="M1540.6,752.5c-0.1-0.2-0.1-0.5-0.1-0.8c-0.1-2,1.4-2.3,2.4-1.7c2,1.2,2.2,4.6,0.2,4.7
		C1542.1,754.7,1541.1,753.8,1540.6,752.5L1540.6,752.5z"/>
	<path class="st0" d="M1536.1,714.4c-0.1-0.3-0.2-0.6-0.2-0.9c-0.2-2.4,1.6-2.8,3-2.1c2.6,1.4,3,5.5,0.5,5.6
		C1538.1,717.1,1536.7,715.9,1536.1,714.4L1536.1,714.4z"/>
	<path class="st0" d="M1529.5,676.9c-0.2-0.3-0.3-0.7-0.3-1.1c-0.4-2.9,1.8-3.5,3.6-2.6c3.2,1.6,4.1,6.3,1.2,6.7
		C1532.5,680.3,1530.4,678.9,1529.5,676.9L1529.5,676.9z"/>
	<path class="st0" d="M1521.1,639.9c-0.2-0.4-0.4-0.8-0.5-1.2c-0.6-3.3,2.1-4.2,4.7-2.8c4,2.2,4.7,7.5,1.1,7.6
		C1524.5,643.6,1522.2,642,1521.1,639.9L1521.1,639.9z"/>
	<path class="st0" d="M1510.9,603.6c-0.3-0.5-0.4-0.9-0.6-1.4c-0.9-3.6,2.3-4.7,5.5-3.1c4.5,2.2,5.8,7.8,2,8.4
		C1515.5,607.9,1512.4,606.1,1510.9,603.6L1510.9,603.6z"/>
	<path class="st0" d="M1499.1,568.1c-0.3-0.5-0.5-1-0.8-1.5c-1.2-4.3,2.9-5.1,6.3-3.5c5.4,2.5,7.1,8.7,2.6,9.3
		C1504.6,572.8,1500.9,570.8,1499.1,568.1L1499.1,568.1z"/>
	<path class="st0" d="M1485.8,533.4c-0.5-0.7-0.7-1.2-0.9-1.6c-1.6-4.8,3.2-5.4,7.1-3.8c6.3,2.7,8.5,9.4,3.3,10.1
		C1492.2,538.5,1487.9,536.3,1485.8,533.4L1485.8,533.4z"/>
	<path class="st0" d="M1471.1,499.6c-0.6-0.7-0.9-1.3-1.1-1.8c-1.9-5,3.5-5.7,7.9-4c7.1,2.8,9.8,9.9,4,10.7
		C1478.5,505,1473.6,502.7,1471.1,499.6L1471.1,499.6z"/>
	<path class="st0" d="M1455,466.8c-0.6-0.7-1-1.3-1.3-1.8c-2.4-5.4,3.7-6.2,8.7-4.3c7.8,2.9,11.2,9.9,5.5,11.2
		C1464.2,472.7,1458.1,470.4,1455,466.8L1455,466.8z"/>
	<path class="st0" d="M1437.6,435.1c-0.7-0.8-1.2-1.4-1.5-1.9c-2.8-5.7,3.9-6.5,9.6-4.6c8.8,3,12.8,10.4,6.5,11.8
		C1448.1,441.4,1441.2,438.9,1437.6,435.1L1437.6,435.1z"/>
	<path class="st0" d="M1419.2,404.6c-0.8-0.8-1.3-1.5-1.7-2c-2.8-5.2,3.4-6.9,10.4-4.7c9.6,3,14.2,10.6,7.3,12.1
		C1430.8,410.9,1423.2,408.4,1419.2,404.6L1419.2,404.6z"/>
	<path class="st0" d="M1399.7,375.3c-0.9-0.8-1.4-1.5-1.9-2c-3.4-5.7,4.4-6.9,11.4-4.9c10.6,3.1,15.8,10.9,8.3,12.5
		C1412.6,381.9,1404.3,379.3,1399.7,375.3L1399.7,375.3z"/>
	<path class="st0" d="M1379.3,347.4c-1-0.8-1.6-1.5-2.1-2.1c-3.9-5.9,4.7-7.1,12.3-5c11,2.9,17.1,10.4,10.1,12.5
		C1394.5,354.3,1384.6,351.7,1379.3,347.4L1379.3,347.4z"/>
	<path class="st0" d="M1358.1,320.8c-1.1-0.8-1.8-1.5-2.3-2.1c-4.1-5.6,4.1-6.9,11.7-5.4c11.8,2.4,19.7,9.8,13.3,12.5
		C1375.7,327.9,1364.3,325.4,1358.1,320.8L1358.1,320.8z"/>
	<path class="st0" d="M1336,295.8c-1.2-0.8-1.9-1.5-2.5-2.1c-4.5-5.7,4.2-7,12.5-5.5c12.8,2.3,21.5,9.8,14.5,12.5
		C1355.2,302.8,1342.8,300.4,1336,295.8L1336,295.8z"/>
	<path class="st0" d="M1313.3,272.3c-1.3-0.8-2.1-1.5-2.7-2c-4.9-5.6,4.4-7,13.3-5.5c13.7,2.2,23.2,9.6,15.8,12.4
		C1334,279.3,1320.6,276.8,1313.3,272.3L1313.3,272.3z"/>
	<path class="st0" d="M1290.1,250.5c-1.4-0.8-2.2-1.4-2.9-2c-5.3-5.4,4.6-6.8,14-5.4c13.9,2,23.9,8.6,17.7,11.6
		C1313.5,257.3,1298.4,255.1,1290.1,250.5L1290.1,250.5z"/>
	<path class="st0" d="M1266.3,230.5c-1.5-0.7-2.4-1.4-3.1-1.9c-5.4-4.9,4.1-6.4,13-5.6c15.3,1.4,27.7,8.2,20.8,11.3
		C1291.3,237,1275.2,234.9,1266.3,230.5L1266.3,230.5z"/>
	<path class="st0" d="M1242,212.2c-1.6-0.7-2.5-1.3-3.3-1.8c-5.5-4.5,3.6-5.9,11.9-5.5c16,0.8,30.8,7.1,24.8,10.5
		C1270.2,218.4,1252.1,216.7,1242,212.2L1242,212.2z"/>
	<path class="st0" d="M1217.4,195.9c-1.7-0.7-2.7-1.2-3.5-1.7c-5.6-4,3.2-5.4,10.5-5.3c16.2,0.1,33.5,5.7,28.9,9.3
		C1249.1,201.6,1228.6,200.2,1217.4,195.9L1217.4,195.9z"/>
	<path class="st0" d="M1192.7,181.5c-1.8-0.6-2.8-1.1-3.6-1.5c-5.8-3.5,2.8-4.8,8.9-4.9c17.2-0.5,37.4,4.7,32.3,8.3
		C1225.8,186.4,1204.4,185.4,1192.7,181.5L1192.7,181.5z"/>
	<path class="st0" d="M1168.1,169.1c-1.8-0.5-2.8-0.9-3.7-1.3c-5.5-2.8,2-3.9,5.4-4.2c15.9-1.4,40.4,2.8,37,6.3
		C1203.8,173.2,1181,172.6,1168.1,169.1L1168.1,169.1z"/>
	<path class="st0" d="M1144.4,158.8c-1.8-0.4-2.7-0.7-3.6-1c-4-1.6-0.9-2.6,2.4-3.1c13.5-2,41.8,1.1,38.3,4.3
		C1178.7,161.6,1156.8,161.4,1144.4,158.8L1144.4,158.8z"/>
	<path class="st0" d="M1120.7,150.7c-1.7-0.3-2.6-0.5-3.4-0.7c-1-0.3-3.7-1.2,0.2-2c10.1-2.2,40.2-0.5,38.8,2.1
		C1155.1,152.4,1132.3,152.4,1120.7,150.7L1120.7,150.7z"/>
	<path class="st0" d="M1097,144.8c-1.1-0.1-2.2-0.2-3.2-0.4c-1-0.2-2.7-0.6-1.1-1.1c6.4-2.1,39.6-1.7,38.2,0.5
		C1129.8,145.4,1108,145.8,1097,144.8L1097,144.8z"/>
	<path class="st0" d="M1073.1,141.3c-1,0-2.1-0.1-3.1-0.2c-1.2-0.1-1.4-0.1-1.7-0.3c1.9-1.4,35.3-2.5,37.2-1.1
		C1104.2,141,1082.5,141.6,1073.1,141.3L1073.1,141.3z"/>
	<path class="st0" d="M1049.6,140.2c-1,0-1.9,0.1-2.9,0.1c-0.5,0-1,0-1.5,0c2.4-0.8,32-2.4,34.8-2.1c0,0-0.1,0.1-0.1,0.1
		C1076.3,139,1057,140,1049.6,140.2L1049.6,140.2z"/>
	<path class="st0" d="M1570.4,837.6c0-0.1,0-0.3,0-0.4c0.1-0.9,0.7-1.2,1.1-0.8c0.7,0.6,0.6,2.3-0.3,2.3
		C1570.8,838.7,1570.4,838.2,1570.4,837.6L1570.4,837.6z"/>
	<path class="st0" d="M1572,798.6c0-0.2,0-0.4-0.1-0.6c0.1-1.4,1-1.8,1.8-1.3c1.3,1,1.2,3.6-0.2,3.5
		C1572.8,800.3,1572.2,799.4,1572,798.6L1572,798.6z"/>
	<path class="st0" d="M1571.4,759.9c-0.1-0.2-0.1-0.5-0.1-0.7c0-1.8,1.3-2.4,2.4-1.7c1.9,1.2,1.9,4.7,0,4.7
		C1572.6,762.2,1571.7,761,1571.4,759.9L1571.4,759.9z"/>
	<path class="st0" d="M1568.7,721.6c-0.1-0.3-0.2-0.6-0.2-0.9c-0.1-2.2,1.5-2.9,3-2c2.5,1.5,2.7,5.7,0.2,5.6
		C1570.5,724.3,1569.2,723.2,1568.7,721.6L1568.7,721.6z"/>
	<path class="st0" d="M1563.9,683.9c-0.1-0.4-0.2-0.7-0.3-1.1c-0.3-2.9,2-3.4,3.7-2.5c3.1,1.7,3.7,6.4,0.9,6.8
		C1566.6,687.3,1564.7,685.9,1563.9,683.9L1563.9,683.9z"/>
	<path class="st0" d="M1557.2,646.7c-0.2-0.4-0.3-0.8-0.4-1.3c-0.5-3.4,2.2-3.9,4.4-2.9c3.9,1.9,4.9,7.4,1.5,7.8
		C1560.7,650.6,1558.2,649,1557.2,646.7L1557.2,646.7z"/>
	<path class="st0" d="M1548.7,610.1c-0.2-0.5-0.4-0.9-0.5-1.4c-0.7-3.7,2.4-4.3,5-3.2c4.6,2.1,6,8.2,2.1,8.7
		C1553,614.5,1550.1,612.7,1548.7,610.1L1548.7,610.1z"/>
	<path class="st0" d="M1538.5,574.3c-0.3-0.5-0.5-1-0.7-1.5c-0.9-3.8,2.2-5,5.7-3.6c5.5,2.3,7.4,9.1,2.8,9.6
		C1543.6,579.1,1540.1,577.1,1538.5,574.3L1538.5,574.3z"/>
	<path class="st0" d="M1526.6,539.3c-0.4-0.5-0.6-1.1-0.8-1.7c-1.3-4.4,2.8-5.6,7.1-3.6c6.1,2.8,8,9.6,2.9,10.1
		C1532.7,544.6,1528.6,542.4,1526.6,539.3L1526.6,539.3z"/>
	<path class="st0" d="M1513.3,505.3c-0.5-0.7-0.8-1.3-1-1.8c-1.6-4.6,3-5.9,7.8-3.8c7,3,9.4,10.1,3.6,10.7
		C1520.3,510.8,1515.7,508.5,1513.3,505.3L1513.3,505.3z"/>
	<path class="st0" d="M1498.4,472.2c-0.6-0.8-0.9-1.3-1.2-1.9c-2-5,3.2-6.3,8.7-4.1c7.4,3,10.7,10.2,5.1,11.3
		C1507.3,478.3,1501.4,475.8,1498.4,472.2L1498.4,472.2z"/>
	<path class="st0" d="M1482.3,440.2c-0.7-0.8-1.1-1.5-1.4-2c-2.3-5.2,3.3-6.6,9.6-4.3c8.4,3.1,12.2,10.7,6,11.9
		C1492.4,446.7,1485.8,444,1482.3,440.2L1482.3,440.2z"/>
	<path class="st0" d="M1465.1,409.3c-0.8-0.8-1.2-1.5-1.6-2c-2.6-5.2,3.5-6.8,10.4-4.4c9.4,3.3,13.7,10.9,6.9,12.2
		C1476.3,415.9,1469,413.2,1465.1,409.3L1465.1,409.3z"/>
	<path class="st0" d="M1446.7,379.7c-0.9-0.8-1.4-1.5-1.8-2.1c-3.1-5.6,3.8-6.6,10.1-4.9c10.4,2.8,16.5,10.8,9.8,12.8
		C1460.1,386.8,1451.3,384,1446.7,379.7L1446.7,379.7z"/>
	<path class="st0" d="M1427.2,351.4c-1-0.8-1.5-1.5-2-2.1c-3.5-5.7,4-6.8,10.9-5.1c11.2,2.8,18.1,11,10.9,13
		C1442,358.6,1432.4,355.8,1427.2,351.4L1427.2,351.4z"/>
	<path class="st0" d="M1406.9,324.4c-1.1-0.9-1.7-1.6-2.2-2.1c-3.9-5.7,4.1-6.8,11.6-5.1c11.6,2.6,19.3,10.3,12.8,12.8
		C1424.2,331.9,1412.9,329.1,1406.9,324.4L1406.9,324.4z"/>
	<path class="st0" d="M1385.7,299c-1.2-0.8-1.8-1.6-2.4-2.1c-4.4-5.7,4.3-6.9,12.4-5.2c12.7,2.7,21.1,10.3,14.1,12.8
		C1404.4,306.5,1392.2,303.7,1385.7,299L1385.7,299z"/>
	<path class="st0" d="M1363.7,275.1c-1.3-0.8-2-1.5-2.6-2.1c-4.8-5.7,4.5-6.8,13.2-5.2c13.6,2.6,22.8,10.2,15.4,12.7
		C1384,282.5,1370.8,279.8,1363.7,275.1L1363.7,275.1z"/>
	<path class="st0" d="M1341.1,252.9c-1.4-0.8-2.1-1.5-2.8-2c-4.9-5.2,4-6.4,12.3-5.3c14.3,1.9,25.7,9.3,19,12.2
		C1364.2,260.2,1349.2,257.7,1341.1,252.9L1341.1,252.9z"/>
	<path class="st0" d="M1317.9,232.4c-1.5-0.8-2.3-1.4-3-1.9c-5.3-5,4.2-6.3,13-5.2c15.2,1.8,27.4,8.9,20.4,11.8
		C1342.6,239.4,1326.6,237,1317.9,232.4L1317.9,232.4z"/>
	<path class="st0" d="M1294.1,213.6c-1.6-0.7-2.5-1.3-3.2-1.9c-5.4-4.6,3.7-5.8,11.8-5.2c15.8,1.2,30.5,7.8,24.5,11
		C1322,220.5,1304.1,218.3,1294.1,213.6L1294.1,213.6z"/>
	<path class="st0" d="M1269.9,196.8c-1.7-0.7-2.6-1.3-3.4-1.7c-6-4.5,4.2-5.3,10.4-5.1c17,0.5,34.6,7,28,10.4
		C1299.5,203.1,1280.5,201.2,1269.9,196.8L1269.9,196.8z"/>
	<path class="st0" d="M1245.5,181.9c-1.8-0.6-2.8-1.1-3.6-1.6c-6.3-4,4.7-4.6,6.9-4.7c16.8-0.6,39.3,5.4,33.9,9
		C1278.4,187.5,1257.1,186,1245.5,181.9L1245.5,181.9z"/>
	<path class="st0" d="M1221.1,168.9c-1.8-0.5-2.8-1-3.7-1.4c-5.5-3,1.9-3.8,5.4-4c15.8-1,40.2,3.8,36.8,7.2
		C1256.6,173.8,1234,172.7,1221.1,168.9L1221.1,168.9z"/>
	<path class="st0" d="M1197.6,158c-1.7-0.4-2.7-0.8-3.5-1.1c-4-1.7-0.9-2.6,2.3-3c13.5-1.7,41.7,2.1,38.2,5.2
		C1231.7,161.7,1209.9,161,1197.6,158L1197.6,158z"/>
	<path class="st0" d="M1173.9,149.3c-1.7-0.3-2.6-0.5-3.4-0.8c-1-0.3-3.7-1.2,0.2-2c10.1-2,40.2,0.4,38.8,3.1
		C1208.3,151.9,1185.4,151.4,1173.9,149.3L1173.9,149.3z"/>
	<path class="st0" d="M1150.1,142.9c-1.1-0.1-2.2-0.3-3.2-0.5c-1-0.2-2.8-0.6-1.1-1.1c6.4-1.9,39.6-0.7,38.3,1.4
		C1183,144.3,1161.2,144.2,1150.1,142.9L1150.1,142.9z"/>
	<path class="st0" d="M1126.2,138.8c-1-0.1-2.1-0.1-3.1-0.2c-1.2-0.2-1.4-0.2-1.7-0.4c1.8-1.4,35.2-1.6,37.3-0.2
		C1157.3,139.2,1135.6,139.3,1126.2,138.8L1126.2,138.8z"/>
	<path class="st0" d="M1102.5,137c-1,0-1.9,0-2.9,0c-0.5,0-1,0-1.5,0c2.2-0.7,34.2-1.8,35-1.1C1131.1,136.4,1112.1,136.9,1102.5,137
		L1102.5,137z"/>
	<path class="st0" d="M1595.8,846.3c0-0.1,0-0.3,0-0.4c0.2-0.9,0.7-1.1,1.1-0.8c0.8,0.5,0.5,2.4-0.3,2.4
		C1596.2,847.5,1595.9,847,1595.8,846.3L1595.8,846.3z"/>
	<path class="st0" d="M1599.5,807.2c0-0.2,0-0.4,0-0.6c0.2-1.5,1.2-1.7,1.8-1.2c1.2,1,0.9,3.6-0.4,3.5
		C1600.3,808.9,1599.7,808.1,1599.5,807.2L1599.5,807.2z"/>
	<path class="st0" d="M1600.9,768.3c0-0.2-0.1-0.5-0.1-0.7c0.1-2,1.5-2.3,2.4-1.6c1.8,1.3,1.6,4.7-0.3,4.7
		C1602.1,770.6,1601.2,769.6,1600.9,768.3L1600.9,768.3z"/>
	<path class="st0" d="M1600.1,729.8c-0.1-0.3-0.1-0.6-0.1-0.9c0-2.4,1.7-2.7,3-1.9c2.4,1.5,2.3,5.7,0,5.7
		C1601.8,732.6,1600.6,731.4,1600.1,729.8L1600.1,729.8z"/>
	<path class="st0" d="M1597.2,691.9c-0.1-0.4-0.2-0.7-0.2-1.1c-0.2-2.9,2-3.3,3.7-2.4c2.9,1.7,3.3,6.5,0.6,6.8
		C1599.7,695.4,1597.9,693.9,1597.2,691.9L1597.2,691.9z"/>
	<path class="st0" d="M1592.2,654.4c-0.2-0.4-0.3-0.8-0.4-1.3c-0.4-3.4,2.3-3.9,4.4-2.7c3.7,2,4.5,7.6,1.1,7.9
		C1595.4,658.5,1593.1,656.8,1592.2,654.4L1592.2,654.4z"/>
	<path class="st0" d="M1585.4,617.7c-0.2-0.5-0.4-0.9-0.5-1.4c-0.6-3.7,2.5-4.3,5-3c4.4,2.2,5.6,8.3,1.7,8.7
		C1589.4,622.2,1586.6,620.2,1585.4,617.7L1585.4,617.7z"/>
	<path class="st0" d="M1576.7,581.6c-0.3-0.5-0.5-1-0.6-1.6c-0.9-4.2,2.7-4.8,5.7-3.4c5.2,2.5,6.9,9.3,2.4,9.7
		C1581.6,586.6,1578.3,584.5,1576.7,581.6L1576.7,581.6z"/>
	<path class="st0" d="M1566.4,546.4c-0.3-0.6-0.6-1.1-0.8-1.7c-1.1-4.5,3-5.2,6.4-3.7c6.2,2.7,8.4,10,3.1,10.5
		C1572.2,551.8,1568.3,549.5,1566.4,546.4L1566.4,546.4z"/>
	<path class="st0" d="M1554.5,512c-0.5-0.7-0.8-1.4-0.9-1.8c-1.4-4.8,3.2-5.5,7.1-3.9c6.7,2.7,9.7,10,4.5,11.1
		C1561.8,518,1556.9,515.5,1554.5,512L1554.5,512z"/>
	<path class="st0" d="M1541,478.7c-0.6-0.7-0.9-1.4-1.1-1.9c-1.8-5.1,3.4-5.9,7.9-4.2c7.7,2.9,11.3,10.7,5.4,11.8
		C1549.5,485,1543.8,482.4,1541,478.7L1541,478.7z"/>
	<path class="st0" d="M1526.2,446.4c-0.7-0.8-1-1.5-1.3-2c-2.2-5.3,3.6-6.2,8.7-4.4c8.7,3,13,11.3,6.4,12.4
		C1535.9,453.1,1529.5,450.3,1526.2,446.4L1526.2,446.4z"/>
	<path class="st0" d="M1510.2,415.2c-0.8-0.8-1.2-1.5-1.5-2.1c-2.5-5.5,3.7-6.3,9.3-4.5c9.2,3,14.3,10.8,8.1,12.6
		C1521.8,422.3,1514.1,419.4,1510.2,415.2L1510.2,415.2z"/>
	<path class="st0" d="M1492.9,385.2c-0.9-0.8-1.3-1.5-1.7-2.1c-2.9-5.7,3.9-6.5,10.1-4.7c10.2,3,16,11.2,9.3,13
		C1505.9,392.6,1497.3,389.6,1492.9,385.2L1492.9,385.2z"/>
	<path class="st0" d="M1474.5,356.5c-1-0.9-1.5-1.6-1.9-2.2c-3.3-5.8,4.1-6.7,10.9-4.8c11.2,3.1,17.8,11.4,10.4,13.2
		C1488.9,364.1,1479.4,361,1474.5,356.5L1474.5,356.5z"/>
	<path class="st0" d="M1455.1,329.2c-1.1-0.9-1.6-1.6-2.1-2.2c-3.7-5.8,4.3-6.7,11.7-4.8c12.1,3.1,19.3,11.4,11.5,13.3
		C1470.8,336.8,1460.5,333.8,1455.1,329.2L1455.1,329.2z"/>
	<path class="st0" d="M1434.7,303.4c-1.2-0.9-1.8-1.6-2.3-2.2c-4.2-5.8,4.5-6.7,12.5-4.8c12.4,2.9,20.5,10.7,13.6,13.1
		C1453.1,311.3,1441.1,308.2,1434.7,303.4L1434.7,303.4z"/>
	<path class="st0" d="M1413.5,279.1c-1.3-0.9-1.9-1.6-2.5-2.1c-4.4-5.5,4-6.5,11.7-5.1c13.2,2.4,23.6,10.1,17.3,13
		C1434.8,287.2,1420.9,284.2,1413.5,279.1L1413.5,279.1z"/>
	<path class="st0" d="M1391.7,256.5c-1.4-0.8-2.1-1.5-2.7-2.1c-4.7-5.3,4.1-6.3,12.3-5c14.1,2.3,25.3,9.8,18.6,12.6
		C1414.3,264.3,1399.6,261.4,1391.7,256.5L1391.7,256.5z"/>
	<path class="st0" d="M1369.1,235.5c-1.5-0.8-2.3-1.5-2.9-2c-5.2-5.2,4.1-5.9,11.2-5.1c15.6,1.7,29.2,9.5,21.8,12.4
		C1393.3,243.1,1377.6,240.3,1369.1,235.5L1369.1,235.5z"/>
	<path class="st0" d="M1345.8,216.3c-1.6-0.8-2.4-1.4-3.2-1.9c-5.6-5,4.3-5.6,11.8-4.9c15.7,1.5,30.1,8.4,24.1,11.6
		C1373.3,223.7,1355.6,221.2,1345.8,216.3L1345.8,216.3z"/>
	<path class="st0" d="M1322.1,198.9c-1.7-0.7-2.6-1.3-3.4-1.8c-5.9-4.6,4.2-5.1,10.4-4.8c16.9,1,34.2,7.8,27.7,11
		C1351.4,205.9,1332.6,203.5,1322.1,198.9L1322.1,198.9z"/>
	<path class="st0" d="M1298,183.5c-1.7-0.7-2.7-1.2-3.5-1.7c-6.2-4.1,4.8-4.5,7-4.5c16.6-0.2,38.8,6.3,33.5,9.8
		C1330.6,189.9,1309.5,187.9,1298,183.5L1298,183.5z"/>
	<path class="st0" d="M1274,170c-1.8-0.6-2.8-1-3.6-1.4c-4.8-2.7,0.4-3.5,3.8-3.8c14.9-1.1,41.6,4.5,38,8
		C1309.2,175.7,1286.7,174.1,1274,170L1274,170z"/>
	<path class="st0" d="M1250.6,158.6c-1.7-0.5-2.7-0.8-3.5-1.1c-3.9-1.8-0.9-2.6,2.3-2.9c13.4-1.4,41.5,3.2,38,6.1
		C1284.5,163,1262.9,161.8,1250.6,158.6L1250.6,158.6z"/>
	<path class="st0" d="M1227,149.3c-1.7-0.3-2.6-0.6-3.4-0.8c-1-0.4-3.7-1.3,0.1-2c10.1-1.7,40.1,1.4,38.7,4
		C1261.3,152.6,1239.4,151.9,1227,149.3L1227,149.3z"/>
	<path class="st0" d="M1203.2,142.3c-1.1-0.2-2.2-0.3-3.2-0.6c-1-0.2-2.8-0.7-1.2-1.2c6-1.7,39.6,0.4,38.2,2.4
		C1236,144.5,1214.2,143.8,1203.2,142.3L1203.2,142.3z"/>
	<path class="st0" d="M1179.2,137.5c-1-0.1-2.1-0.2-3.1-0.3c-1.3-0.2-1.5-0.2-1.7-0.4c1.8-1.4,35.2-0.8,37.2,0.7
		C1210.3,138.8,1188.6,138.3,1179.2,137.5L1179.2,137.5z"/>
	<path class="st0" d="M1155.4,135.1c-1,0-2,0-2.9-0.1c-0.5,0-1,0-1.5-0.1c2.1-0.7,34.2-0.9,35.1-0.2
		C1184,135.2,1164.7,135.3,1155.4,135.1L1155.4,135.1z"/>
	<path class="st0" d="M1625.7,816.6c0-0.2,0-0.4,0-0.6c0.2-1.5,1.2-1.7,1.7-1.3c1.2,0.9,0.9,3.7-0.5,3.6
		C1626.4,818.4,1625.8,817.6,1625.7,816.6L1625.7,816.6z"/>
	<path class="st0" d="M1629.1,777.6c0-0.2,0-0.5,0-0.8c0.2-2,1.6-2.2,2.5-1.5c1.7,1.4,1.3,4.8-0.5,4.7
		C1630.2,780,1629.3,778.9,1629.1,777.6L1629.1,777.6z"/>
	<path class="st0" d="M1630.3,738.9c-0.1-0.3-0.1-0.6-0.1-0.9c0.1-2.4,1.8-2.7,3-1.8c2.2,1.6,2,5.8-0.3,5.7
		C1631.8,741.8,1630.6,740.5,1630.3,738.9L1630.3,738.9z"/>
	<path class="st0" d="M1629.2,700.8c-0.1-0.4-0.2-0.7-0.2-1.1c0-2.9,2.1-3.3,3.7-2.3c2.9,1.9,2.9,7,0,6.9
		C1631.3,704.2,1629.7,702.7,1629.2,700.8L1629.2,700.8z"/>
	<path class="st0" d="M1626,663.2c-0.1-0.4-0.2-0.9-0.3-1.3c-0.2-3.4,2.4-3.8,4.4-2.6c3.6,2.2,4.1,7.7,0.7,7.9
		C1629,667.3,1626.8,665.5,1626,663.2L1626,663.2z"/>
	<path class="st0" d="M1620.9,626.2c-0.2-0.5-0.3-0.9-0.4-1.4c-0.4-3.7,2.7-4.2,5-2.9c4.3,2.4,5.2,8.5,1.3,8.8
		C1624.7,630.8,1622,628.8,1620.9,626.2L1620.9,626.2z"/>
	<path class="st0" d="M1613.9,589.9c-0.2-0.5-0.4-1-0.6-1.6c-0.7-4.2,2.9-4.7,5.8-3.2c5,2.6,6.4,9.4,1.9,9.7
		C1618.5,595,1615.3,592.8,1613.9,589.9L1613.9,589.9z"/>
	<path class="st0" d="M1605.1,554.5c-0.3-0.5-0.5-1.1-0.7-1.7c-0.9-4.5,3.1-5.1,6.5-3.5c6,2.8,7.8,10.2,2.7,10.6
		C1610.6,560,1606.8,557.6,1605.1,554.5L1605.1,554.5z"/>
	<path class="st0" d="M1594.7,519.9c-0.4-0.7-0.7-1.3-0.9-1.8c-1.3-4.8,3.3-5.4,7.1-3.7c6.5,2.9,9.1,10.3,4,11.1
		C1601.7,526.1,1596.9,523.4,1594.7,519.9L1594.7,519.9z"/>
	<path class="st0" d="M1582.7,486.2c-0.5-0.8-0.8-1.4-1-1.9c-1.6-5.1,3.5-5.8,7.9-4c7.4,3.1,10.7,10.9,4.9,11.9
		C1590.8,492.8,1585.3,490,1582.7,486.2L1582.7,486.2z"/>
	<path class="st0" d="M1569.2,453.6c-0.6-0.8-1-1.5-1.2-2c-2-5.4,3.7-6.1,8.7-4.2c8.4,3.2,12.3,11.5,5.9,12.5
		C1578.5,460.6,1572.2,457.6,1569.2,453.6L1569.2,453.6z"/>
	<path class="st0" d="M1554.3,422.1c-0.7-0.8-1.1-1.5-1.4-2.1c-2.3-5.5,3.9-6.2,9.4-4.3c9,3.2,13.7,11.2,7.6,12.7
		C1565.6,429.6,1558.1,426.5,1554.3,422.1L1554.3,422.1z"/>
	<path class="st0" d="M1538.2,391.8c-0.8-0.9-1.2-1.5-1.6-2.1c-2.7-5.7,4.1-6.4,10.2-4.4c9.9,3.3,15.4,11.5,8.7,13.1
		C1550.9,399.6,1542.5,396.4,1538.2,391.8L1538.2,391.8z"/>
	<path class="st0" d="M1520.9,362.8c-0.9-0.9-1.4-1.6-1.8-2.2c-3.1-5.8,4.3-6.5,11-4.5c11,3.4,17.2,11.8,9.9,13.4
		C1534.9,370.7,1525.6,367.5,1520.9,362.8L1520.9,362.8z"/>
	<path class="st0" d="M1502.5,335.2c-1-0.9-1.6-1.6-2-2.2c-3.5-5.8,4.4-6.5,11.7-4.5c11.8,3.4,18.7,11.8,11,13.5
		C1517.9,343.2,1507.8,339.8,1502.5,335.2L1502.5,335.2z"/>
	<path class="st0" d="M1483.1,309c-1.1-0.9-1.7-1.6-2.2-2.2c-3.8-5.6,4-6.4,11-4.9c12.8,2.8,21.9,11.4,14.5,13.7
		C1501,317.3,1489.3,314,1483.1,309L1483.1,309z"/>
	<path class="st0" d="M1462.7,284.3c-1.2-0.9-1.9-1.6-2.4-2.2c-4.2-5.6,4.1-6.4,11.7-4.8c13.8,2.8,23.8,11.3,16,13.6
		C1482.3,292.6,1469.5,289.3,1462.7,284.3L1462.7,284.3z"/>
	<path class="st0" d="M1441.7,261.2c-1.3-0.9-2.1-1.6-2.7-2.2c-4.6-5.4,4.2-6.2,12.3-4.7c13.9,2.6,24.7,10.4,18.1,13
		C1463.9,269.6,1449.4,266.3,1441.7,261.2L1441.7,261.2z"/>
	<path class="st0" d="M1419.7,239.8c-1.4-0.8-2.2-1.5-2.9-2.1c-5.1-5.3,4.2-5.8,11.2-4.8c15.3,2.1,28.7,10.2,21.3,12.9
		C1443.6,248,1428.1,244.8,1419.7,239.8L1419.7,239.8z"/>
	<path class="st0" d="M1397,220.1c-1.5-0.8-2.4-1.5-3.1-2c-5.4-5,4.2-5.3,10-4.8c15.9,1.4,31.9,9.1,25.5,12.3
		C1424.2,228.2,1406.6,225.2,1397,220.1L1397,220.1z"/>
	<path class="st0" d="M1373.8,202.3c-1.6-0.8-2.5-1.4-3.3-1.9c-5.2-4.3,3-4.9,8.6-4.6c16.1,0.8,34.7,7.9,29.7,11.4
		C1404.5,210.1,1384.6,207.3,1373.8,202.3L1373.8,202.3z"/>
	<path class="st0" d="M1350.2,186.3c-1.7-0.7-2.7-1.3-3.5-1.7c-6.1-4.3,4.8-4.3,7.1-4.3c16.5,0.2,38.5,7.2,33.1,10.5
		C1382.4,193.5,1361.5,191,1350.2,186.3L1350.2,186.3z"/>
	<path class="st0" d="M1326.4,172.4c-1.8-0.6-2.8-1.1-3.6-1.5c-4.7-2.8,0.4-3.5,3.9-3.7c14.9-0.7,41.3,5.5,37.7,8.9
		C1361.4,178.9,1339,176.7,1326.4,172.4L1326.4,172.4z"/>
	<path class="st0" d="M1303.2,160.4c-1.7-0.5-2.7-0.9-3.5-1.2c-1-0.5-4.2-2.1,1.2-2.7c12.5-1.5,42.7,3.8,38.9,6.9
		C1337,165.7,1315.4,163.9,1303.2,160.4L1303.2,160.4z"/>
	<path class="st0" d="M1279.9,150.6c-1.7-0.4-2.5-0.7-3.3-0.9c-1.1-0.4-3.3-1.3-0.6-1.9c8.4-1.9,40.6,2.1,39.2,4.8
		C1313.9,154.8,1291.3,153.2,1279.9,150.6L1279.9,150.6z"/>
	<path class="st0" d="M1256.2,142.9c-1.1-0.2-2.2-0.4-3.2-0.7c-1-0.3-2.7-0.8-1.2-1.2c6.3-1.7,39.4,1.2,38.1,3.3
		C1288.8,146,1267.2,144.8,1256.2,142.9L1256.2,142.9z"/>
	<path class="st0" d="M1232.2,137.6c-1-0.1-2.1-0.2-3.1-0.4c-1.3-0.2-1.4-0.3-1.7-0.5c1.7-1.4,35.1,0.1,37.2,1.7
		C1263.3,139.7,1241.5,138.6,1232.2,137.6L1232.2,137.6z"/>
	<path class="st0" d="M1208.2,134.6c-1,0-2-0.1-2.9-0.2c-1.5-0.1-1.5-0.1-1.6-0.2c2-0.4,34.1-0.1,35.2,0.7
		C1236.9,135.4,1217.6,135,1208.2,134.6L1208.2,134.6z"/>
</g>
</svg>
