<?xml version="1.0" encoding="utf-8"?>
<!-- Generator: Adobe Illustrator 24.0.2, SVG Export Plug-In . SVG Version: 6.00 Build 0)  -->
<svg version="1.1" id="Capa_1" xmlns="http://www.w3.org/2000/svg" xmlns:xlink="http://www.w3.org/1999/xlink" x="0px" y="0px"
	 viewBox="0 0 1920 1080" style="enable-background:new 0 0 1920 1080;" xml:space="preserve">
<style type="text/css">
	.st0{fill:#333333;}
</style>
<g>
	<path class="st0" d="M1464.2,814.4c0.8-0.2,1.6-0.5,2.5-0.7c0.4-0.1,0.8-0.2,1.1-0.4c-0.8,0-0.8,0-32.8,8.5c0.1,0,0.3-0.1,0.4-0.1
		l20.5-5.1C1458.6,815.9,1461.4,815.2,1464.2,814.4L1464.2,814.4z"/>
	<path class="st0" d="M1483.1,807.7c0.8-0.3,1.5-0.6,2.3-0.9c0.4-0.2,0.7-0.3,1-0.6c0,0-0.1-0.1-0.1-0.1c-3.3-0.1-28.3,7.6-30.3,9
		c0,0,0.1,0.1,0.1,0.1C1458.6,815.1,1475.9,810.3,1483.1,807.7L1483.1,807.7z"/>
	<path class="st0" d="M1501.1,798.1c0.7-0.3,1.4-0.7,2-1.1c0.5-0.4,1.6-1.1,0.1-1.1c-4.7,0-27.2,8-27.3,9.7
		C1477.1,806.6,1493.6,801.6,1501.1,798.1L1501.1,798.1z"/>
	<path class="st0" d="M1518.1,785.6c0.6-0.4,1.3-0.8,1.8-1.3c0.5-0.4,1.8-1.7-1-1.4c-6.7,0.6-25.8,9-23.8,10.4
		C1496.6,794.3,1511.1,789.8,1518.1,785.6L1518.1,785.6z"/>
	<path class="st0" d="M1534.1,770.1c0.6-0.4,1.1-0.9,1.6-1.4c1.7-2.1-0.8-1.9-2.4-1.6c-7.9,1.4-23,9.6-19.9,10.8
		C1515.6,778.8,1528.2,774.4,1534.1,770.1L1534.1,770.1z"/>
	<path class="st0" d="M1549.1,751.5c0.7-0.7,1.1-1.2,1.4-1.5c2-3.1-2.9-2-3.9-1.7c-8.5,2.2-20,10.2-16.2,11.3
		C1533.5,760.4,1544.3,755.7,1549.1,751.5L1549.1,751.5z"/>
	<path class="st0" d="M1562.9,729.8c0.6-0.7,1-1.2,1.2-1.6c1.9-3.8-3.8-2-4.5-1.8c-8.1,2.6-17.4,10.8-13.2,11.5
		C1549.9,738.5,1558.9,734,1562.9,729.8L1562.9,729.8z"/>
	<path class="st0" d="M1575.4,704.9c0.4-0.5,0.7-1.1,1.1-1.6c1.4-3.5-2.5-2.7-4.8-1.8c-7,2.8-14.2,10.4-10.6,11.3
		C1564.1,713.6,1572,709.2,1575.4,704.9L1575.4,704.9z"/>
	<path class="st0" d="M1586.9,676.7c0.4-0.5,0.7-1.1,0.9-1.7c1.1-3.6-2.2-3-4.4-2.1c-6.8,2.9-13,11.1-8.8,11.7
		C1577.6,685,1584.1,680.9,1586.9,676.7L1586.9,676.7z"/>
	<path class="st0" d="M1597,645.1c0.3-0.5,0.5-1.1,0.7-1.7c0.9-3.6-2.2-3.1-3.9-2.3c-5.8,2.7-11,10.9-7.4,11.6
		C1589.1,653.3,1594.7,649.3,1597,645.1L1597,645.1z"/>
	<path class="st0" d="M1605.9,610.1c0.3-0.5,0.5-1.1,0.6-1.7c0.7-3.6-1.9-3.1-3.5-2.3c-5.4,2.7-9.6,11-5.8,11.3
		C1599.7,617.6,1604.1,613.9,1605.9,610.1L1605.9,610.1z"/>
	<path class="st0" d="M1613.4,571.6c0.2-0.5,0.4-1.1,0.5-1.6c0.5-3.4-1.7-3.1-3.1-2.4c-4.5,2.4-7.9,10.5-4.7,10.9
		C1608.3,578.8,1612,575.3,1613.4,571.6L1613.4,571.6z"/>
	<path class="st0" d="M1619.6,529.5c0.2-0.5,0.3-1,0.4-1.5c0.3-3.3-1.5-3-2.6-2.4c-3.9,2.3-6.5,10.2-3.3,10.2
		C1615.8,535.9,1618.5,532.8,1619.6,529.5L1619.6,529.5z"/>
	<path class="st0" d="M1624.3,483.8c0.1-0.5,0.2-0.9,0.3-1.4c0.2-2.9-1.3-2.7-2.2-2.2c-3.1,2-5,9.2-2.5,9.2
		C1621.4,489.5,1623.6,486.8,1624.3,483.8L1624.3,483.8z"/>
	<path class="st0" d="M1627.8,434.4c0.1-0.4,0.1-0.8,0.2-1.3c0.1-2.7-1.2-2.5-1.8-2c-2.5,1.8-3.9,8.4-1.8,8.4
		C1625.5,439.5,1627.2,437,1627.8,434.4L1627.8,434.4z"/>
	<path class="st0" d="M1629.6,381.3c0.1-0.3,0.1-0.7,0.1-1c0-2.5-1.1-2-1.3-1.8c-1.9,1.1-2.9,7-1.3,7.1
		C1628,385.5,1629.2,383.4,1629.6,381.3L1629.6,381.3z"/>
	<path class="st0" d="M1629.9,324.3c0-0.3,0-0.5,0.1-0.8c-0.1-1.5-0.6-1.6-0.9-1.4c-1.2,0.8-1.8,5.3-0.7,5.4
		C1629,327.6,1629.7,325.8,1629.9,324.3L1629.9,324.3z"/>
	<path class="st0" d="M1413.5,827c0.8-0.2,1.7-0.4,2.5-0.6c0.4-0.1,0.8-0.2,1.2-0.3c-0.7,0.1-3.4,0.7-15.2,3.4
		c-5.7,1.3-11.3,2.7-17,3.9l28.1-6.3C1413.2,827.1,1413.4,827,1413.5,827L1413.5,827z"/>
	<path class="st0" d="M1433.2,821c0.8-0.3,1.6-0.5,2.3-0.8c0.3-0.2,0.7-0.3,1-0.5c0,0-0.1-0.1-0.1-0.1c-3.2-0.1-28.3,6.8-30.8,8.2
		c0,0,0,0.1,0,0.1C1408,827.7,1425.3,823.5,1433.2,821L1433.2,821z"/>
	<path class="st0" d="M1452,812.2c0.7-0.3,1.4-0.7,2.1-1c0.5-0.3,1.7-1,0.2-1c-4.8,0-27.4,7.3-27.9,8.9
		C1427.5,819.9,1444.4,815.4,1452,812.2L1452,812.2z"/>
	<path class="st0" d="M1469.9,800.5c0.7-0.4,1.3-0.8,1.9-1.2c0.5-0.4,2-1.6-0.9-1.4c-6.7,0.5-26.2,8.2-24.3,9.6
		C1448,808.6,1462.6,804.4,1469.9,800.5L1469.9,800.5z"/>
	<path class="st0" d="M1486.9,785.9c0.6-0.4,1.2-0.9,1.7-1.3c1.9-2-0.6-1.9-2.3-1.6c-7.9,1.2-23.4,8.9-20.5,10.1
		C1468,794,1480.8,789.9,1486.9,785.9L1486.9,785.9z"/>
	<path class="st0" d="M1503.1,768.2c0.8-0.6,1.2-1.1,1.5-1.5c2.2-3-2.8-1.9-3.8-1.7c-8.5,2-20.5,9.6-16.8,10.6
		C1487.1,776.5,1498.1,772.2,1503.1,768.2L1503.1,768.2z"/>
	<path class="st0" d="M1518.2,747.4c0.5-0.5,0.9-1,1.3-1.5c2.1-3.6-3.7-2-4.4-1.8c-8.2,2.4-17.9,10.1-13.7,10.9
		C1504.7,755.5,1514,751.4,1518.2,747.4L1518.2,747.4z"/>
	<path class="st0" d="M1532,723.5c0.4-0.5,0.8-1,1.1-1.6c1.6-3.4-2.4-2.7-4.7-1.8c-7.2,2.6-14.7,9.9-11.1,10.8
		C1520.3,731.6,1528.4,727.6,1532,723.5L1532,723.5z"/>
	<path class="st0" d="M1545,696.2c0.4-0.5,0.7-1.1,1-1.6c1.3-3.5-2.3-2.9-4.4-2.1c-6.9,2.7-13.4,10.5-9.3,11.2
		C1535.2,704.2,1542,700.2,1545,696.2L1545,696.2z"/>
	<path class="st0" d="M1556.7,665.7c0.3-0.5,0.6-1.1,0.8-1.6c1.1-3.5-2.1-3-3.9-2.3c-6,2.5-11.6,10.3-7.9,11.1
		C1548.3,673.5,1554.1,669.7,1556.7,665.7L1556.7,665.7z"/>
	<path class="st0" d="M1567.2,631.8c0.3-0.5,0.5-1.1,0.7-1.6c0.8-3.5-1.8-3.1-3.5-2.3c-5.4,2.5-10.1,10.5-6.3,10.9
		C1560.6,639,1565.1,635.5,1567.2,631.8L1567.2,631.8z"/>
	<path class="st0" d="M1576.4,594.4c0.2-0.5,0.4-1,0.5-1.6c0.6-3.3-1.6-3-3.1-2.3c-4.5,2.3-8.3,10-5.1,10.5
		C1570.9,601.4,1574.8,598,1576.4,594.4L1576.4,594.4z"/>
	<path class="st0" d="M1584.3,553.5c0.2-0.5,0.3-0.9,0.4-1.4c0.5-3.2-1.4-3-2.5-2.4c-4,2.2-7,9.9-3.8,9.9
		C1580.3,559.7,1583.2,556.7,1584.3,553.5L1584.3,553.5z"/>
	<path class="st0" d="M1591,509.1c0.1-0.4,0.2-0.9,0.3-1.3c0.3-2.9-1.2-2.7-2.1-2.2c-3.2,1.9-5.4,8.9-2.9,9
		C1587.8,514.6,1590.1,511.9,1591,509.1L1591,509.1z"/>
	<path class="st0" d="M1596.4,460.9c0.1-0.4,0.2-0.8,0.2-1.2c0.2-2.6-1-2.5-1.8-2c-2.5,1.7-4.2,8.1-2.1,8.2
		C1594,465.9,1595.8,463.5,1596.4,460.9L1596.4,460.9z"/>
	<path class="st0" d="M1600.4,409.1c0.1-0.3,0.1-0.7,0.2-1c0.1-2.4-0.9-2-1.2-1.8c-1.9,1.1-3.2,6.8-1.6,6.9
		C1598.6,413.2,1599.9,411.2,1600.4,409.1L1600.4,409.1z"/>
	<path class="st0" d="M1602.9,353.5c0.1-0.2,0.1-0.5,0.1-0.8c0-1.9-0.7-1.5-0.8-1.4c-1.3,0.7-2.1,5.1-1,5.3
		C1601.8,356.7,1602.6,355,1602.9,353.5L1602.9,353.5z"/>
	<polygon class="st0" points="1603.4,292.9 1602.8,295.1 1603.3,295.9 1604,293.6 1603.4,292.9 	"/>
	<path class="st0" d="M1365.8,837.5c0.1,0,0.1,0,0.2,0c-9.7,1.6-19,4-28.6,5.8l21.2-4.2L1365.8,837.5
		C1365.8,837.6,1365.8,837.5,1365.8,837.5L1365.8,837.5z"/>
	<path class="st0" d="M1382.6,833c0.8-0.2,1.6-0.5,2.4-0.7c0.4-0.1,0.8-0.3,1.1-0.5c0,0,0-0.1-0.1-0.1c-3-0.1-28.5,6-31.2,7.3
		C1355.9,839.4,1375.9,834.9,1382.6,833L1382.6,833z"/>
	<path class="st0" d="M1439.1,800.3c0.7-0.4,1.2-0.8,1.8-1.2c2-1.9-0.5-1.8-2.2-1.6c-8,1.1-23.9,8.2-21.1,9.4
		C1420,808,1433,803.9,1439.1,800.3L1439.1,800.3z"/>
	<path class="st0" d="M1456.4,783.5c0.6-0.4,1.1-0.9,1.6-1.4c2.4-2.9-2.6-1.9-3.7-1.7c-8.6,1.8-20.9,8.9-17.3,10
		C1439.9,791.3,1451.1,787.3,1456.4,783.5L1456.4,783.5z"/>
	<path class="st0" d="M1472.6,763.7c0.5-0.5,1-0.9,1.4-1.5c2.3-3.5-3.6-2-4.2-1.9c-8.2,2.2-18.4,9.5-14.3,10.3
		C1458.7,771.4,1468.1,767.5,1472.6,763.7L1472.6,763.7z"/>
	<path class="st0" d="M1487.7,740.7c0.5-0.5,0.9-1,1.2-1.5c1.7-3.2-2.3-2.6-4.6-1.9c-7.5,2.4-15.2,9.2-11.6,10.3
		C1475.6,748.4,1483.8,744.6,1487.7,740.7L1487.7,740.7z"/>
	<path class="st0" d="M1502,714.5c0.4-0.5,0.8-1,1.1-1.6c1.5-3.4-2-2.9-4.3-2.1c-7,2.5-13.9,10-9.9,10.7
		C1491.9,722,1498.8,718.3,1502,714.5L1502,714.5z"/>
	<path class="st0" d="M1515.2,685c0.3-0.5,0.6-1,0.9-1.6c1.2-3.4-1.8-3-3.8-2.3c-6.2,2.3-12.1,9.9-8.5,10.7
		C1506.4,692.4,1512.5,688.8,1515.2,685L1515.2,685z"/>
	<path class="st0" d="M1527.2,652.2c0.3-0.5,0.6-1,0.7-1.6c1-3.4-1.7-3-3.4-2.3c-5.6,2.3-10.6,10.1-6.8,10.5
		C1520.3,659.1,1525,655.7,1527.2,652.2L1527.2,652.2z"/>
	<path class="st0" d="M1538.1,615.9c0.2-0.5,0.4-1,0.6-1.5c0.8-3.2-1.5-3-3-2.3c-4.7,2.1-8.8,9.6-5.6,10.1
		C1532.3,622.6,1536.3,619.4,1538.1,615.9L1538.1,615.9z"/>
	<path class="st0" d="M1547.8,576.2c0.2-0.4,0.3-0.9,0.5-1.4c0.6-3.1-1.3-2.9-2.5-2.3c-4.2,2-7.4,9.5-4.2,9.6
		C1543.4,582.1,1546.5,579.3,1547.8,576.2L1547.8,576.2z"/>
	<path class="st0" d="M1556.3,533c0.1-0.4,0.3-0.9,0.4-1.3c0.4-2.8-1.1-2.6-2.1-2.1c-3.4,1.8-5.9,8.6-3.2,8.7
		C1552.9,538.3,1555.3,535.7,1556.3,533L1556.3,533z"/>
	<path class="st0" d="M1563.6,486.1c0.1-0.4,0.2-0.8,0.3-1.2c0.3-2.6-0.9-2.5-1.7-2c-2.6,1.5-4.5,7.7-2.5,7.9
		C1560.9,490.9,1562.8,488.6,1563.6,486.1L1563.6,486.1z"/>
	<path class="st0" d="M1569.5,435.6c0.1-0.3,0.1-0.6,0.2-1c0.2-2.6-1.2-1.8-1.3-1.7c-1.9,1.3-3.2,6.4-1.7,6.5
		C1567.7,439.6,1569,437.7,1569.5,435.6L1569.5,435.6z"/>
	<path class="st0" d="M1574.2,381.4c0-0.2,0.1-0.5,0.1-0.7c0.1-1.8-0.7-1.5-0.8-1.4c-1.3,0.7-2.3,4.9-1.2,5.2
		C1572.9,384.5,1573.9,383.1,1574.2,381.4L1574.2,381.4z"/>
	<polygon class="st0" points="1576.9,322.3 1576.2,324.4 1576.8,325.2 1577.6,323 1576.9,322.3 	"/>
	<path class="st0" d="M1314.3,847.6c-0.1,0-15.6,2.8-24,4.2L1314.3,847.6C1314.3,847.6,1314.3,847.6,1314.3,847.6L1314.3,847.6z"/>
	<path class="st0" d="M1331.6,843.7c0.8-0.2,1.6-0.4,2.5-0.6c0.4-0.1,0.8-0.2,1.1-0.4c0,0,0-0.1,0-0.1c-3.1-0.1-29.2,5.5-31.6,6.4
		C1304.6,849.3,1324.8,845.4,1331.6,843.7L1331.6,843.7z"/>
	<path class="st0" d="M1408.9,797.5c0.6-0.4,1.2-0.8,1.7-1.3c2.2-2.3-1.2-2.1-2.7-1.9c-8.2,1.2-22.4,8.3-18.8,9.5
		C1391.9,804.8,1403.4,801.1,1408.9,797.5L1408.9,797.5z"/>
	<path class="st0" d="M1426.2,778.6c0.5-0.4,1-0.9,1.5-1.4c2.5-3.3-3.5-2-4.2-1.9c-8.1,1.9-18.3,8.4-15.2,9.6
		C1411,786.1,1421.3,782.4,1426.2,778.6L1426.2,778.6z"/>
	<path class="st0" d="M1442.5,756.6c0.5-0.4,0.9-0.9,1.3-1.4c1.9-3.1-2.1-2.6-4.5-1.9c-7.4,2.2-15.6,8.7-12.2,9.8
		C1429.9,763.9,1438.5,760.3,1442.5,756.6L1442.5,756.6z"/>
	<path class="st0" d="M1458.1,731.4c0.4-0.5,0.8-1,1.1-1.5c1.6-3.2-1.8-2.9-4.1-2.1c-7.2,2.3-14.5,9.4-10.5,10.2
		C1447.7,738.5,1454.7,735.1,1458.1,731.4L1458.1,731.4z"/>
	<path class="st0" d="M1472.6,703c0.4-0.5,0.7-1,1-1.5c1.4-3.3-1.8-3-3.7-2.3c-6.4,2.2-12.7,9.4-9,10.2
		C1463.6,710,1469.7,706.7,1472.6,703L1472.6,703z"/>
	<path class="st0" d="M1486.1,671.2c0.3-0.5,0.6-1,0.8-1.5c1.2-3.3-1.7-3.1-3.8-2.1c-5.6,2.5-10.3,9.4-6.7,9.9
		C1478.9,677.8,1483.9,674.6,1486.1,671.2L1486.1,671.2z"/>
	<path class="st0" d="M1498.6,636.1c0.3-0.5,0.5-1,0.7-1.5c0.9-3.2-1.4-3-2.9-2.4c-4.9,2-9.3,9.2-6.1,9.8
		C1492.5,642.5,1496.7,639.4,1498.6,636.1L1498.6,636.1z"/>
	<path class="st0" d="M1510,597.6c0.2-0.4,0.4-0.9,0.5-1.3c0.7-3-1.2-2.9-2.4-2.4c-4.3,1.9-7.9,9.1-4.7,9.2
		C1505.4,603.2,1508.5,600.5,1510,597.6L1510,597.6z"/>
	<path class="st0" d="M1520.2,555.6c0.2-0.4,0.3-0.8,0.4-1.3c0.5-2.7-1-2.6-2-2.1c-3.4,1.7-6.2,8.3-3.6,8.4
		C1516.6,560.7,1519.1,558.3,1520.2,555.6L1520.2,555.6z"/>
	<path class="st0" d="M1529.4,510c0.1-0.4,0.2-0.8,0.3-1.2c0.4-2.5-0.9-2.4-1.7-2c-2.8,1.5-5,7.5-2.8,7.7
		C1526.5,514.6,1528.5,512.4,1529.4,510L1529.4,510z"/>
	<path class="st0" d="M1537.3,460.8c0.1-0.3,0.1-0.6,0.2-0.9c0.2-2.1-0.7-2-1.3-1.7c-2,1.2-3.6,6.2-2,6.4
		C1535.2,464.7,1536.7,462.9,1537.3,460.8L1537.3,460.8z"/>
	<path class="st0" d="M1544,408c0.1-0.2,0.1-0.5,0.1-0.7c0.1-1.5-0.5-1.6-0.9-1.3c-1.5,1-2.4,5-1.2,4.9
		C1542.8,410.9,1543.6,409.3,1544,408L1544,408z"/>
	<polygon class="st0" points="1548.9,350.3 1548,352.4 1548.6,353.2 1549.4,351 1548.9,350.3 	"/>
	<polygon class="st0" points="1553.4,290.8 1553.1,291.6 1553.3,291.8 1553.5,291.1 1553.4,290.8 	"/>
	<path class="st0" d="M1259,856.9c-4.4,0.7-8.8,1.4-13.3,2l14-2.1C1259.5,856.9,1259.2,856.9,1259,856.9L1259,856.9z"/>
	<path class="st0" d="M1280.2,853.1c0.8-0.2,1.7-0.4,2.5-0.6c0.4-0.1,0.8-0.2,1.2-0.4c-1.3-0.6-30.2,4.9-32,5.5
		C1252.7,857.9,1272.9,854.6,1280.2,853.1L1280.2,853.1z"/>
	<path class="st0" d="M1379,792.2c0.6-0.4,1.1-0.9,1.6-1.3c2.7-3.2-3.3-2-4-1.9c-8.2,1.7-18.8,7.7-15.7,9.1
		C1363.5,799.2,1374,795.8,1379,792.2L1379,792.2z"/>
	<path class="st0" d="M1396.5,771.2c0.5-0.4,1-0.9,1.4-1.4c2.1-3-2-2.6-4.5-1.9c-6.9,1.8-16.4,8.1-12.7,9.2
		C1383.6,778,1392.3,774.7,1396.5,771.2L1396.5,771.2z"/>
	<path class="st0" d="M1413.3,747c0.5-0.5,0.9-1,1.2-1.5c1.8-3.1-1.9-2.8-4.1-2.1c-7.3,2-14.9,8.8-10.9,9.7
		C1402.4,753.7,1409.8,750.4,1413.3,747L1413.3,747z"/>
	<path class="st0" d="M1429.2,719.6c0.4-0.5,0.7-1,1-1.5c1.6-3.3-1.7-3-4.4-2.1c-6.3,2.3-12.2,8.6-8.8,9.6
		C1419.7,726.3,1426.1,723.1,1429.2,719.6L1429.2,719.6z"/>
	<path class="st0" d="M1444.1,688.9c0.3-0.5,0.6-0.9,0.9-1.4c1.3-3.2-1.6-3-3.8-2.1c-5.7,2.3-10.7,8.9-7.1,9.5
		C1436.5,695.2,1441.6,692.2,1444.1,688.9L1444.1,688.9z"/>
	<path class="st0" d="M1458.1,654.9c0.3-0.5,0.5-0.9,0.7-1.4c1.1-3.1-1.4-3-3.3-2.1c-5,2.2-9.1,8.6-6,9.2
		C1451.6,661,1456,658.2,1458.1,654.9L1458.1,654.9z"/>
	<path class="st0" d="M1471,617.6c0.3-0.4,0.4-0.9,0.6-1.3c0.8-3-1.2-2.9-2.8-2.2c-4.2,2.1-7.6,8.5-4.6,8.7
		C1466.1,623,1469.4,620.5,1471,617.6L1471,617.6z"/>
	<path class="st0" d="M1482.9,576.8c0.2-0.4,0.3-0.8,0.5-1.2c0.6-2.7-0.9-2.6-2-2.1c-3.5,1.5-6.6,7.9-4,8.1
		C1478.8,581.7,1481.5,579.7,1482.9,576.8L1482.9,576.8z"/>
	<path class="st0" d="M1493.9,532.5c0.2-0.4,0.2-0.7,0.4-1.1c0.5-2.4-0.8-2.4-1.6-2c-2.8,1.4-5.3,7.2-3.1,7.4
		C1490.8,537,1492.9,534.9,1493.9,532.5L1493.9,532.5z"/>
	<path class="st0" d="M1503.6,484.7c0.1-0.3,0.2-0.6,0.2-0.9c0.4-2.5-1.1-1.8-1.2-1.7c-2.1,1.1-3.8,6-2.2,6.2
		C1501.4,488.4,1502.9,486.6,1503.6,484.7L1503.6,484.7z"/>
	<path class="st0" d="M1512.2,433.3c0.1-0.2,0.1-0.5,0.2-0.7c0.2-1.6-0.5-1.5-0.9-1.3c-1.5,0.9-2.6,4.8-1.3,4.8
		C1510.9,436,1511.8,434.6,1512.2,433.3L1512.2,433.3z"/>
	<polygon class="st0" points="1519.2,377 1518.3,379 1518.8,379.8 1519.8,377.7 1519.2,377 	"/>
	<polygon class="st0" points="1525.8,319 1525.5,319.8 1525.7,320 1526,319.3 1525.8,319 	"/>
	<path class="st0" d="M1228.3,861.1c0.9-0.1,1.7-0.3,2.6-0.5c0.4-0.1,0.8-0.2,1.2-0.3c-1-0.6-30.3,4.1-32.2,4.6
		C1200.6,865.2,1221.2,862.3,1228.3,861.1L1228.3,861.1z"/>
	<path class="st0" d="M1349.7,784.4c0.6-0.4,1-0.9,1.4-1.3c2.2-2.9-1.9-2.6-4.4-2c-7.8,1.8-16.5,7.6-13.1,8.7
		C1336.4,790.7,1345.3,787.8,1349.7,784.4L1349.7,784.4z"/>
	<path class="st0" d="M1367.7,761.2c0.5-0.4,0.9-0.9,1.3-1.4c1.9-3-1.6-2.8-4-2.2c-7.4,1.8-15.3,8.3-11.4,9.2
		C1356.5,767.5,1364,764.5,1367.7,761.2L1367.7,761.2z"/>
	<path class="st0" d="M1384.8,734.8c0.4-0.4,0.8-0.9,1.1-1.4c1.7-3.1-1.6-3-4.3-2.1c-6.5,2.1-12.6,8.2-9.2,9.1
		C1375,741.1,1381.6,738.2,1384.8,734.8L1384.8,734.8z"/>
	<path class="st0" d="M1401,705.2c0.4-0.4,0.7-0.9,0.9-1.4c1.4-3.1-1.5-3-3.8-2.2c-5.9,2.1-11.2,8.5-7.6,9.1
		C1393.2,711.2,1398.4,708.4,1401,705.2L1401,705.2z"/>
	<path class="st0" d="M1416.4,672.4c0.3-0.4,0.6-0.9,0.8-1.4c1.2-3-1.3-2.9-3.3-2.2c-5.1,2-9.5,8.1-6.4,8.8
		C1409.7,678.2,1414.2,675.5,1416.4,672.4L1416.4,672.4z"/>
	<path class="st0" d="M1430.9,636.2c0.3-0.4,0.5-0.8,0.7-1.3c1-2.9-1.1-2.9-2.8-2.1c-4.5,2-8.1,8.1-4.9,8.4
		C1425.7,641.4,1429.2,639,1430.9,636.2L1430.9,636.2z"/>
	<path class="st0" d="M1444.4,596.7c0.2-0.4,0.4-0.8,0.5-1.2c0.8-2.8-1.2-2.5-2.3-2c-3.6,1.7-6.5,7.4-3.9,7.7
		C1440.3,601.4,1443.1,599.2,1444.4,596.7L1444.4,596.7z"/>
	<path class="st0" d="M1457,553.7c0.2-0.4,0.3-0.7,0.4-1.1c0.6-2.4-0.8-2.3-1.6-2c-2.8,1.2-5.5,6.9-3.4,7.2
		C1453.7,558,1455.9,556,1457,553.7L1457,553.7z"/>
	<path class="st0" d="M1468.6,507.2c0.1-0.3,0.2-0.6,0.3-0.9c0.5-2.4-1-1.8-1.2-1.7c-2.1,1-4,5.7-2.4,6
		C1466.1,510.7,1467.8,509.1,1468.6,507.2L1468.6,507.2z"/>
	<path class="st0" d="M1479.1,457.1c0.1-0.2,0.1-0.5,0.2-0.7c0.2-1.5-0.4-1.5-0.8-1.3c-1.5,0.8-2.8,4.6-1.5,4.6
		C1477.5,459.8,1478.6,458.5,1479.1,457.1L1479.1,457.1z"/>
	<polygon class="st0" points="1488,402.3 1487,404.3 1487.5,405.1 1488.6,403 1488,402.3 	"/>
	<polygon class="st0" points="1496.6,345.8 1496.3,346.5 1496.5,346.8 1496.8,346.1 1496.6,345.8 	"/>
	<path class="st0" d="M1176.2,867.8c0.9-0.1,1.8-0.3,2.6-0.4c0.4-0.1,0.9-0.2,1.3-0.3c-0.8-0.5-30.4,3.3-32.5,3.7
		C1148.4,871.1,1169,868.8,1176.2,867.8L1176.2,867.8z"/>
	<path class="st0" d="M1321.3,774c0.5-0.4,0.9-0.9,1.3-1.3c2.1-2.9-1.4-2.8-3.9-2.2c-7.3,1.6-15.3,7.3-12.2,8.6
		C1309.1,780.1,1317.2,777.3,1321.3,774L1321.3,774z"/>
	<path class="st0" d="M1339.5,748.7c0.4-0.4,0.8-0.9,1.2-1.3c1.9-3-1.5-3-4.1-2.2c-6.7,1.9-13.1,7.7-9.7,8.7
		C1329.6,754.6,1336.2,751.9,1339.5,748.7L1339.5,748.7z"/>
	<path class="st0" d="M1357.1,720.2c0.4-0.4,0.7-0.9,1-1.3c1.6-3-1.3-3-3.7-2.2c-6,1.9-11.6,8-8,8.7
		C1349,725.8,1354.3,723.2,1357.1,720.2L1357.1,720.2z"/>
	<path class="st0" d="M1373.8,688.5c0.4-0.4,0.6-0.9,0.8-1.3c1.5-3.2-1.4-2.8-3.1-2.2c-5.3,1.9-9.9,7.8-6.8,8.5
		C1366.9,693.9,1371.5,691.4,1373.8,688.5L1373.8,688.5z"/>
	<path class="st0" d="M1389.7,653.5c0.3-0.4,0.5-0.8,0.7-1.2c1.1-2.8-1-2.9-2.7-2.2c-4.5,1.8-8.4,7.8-5.3,8.1
		C1384.4,658.4,1387.9,656.1,1389.7,653.5L1389.7,653.5z"/>
	<path class="st0" d="M1404.8,615.1c0.2-0.4,0.4-0.8,0.6-1.1c0.9-2.5-0.8-2.6-2.2-2c-3.7,1.6-6.8,7.1-4.3,7.4
		C1400.4,619.6,1403.3,617.5,1404.8,615.1L1404.8,615.1z"/>
	<path class="st0" d="M1419,573.4c0.2-0.3,0.3-0.7,0.5-1c0.7-2.3-0.7-2.4-1.8-1.8c-3,1.5-5.5,6.5-3.4,6.8
		C1415.6,577.5,1417.9,575.6,1419,573.4L1419,573.4z"/>
	<path class="st0" d="M1432.3,528.2c0.1-0.3,0.3-0.6,0.3-0.9c0.5-1.9-0.5-2-1.1-1.7c-2.3,1-4.4,5.5-2.7,5.8
		C1429.7,531.6,1431.4,530.1,1432.3,528.2L1432.3,528.2z"/>
	<path class="st0" d="M1444.6,479.6c0.1-0.2,0.2-0.4,0.2-0.7c0.3-1.4-0.3-1.5-0.8-1.3c-1.6,0.8-3,4.5-1.7,4.5
		C1443,482.1,1444.1,480.8,1444.6,479.6L1444.6,479.6z"/>
	<polygon class="st0" points="1455.4,426.2 1454.3,428.1 1454.9,428.9 1455.9,426.9 1455.4,426.2 	"/>
	<polygon class="st0" points="1466,371.2 1465.6,371.9 1465.8,372.1 1466.1,371.5 1466,371.2 	"/>
	<path class="st0" d="M1123.9,873.1c0.9-0.1,1.8-0.2,2.7-0.3c0.4-0.1,0.9-0.1,1.3-0.2c-0.8-0.5-30.7,2.6-32.6,2.9
		C1096.9,875.6,1117,873.9,1123.9,873.1L1123.9,873.1z"/>
	<path class="st0" d="M1293.6,761.1c0.5-0.4,0.9-0.8,1.2-1.3c2-2.9-1.4-2.9-4.2-2.3c-6.7,1.7-13.3,7.2-10,8.3
		C1283.2,766.7,1290.1,764.1,1293.6,761.1L1293.6,761.1z"/>
	<path class="st0" d="M1312.3,733.7c0.4-0.4,0.7-0.8,1.1-1.3c1.7-2.9-1.3-2.9-3.7-2.2c-6.1,1.7-11.9,7.5-8.3,8.3
		C1303.9,739,1309.4,736.6,1312.3,733.7L1312.3,733.7z"/>
	<path class="st0" d="M1330.3,703.1c0.4-0.4,0.6-0.8,0.9-1.3c1.4-2.8-1.1-2.9-3.2-2.2c-5.3,1.7-10.2,7.3-7.1,8.1
		C1323.1,708.3,1327.9,706,1330.3,703.1L1330.3,703.1z"/>
	<path class="st0" d="M1347.6,669.3c0.3-0.4,0.5-0.8,0.7-1.2c1.2-2.7-0.9-2.8-2.6-2.2c-4.6,1.6-8.7,7.4-5.6,7.8
		C1342,674,1345.6,671.8,1347.6,669.3L1347.6,669.3z"/>
	<path class="st0" d="M1364.1,632.2c0.2-0.4,0.4-0.7,0.6-1.1c1-2.7-1-2.5-2.2-2c-3.8,1.5-7.1,6.8-4.6,7.2
		C1359.4,636.4,1362.4,634.7,1364.1,632.2L1364.1,632.2z"/>
	<path class="st0" d="M1379.9,591.7c0.2-0.3,0.3-0.7,0.5-1c0.8-2.3-0.7-2.4-1.8-1.9c-3.1,1.4-5.8,6.2-3.7,6.6
		C1376.2,595.6,1378.7,593.8,1379.9,591.7L1379.9,591.7z"/>
	<path class="st0" d="M1394.8,547.9c0.1-0.3,0.3-0.5,0.4-0.8c0.7-2.3-0.9-1.7-1.1-1.7c-2.3,0.9-4.6,5.3-2.9,5.6
		C1392.1,551.1,1393.9,549.6,1394.8,547.9L1394.8,547.9z"/>
	<path class="st0" d="M1408.8,500.6c0.1-0.2,0.2-0.4,0.2-0.6c0.3-1.3-0.3-1.5-0.8-1.3c-1.6,0.7-3.2,4-2,4.3
		C1407,503.1,1408.2,501.8,1408.8,500.6L1408.8,500.6z"/>
	<polygon class="st0" points="1421.4,448.7 1420.3,450.4 1420.8,451.3 1422,449.4 1421.4,448.7 	"/>
	<polygon class="st0" points="1433.9,395.1 1433.5,395.8 1433.7,396 1434.1,395.4 1433.9,395.1 	"/>
	<path class="st0" d="M1071.4,877.1c0.9-0.1,1.8-0.1,2.7-0.2c0.5,0,0.9-0.1,1.4-0.2c-2.1-0.4-32.5,2-32.8,2
		C1044.2,878.8,1064,877.7,1071.4,877.1L1071.4,877.1z"/>
	<path class="st0" d="M1266.8,745.8c0.4-0.4,0.8-0.8,1.1-1.2c1.8-2.8-1.2-2.9-3.6-2.3c-6.2,1.5-12.2,7.1-8.7,7.9
		C1258.1,750.8,1263.7,748.6,1266.8,745.8L1266.8,745.8z"/>
	<path class="st0" d="M1286,716.3c0.4-0.4,0.7-0.8,0.9-1.2c1.5-2.7-1-2.8-3.1-2.3c-5.4,1.5-10.5,6.9-7.4,7.8
		C1278.5,721.2,1283.4,719,1286,716.3L1286,716.3z"/>
	<path class="st0" d="M1304.6,683.6c0.3-0.4,0.6-0.7,0.8-1.1c1.3-2.6-0.8-2.8-2.6-2.2c-4.4,1.4-8.8,6.6-6.2,7.4
		C1298.3,688.3,1302.4,686.2,1304.6,683.6L1304.6,683.6z"/>
	<path class="st0" d="M1322.5,647.7c0.2-0.3,0.4-0.7,0.6-1.1c1.1-2.6-0.9-2.4-2.2-2c-3.8,1.3-7.4,6.4-4.8,6.9
		C1317.7,651.8,1320.8,650,1322.5,647.7L1322.5,647.7z"/>
	<path class="st0" d="M1339.7,608.5c0.2-0.3,0.4-0.6,0.5-1c0.9-2.2-0.6-2.3-1.7-1.9c-3.1,1.2-6,5.9-3.9,6.3
		C1335.9,612.3,1338.3,610.6,1339.7,608.5L1339.7,608.5z"/>
	<path class="st0" d="M1356.1,566c0.2-0.3,0.3-0.5,0.4-0.8c0.7-2-0.5-1.9-1.3-1.6c-2.3,1-4.4,4.9-2.9,5.3
		C1353.2,569.1,1355.1,567.7,1356.1,566L1356.1,566z"/>
	<path class="st0" d="M1371.7,520.1c0.1-0.2,0.2-0.4,0.3-0.6c0.4-1.4-0.3-1.5-0.7-1.3c-1.7,0.6-3.3,4.1-2,4.2
		C1369.8,522.5,1371.1,521.5,1371.7,520.1L1371.7,520.1z"/>
	<polygon class="st0" points="1386.2,469.6 1385,471.3 1385.5,472.2 1386.7,470.3 1386.2,469.6 	"/>
	<polygon class="st0" points="1400.4,417.6 1400.1,418.2 1400.2,418.5 1400.6,417.8 1400.4,417.6 	"/>
	<path class="st0" d="M1018.7,879.8c0.9,0,1.8-0.1,2.7-0.2c0.5,0,0.9-0.1,1.4-0.1c-1.9-0.4-32.6,1.1-32.9,1.2
		C991.5,880.8,1011.7,880.1,1018.7,879.8L1018.7,879.8z"/>
	<path class="st0" d="M1240.9,728.1c0.4-0.4,0.7-0.8,1-1.2c1.6-2.6-0.6-3-3.6-2.2c-5.5,1.6-10.2,6.4-7.2,7.3
		C1233.2,732.6,1238.2,730.7,1240.9,728.1L1240.9,728.1z"/>
	<path class="st0" d="M1260.7,696.5c0.3-0.3,0.6-0.7,0.8-1.1c1.4-2.5-0.5-3-3-2.1c-4.8,1.6-8.8,6.5-5.8,7
		C1254.7,700.7,1258.5,698.9,1260.7,696.5L1260.7,696.5z"/>
	<path class="st0" d="M1279.9,661.8c0.3-0.3,0.5-0.7,0.7-1c1.1-2.3-0.6-2.5-2.1-2c-3.9,1.2-7.7,6.1-5.1,6.6
		C1275,665.7,1278.1,664,1279.9,661.8L1279.9,661.8z"/>
	<path class="st0" d="M1298.5,623.9c0.2-0.3,0.4-0.6,0.6-0.9c0.9-2.1-0.5-2.3-1.7-1.9c-3.3,1.1-6.3,5.6-4.2,6.1
		C1294.6,627.4,1297.1,625.9,1298.5,623.9L1298.5,623.9z"/>
	<path class="st0" d="M1316.4,582.7c0.2-0.3,0.3-0.5,0.4-0.8c0.7-1.9-0.5-1.9-1.3-1.6c-2.5,1-4.8,4.7-3.1,5.1
		C1313.5,585.6,1315.4,584.3,1316.4,582.7L1316.4,582.7z"/>
	<path class="st0" d="M1333.7,538.1c0.1-0.2,0.2-0.4,0.3-0.6c0.5-1.4-0.3-1.5-0.9-1.2c-1.7,0.8-3.3,3.9-2,4
		C1331.8,540.4,1333,539.2,1333.7,538.1L1333.7,538.1z"/>
	<polygon class="st0" points="1349.8,489.1 1348.4,490.7 1349,491.5 1350.3,489.8 1349.8,489.1 	"/>
	<polygon class="st0" points="1365.7,438.5 1365.3,439.1 1365.5,439.3 1365.9,438.8 1365.7,438.5 	"/>
	<path class="st0" d="M966.1,881.1c0.9,0,1.8-0.1,2.8-0.1c0.5,0,0.9,0,1.4-0.1c-1.8-0.4-32.6,0.3-32.9,0.3
		C938.7,881.3,958.9,881.2,966.1,881.1L966.1,881.1z"/>
	<path class="st0" d="M1084,844.9c0.7-0.3,1.3-0.6,1.9-0.9c3.1-2-1.2-2.2-2.6-2.2c-8.3,0-21.7,3.9-18.9,5.5
		C1066.7,848.7,1078,847.2,1084,844.9L1084,844.9z"/>
	<path class="st0" d="M1106.8,829.5c0.6-0.3,1.2-0.6,1.7-1c2.8-2.3-1.4-2.5-4-2.3c-8,0.6-18.1,4.7-14.9,6.1
		C1092.2,833.5,1101.7,831.9,1106.8,829.5L1106.8,829.5z"/>
	<path class="st0" d="M1216,708c0.4-0.3,0.6-0.7,0.9-1c1.5-2.4-0.4-2.9-2.9-2.2c-4.9,1.4-9.1,6.1-6,6.7
		C1209.8,711.9,1213.8,710.2,1216,708L1216,708z"/>
	<path class="st0" d="M1236.4,674.5c0.3-0.3,0.5-0.7,0.7-1c1.2-2.2-0.4-2.6-2.5-1.9c-3.9,1.3-7.4,5.7-4.9,6.2
		C1231.4,678.1,1234.6,676.5,1236.4,674.5L1236.4,674.5z"/>
	<path class="st0" d="M1256.4,637.8c0.3-0.3,0.4-0.6,0.6-0.9c1-2.1-0.4-2.3-1.7-1.9c-3.3,1-6.5,5.3-4.4,5.9
		C1252.3,641.1,1255,639.7,1256.4,637.8L1256.4,637.8z"/>
	<path class="st0" d="M1275.8,597.8c0.1-0.2,0.3-0.5,0.4-0.7c0.8-1.9-0.4-1.9-1.2-1.6c-2.5,0.9-4.9,4.5-3.3,4.9
		C1272.7,600.7,1274.6,599.4,1275.8,597.8L1275.8,597.8z"/>
	<path class="st0" d="M1294.5,554.6c0.1-0.2,0.2-0.4,0.3-0.6c0.5-1.3-0.3-1.5-0.9-1.2c-1.8,0.7-3.5,3.7-2.2,3.9
		C1292.5,556.8,1293.8,555.7,1294.5,554.6L1294.5,554.6z"/>
	<polygon class="st0" points="1312.2,507 1310.8,508.6 1311.2,509.4 1312.7,507.7 1312.2,507 	"/>
	<polygon class="st0" points="1329.8,457.9 1329.3,458.5 1329.5,458.7 1329.9,458.2 1329.8,457.9 	"/>
	<path class="st0" d="M913.4,881c0.9,0,1.8,0,2.8,0c0.5,0,0.9,0,1.4,0c-1.6-0.4-32.6-0.6-32.9-0.6C885.8,880.5,905.9,881,913.4,881
		L913.4,881z"/>
	<path class="st0" d="M1080.3,816.8c0.6-0.3,1.1-0.6,1.6-1c2.7-2.4-1.2-2.7-4.4-2.4c-7.4,0.8-15.7,4.6-13,6.1
		C1066.8,820.8,1075.5,819.3,1080.3,816.8L1080.3,816.8z"/>
	<path class="st0" d="M1192.3,685.6c0.3-0.3,0.6-0.6,0.8-0.9c1.3-2.3-0.6-2.5-2.5-2c-4,1.2-7.6,5.3-5.1,6
		C1187.1,689,1190.4,687.5,1192.3,685.6L1192.3,685.6z"/>
	<path class="st0" d="M1213.5,650.1c0.2-0.3,0.4-0.6,0.6-0.9c1.1-2.1-0.5-2.3-2-1.8c-3.2,1.1-6.2,5-4.2,5.5
		C1209.2,653.3,1211.9,651.9,1213.5,650.1L1213.5,650.1z"/>
	<path class="st0" d="M1234.1,611.5c0.2-0.2,0.3-0.5,0.5-0.7c0.9-1.8-0.4-1.8-1.2-1.6c-2.5,0.8-5,4.3-3.4,4.7
		C1230.9,614.2,1233,613,1234.1,611.5L1234.1,611.5z"/>
	<path class="st0" d="M1254.3,569.6c0.1-0.2,0.2-0.4,0.3-0.5c0.6-1.3-0.2-1.5-0.8-1.2c-1.8,0.6-3.6,3.5-2.3,3.7
		C1252.1,571.7,1253.5,570.7,1254.3,569.6L1254.3,569.6z"/>
	<polygon class="st0" points="1273.5,523.4 1272.1,524.9 1272.5,525.7 1274,524.1 1273.5,523.4 	"/>
	<polygon class="st0" points="1292.7,475.7 1292.2,476.3 1292.3,476.5 1292.8,476 1292.7,475.7 	"/>
	<polygon class="st0" points="816.4,173.2 815.7,172.6 816.1,172 816.8,172.6 816.4,173.2 	"/>
	<path class="st0" d="M829,209.8c0.1,0.1,0.1,0.2,0.2,0.4c0.3,0.9-0.5,1.4-1.3,1c-1.1-0.5-1.4-2-0.3-2.2
		C828.1,208.9,828.7,209.3,829,209.8L829,209.8z"/>
	<path class="st0" d="M843,246.9c0.1,0.2,0.2,0.3,0.3,0.5c0.5,1.6-0.9,2.1-2.1,1.6c-1.9-0.8-2.3-3.1-0.6-3.3
		C841.6,245.6,842.5,246.2,843,246.9L843,246.9z"/>
	<path class="st0" d="M858.6,283.6c0.2,0.2,0.3,0.5,0.4,0.7c0.7,1.9-1,2.8-2.9,2.1c-2.5-1-3.3-3.9-1.1-4.3
		C856.3,281.7,857.8,282.6,858.6,283.6L858.6,283.6z"/>
	<path class="st0" d="M875.6,319.8c0.2,0.3,0.4,0.6,0.6,0.8c1,2.3-1.2,3.4-3.6,2.5c-3.2-1.2-4.3-4.6-1.6-5.2
		C872.5,317.6,874.5,318.4,875.6,319.8L875.6,319.8z"/>
	<path class="st0" d="M894,355.4c0.3,0.3,0.5,0.6,0.7,1c1.4,3-1.7,4.1-4.5,3.1c-4-1.4-5.4-5.6-2.1-6.3
		C890,352.8,892.5,353.8,894,355.4L894,355.4z"/>
	<path class="st0" d="M913.6,390.4c0.4,0.4,0.6,0.7,0.9,1.1c1.8,3.5-2,4.7-5.3,3.6c-5-1.6-6.7-6.4-2.7-7.2
		C908.8,387.5,911.8,388.6,913.6,390.4L913.6,390.4z"/>
	<path class="st0" d="M934.3,424.7c0.4,0.4,0.7,0.8,1,1.3c2.1,3.8-2.2,5.2-6.1,4.1c-5.7-1.7-7.9-7-3.2-8
		C928.6,421.5,932.1,422.7,934.3,424.7L934.3,424.7z"/>
	<path class="st0" d="M956,458.2c0.6,0.5,1,1,1.2,1.4c2.3,4-2,6-7,4.6c-6.4-1.8-9.1-7.2-4.4-8.7C948.8,454.5,953.4,455.7,956,458.2
		L956,458.2z"/>
	<path class="st0" d="M978.7,490.7c0.7,0.6,1.1,1.1,1.4,1.5c2.8,4.6-2.8,6.3-8,5c-7.4-1.8-10.6-7.7-5.1-9.4
		C970.4,486.8,975.6,488.1,978.7,490.7L978.7,490.7z"/>
	<path class="st0" d="M1002,522.2c0.8,0.6,1.2,1.2,1.6,1.6c3.2,4.8-3,7.1-9.7,5.2c-7.7-2.2-10.6-8-4.9-9.7
		C992.8,518.2,998.6,519.5,1002,522.2L1002,522.2z"/>
	<path class="st0" d="M1026.2,552.7c0.8,0.6,1.4,1.2,1.7,1.7c3.8,5.4-4,7.4-10.9,5.6c-8.6-2.2-11.9-8.4-5.5-10.3
		C1015.8,548.5,1022.4,549.8,1026.2,552.7L1026.2,552.7z"/>
	<path class="st0" d="M1051,581.9c1,0.7,1.5,1.3,2,1.7c4.2,5.6-4.4,7.9-12,6.1c-9.6-2.3-13.2-8.7-6.1-10.8
		C1039.4,577.6,1046.6,578.9,1051,581.9L1051,581.9z"/>
	<path class="st0" d="M1076.1,610c1,0.7,1.6,1.3,2.1,1.8c4.3,5.4-3.9,8.3-13,6.3c-9.7-2.1-14-8.2-7.5-10.7
		C1062.5,605.5,1071.1,606.7,1076.1,610L1076.1,610z"/>
	<path class="st0" d="M1101.7,636.6c1.1,0.7,1.8,1.3,2.3,1.8c5,5.8-5.2,8.4-14.1,6.7c-10.6-2-15.3-8.3-8.2-10.9
		C1086.8,632.1,1096.2,633.3,1101.7,636.6L1101.7,636.6z"/>
	<path class="st0" d="M1127.5,661.7c1.2,0.7,1.9,1.3,2.5,1.8c5.4,5.9-5.6,8.7-15.3,7c-11.5-2-16.6-8.3-8.8-11.1
		C1111.6,657.4,1121.7,658.5,1127.5,661.7L1127.5,661.7z"/>
	<path class="st0" d="M1153.5,685.4c1.3,0.7,2,1.3,2.7,1.7c5.7,5.8-6,8.7-16.3,7.2c-11.4-1.7-17.1-7.5-10.4-10.6
		C1135.2,681.2,1146.8,682,1153.5,685.4L1153.5,685.4z"/>
	<path class="st0" d="M1179.7,707.4c1.4,0.6,2.2,1.2,2.8,1.7c6.1,5.7-6.4,8.9-17.4,7.5c-12.5-1.5-18.4-7.2-11-10.5
		C1160.1,703.5,1172.6,704.1,1179.7,707.4L1179.7,707.4z"/>
	<path class="st0" d="M1205.9,727.7c1.5,0.6,2.3,1.2,3,1.7c6.4,5.6-6.9,8.9-18.6,7.7c-12.4-1.2-19-6.3-12.6-9.8
		C1183.6,724.1,1197.9,724.3,1205.9,727.7L1205.9,727.7z"/>
	<path class="st0" d="M1232,746.2c1.5,0.6,2.4,1.1,3.1,1.5c6.7,5.3-7.4,8.8-19.6,7.9c-13-0.9-19.9-5.8-13.2-9.3
		C1208.6,743.1,1223.6,743.1,1232,746.2L1232,746.2z"/>
	<path class="st0" d="M1258,762.8c1.6,0.5,2.5,1,3.3,1.4c6.7,4.8-6.7,8.3-18.9,8.1c-13.8-0.2-22.4-4.6-16.5-8.3
		C1231.7,760.4,1248.5,759.7,1258,762.8L1258,762.8z"/>
	<path class="st0" d="M1283.7,777.4c1.7,0.4,2.6,0.9,3.4,1.3c6.9,4.4-7.1,8-19.9,8.1c-13.6,0.1-22.7-3.4-17.9-7
		C1254.5,775.8,1273.2,774.5,1283.7,777.4L1283.7,777.4z"/>
	<path class="st0" d="M1309.2,789.9c1.7,0.4,2.7,0.8,3.5,1.1c7,3.8-6.7,7.3-18.9,8c-15.1,0.9-26-2.3-20.7-6
		C1278.6,789.2,1298.1,787.5,1309.2,789.9L1309.2,789.9z"/>
	<path class="st0" d="M1334,800.3c1.8,0.3,2.8,0.6,3.6,0.9c6.6,3-5.2,6.2-15.3,7.5c-16.5,2-30.7-0.1-26.2-3.9
		C1300.6,801,1322.2,798.4,1334,800.3L1334,800.3z"/>
	<path class="st0" d="M1358.1,808.6c1.8,0.2,2.8,0.4,3.6,0.6c5.6,2-3.2,4.6-9.3,5.9c-16.5,3.4-36.2,2.9-33-0.8
		C1322.5,810.7,1345.6,807.3,1358.1,808.6L1358.1,808.6z"/>
	<path class="st0" d="M1380.7,814.8c1.7,0.1,2.6,0.2,3.4,0.3c3,0.7,2,1.9-2.7,3.4c-13.3,4.2-39.4,6-37.7,2.7
		C1345.1,818.2,1368,814.3,1380.7,814.8L1380.7,814.8z"/>
	<path class="st0" d="M1402.6,818.5c1.6,0,2.4,0,3.1,0c0.9,0.1,2.9,0.4,0.1,1.6c-8.4,3.6-38.2,7.7-38.4,5.3
		C1367.3,823.2,1391,818.9,1402.6,818.5L1402.6,818.5z"/>
	<path class="st0" d="M1423.9,819.8c1-0.1,1.9-0.2,2.9-0.2c0.8,0,1,0,1.4,0.1c-0.2,1.4-18.5,5-18.7,5.1c-9.5,1.9-17.7,2.9-18.6,2.3
		C1389.1,825.8,1412.2,821,1423.9,819.8L1423.9,819.8z"/>
	<path class="st0" d="M1444.5,818.4c0.9-0.2,1.8-0.3,2.7-0.5c0.4-0.1,0.8-0.1,1.2-0.1c-1.8,1.2-32.5,8.2-35.2,8c0,0,0-0.1,0-0.1
		C1416.1,824.3,1435.7,820,1444.5,818.4L1444.5,818.4z"/>
	<path class="st0" d="M1435.4,821.8c6.8-1.7,13.7-3.4,20.5-5.1L1435.4,821.8L1435.4,821.8z"/>
	<polygon class="st0" points="781.9,172.4 781.2,171.8 781.6,171.1 782.3,171.8 781.9,172.4 	"/>
	<path class="st0" d="M792.7,209.3c0.1,0.1,0.1,0.2,0.1,0.4c0.3,1-0.6,1.3-1.3,0.9c-1.1-0.6-1.3-2.1-0.2-2.2
		C791.9,208.4,792.4,208.7,792.7,209.3L792.7,209.3z"/>
	<path class="st0" d="M805.1,246.6c0.1,0.2,0.2,0.3,0.3,0.5c0.4,1.5-0.8,2.1-2.1,1.5c-1.8-0.9-2.1-3.2-0.5-3.3
		C803.6,245.3,804.6,245.8,805.1,246.6L805.1,246.6z"/>
	<path class="st0" d="M819.1,283.6c0.2,0.2,0.3,0.5,0.4,0.7c0.7,2.1-1.3,2.7-2.9,2c-2.7-1.2-2.8-4.2-0.8-4.4
		C817,281.7,818.4,282.5,819.1,283.6L819.1,283.6z"/>
	<path class="st0" d="M834.6,320.1c0.2,0.3,0.4,0.6,0.5,0.9c0.9,2.5-1.5,3.3-3.6,2.4c-3.1-1.3-4-4.7-1.4-5.2
		C831.6,317.9,833.5,318.7,834.6,320.1L834.6,320.1z"/>
	<path class="st0" d="M851.6,356.1c0.3,0.3,0.5,0.6,0.6,1c1.3,3.1-1.8,4-4.5,3c-3.9-1.5-5.2-5.7-1.9-6.3
		C847.7,353.4,850.2,354.4,851.6,356.1L851.6,356.1z"/>
	<path class="st0" d="M869.8,391.4c0.3,0.4,0.6,0.8,0.8,1.2c1.6,3.5-2.1,4.6-5.3,3.5c-4.8-1.7-6.4-6.5-2.4-7.3
		C865.1,388.3,868.1,389.5,869.8,391.4L869.8,391.4z"/>
	<path class="st0" d="M889.2,426c0.4,0.4,0.7,0.8,1,1.3c1.9,3.9-2.3,5.1-6.1,3.9c-5.6-1.8-7.6-7.2-3-8
		C883.7,422.6,887.2,423.9,889.2,426L889.2,426z"/>
	<path class="st0" d="M909.8,459.8c0.6,0.5,0.9,1,1.1,1.4c2.2,4-2.1,5.9-7,4.4c-6.2-1.9-8.8-7.4-4.1-8.8
		C902.8,456,907.2,457.3,909.8,459.8L909.8,459.8z"/>
	<path class="st0" d="M931.4,492.7c0.6,0.6,1,1.1,1.3,1.5c2.7,4.7-2.9,6.2-8,4.8c-7.2-2-10.2-7.9-4.8-9.5
		C923.2,488.6,928.4,490,931.4,492.7L931.4,492.7z"/>
	<path class="st0" d="M953.7,524.6c0.7,0.6,1.2,1.2,1.5,1.6c3.1,4.9-3.2,6.6-8.9,5.1c-7.8-2-11.3-8.4-5.5-10
		C944.6,520.3,950.4,521.8,953.7,524.6L953.7,524.6z"/>
	<path class="st0" d="M977,555.4c0.8,0.6,1.3,1.2,1.7,1.7c3.5,5.2-3.5,7.1-9.9,5.6c-9-2.1-12.9-8.8-6.2-10.6
		C966.7,551,973.2,552.5,977,555.4L977,555.4z"/>
	<path class="st0" d="M1000.8,585.1c0.9,0.7,1.5,1.3,1.9,1.8c3.9,5.4-3.8,7.5-10.9,6c-9.5-2-14.1-8.5-7.7-10.9
		C988.5,580.3,996.3,581.8,1000.8,585.1L1000.8,585.1z"/>
	<path class="st0" d="M1025.2,613.5c1,0.7,1.6,1.3,2.1,1.8c4.3,5.6-4.1,7.7-11.8,6.2c-10.2-2-15.3-8.6-8.4-11.1
		C1011.8,608.8,1020.3,610.2,1025.2,613.5L1025.2,613.5z"/>
	<path class="st0" d="M1050.1,640.5c1.1,0.7,1.7,1.3,2.2,1.8c4.7,5.7-4.4,8-12.8,6.6c-11.2-1.9-16.7-8.7-9.2-11.3
		C1035.5,635.8,1044.7,637.1,1050.1,640.5L1050.1,640.5z"/>
	<path class="st0" d="M1075.4,666.2c1.2,0.7,1.9,1.3,2.4,1.8c5.3,6-5.7,8.5-15.3,6.6c-11.4-2.2-16.3-8.6-8.6-11.2
		C1059.6,661.5,1069.6,662.8,1075.4,666.2L1075.4,666.2z"/>
	<path class="st0" d="M1101,690.3c1.3,0.7,2,1.3,2.6,1.8c5.6,5.9-6.1,8.6-16.3,6.8c-11.3-1.9-16.9-7.9-10.1-10.8
		C1082.7,685.7,1094.3,686.7,1101,690.3L1101,690.3z"/>
	<path class="st0" d="M1126.7,712.7c1.4,0.7,2.1,1.3,2.8,1.8c5.8,5.6-5.5,8.4-15.9,7.3c-12.2-1.4-19.5-7.1-13.3-10.5
		C1105.9,708.4,1119.2,709.1,1126.7,712.7L1126.7,712.7z"/>
	<path class="st0" d="M1152.6,733.5c1.5,0.6,2.3,1.2,3,1.7c6.1,5.5-5.9,8.4-17,7.5c-13.3-1.2-21-6.7-14.1-10.2
		C1130.4,729.5,1144.6,730,1152.6,733.5L1152.6,733.5z"/>
	<path class="st0" d="M1178.4,752.6c1.5,0.6,2.4,1.2,3.1,1.6c6.4,5.2-6.3,8.3-17.8,7.5c-13.7-0.9-21.9-6.2-14.8-9.7
		C1155.1,749,1170,749.2,1178.4,752.6L1178.4,752.6z"/>
	<path class="st0" d="M1204.3,769.7c1.6,0.5,2.5,1.1,3.3,1.5c6.6,4.9-6.7,8.1-18.9,7.6c-13.8-0.6-22.4-5.1-16.5-8.6
		C1178.1,766.7,1194.9,766.4,1204.3,769.7L1204.3,769.7z"/>
	<path class="st0" d="M1230,784.8c1.7,0.5,2.6,1,3.4,1.4c6.8,4.4-6.3,7.5-17.9,7.7c-14.5,0.1-25-3.7-19.9-7.4
		C1200.8,782.6,1219.5,781.7,1230,784.8L1230,784.8z"/>
	<path class="st0" d="M1255.4,797.9c1.7,0.4,2.7,0.8,3.6,1.2c6.5,3.7-5.4,6.9-16.8,7.5c-15,0.9-27.3-2.2-23.4-5.9
		C1223,796.7,1243.9,795.1,1255.4,797.9L1255.4,797.9z"/>
	<path class="st0" d="M1280.5,808.9c1.8,0.3,2.8,0.7,3.6,1c6.4,3-4.8,6.1-15.4,7.1c-16.4,1.6-30.7-0.8-26.3-4.5
		C1246.9,808.8,1268.6,806.7,1280.5,808.9L1280.5,808.9z"/>
	<path class="st0" d="M1304.8,817.8c1.8,0.2,2.8,0.5,3.6,0.7c5.7,2.1-3.1,4.6-9.3,5.7c-16.5,3-36.4,2-33.2-1.7
		C1269,819,1292.2,816.2,1304.8,817.8L1304.8,817.8z"/>
	<path class="st0" d="M1327.7,824.6c1.7,0.1,2.6,0.3,3.4,0.4c3,0.8,2.1,1.9-2.7,3.3c-13.3,3.9-39.6,5.1-38,1.7
		C1291.9,827.2,1314.8,823.8,1327.7,824.6L1327.7,824.6z"/>
	<path class="st0" d="M1350,829c1.6,0,2.4,0.1,3.2,0.1c1,0.2,3,0.5,0.2,1.6c-9.1,3.7-40.5,7-38.7,4.1
		C1316.2,832.4,1338.8,829,1350,829L1350,829z"/>
	<path class="st0" d="M1371.8,830.9c1-0.1,2-0.1,3-0.1c1.2,0,1.3,0.1,1.5,0.3c-0.6,1-11,3.3-20.7,4.8c-9.6,1.5-17.1,2.1-17.2,1.3
		C1338.3,835.7,1360.5,831.8,1371.8,830.9L1371.8,830.9z"/>
	<path class="st0" d="M1393.1,830.3c0.9-0.1,1.8-0.3,2.8-0.4c0.4,0,0.8-0.1,1.3-0.1c0,0,0,0.1,0,0.1c-3.5,1.4-32.3,7.3-35.6,6.9
		c0,0,0-0.1,0-0.2C1364.2,835.3,1384.1,831.6,1393.1,830.3L1393.1,830.3z"/>
	<path class="st0" d="M1413.1,827.1l-28.1,6.3c-0.4,0.1-0.7,0.2-1.1,0.2c0.8-0.3,6.8-1.6,15.2-3.4
		C1403.8,829.2,1408.5,828.2,1413.1,827.1L1413.1,827.1z"/>
	<polygon class="st0" points="748.5,170.5 747.9,169.8 748.3,169.3 749,169.9 748.5,170.5 	"/>
	<path class="st0" d="M757.6,207.6c0.1,0.1,0.1,0.2,0.1,0.4c0.2,1-0.6,1.2-1.2,0.9c-1.1-0.5-1.3-2.2-0.2-2.2
		C756.8,206.7,757.3,207.1,757.6,207.6L757.6,207.6z"/>
	<path class="st0" d="M768.2,245.2c0.1,0.2,0.2,0.4,0.2,0.5c0.4,1.6-0.9,2-1.9,1.5c-1.8-0.8-2.2-3.1-0.7-3.4
		C766.7,243.8,767.7,244.4,768.2,245.2L768.2,245.2z"/>
	<path class="st0" d="M780.6,282.5c0.1,0.2,0.2,0.5,0.3,0.7c0.6,2-1.2,2.7-2.9,1.9c-2.4-1.2-2.8-4.3-0.6-4.4
		C778.5,280.6,779.9,281.4,780.6,282.5L780.6,282.5z"/>
	<path class="st0" d="M794.5,319.3c0.2,0.3,0.4,0.6,0.5,0.9c0.8,2.6-1.6,3.2-3.6,2.3c-2.9-1.3-3.7-4.8-1.2-5.2
		C791.6,317,793.5,317.9,794.5,319.3L794.5,319.3z"/>
	<path class="st0" d="M810,355.5c0.3,0.3,0.4,0.7,0.6,1c1.2,3.1-1.8,3.9-4.4,2.8c-3.7-1.6-4.8-5.8-1.7-6.3
		C806.3,352.8,808.7,353.9,810,355.5L810,355.5z"/>
	<path class="st0" d="M826.9,391.2c0.3,0.4,0.6,0.8,0.8,1.2c1.5,3.6-2.1,4.5-5.3,3.3c-4.6-1.8-6.1-6.6-2.2-7.3
		C822.3,388,825.2,389.3,826.9,391.2L826.9,391.2z"/>
	<path class="st0" d="M845,426.1c0.4,0.4,0.7,0.8,0.9,1.3c1.7,3.6-2,5.2-6.1,3.7c-5.4-1.9-7.2-7.3-2.7-8.1
		C839.6,422.6,843,424,845,426.1L845,426.1z"/>
	<path class="st0" d="M864.3,460.2c0.5,0.5,0.8,1,1.1,1.4c2.2,4.4-2.7,5.7-7.1,4.2c-6.1-2.1-8.5-7.6-3.8-8.8
		C857.5,456.3,861.9,457.7,864.3,460.2L864.3,460.2z"/>
	<path class="st0" d="M884.7,493.5c0.6,0.6,1,1.1,1.3,1.5c2.6,4.7-3,6.1-8,4.6c-7-2.2-9.9-8.2-4.5-9.5
		C876.8,489.2,881.9,490.7,884.7,493.5L884.7,493.5z"/>
	<path class="st0" d="M906,525.8c0.7,0.6,1.1,1.2,1.5,1.6c2.9,4.9-3.3,6.5-8.9,4.9c-7.9-2.3-11.1-8.6-5.2-10.1
		C897.1,521.3,902.8,522.9,906,525.8L906,525.8z"/>
	<path class="st0" d="M928.2,556.9c0.8,0.7,1.3,1.2,1.6,1.7c3.4,5.3-3.5,7-9.8,5.3c-8.8-2.3-12.5-9-5.9-10.7
		C918.2,552.3,924.6,553.9,928.2,556.9L928.2,556.9z"/>
	<path class="st0" d="M951.2,587c0.9,0.7,1.4,1.3,1.8,1.8c3.8,5.5-3.9,7.4-10.8,5.7c-9.3-2.2-13.7-8.8-7.4-11
		C939.2,582,946.8,583.6,951.2,587L951.2,587z"/>
	<path class="st0" d="M974.8,615.8c1,0.7,1.6,1.3,2,1.8c3.9,5.3-3.4,7.8-11.8,5.9c-10.1-2.2-14.9-8.9-8.1-11.2
		C961.7,610.8,970,612.4,974.8,615.8L974.8,615.8z"/>
	<path class="st0" d="M999,643.3c1.1,0.7,1.7,1.3,2.2,1.8c4.5,5.7-4.5,7.9-12.9,6.2c-11-2.2-16.4-9-9-11.5
		C984.6,638.2,993.7,639.8,999,643.3L999,643.3z"/>
	<path class="st0" d="M1023.7,669.3c1.2,0.7,1.9,1.4,2.4,1.9c4.9,5.8-4.9,8.1-13.9,6.5c-11.4-2-17.4-8.5-10.6-11.3
		C1006.9,664.2,1017.6,665.6,1023.7,669.3L1023.7,669.3z"/>
	<path class="st0" d="M1048.6,693.9c1.3,0.7,2,1.3,2.6,1.9c5.3,5.8-5.2,8.1-14.8,6.7c-12.1-1.9-18.6-8.3-11.4-11.2
		C1030.6,688.9,1042.1,690.2,1048.6,693.9L1048.6,693.9z"/>
	<path class="st0" d="M1074,716.8c1.3,0.7,2.1,1.3,2.7,1.8c5.7,5.7-5.5,8.3-15.9,6.9c-13-1.7-20-8.1-12.2-11.1
		C1054.7,712.1,1067,713.2,1074,716.8L1074,716.8z"/>
	<path class="st0" d="M1099.5,738.1c1.4,0.7,2.3,1.3,2.9,1.8c6,5.6-5.9,8.2-16.9,7c-13.2-1.5-20.7-7.2-14-10.5
		C1077.4,733.5,1091.5,734.4,1099.5,738.1L1099.5,738.1z"/>
	<path class="st0" d="M1125,757.6c1.5,0.6,2.4,1.2,3.1,1.7c6.3,5.3-6.2,8.1-17.8,7.1c-13.6-1.2-21.7-6.7-14.7-10
		C1101.8,753.5,1116.7,754.1,1125,757.6L1125,757.6z"/>
	<path class="st0" d="M1150.6,775.3c1.6,0.6,2.5,1.1,3.2,1.6c6.5,4.9-5.9,7.6-17,7.2c-14.4-0.5-24.4-5.5-18.2-9.1
		C1124.5,771.7,1141.2,771.8,1150.6,775.3L1150.6,775.3z"/>
	<path class="st0" d="M1176.3,791c1.7,0.5,2.6,1,3.4,1.4c6.8,4.6-6.4,7.4-18,7.2c-14.5-0.2-24.9-4.3-19.9-7.8
		C1147.1,788.1,1165.8,787.7,1176.3,791L1176.3,791z"/>
	<path class="st0" d="M1201.8,804.7c1.7,0.5,2.8,0.9,3.6,1.3c6.5,3.8-5.4,6.7-16.8,7.1c-16.1,0.5-28.5-3.2-22.9-6.9
		C1171.1,802.6,1190.7,801.8,1201.8,804.7L1201.8,804.7z"/>
	<path class="st0" d="M1226.9,816.3c1.8,0.4,2.8,0.7,3.6,1.1c6.1,3-4,5.7-13.2,6.6c-16.9,1.6-33.2-1.2-28.5-5
		C1193.2,815.3,1215,813.8,1226.9,816.3L1226.9,816.3z"/>
	<path class="st0" d="M1251.4,825.8c1.8,0.3,2.8,0.6,3.7,0.8c5.7,2.3-3.2,4.5-9.3,5.5c-16.6,2.6-36.6,1.1-33.4-2.5
		C1215.5,826,1238.5,823.8,1251.4,825.8L1251.4,825.8z"/>
	<path class="st0" d="M1274.5,833.2c1.7,0.2,2.6,0.4,3.5,0.5c3.8,1.1,0.6,2.4-2.7,3.3c-13.4,3.6-39.8,4.1-38.2,0.8
		C1238.5,834.8,1261.6,832,1274.5,833.2L1274.5,833.2z"/>
	<path class="st0" d="M1297.1,838.2c1.6,0,2.4,0.1,3.2,0.2c1,0.2,3.1,0.6,0.3,1.7c-9,3.5-40.7,6-38.9,3
		C1263.2,840.8,1285.9,837.9,1297.1,838.2L1297.1,838.2z"/>
	<path class="st0" d="M1319.4,840.8c1,0,2-0.1,3,0c1.2,0.1,1.4,0.1,1.5,0.3c-0.5,1-10.9,3-20.7,4.3c-9.5,1.3-17.3,1.6-17.4,0.8
		C1285.6,844.7,1307.9,841.3,1319.4,840.8L1319.4,840.8z"/>
	<path class="st0" d="M1341.2,840.8c0.9-0.1,1.9-0.2,2.9-0.3c0.4,0,0.9-0.1,1.3,0c0,0,0,0.1,0,0.1c-3.2,1.3-32.6,6.5-35.9,6
		c0,0,0-0.1,0-0.2C1312,845.1,1332.3,841.9,1341.2,840.8L1341.2,840.8z"/>
	<path class="st0" d="M1362.2,838.3c0.9-0.2,1.7-0.3,2.6-0.5c0.3-0.1,0.7-0.1,0.9-0.2l-7.1,1.5l-21.2,4.2c-1.7,0.3-3.3,0.7-5,0.9
		c0.2-0.1,0.5-0.2,5.9-1.3C1346.3,841.3,1354.3,839.8,1362.2,838.3L1362.2,838.3z"/>
	<polygon class="st0" points="716.3,167.6 715.7,166.9 716.1,166.3 716.7,167 716.3,167.6 	"/>
	<path class="st0" d="M723.5,205c0.1,0.1,0.1,0.2,0.1,0.4c0.1,0.9-0.5,1.3-1.2,0.9c-1-0.5-1.1-2.2-0.1-2.2
		C722.7,204,723.3,204.4,723.5,205L723.5,205z"/>
	<path class="st0" d="M732.4,242.8c0.1,0.2,0.2,0.4,0.2,0.5c0.3,1.6-0.9,2-1.9,1.5c-1.7-0.8-2.1-3.2-0.5-3.4
		C731.1,241.3,732,242,732.4,242.8L732.4,242.8z"/>
	<path class="st0" d="M743.1,280.3c0.1,0.2,0.2,0.5,0.3,0.7c0.5,1.9-1.1,2.6-2.6,1.9c-2.4-1.1-3-4.2-0.9-4.5
		C741,278.3,742.3,279.1,743.1,280.3L743.1,280.3z"/>
	<path class="st0" d="M755.4,317.4c0.2,0.3,0.3,0.6,0.4,0.9c0.7,2.4-1.5,3.3-3.6,2.2c-2.9-1.4-3.5-4.9-1-5.3
		C752.7,315,754.4,316,755.4,317.4L755.4,317.4z"/>
	<path class="st0" d="M769.4,353.9c0.2,0.3,0.4,0.7,0.6,1c1,3.1-1.9,3.9-4.4,2.7c-3.7-1.7-4.6-5.9-1.4-6.3
		C765.8,351.1,768.1,352.2,769.4,353.9L769.4,353.9z"/>
	<path class="st0" d="M784.8,389.8c0.3,0.4,0.5,0.8,0.7,1.2c1.4,3.6-2.3,4.5-5.3,3.2c-4.5-1.9-5.8-6.8-1.9-7.3
		C780.5,386.6,783.3,387.9,784.8,389.8L784.8,389.8z"/>
	<path class="st0" d="M801.5,425.1c0.4,0.4,0.6,0.9,0.9,1.3c1.7,3.9-2.5,4.9-6.1,3.5c-5.3-2.1-6.9-7.5-2.4-8.1
		C796.4,421.5,799.7,422.9,801.5,425.1L801.5,425.1z"/>
	<path class="st0" d="M819.6,459.5c0.5,0.6,0.8,1.1,1,1.5c1.9,4.1-2.3,5.7-7,4c-5.9-2.2-8.1-7.8-3.5-8.8
		C813,455.4,817.2,457,819.6,459.5L819.6,459.5z"/>
	<path class="st0" d="M838.8,493.1c0.6,0.6,0.9,1.1,1.2,1.6c2.4,4.7-3.1,6-8,4.3c-6.9-2.3-9.5-8.3-4.2-9.6
		C831.1,488.7,836,490.3,838.8,493.1L838.8,493.1z"/>
	<path class="st0" d="M858.9,525.7c0.7,0.6,1.1,1.2,1.4,1.7c2.8,5-3.3,6.4-8.8,4.7c-7.7-2.4-10.8-8.8-4.8-10.1
		C850.3,521.1,855.8,522.8,858.9,525.7L858.9,525.7z"/>
	<path class="st0" d="M880.2,557.3c0.8,0.7,1.2,1.2,1.6,1.7c3.2,5.3-3.7,6.9-9.9,5.1c-8.7-2.5-12.2-9.3-5.6-10.8
		C870.4,552.4,876.7,554.2,880.2,557.3L880.2,557.3z"/>
	<path class="st0" d="M902.2,587.7c0.9,0.7,1.4,1.3,1.8,1.8c3.6,5.6-4,7.2-10.9,5.4c-9.2-2.5-13.4-9.1-7.1-11.1
		C890.4,582.4,898,584.2,902.2,587.7L902.2,587.7z"/>
	<path class="st0" d="M924.9,616.9c1,0.7,1.5,1.4,2,1.9c3.7,5.3-3.5,7.7-11.8,5.6c-9.9-2.5-14.6-9.2-7.8-11.3
		C912,611.6,920.3,613.4,924.9,616.9L924.9,616.9z"/>
	<path class="st0" d="M948.3,644.8c1.1,0.7,1.7,1.4,2.1,1.9c4.4,5.8-4.6,7.7-12.8,5.9c-10.9-2.4-16-9.4-8.6-11.6
		C934.2,639.4,943.2,641.2,948.3,644.8L948.3,644.8z"/>
	<path class="st0" d="M972.3,671.3c1.2,0.7,1.8,1.4,2.3,1.9c4.8,5.9-4.9,7.9-13.8,6.1c-11.2-2.3-17.1-8.8-10.3-11.5
		C955.8,665.7,966.4,667.4,972.3,671.3L972.3,671.3z"/>
	<path class="st0" d="M996.7,696.3c1.2,0.7,1.9,1.4,2.5,1.9c5.1,5.8-5.2,8-14.7,6.3c-12-2.1-18.4-8.6-11.1-11.4
		C978.9,690.9,990.3,692.5,996.7,696.3L996.7,696.3z"/>
	<path class="st0" d="M1021.5,719.7c1.3,0.7,2.1,1.3,2.7,1.9c5.5,5.8-5.6,8.1-15.8,6.5c-12.9-2-19.8-8.5-12-11.3
		C1002.4,714.5,1014.6,715.9,1021.5,719.7L1021.5,719.7z"/>
	<path class="st0" d="M1046.6,741.4c1.4,0.7,2.2,1.3,2.9,1.8c5.9,5.7-5.9,8.1-16.8,6.6c-13.1-1.8-20.6-7.6-13.8-10.7
		C1024.8,736.4,1038.8,737.6,1046.6,741.4L1046.6,741.4z"/>
	<path class="st0" d="M1071.8,761.5c1.5,0.7,2.4,1.3,3.1,1.7c5.6,4.9-4.2,7.7-16.1,6.8c-13.6-1.1-23-6.6-17.1-10
		C1047.3,756.8,1063,757.6,1071.8,761.5L1071.8,761.5z"/>
	<path class="st0" d="M1097.2,779.6c1.6,0.6,2.5,1.2,3.2,1.6c5.9,4.7-4.4,7.5-17,6.8c-14.4-0.8-24.3-6-18.1-9.4
		C1071.2,775.4,1087.9,776,1097.2,779.6L1097.2,779.6z"/>
	<path class="st0" d="M1122.6,795.9c1.7,0.6,2.6,1.1,3.4,1.5c6.3,4.4-5.1,6.9-15.9,6.8c-15.1-0.1-27.1-4.7-21.8-8.3
		C1093.6,792.3,1112.2,792.3,1122.6,795.9L1122.6,795.9z"/>
	<path class="st0" d="M1148.1,810.1c1.7,0.5,2.7,1,3.5,1.4c6.2,3.8-4.5,6.3-14.7,6.6c-16.6,0.6-30.8-3.7-24.9-7.4
		C1117.5,807.3,1137,807,1148.1,810.1L1148.1,810.1z"/>
	<path class="st0" d="M1173.2,822.3c1.8,0.4,2.8,0.8,3.6,1.2c6.5,3.3-4.6,5.6-13.1,6.2c-17,1.2-33.3-2-28.6-5.6
		C1139.6,820.5,1161.3,819.5,1173.2,822.3L1173.2,822.3z"/>
	<path class="st0" d="M1197.8,832.4c1.8,0.3,2.8,0.6,3.7,0.9c6.4,2.7-5,4.6-7.3,5c-16.6,2.6-38.7,0.7-35.4-3.1
		C1161.8,831.9,1185.1,830.2,1197.8,832.4L1197.8,832.4z"/>
	<path class="st0" d="M1221.1,840.4c1.7,0.2,2.7,0.4,3.5,0.6c3.8,1.2,0.7,2.4-2.5,3.2c-13.4,3.3-39.9,3.1-38.4-0.2
		C1185,841.2,1208.1,838.9,1221.1,840.4L1221.1,840.4z"/>
	<path class="st0" d="M1244.1,846.1c1.6,0.1,2.5,0.2,3.3,0.3c1,0.2,3.1,0.7,0.4,1.7c-9.1,3.3-40.9,5-39.2,2
		C1209.9,847.8,1232.7,845.5,1244.1,846.1L1244.1,846.1z"/>
	<path class="st0" d="M1266.7,849.3c1,0,2.1,0,3.1,0.1c1.2,0.1,1.4,0.2,1.6,0.4c-0.5,1.1-11.1,2.8-20.8,3.8
		c-8.3,0.9-17.5,1.3-17.7,0.3C1232.6,852.3,1255.1,849.5,1266.7,849.3L1266.7,849.3z"/>
	<path class="st0" d="M1288.9,850.1c1-0.1,1.9-0.2,2.9-0.2c0.5,0,0.9,0,1.4,0c0,0.1,0,0.1,0,0.1c-3.1,1.3-32.6,5.7-36.3,5
		c0-0.1,0-0.1-0.1-0.2C1259.5,853.5,1280,850.8,1288.9,850.1L1288.9,850.1z"/>
	<path class="st0" d="M1310.5,848.2c0.9-0.1,1.8-0.3,2.7-0.4c0.4-0.1,0.8-0.1,1.3-0.2c-0.1,0-0.1,0-0.1,0l-24.1,4.3
		c-5.4,0.9-8.6,1.4-9.7,1.5C1281.4,852.9,1294.9,850.7,1310.5,848.2L1310.5,848.2z"/>
	<polygon class="st0" points="685.2,163.6 684.6,162.9 685.1,162.4 685.6,163.1 685.2,163.6 	"/>
	<path class="st0" d="M690.6,201.2c0,0.1,0.1,0.2,0.1,0.4c0.1,0.9-0.6,1.2-1.2,0.9c-1-0.6-1-2.2-0.1-2.2
		C689.9,200.3,690.3,200.7,690.6,201.2L690.6,201.2z"/>
	<path class="st0" d="M697.7,239.3c0.1,0.2,0.1,0.4,0.2,0.5c0.2,1.6-1,1.9-1.9,1.4c-1.5-0.8-1.8-3.2-0.4-3.4
		C696.3,237.8,697.2,238.4,697.7,239.3L697.7,239.3z"/>
	<path class="st0" d="M706.6,277.1c0.1,0.2,0.2,0.5,0.3,0.7c0.4,2-1.3,2.5-2.6,1.8c-2.5-1.2-2.6-4.3-0.7-4.5
		C704.6,275,706,275.8,706.6,277.1L706.6,277.1z"/>
	<path class="st0" d="M717.3,314.4c0.2,0.3,0.3,0.6,0.4,0.9c0.6,2.3-1.3,3.1-3.3,2.2c-3-1.4-3.7-5.1-1.1-5.4
		C714.7,312,716.4,313,717.3,314.4L717.3,314.4z"/>
	<path class="st0" d="M729.7,351.2c0.2,0.3,0.4,0.7,0.5,1c0.9,3.1-1.8,3.7-4.1,2.8c-3.7-1.6-4.8-6.1-1.6-6.5
		C726.3,348.3,728.5,349.5,729.7,351.2L729.7,351.2z"/>
	<path class="st0" d="M743.6,387.4c0.3,0.4,0.5,0.8,0.7,1.2c1.1,3.3-1.7,4.4-4.8,3.2c-4.4-1.7-6.1-6.7-2.5-7.5
		C739.1,383.9,742.1,385.3,743.6,387.4L743.6,387.4z"/>
	<path class="st0" d="M758.9,423c0.3,0.4,0.6,0.9,0.8,1.3c1.4,3.6-1.9,4.9-5.5,3.6c-5.1-1.9-7.2-7.3-3.1-8.3
		C753.5,419,757,420.6,758.9,423L758.9,423z"/>
	<path class="st0" d="M775.6,457.7c0.4,0.5,0.7,1,1,1.5c1.7,3.9-2.1,5.5-6.3,4c-6-2.1-8.6-8.1-3.8-9.1
		C769.3,453.4,773.4,455.1,775.6,457.7L775.6,457.7z"/>
	<path class="st0" d="M793.6,491.6c0.6,0.6,0.9,1.2,1.2,1.6c2.2,4.8-3.2,5.9-7.9,4.1c-6.7-2.5-9.1-8.5-3.9-9.6
		C786.2,487,791,488.8,793.6,491.6L793.6,491.6z"/>
	<path class="st0" d="M812.7,524.5c0.7,0.7,1.1,1.3,1.3,1.7c2.6,5-3.5,6.3-8.8,4.4c-7.4-2.6-10.2-9-4.5-10.2
		C804.3,519.7,809.6,521.5,812.7,524.5L812.7,524.5z"/>
	<path class="st0" d="M832.8,556.4c0.7,0.7,1.2,1.3,1.5,1.8c3,5.3-3.8,6.7-9.8,4.8c-8.5-2.7-11.8-9.5-5.2-10.8
		C823.3,551.4,829.4,553.3,832.8,556.4L832.8,556.4z"/>
	<path class="st0" d="M853.8,587.2c0.9,0.7,1.3,1.4,1.7,1.9c3.4,5.6-4.1,7.1-10.8,5.1c-9-2.7-13-9.4-6.8-11.2
		C842.3,581.7,849.7,583.7,853.8,587.2L853.8,587.2z"/>
	<path class="st0" d="M875.6,616.8c0.9,0.7,1.5,1.4,1.9,1.9c3.8,5.7-4.3,7.3-11.7,5.3c-9.7-2.7-14.2-9.5-7.5-11.5
		C863,611.2,871.1,613.2,875.6,616.8L875.6,616.8z"/>
	<path class="st0" d="M898.2,645.1c1,0.8,1.6,1.4,2.1,1.9c4.2,5.9-4.7,7.6-12.8,5.6c-10.7-2.7-15.7-9.7-8.3-11.8
		C884.3,639.4,893.2,641.4,898.2,645.1L898.2,645.1z"/>
	<path class="st0" d="M921.4,672c1.1,0.8,1.8,1.4,2.3,2c4.6,6-5,7.8-13.8,5.8c-11.1-2.5-16.8-9.2-10-11.7
		C905.1,666.1,915.6,668,921.4,672L921.4,672z"/>
	<path class="st0" d="M945.2,697.4c1.2,0.8,1.9,1.4,2.5,1.9c5,5.9-5.4,7.8-14.8,5.9c-11.8-2.4-18-9-10.8-11.6
		C927.6,691.7,938.9,693.5,945.2,697.4L945.2,697.4z"/>
	<path class="st0" d="M969.4,721.3c1.3,0.7,2.1,1.4,2.7,1.9c4.8,5.2-3.8,7.8-14.2,6.3c-12.8-1.9-20.8-8.4-14.1-11.5
		C949.2,715.5,962.2,717.2,969.4,721.3L969.4,721.3z"/>
	<path class="st0" d="M994,743.5c1.4,0.7,2.2,1.4,2.9,1.9c5.3,5.3-4,7.8-15.2,6.4c-13.7-1.7-22.4-8.1-15.2-11.2
		C972.4,738,986.3,739.5,994,743.5L994,743.5z"/>
	<path class="st0" d="M1018.8,764c1.5,0.7,2.3,1.3,3,1.8c5.8,5.3-5.5,7.5-16,6.4c-13.8-1.4-23-7.1-16.9-10.4
		C994.5,758.8,1010.1,760,1018.8,764L1018.8,764z"/>
	<path class="st0" d="M1043.9,782.7c1.6,0.7,2.5,1.2,3.2,1.7c6.4,5.2-6,7.3-16.9,6.4c-14.6-1.2-24.3-6.5-17.9-9.8
		C1018.1,777.9,1034.7,778.9,1043.9,782.7L1043.9,782.7z"/>
	<path class="st0" d="M1069.1,799.5c1.6,0.6,2.6,1.1,3.4,1.6c6.2,4.5-5,6.8-15.9,6.4c-15-0.5-27-5.4-21.7-8.8
		C1040.2,795.3,1058.7,795.7,1069.1,799.5L1069.1,799.5z"/>
	<path class="st0" d="M1094.4,814.3c1.7,0.5,2.7,1,3.5,1.4c6.2,3.9-4.5,6.2-14.7,6.3c-16.6,0.2-30.7-4.4-24.8-8
		C1063.9,810.7,1083.4,810.9,1094.4,814.3L1094.4,814.3z"/>
	<path class="st0" d="M1119.5,827.1c1.8,0.5,2.8,0.9,3.7,1.2c6.4,3.5-4.4,5.3-11.1,5.8c-17.2,1.3-35.5-2.4-30.7-6.2
		C1085.9,824.5,1107.6,824,1119.5,827.1L1119.5,827.1z"/>
	<path class="st0" d="M1144.1,837.8c1.8,0.4,2.8,0.7,3.7,1c6.4,2.8-4.9,4.5-7.3,4.8c-16.6,2.2-38.8-0.3-35.5-3.9
		C1108.1,836.3,1131.4,835.2,1144.1,837.8L1144.1,837.8z"/>
	<path class="st0" d="M1167.6,846.4c1.7,0.2,2.7,0.5,3.5,0.7c3.9,1.3,0.8,2.5-2.5,3.2c-13.4,2.9-40,2.2-38.5-1.2
		C1131.4,846.2,1154.6,844.5,1167.6,846.4L1167.6,846.4z"/>
	<path class="st0" d="M1190.8,852.7c1.6,0.1,2.6,0.3,3.3,0.4c1,0.2,3.2,0.8,0.4,1.7c-8.6,3-41,3.9-39.4,1.1
		C1156.5,853.5,1179.4,851.8,1190.8,852.7L1190.8,852.7z"/>
	<path class="st0" d="M1213.8,856.6c1.1,0,2.1,0.1,3.1,0.1c1.2,0.2,1.4,0.2,1.7,0.5c-0.8,2.1-36.1,5.1-38.5,3.3
		C1177.8,858.9,1201.4,856.4,1213.8,856.6L1213.8,856.6z"/>
	<path class="st0" d="M1236.4,858c1-0.1,2-0.1,2.9-0.1c0.5,0,0.9,0,1.4,0.1c0,0,0,0.1,0.1,0.2c-3,1.3-32.7,4.9-36.5,4.1
		c0-0.1,0-0.1-0.1-0.2C1206.6,860.7,1226.6,858.5,1236.4,858L1236.4,858z"/>
	<path class="st0" d="M1258.5,856.8c0.9-0.1,1.8-0.2,2.7-0.4c0.4-0.1,0.9-0.1,1.3-0.2c-0.9,0.3-1.9,0.3-2.9,0.5l-14,2.1
		c-13,1.9-16.4,2.2-17.3,2.3C1229.2,860.7,1251.7,857.7,1258.5,856.8L1258.5,856.8z"/>
	<polygon class="st0" points="655.3,158.7 654.8,158 655.3,157.4 655.8,158.2 655.3,158.7 	"/>
	<path class="st0" d="M658.8,196.5c0,0.1,0.1,0.3,0.1,0.4c0.1,1-0.7,1.2-1.2,0.8c-0.9-0.6-0.9-2.3,0-2.2
		C658.2,195.5,658.7,195.9,658.8,196.5L658.8,196.5z"/>
	<path class="st0" d="M664.1,234.8c0.1,0.2,0.1,0.4,0.1,0.5c0.2,1.6-1,1.9-1.9,1.4c-1.5-0.9-1.6-3.3-0.2-3.4
		C662.8,233.3,663.7,233.9,664.1,234.8L664.1,234.8z"/>
	<path class="st0" d="M671.2,272.8c0.1,0.2,0.2,0.5,0.2,0.7c0.3,2-1.4,2.5-2.7,1.8c-2.2-1.2-2.5-4.3-0.5-4.5
		C669.4,270.7,670.6,271.5,671.2,272.8L671.2,272.8z"/>
	<path class="st0" d="M680.2,310.4c0.2,0.3,0.3,0.6,0.4,0.9c0.5,2.4-1.6,3-3.3,2.1c-2.8-1.4-3.4-5.2-0.8-5.4
		C677.7,307.8,679.4,308.9,680.2,310.4L680.2,310.4z"/>
	<path class="st0" d="M691,347.4c0.2,0.3,0.3,0.7,0.5,1c0.8,3.1-1.9,3.6-4,2.6c-3.5-1.7-4.4-6.2-1.3-6.6
		C687.8,344.4,689.9,345.6,691,347.4L691,347.4z"/>
	<path class="st0" d="M703.4,383.9c0.3,0.4,0.4,0.8,0.6,1.2c1,3.3-1.8,4.4-4.8,3.1c-4.6-2-5.8-7.2-1.8-7.6
		C699.4,380.4,702,381.8,703.4,383.9L703.4,383.9z"/>
	<path class="st0" d="M717.3,419.7c0.3,0.4,0.5,0.9,0.8,1.3c1.3,3.8-2.4,4.6-5.6,3.4c-5.1-2-6.9-7.5-2.8-8.3
		C712,415.7,715.5,417.3,717.3,419.7L717.3,419.7z"/>
	<path class="st0" d="M732.6,454.7c0.4,0.5,0.7,1,0.9,1.5c1.6,4.2-2.7,5.2-6.4,3.8c-5.9-2.2-8.2-8.3-3.5-9.2
		C726.5,450.3,730.5,452.1,732.6,454.7L732.6,454.7z"/>
	<path class="st0" d="M749.3,488.9c0.5,0.6,0.9,1.2,1.1,1.6c2,4.7-3,5.6-7.3,4.2c-6.8-2.4-9.6-9-4.2-10
		C742.1,484.2,746.8,486,749.3,488.9L749.3,488.9z"/>
	<path class="st0" d="M767.1,522.2c0.6,0.7,1,1.3,1.3,1.7c2.4,5-3.2,6-8,4.4c-7.7-2.5-11-9.5-5-10.6
		C759,517.2,764.2,519.1,767.1,522.2L767.1,522.2z"/>
	<path class="st0" d="M786.1,554.4c0.7,0.7,1.1,1.3,1.5,1.8c2.8,5.3-3.5,6.4-8.9,4.8c-8.3-2.5-12.4-9.4-6.5-11
		C776.1,548.9,782.6,551,786.1,554.4L786.1,554.4z"/>
	<path class="st0" d="M806.1,585.6c0.8,0.7,1.3,1.4,1.7,1.9c3.2,5.6-3.7,6.8-9.7,5.1c-9.3-2.6-14-9.8-7.4-11.6
		C794.8,579.8,802.1,582,806.1,585.6L806.1,585.6z"/>
	<path class="st0" d="M826.9,615.6c0.9,0.8,1.4,1.4,1.8,1.9c3.2,5.1-3.2,7.2-10.6,5.3c-10.2-2.6-15.3-10-8.3-11.9
		C814.6,609.7,822.5,611.9,826.9,615.6L826.9,615.6z"/>
	<path class="st0" d="M848.7,644.2c1,0.8,1.6,1.4,2,2c3.8,5.7-4.2,7.2-11.5,5.5c-10.5-2.4-16.5-9.6-10-12
		C834,638,843.4,640.2,848.7,644.2L848.7,644.2z"/>
	<path class="st0" d="M871.1,671.5c1.1,0.8,1.7,1.5,2.2,2c4.3,5.7-4.5,7.4-12.5,5.7c-11.5-2.4-18.1-9.7-11-12.2
		C855.1,665.3,865.4,667.4,871.1,671.5L871.1,671.5z"/>
	<path class="st0" d="M894.1,697.4c1.2,0.8,1.9,1.5,2.4,2c4.6,5.7-4.8,7.4-13.3,5.8c-12.3-2.3-19.5-9.6-11.9-12.1
		C876.8,691.2,887.9,693.3,894.1,697.4L894.1,697.4z"/>
	<path class="st0" d="M917.7,721.7c1.3,0.8,2,1.4,2.6,2c5,5.7-5,7.5-14.2,6c-12.6-2.2-20.5-8.8-13.8-11.7
		C897.8,715.5,910.6,717.4,917.7,721.7L917.7,721.7z"/>
	<path class="st0" d="M941.8,744.4c1.4,0.8,2.2,1.4,2.8,1.9c5.4,5.6-5.3,7.5-15.2,6c-13.5-2-22-8.6-14.9-11.6
		C920.4,738.3,934.1,740.1,941.8,744.4L941.8,744.4z"/>
	<path class="st0" d="M966.1,765.4c1.5,0.7,2.3,1.4,3,1.9c5.7,5.4-5.6,7.3-16,6c-14.3-1.8-23.3-8.2-15.8-11.1
		C943.5,759.7,958,761.3,966.1,765.4L966.1,765.4z"/>
	<path class="st0" d="M990.8,784.5c1.5,0.7,2.4,1.3,3.1,1.8c5.9,5-4.8,6.9-15,6.1c-15.1-1.2-26.2-7.1-19.5-10.4
		C965.2,779.2,981.7,780.5,990.8,784.5L990.8,784.5z"/>
	<path class="st0" d="M1015.9,801.9c1.6,0.6,2.5,1.2,3.3,1.7c5.9,4.4-4.3,6.4-14,6.1c-15.8-0.5-29.2-5.8-23.5-9.4
		C987,796.9,1005.5,797.8,1015.9,801.9L1015.9,801.9z"/>
	<path class="st0" d="M1040.9,817.2c1.7,0.6,2.7,1.1,3.5,1.5c5.9,3.9-3.8,5.8-12.6,5.9c-16.2,0.2-31.8-4.4-27.4-8.1
		C1008.7,813,1029.5,813.4,1040.9,817.2L1040.9,817.2z"/>
	<path class="st0" d="M1065.9,830.5c1.8,0.5,2.8,0.9,3.7,1.3c6.4,3.6-4.4,5.2-11,5.5c-17.2,0.9-35.5-3.3-30.6-6.9
		C1032.4,827.2,1054,827.2,1065.9,830.5L1065.9,830.5z"/>
	<path class="st0" d="M1090.6,841.8c1.8,0.4,2.8,0.8,3.7,1.1c6.4,3-5,4.4-7.3,4.7c-16.6,1.8-38.8-1.2-35.4-4.8
		C1054.6,839.5,1077.6,838.9,1090.6,841.8L1090.6,841.8z"/>
	<path class="st0" d="M1114.1,851c1.7,0.3,2.7,0.5,3.5,0.8c3.9,1.4,0.8,2.5-2.5,3.2c-14.2,2.8-42.1,1-38.3-2.4
		C1079.7,849.9,1101.7,849,1114.1,851L1114.1,851z"/>
	<path class="st0" d="M1137.5,857.9c1.6,0.2,2.6,0.4,3.3,0.5c1,0.3,3.6,0.9-0.3,2c-10.6,2.8-40.2,2.6-38.7-0.2
		C1103.1,857.9,1126,856.7,1137.5,857.9L1137.5,857.9z"/>
	<path class="st0" d="M1160.6,862.5c1,0,2.1,0.1,3.1,0.2c1,0.1,2.3,0.4,1.4,0.8c-4.1,2.2-37.9,3.9-38.5,1.9
		C1126.3,863.7,1148.9,862,1160.6,862.5L1160.6,862.5z"/>
	<path class="st0" d="M1183.7,864.5c1,0,2,0,3,0c0.5,0,1,0,1.5,0.1c0,0,0,0.1,0.1,0.2c-2.7,1.2-34.9,4.4-36.8,3
		C1153,866.4,1175.4,864.8,1183.7,864.5L1183.7,864.5z"/>
	<path class="st0" d="M1206.2,864.1c0.9-0.1,1.9-0.2,2.8-0.3c0.4,0,0.9-0.1,1.4-0.1c-1.2,0.5-31.5,4-34.5,4
		C1176.7,867.1,1205.9,864.2,1206.2,864.1L1206.2,864.1z"/>
	<polygon class="st0" points="626.8,152.8 626.3,152.1 626.8,151.6 627.3,152.3 626.8,152.8 	"/>
	<path class="st0" d="M628.3,190.8c0,0.1,0,0.3,0.1,0.4c0,0.9-0.6,1.2-1.1,0.9c-0.9-0.5-0.9-2.2,0-2.3
		C627.7,189.8,628.1,190.2,628.3,190.8L628.3,190.8z"/>
	<path class="st0" d="M631.6,229.3c0.1,0.2,0.1,0.4,0.1,0.5c0.1,1.5-0.9,1.9-1.9,1.3c-1.4-0.9-1.5-3.3-0.1-3.4
		C630.5,227.7,631.3,228.4,631.6,229.3L631.6,229.3z"/>
	<path class="st0" d="M637,267.5c0.1,0.2,0.2,0.5,0.2,0.7c0.2,1.9-1.3,2.5-2.6,1.7c-2.1-1.2-2.3-4.4-0.3-4.5
		C635.4,265.3,636.5,266.4,637,267.5L637,267.5z"/>
	<path class="st0" d="M644.2,305.3c0.1,0.3,0.2,0.6,0.3,0.9c0.4,2.3-1.5,3-3.3,2.1c-2.7-1.5-3.1-5.3-0.6-5.5
		C642,302.7,643.5,303.8,644.2,305.3L644.2,305.3z"/>
	<path class="st0" d="M653.4,342.6c0.2,0.3,0.3,0.7,0.4,1.1c0.6,3.1-2,3.6-4.1,2.5c-3.4-1.8-4.2-6.4-1-6.6
		C650.4,339.5,652.4,340.8,653.4,342.6L653.4,342.6z"/>
	<path class="st0" d="M664.2,379.3c0.2,0.4,0.4,0.8,0.6,1.2c0.8,3.3-2,4.3-4.8,2.9c-4.3-2-5.4-7.4-1.5-7.6
		C660.5,375.7,662.9,377.2,664.2,379.3L664.2,379.3z"/>
	<path class="st0" d="M676.6,415.4c0.3,0.4,0.5,0.9,0.7,1.4c1.1,3.6-2.1,4.7-5.5,3.2c-4.8-2.1-6.4-7.7-2.5-8.4
		C671.6,411.2,674.9,412.9,676.6,415.4L676.6,415.4z"/>
	<path class="st0" d="M690.5,450.7c0.3,0.5,0.6,1,0.9,1.5c1.4,3.9-2.3,5.3-6.3,3.7c-5.7-2.4-7.8-8.5-3.2-9.3
		C684.6,446.1,688.5,448,690.5,450.7L690.5,450.7z"/>
	<path class="st0" d="M705.8,485.2c0.5,0.6,0.8,1.2,1,1.6c1.7,4.4-2.5,5.7-7.2,4c-6.7-2.5-9.2-9.2-3.9-10
		C698.9,480.2,703.4,482.2,705.8,485.2L705.8,485.2z"/>
	<path class="st0" d="M722.3,518.7c0.6,0.7,0.9,1.3,1.2,1.7c2,4.6-2.7,6.1-7.9,4.2c-7.5-2.7-10.6-9.7-4.6-10.6
		C714.5,513.6,719.6,515.6,722.3,518.7L722.3,518.7z"/>
	<path class="st0" d="M740.2,551.3c0.7,0.7,1.1,1.3,1.4,1.8c2.4,4.9-2.9,6.5-8.9,4.6c-8.2-2.7-12-9.7-6.1-11.2
		C730.5,545.6,736.8,547.8,740.2,551.3L740.2,551.3z"/>
	<path class="st0" d="M759.1,582.8c0.8,0.8,1.2,1.4,1.6,1.9c2.8,5.2-3.1,6.9-9.8,4.9c-9-2.7-13.4-10.2-7-11.7
		C748.2,576.8,755.3,579.1,759.1,582.8L759.1,582.8z"/>
	<path class="st0" d="M778.9,613.1c0.9,0.8,1.4,1.4,1.8,2c3,5.2-3.3,7.1-10.6,5c-10-2.8-14.9-10.4-7.8-12
		C766.9,607,774.6,609.3,778.9,613.1L778.9,613.1z"/>
	<path class="st0" d="M799.7,642.1c1,0.8,1.5,1.5,2,2c3.8,5.9-4.4,7.1-11.5,5.2c-10.4-2.7-16.1-9.9-9.6-12.1
		C785.3,635.6,794.6,638,799.7,642.1L799.7,642.1z"/>
	<path class="st0" d="M821.3,669.8c1.1,0.8,1.7,1.5,2.2,2.1c3.9,5.5-3.6,7.5-12.4,5.4c-11.4-2.7-17.7-10.1-10.6-12.4
		C805.6,663.2,815.8,665.6,821.3,669.8L821.3,669.8z"/>
	<path class="st0" d="M843.5,696.1c1.1,0.8,1.8,1.5,2.3,2c4.2,5.5-3.8,7.5-13.2,5.5c-12.2-2.6-19.1-10-11.6-12.3
		C826.6,689.6,837.5,691.9,843.5,696.1L843.5,696.1z"/>
	<path class="st0" d="M866.4,720.8c1.2,0.8,1.9,1.5,2.5,2c4.6,5.5-3.9,7.6-14.1,5.6c-12.5-2.4-20.2-9.3-13.5-12
		C846.9,714.2,859.5,716.4,866.4,720.8L866.4,720.8z"/>
	<path class="st0" d="M889.9,744c1.3,0.8,2.1,1.5,2.7,2c5,5.4-4.1,7.5-15.1,5.6c-13.4-2.3-21.7-9.1-14.6-11.8
		C868.8,737.5,882.4,739.6,889.9,744L889.9,744z"/>
	<path class="st0" d="M913.8,765.4c1.4,0.8,2.2,1.4,2.9,1.9c5.4,5.3-4.7,6.9-14.2,5.8c-14.2-1.7-24.5-8.1-18.1-11.3
		C889.9,759.1,905.3,761,913.8,765.4L913.8,765.4z"/>
	<path class="st0" d="M938.1,785.1c1.5,0.7,2.4,1.3,3.1,1.8c5.7,5.1-4.9,6.8-15.1,5.7c-15-1.5-26-7.7-19.3-10.8
		C912.7,779.2,929.1,780.8,938.1,785.1L938.1,785.1z"/>
	<path class="st0" d="M962.7,802.9c1.6,0.7,2.6,1.3,3.3,1.7c5.8,4.6-4.3,6.3-13.9,5.8c-15.7-0.9-28.9-6.5-23.2-9.9
		C934.2,797.4,952.5,798.7,962.7,802.9L962.7,802.9z"/>
	<path class="st0" d="M987.6,818.8c1.7,0.6,2.7,1.2,3.5,1.6c5.9,4-3.8,5.7-12.6,5.6c-16.9-0.2-32.8-5.7-26.6-9.1
		C957.4,813.9,976.7,814.9,987.6,818.8L987.6,818.8z"/>
	<path class="st0" d="M1012.4,832.7c1.8,0.5,2.8,1,3.6,1.4c5.8,3.4-2.9,4.9-8.9,5.2c-17.4,0.9-37.8-3.8-32.5-7.6
		C979.1,828.6,1000.6,829.1,1012.4,832.7L1012.4,832.7z"/>
	<path class="st0" d="M1037,844.6c1.8,0.5,2.8,0.9,3.7,1.2c5.5,2.7-2,3.9-5.5,4.3c-15.9,1.8-40.6-1.8-37.1-5.5
		C1001.1,841.4,1024,841.4,1037,844.6L1037,844.6z"/>
	<path class="st0" d="M1060.6,854.4c1.7,0.3,2.7,0.6,3.5,0.9c3.9,1.5,0.8,2.5-2.4,3.1c-13.6,2.4-41.9-0.1-38.3-3.4
		C1026.2,852.4,1048.2,852,1060.6,854.4L1060.6,854.4z"/>
	<path class="st0" d="M1084.1,861.9c1.7,0.2,2.6,0.4,3.3,0.6c1,0.3,3.6,1-0.3,2c-10.2,2.4-40.3,1.5-38.8-1.1
		C1049.6,861,1072.5,860.4,1084.1,861.9L1084.1,861.9z"/>
	<path class="st0" d="M1107.4,867.1c1.1,0.1,2.1,0.2,3.2,0.3c0.9,0.2,2.7,0.5,1,1c-6.5,2.2-39.7,2.6-38.2,0.5
		C1074.6,867.3,1096.4,866.3,1107.4,867.1L1107.4,867.1z"/>
	<path class="st0" d="M1130.7,869.8c1,0,2,0,3,0.1c0.5,0,1,0.1,1.5,0.2c0,0,0.1,0.1,0.1,0.2c-2.5,1.1-35.1,3.4-37,2.1
		C1099.8,871,1121.2,869.8,1130.7,869.8L1130.7,869.8z"/>
	<path class="st0" d="M1153.6,870.1c0.9-0.1,1.9-0.1,2.8-0.2c0.5,0,0.9,0,1.4-0.1c-0.9,0.5-31.6,3.2-34.6,3.1
		C1123.8,872.3,1147.3,870.5,1153.6,870.1L1153.6,870.1z"/>
	<polygon class="st0" points="599.5,146 599.1,145.3 599.6,144.7 600,145.5 599.5,146 	"/>
	<path class="st0" d="M599,184.2c0,0.1,0,0.3,0.1,0.4c-0.1,1-0.7,1.1-1.1,0.8c-0.8-0.6-0.8-2.3,0.1-2.3
		C598.5,183.1,598.9,183.6,599,184.2L599,184.2z"/>
	<path class="st0" d="M600.4,222.9c0.1,0.2,0.1,0.4,0.1,0.5c0,1.5-1.1,1.8-1.8,1.3c-1.4-0.9-1.5-3.5-0.1-3.5
		C599.4,221.2,600.2,221.9,600.4,222.9L600.4,222.9z"/>
	<path class="st0" d="M604,261.2c0.1,0.2,0.1,0.5,0.2,0.7c0.1,2-1.4,2.3-2.5,1.7c-2.1-1.2-2.3-4.6-0.3-4.7
		C602.4,259,603.5,259.9,604,261.2L604,261.2z"/>
	<path class="st0" d="M609.4,299.2c0.1,0.3,0.2,0.6,0.3,0.9c0.3,2.3-1.6,3-3.3,1.9c-2.6-1.6-2.9-5.4-0.4-5.5
		C607.3,296.6,608.8,297.7,609.4,299.2L609.4,299.2z"/>
	<path class="st0" d="M616.8,336.7c0.2,0.4,0.3,0.7,0.4,1.1c0.5,3.1-2.1,3.5-4.1,2.4c-3.3-1.8-3.8-6.5-0.7-6.6
		C614,333.5,615.9,334.9,616.8,336.7L616.8,336.7z"/>
	<path class="st0" d="M626,373.7c0.2,0.4,0.4,0.8,0.5,1.2c0.7,3.3-2.1,4.2-4.8,2.8c-4.1-2.2-5-7.5-1.2-7.6
		C622.5,370,624.9,371.6,626,373.7L626,373.7z"/>
	<path class="st0" d="M636.8,410c0.3,0.4,0.5,0.9,0.6,1.4c1,4-2.6,4.5-5.5,3.1c-4.6-2.2-6.1-7.8-2.1-8.4
		C632.1,405.7,635.3,407.5,636.8,410L636.8,410z"/>
	<path class="st0" d="M649.3,445.5c0.3,0.5,0.6,1,0.8,1.5c1.2,4-2.5,5.2-6.3,3.5c-5.5-2.5-7.4-8.7-2.8-9.3
		C643.7,440.9,647.4,442.8,649.3,445.5L649.3,445.5z"/>
	<path class="st0" d="M663.2,480.3c0.5,0.7,0.7,1.2,1,1.7c1.6,4.4-2.7,5.7-7.2,3.8c-6.4-2.7-8.7-9.4-3.5-10.1
		C656.6,475.2,661,477.3,663.2,480.3L663.2,480.3z"/>
	<path class="st0" d="M678.5,514.2c0.6,0.7,0.9,1.3,1.1,1.8c1.9,4.9-3.4,5.8-8,4c-7.3-2.8-10-9.9-4.2-10.7
		C670.9,508.8,675.9,511,678.5,514.2L678.5,514.2z"/>
	<path class="st0" d="M695.1,547c0.7,0.7,1,1.3,1.3,1.8c2.4,5.4-3.7,6.2-8.9,4.3c-8-2.9-11.5-9.9-5.7-11.3
		C685.7,541.1,691.9,543.5,695.1,547L695.1,547z"/>
	<path class="st0" d="M712.8,578.8c0.8,0.8,1.2,1.4,1.5,2c2.8,5.7-4,6.5-9.7,4.6c-9-3-13.1-10.4-6.6-11.9
		C702.2,572.6,709.2,575.1,712.8,578.8L712.8,578.8z"/>
	<path class="st0" d="M731.6,609.5c0.8,0.8,1.3,1.5,1.7,2c3.1,5.6-4.1,6.7-10.5,4.7c-9.8-3.1-14.4-10.7-7.4-12.2
		C719.9,603.1,727.5,605.6,731.6,609.5L731.6,609.5z"/>
	<path class="st0" d="M751.4,638.9c0.9,0.8,1.5,1.5,1.9,2c3.6,6-4.5,6.9-11.5,4.9c-10.1-2.9-15.7-10.3-9.2-12.3
		C737.4,632,746.5,634.6,751.4,638.9L751.4,638.9z"/>
	<path class="st0" d="M772.1,667c1,0.8,1.6,1.5,2.1,2.1c3.7,5.6-3.7,7.4-12.4,5.1c-11.2-2.9-17.3-10.5-10.2-12.6
		C756.7,660,766.7,662.6,772.1,667L772.1,667z"/>
	<path class="st0" d="M793.5,693.6c1.1,0.8,1.8,1.5,2.3,2.1c4.3,5.9-5,7.1-13.2,5.1c-12-2.9-18.7-10.4-11.2-12.6
		C776.9,686.7,787.6,689.3,793.5,693.6L793.5,693.6z"/>
	<path class="st0" d="M815.7,718.8c1.2,0.8,1.9,1.5,2.5,2.1c4.4,5.5-4.1,7.4-14.2,5.2c-12.3-2.7-19.8-9.7-13.1-12.3
		C796.4,711.7,808.9,714.2,815.7,718.8L815.7,718.8z"/>
	<path class="st0" d="M838.6,742.4c1.3,0.8,2.1,1.5,2.7,2.1c5,5.6-4.5,7-13.5,5.5c-13.9-2.3-23.4-9.7-15.9-12.4
		C817.8,735.4,831.2,737.8,838.6,742.4L838.6,742.4z"/>
	<path class="st0" d="M861.8,764.3c1.4,0.8,2.2,1.5,2.9,2c5.3,5.4-4.7,6.8-14.2,5.5c-14-2-24.2-8.7-17.8-11.7
		C838.3,757.4,853.5,759.7,861.8,764.3L861.8,764.3z"/>
	<path class="st0" d="M885.7,784.4c1.5,0.8,2.4,1.4,3.1,1.9c5.7,5.2-4.5,6.4-13.2,5.6c-15.5-1.5-27.9-8.3-20.9-11.4
		C860.6,777.9,876.8,780,885.7,784.4L885.7,784.4z"/>
	<path class="st0" d="M909.9,802.8c1.6,0.7,2.5,1.3,3.3,1.8c6,4.9-4.7,6.1-13.9,5.4c-15.6-1.2-28.7-7.2-23-10.4
		C881.6,796.5,899.8,798.3,909.9,802.8L909.9,802.8z"/>
	<path class="st0" d="M934.5,819.2c1.7,0.7,2.6,1.2,3.5,1.7c5.8,4.2-3.8,5.6-12.6,5.3c-16.8-0.6-32.6-6.4-26.3-9.7
		C904.5,813.5,923.7,815,934.5,819.2L934.5,819.2z"/>
	<path class="st0" d="M959.1,833.6c1.8,0.6,2.8,1.1,3.6,1.5c5.8,3.5-2.9,4.8-9,4.9c-17.2,0.5-37.4-4.7-32.3-8.3
		C925.9,828.7,947.4,829.7,959.1,833.6L959.1,833.6z"/>
	<path class="st0" d="M983.5,846.1c1.8,0.5,2.8,0.9,3.7,1.3c5.5,2.8-2,3.9-5.5,4.2c-16.3,1.5-40.5-2.7-37-6.4
		C947.8,842,970.6,842.5,983.5,846.1L983.5,846.1z"/>
	<path class="st0" d="M1007.1,856.4c1.7,0.4,2.7,0.7,3.5,1c3.9,1.6,0.9,2.6-2.4,3c-13.6,2-41.9-1.1-38.3-4.3
		C972.8,853.6,994.7,853.7,1007.1,856.4L1007.1,856.4z"/>
	<path class="st0" d="M1030.6,864.5c1.7,0.3,2.6,0.5,3.4,0.7c1,0.3,3.7,1.1-0.2,2c-10.2,2.2-40.3,0.6-38.9-2.1
		C996.1,862.9,1018.1,862.6,1030.6,864.5L1030.6,864.5z"/>
	<path class="st0" d="M1054.2,870.3c1.1,0.1,2.1,0.2,3.2,0.4c0.9,0.2,2.7,0.6,1.1,1.1c-6.5,2.1-39.8,1.7-38.3-0.4
		C1021.3,869.8,1043.2,869.3,1054.2,870.3L1054.2,870.3z"/>
	<path class="st0" d="M1077.7,873.8c1,0,2,0.1,3,0.1c0.5,0,1,0.1,1.5,0.2c0,0,0.1,0.1,0.1,0.2c-3.2,1.4-35.4,2.3-37.1,1.1
		C1046.7,874.1,1068.2,873.5,1077.7,873.8L1077.7,873.8z"/>
	<path class="st0" d="M1100.9,874.7c1,0,1.9-0.1,2.9-0.1c0.5,0,1,0,1.4,0c-0.8,0.5-31.4,2.4-34.8,2.2c0,0,0.1-0.1,0.1-0.1
		C1074.5,876,1093.9,875,1100.9,874.7L1100.9,874.7z"/>
	<polygon class="st0" points="573.6,138.3 573.2,137.5 573.7,137 574.1,137.8 573.6,138.3 	"/>
	<path class="st0" d="M571.1,176.6c0,0.1,0,0.3,0,0.4c-0.1,1-0.7,1.1-1.2,0.8c-0.8-0.6-0.6-2.3,0.2-2.3
		C570.5,175.5,571,175.9,571.1,176.6L571.1,176.6z"/>
	<path class="st0" d="M570.5,215.4c0,0.2,0.1,0.4,0.1,0.5c-0.1,1.5-1.1,1.8-1.8,1.3c-1.3-0.9-1.2-3.5,0.1-3.5
		C569.5,213.8,570.2,214.4,570.5,215.4L570.5,215.4z"/>
	<path class="st0" d="M572.1,254c0.1,0.2,0.1,0.5,0.1,0.8c0,2-1.4,2.3-2.5,1.7c-2-1.2-2-4.7-0.1-4.7
		C570.7,251.7,571.7,252.7,572.1,254L572.1,254z"/>
	<path class="st0" d="M575.7,292.2c0.1,0.3,0.2,0.6,0.2,0.9c0.2,2.4-1.7,2.8-3,2c-2.6-1.5-2.8-5.6-0.4-5.6
		C573.8,289.4,575.2,290.6,575.7,292.2L575.7,292.2z"/>
	<path class="st0" d="M581.4,329.8c0.1,0.4,0.2,0.7,0.3,1.1c0.4,2.9-1.9,3.4-3.7,2.5c-3.2-1.7-4-6.4-1.1-6.8
		C578.5,326.4,580.5,327.8,581.4,329.8L581.4,329.8z"/>
	<path class="st0" d="M588.9,367c0.2,0.4,0.3,0.8,0.4,1.3c0.6,3.3-2.2,4.2-4.8,2.7c-3.9-2.3-4.6-7.6-0.9-7.6
		C585.6,363.3,587.9,364.9,588.9,367L588.9,367z"/>
	<path class="st0" d="M598.2,403.6c0.2,0.5,0.4,0.9,0.6,1.4c0.8,3.6-2.4,4.6-5.5,2.9c-4.4-2.3-5.6-7.9-1.8-8.4
		C593.7,399.2,596.7,401,598.2,403.6L598.2,403.6z"/>
	<path class="st0" d="M609.1,439.3c0.3,0.5,0.5,1,0.7,1.5c1.1,4.3-3,5-6.4,3.3c-5.3-2.6-6.9-8.8-2.4-9.4
		C603.8,434.5,607.4,436.6,609.1,439.3L609.1,439.3z"/>
	<path class="st0" d="M621.6,474.4c0.5,0.7,0.7,1.2,0.9,1.7c1.5,4.8-3.4,5.3-7.2,3.6c-6.2-2.8-8.3-9.6-3.1-10.1
		C615.3,469.1,619.5,471.3,621.6,474.4L621.6,474.4z"/>
	<path class="st0" d="M635.5,508.5c0.5,0.7,0.8,1.3,1.1,1.8c1.8,5.1-3.6,5.6-8,3.8c-7.1-3-9.6-10.1-3.8-10.8
		C628.2,503,633,505.3,635.5,508.5L635.5,508.5z"/>
	<path class="st0" d="M650.8,541.7c0.6,0.7,1,1.4,1.2,1.9c2.2,5.4-3.8,6.1-8.8,4.1c-7.7-3-11-10.2-5.2-11.4
		C641.7,535.5,647.7,538,650.8,541.7L650.8,541.7z"/>
	<path class="st0" d="M667.4,573.8c0.7,0.8,1.1,1.4,1.4,2c2.6,5.7-4.1,6.4-9.7,4.3c-8.7-3.2-12.5-10.7-6.2-12
		C657.1,567.3,663.8,569.9,667.4,573.8L667.4,573.8z"/>
	<path class="st0" d="M685,604.8c0.8,0.8,1.3,1.5,1.6,2c2.7,5.3-3.5,6.9-10.6,4.4c-9.6-3.3-13.9-11-7-12.3
		C673.6,598.1,681.1,600.8,685,604.8L685,604.8z"/>
	<path class="st0" d="M703.8,634.5c0.9,0.8,1.4,1.5,1.8,2.1c3.3,5.8-4.6,6.8-11.5,4.6c-10.5-3.3-15.5-11.3-8-12.7
		C691.1,627.6,699.4,630.4,703.8,634.5L703.8,634.5z"/>
	<path class="st0" d="M723.6,662.9c1,0.9,1.6,1.6,2,2.1c3.7,5.9-4.8,7-12.4,4.7c-10.9-3.2-16.8-10.8-9.8-12.7
		C708.5,655.7,718.3,658.5,723.6,662.9L723.6,662.9z"/>
	<path class="st0" d="M744.1,690c1.1,0.9,1.7,1.6,2.2,2.1c4,5.7-4.2,6.8-11.8,5.1c-11.7-2.6-19.5-10.3-13-12.8
		C726.6,682.4,738,685.3,744.1,690L744.1,690z"/>
	<path class="st0" d="M765.5,715.5c1.2,0.8,1.9,1.6,2.4,2.1c4.4,5.8-4.4,6.9-12.6,5.2c-12.7-2.7-21.2-10.3-14.2-12.9
		C746.6,708,758.9,710.8,765.5,715.5L765.5,715.5z"/>
	<path class="st0" d="M787.7,739.5c1.3,0.8,2,1.6,2.6,2.1c4.8,5.7-4.6,6.9-13.5,5.2c-13.7-2.6-22.9-10.2-15.5-12.7
		C767.2,732.1,780.5,734.8,787.7,739.5L787.7,739.5z"/>
	<path class="st0" d="M810.3,761.9c1.4,0.8,2.2,1.5,2.8,2.1c5.1,5.5-4.8,6.7-14.2,5.1c-13.8-2.3-23.7-9.2-17.4-12
		C787.1,754.5,802.2,757.1,810.3,761.9L810.3,761.9z"/>
	<path class="st0" d="M833.6,782.5c1.5,0.8,2.3,1.4,3,2c5.3,5.1-4.2,6.3-13.1,5.2c-15.3-1.8-27.5-8.9-20.5-11.8
		C808.8,775.4,824.9,777.9,833.6,782.5L833.6,782.5z"/>
	<path class="st0" d="M857.5,801.4c1.6,0.7,2.5,1.4,3.2,1.9c5.4,4.6-3.8,5.8-12,5.2c-15.9-1.2-30.6-7.8-24.6-11.1
		C829.4,794.5,847.5,796.6,857.5,801.4L857.5,801.4z"/>
	<path class="st0" d="M881.7,818.3c1.7,0.7,2.6,1.3,3.4,1.7c5.5,4.2-3.3,5.3-10.6,5.1c-16.2-0.5-33.4-6.5-28.7-10
		C850.1,811.8,870.6,813.7,881.7,818.3L881.7,818.3z"/>
	<path class="st0" d="M906,833.3c1.8,0.6,2.8,1.1,3.6,1.6c5.7,3.7-3,4.7-9,4.7c-17.2,0.1-37.3-5.6-32-9.1
		C873,827.5,894.4,829.1,906,833.3L906,833.3z"/>
	<path class="st0" d="M930.3,846.2c1.8,0.5,2.8,1,3.7,1.3c5.5,3-2.1,3.8-5.5,4c-15.9,1-40.3-3.8-36.8-7.2
		C894.7,841.3,917.5,842.4,930.3,846.2L930.3,846.2z"/>
	<path class="st0" d="M953.8,857.2c1.7,0.4,2.7,0.8,3.5,1.1c3.9,1.7,0.8,2.6-2.5,3c-13.6,1.7-41.8-2.2-38.2-5.2
		C919.6,853.5,941.4,854.2,953.8,857.2L953.8,857.2z"/>
	<path class="st0" d="M977.3,865.9c1.7,0.3,2.6,0.5,3.4,0.8c1,0.3,3.7,1.2-0.2,2c-10.1,2-40.2-0.4-38.7-3.1
		C942.9,863.3,965.8,863.8,977.3,865.9L977.3,865.9z"/>
	<path class="st0" d="M1000.9,872.3c1.1,0.1,2.2,0.3,3.2,0.5c1,0.2,2.7,0.6,1.1,1.1c-6.4,1.9-39.6,0.7-38.2-1.4
		C968,870.9,989.8,871,1000.9,872.3L1000.9,872.3z"/>
	<path class="st0" d="M1024.6,876.4c1,0.1,2,0.1,3.1,0.2c1.2,0.1,1.4,0.2,1.7,0.4c-2,1.4-35.4,1.6-37.2,0.2
		C993.5,875.9,1015.3,875.8,1024.6,876.4L1024.6,876.4z"/>
	<path class="st0" d="M1048,878c1,0,1.9,0,2.9,0c0.5,0,1,0,1.5,0c-2.4,0.7-32,1.6-34.9,1.3c0,0,0.1-0.1,0.1-0.1
		C1021.4,878.6,1040.6,878.1,1048,878L1048,878z"/>
	<path class="st0" d="M544.5,168.2c0,0.1,0,0.3,0,0.4c-0.1,0.9-0.7,1.1-1.1,0.8c-0.7-0.6-0.5-2.3,0.3-2.3
		C544.1,167,544.4,167.5,544.5,168.2L544.5,168.2z"/>
	<path class="st0" d="M541.8,207.1c0,0.2,0,0.4,0,0.6c-0.1,1.4-1,1.8-1.8,1.3c-1.3-1-1.1-3.6,0.3-3.5
		C541.2,205.4,541.7,206.3,541.8,207.1L541.8,207.1z"/>
	<path class="st0" d="M541.5,245.8c0.1,0.2,0.1,0.5,0.1,0.8c-0.1,1.8-1.3,2.4-2.5,1.6c-1.9-1.3-1.8-4.7,0.2-4.7
		C540.4,243.5,541.2,244.7,541.5,245.8L541.5,245.8z"/>
	<path class="st0" d="M543.3,284.1c0.1,0.3,0.1,0.6,0.2,0.9c0,2.2-1.6,2.8-3.1,1.9c-2.5-1.5-2.6-5.7-0.1-5.6
		C541.5,281.4,542.8,282.6,543.3,284.1L543.3,284.1z"/>
	<path class="st0" d="M547.2,322c0.1,0.4,0.2,0.7,0.3,1.1c0.2,2.9-2,3.3-3.7,2.4c-3-1.7-3.6-6.5-0.8-6.8
		C544.5,318.5,546.4,320,547.2,322L547.2,322z"/>
	<path class="st0" d="M553,359.4c0.2,0.4,0.3,0.8,0.4,1.3c0.4,3.4-2.3,3.9-4.4,2.7c-3.8-2-4.7-7.5-1.3-7.9
		C549.6,355.3,552,357.1,553,359.4L553,359.4z"/>
	<path class="st0" d="M560.6,396.1c0.2,0.5,0.4,0.9,0.5,1.4c0.6,3.7-2.5,4.3-5.1,3c-4.5-2.2-5.8-8.3-1.9-8.7
		C556.4,391.6,559.3,393.5,560.6,396.1L560.6,396.1z"/>
	<path class="st0" d="M569.9,432.1c0.3,0.5,0.5,1,0.7,1.6c0.8,3.9-2.3,5-5.8,3.4c-5.4-2.5-7.2-9.3-2.6-9.7
		C564.9,427.2,568.3,429.3,569.9,432.1L569.9,432.1z"/>
	<path class="st0" d="M581,467.4c0.3,0.5,0.6,1.1,0.8,1.7c1.2,4.4-2.9,5.5-7.2,3.4c-6-3-7.8-9.8-2.7-10.2
		C575,462,579,464.3,581,467.4L581,467.4z"/>
	<path class="st0" d="M593.4,501.8c0.5,0.7,0.8,1.3,1,1.8c1.5,4.7-3.1,5.8-7.9,3.6c-6.9-3.2-9.1-10.4-3.4-10.8
		C586.5,496.1,591.1,498.5,593.4,501.8L593.4,501.8z"/>
	<path class="st0" d="M607.5,535.2c0.6,0.8,0.9,1.4,1.2,1.9c1.8,5-3.3,6.2-8.8,3.9c-7.4-3.2-10.4-10.4-4.8-11.5
		C598.7,528.9,604.6,531.5,607.5,535.2L607.5,535.2z"/>
	<path class="st0" d="M622.8,567.6c0.7,0.8,1.1,1.5,1.4,2c2.2,5.3-3.5,6.6-9.7,4.1c-8.3-3.3-11.9-11-5.7-12.1
		C612.9,560.9,619.4,563.7,622.8,567.6L622.8,567.6z"/>
	<path class="st0" d="M639.3,598.9c0.8,0.8,1.2,1.5,1.5,2.1c2.5,5.3-3.7,6.7-10.5,4.2c-9.4-3.5-13.5-11.3-6.6-12.4
		C628.2,592,635.5,594.9,639.3,598.9L639.3,598.9z"/>
	<path class="st0" d="M657,629c0.9,0.9,1.3,1.5,1.7,2.1c3,5.7-3.9,6.5-10.2,4.7c-10.3-3-16.2-11.2-9.5-13
		C643.7,621.5,652.4,624.5,657,629L657,629z"/>
	<path class="st0" d="M675.7,657.7c1,0.9,1.5,1.6,1.9,2.2c3.4,5.8-4.2,6.7-11.1,4.8c-11.1-3-17.9-11.5-10.6-13.3
		C661.1,650.1,670.7,653.2,675.7,657.7L675.7,657.7z"/>
	<path class="st0" d="M695.3,685.2c1.1,0.9,1.6,1.6,2.1,2.2c3.8,5.8-4.3,6.7-11.8,4.8c-11.6-2.9-19.1-10.8-12.5-13.1
		C678.3,677.2,689.5,680.3,695.3,685.2L695.3,685.2z"/>
	<path class="st0" d="M715.9,711.1c1.2,0.9,1.8,1.6,2.3,2.2c4.2,5.8-4.5,6.8-12.5,4.9c-12.6-3-20.9-10.8-13.8-13.1
		C697.4,703.2,709.5,706.3,715.9,711.1L715.9,711.1z"/>
	<path class="st0" d="M737.3,735.5c1.3,0.9,2,1.6,2.5,2.2c4.6,5.8-4.7,6.7-13.4,4.8c-13.5-2.9-22.5-10.7-15.1-13
		C717.3,727.6,730.3,730.7,737.3,735.5L737.3,735.5z"/>
	<path class="st0" d="M759.4,758.3c1.4,0.9,2.1,1.5,2.8,2.1c4.8,5.3-4.2,6.3-12.4,5c-14.2-2.3-25.5-9.9-18.7-12.7
		C736.5,750.4,751.4,753.3,759.4,758.3L759.4,758.3z"/>
	<path class="st0" d="M782.1,779.4c1.5,0.8,2.3,1.5,3,2c5.1,5.2-4.3,6.2-13.2,4.9c-15.2-2.2-27.2-9.5-20.1-12.3
		C757.6,771.7,773.5,774.5,782.1,779.4L782.1,779.4z"/>
	<path class="st0" d="M805.4,798.7c1.6,0.8,2.4,1.4,3.2,1.9c5.3,4.7-3.8,5.7-11.9,4.9c-15.8-1.5-30.3-8.5-24.2-11.6
		C777.7,791.2,795.6,793.8,805.4,798.7L805.4,798.7z"/>
	<path class="st0" d="M829.2,816.1c1.7,0.7,2.6,1.3,3.4,1.8c5.9,4.6-4.3,5.2-10.5,4.8c-17-1-34.4-7.9-27.8-11.1
		C799.8,809.1,818.7,811.5,829.2,816.1L829.2,816.1z"/>
	<path class="st0" d="M853.2,831.6c1.8,0.7,2.7,1.2,3.5,1.7c6.2,4.2-4.8,4.5-7,4.5c-16.8,0.2-39.1-6.3-33.7-9.8
		C820.5,825.1,841.7,827.2,853.2,831.6L853.2,831.6z"/>
	<path class="st0" d="M877.3,845.2c1.8,0.6,2.8,1.1,3.6,1.4c5.4,3.1-2,3.8-5.5,3.9c-15.8,0.6-40-4.7-36.6-8.1
		C841.9,839.4,864.6,841,877.3,845.2L877.3,845.2z"/>
	<path class="st0" d="M900.6,856.6c1.7,0.5,2.7,0.8,3.5,1.1c3.9,1.8,0.9,2.6-2.4,2.9c-13.5,1.4-41.6-3.2-38-6.2
		C866.6,852.1,888.3,853.4,900.6,856.6L900.6,856.6z"/>
	<path class="st0" d="M924.1,865.9c1.6,0.3,2.6,0.6,3.4,0.8c1,0.4,3.7,1.3-0.2,2c-10.1,1.7-40.1-1.4-38.7-4
		C889.8,862.5,912.6,863.6,924.1,865.9L924.1,865.9z"/>
	<path class="st0" d="M947.7,872.9c1.1,0.2,2.2,0.3,3.2,0.6c1,0.2,2.7,0.7,1.1,1.2c-6.4,1.8-39.7-0.3-38.2-2.3
		C914.8,870.7,936.6,871.3,947.7,872.9L947.7,872.9z"/>
	<path class="st0" d="M971.4,877.6c1,0.1,2.1,0.2,3.1,0.3c1.2,0.2,1.4,0.2,1.7,0.4c-1.9,1.4-35.3,0.8-37.2-0.7
		C940.4,876.4,962.1,876.9,971.4,877.6L971.4,877.6z"/>
	<path class="st0" d="M995.1,879.9c1,0,1.9,0,2.9,0.1c0.5,0,1,0,1.5,0.1c-2.2,0.7-34.3,0.9-35.1,0.3
		C966.5,879.9,985.6,879.8,995.1,879.9L995.1,879.9z"/>
	<path class="st0" d="M519.2,158.8c0,0.1,0,0.3,0,0.4c-0.2,0.9-0.7,1.1-1.1,0.8c-0.7-0.6-0.4-2.4,0.4-2.4
		C518.9,157.7,519.2,158.2,519.2,158.8L519.2,158.8z"/>
	<path class="st0" d="M514.5,197.9c0,0.2,0,0.4,0,0.6c-0.2,1.5-1.2,1.7-1.8,1.2c-1.2-1-0.8-3.6,0.5-3.5
		C513.8,196.2,514.4,196.9,514.5,197.9L514.5,197.9z"/>
	<path class="st0" d="M512.2,236.7c0,0.2,0.1,0.5,0.1,0.8c-0.2,2-1.6,2.2-2.5,1.5c-1.7-1.3-1.5-4.8,0.4-4.7
		C511.1,234.3,512,235.4,512.2,236.7L512.2,236.7z"/>
	<path class="st0" d="M512.1,275.2c0.1,0.3,0.1,0.6,0.1,0.9c-0.1,2.4-1.8,2.7-3,1.8c-2.3-1.6-2.2-5.8,0.2-5.7
		C510.5,272.4,511.7,273.6,512.1,275.2L512.1,275.2z"/>
	<path class="st0" d="M514.1,313.2c0.1,0.4,0.2,0.7,0.2,1.1c0.1,2.9-2.1,3.3-3.8,2.3c-2.9-1.8-3.2-6.6-0.4-6.8
		C511.7,309.6,513.5,311.2,514.1,313.2L514.1,313.2z"/>
	<path class="st0" d="M518.2,350.7c0.2,0.4,0.3,0.8,0.3,1.3c0.3,3.4-2.4,3.8-4.5,2.6c-3.7-2.1-4.3-7.7-0.9-7.9
		C515,346.6,517.3,348.4,518.2,350.7L518.2,350.7z"/>
	<path class="st0" d="M524.1,387.7c0.2,0.5,0.3,0.9,0.4,1.4c0.5,3.7-2.6,4.2-5,2.9c-4.4-2.3-5.4-8.5-1.5-8.8
		C520.2,383.1,522.9,385.1,524.1,387.7L524.1,387.7z"/>
	<path class="st0" d="M531.9,423.9c0.3,0.5,0.4,1,0.6,1.6c0.7,4.2-2.9,4.7-5.8,3.3c-5.2-2.6-6.7-9.4-2.1-9.7
		C527.1,418.8,530.4,421,531.9,423.9L531.9,423.9z"/>
	<path class="st0" d="M541.4,459.4c0.3,0.6,0.5,1.1,0.7,1.7c1,4.5-3.1,5.1-6.5,3.5c-6.1-2.8-8.1-10.2-2.9-10.6
		C535.7,453.9,539.5,456.3,541.4,459.4L541.4,459.4z"/>
	<path class="st0" d="M552.4,494c0.5,0.7,0.7,1.4,0.9,1.8c1.3,4.8-3.3,5.4-7.2,3.7c-6.7-2.9-9.4-10.3-4.2-11.2
		C545.2,487.8,550.1,490.5,552.4,494L552.4,494z"/>
	<path class="st0" d="M565.1,527.7c0.6,0.8,0.9,1.4,1.1,1.9c1.7,5.1-3.5,5.8-8,4c-7.6-3.1-11-10.9-5.1-11.9
		C556.7,521.1,562.3,523.9,565.1,527.7L565.1,527.7z"/>
	<path class="st0" d="M579.1,560.4c0.6,0.8,1,1.5,1.3,2c2,5.4-3.7,6.1-8.8,4.2c-8.6-3.2-12.7-11.6-6.1-12.6
		C569.5,553.4,575.9,556.4,579.1,560.4L579.1,560.4z"/>
	<path class="st0" d="M594.3,592c0.7,0.8,1.1,1.5,1.4,2.1c2.4,5.6-3.9,6.2-9.4,4.3c-9.1-3.2-14-11.2-7.8-12.8
		C582.9,584.5,590.5,587.6,594.3,592L594.3,592z"/>
	<path class="st0" d="M610.9,622.3c0.8,0.9,1.3,1.6,1.6,2.1c2.8,5.7-4.1,6.4-10.2,4.4c-10.1-3.3-15.7-11.5-8.9-13.2
		C598,614.6,606.6,617.8,610.9,622.3L610.9,622.3z"/>
	<path class="st0" d="M628.6,651.4c0.9,0.9,1.4,1.6,1.9,2.2c3.2,5.8-4.3,6.6-11,4.5c-11.2-3.4-17.5-11.8-10.1-13.5
		C614.4,643.5,623.8,646.8,628.6,651.4L628.6,651.4z"/>
	<path class="st0" d="M647.3,679.2c1,0.9,1.6,1.6,2.1,2.2c3.6,5.9-4.5,6.6-11.8,4.5c-12-3.4-19-11.9-11.2-13.5
		C631.8,671.2,642,674.5,647.3,679.2L647.3,679.2z"/>
	<path class="st0" d="M667.1,705.5c1.1,0.9,1.8,1.6,2.3,2.2c4,5.9-4.6,6.6-12.6,4.5c-12.3-3.2-20.3-11.2-13.3-13.4
		C648.9,697.2,660.8,700.5,667.1,705.5L667.1,705.5z"/>
	<path class="st0" d="M687.7,730.3c1.2,0.9,1.9,1.6,2.5,2.2c4.2,5.6-4.1,6.4-11.8,4.9c-13.2-2.7-23.3-10.7-17-13.4
		C666.6,721.7,680.4,725,687.7,730.3L687.7,730.3z"/>
	<path class="st0" d="M708.9,753.5c1.3,0.9,2.1,1.6,2.7,2.2c4.6,5.4-4.3,6.2-12.4,4.7c-14.1-2.6-25-10.4-18.3-13.1
		C686.5,745.1,701.1,748.4,708.9,753.5L708.9,753.5z"/>
	<path class="st0" d="M731,775c1.4,0.8,2.2,1.5,2.9,2.1c5.1,5.3-4.3,5.8-11.3,4.8c-15.5-2.1-29-10.2-21.5-13
		C706.9,766.8,722.6,770,731,775L731,775z"/>
	<path class="st0" d="M753.8,794.8c1.5,0.8,2.4,1.5,3.1,2c5.5,5.1-4.4,5.5-11.9,4.6c-15.6-1.9-29.9-9.2-23.8-12.1
		C726.5,786.7,744.2,789.7,753.8,794.8L753.8,794.8z"/>
	<path class="st0" d="M777.1,812.7c1.6,0.8,2.6,1.4,3.3,1.9c5.8,4.7-4.4,5-10.5,4.5c-16.9-1.4-34-8.7-27.4-11.7
		C748,805,766.8,807.9,777.1,812.7L777.1,812.7z"/>
	<path class="st0" d="M800.8,828.7c1.7,0.7,2.7,1.3,3.5,1.7c6.1,4.3-4.9,4.3-7.1,4.3c-16.6-0.2-38.7-7.3-33.3-10.6
		C768.3,821.5,789.4,824.1,800.8,828.7L800.8,828.7z"/>
	<path class="st0" d="M824.5,842.8c1.8,0.6,2.7,1.1,3.6,1.5c4.7,2.8-0.4,3.5-3.9,3.7c-15,0.8-41.5-5.5-37.8-8.9
		C789.4,836.2,811.9,838.4,824.5,842.8L824.5,842.8z"/>
	<path class="st0" d="M847.6,854.8c1.7,0.5,2.6,0.9,3.5,1.2c3.9,1.9,0.8,2.6-2.4,2.9c-13.5,1-41.4-4.2-37.8-7.1
		C813.8,849.5,835.4,851.2,847.6,854.8L847.6,854.8z"/>
	<path class="st0" d="M871,864.6c1.6,0.4,2.6,0.7,3.3,0.9c1,0.4,3.7,1.4-0.2,2c-10.1,1.5-40-2.4-38.6-5
		C836.7,860.5,858.6,861.8,871,864.6L871,864.6z"/>
	<path class="st0" d="M894.6,872.3c1.1,0.2,2.2,0.4,3.2,0.6c1,0.3,2.7,0.8,1.2,1.2c-6,1.6-39.6-1.3-38.2-3.3
		C861.9,869.2,883.6,870.4,894.6,872.3L894.6,872.3z"/>
	<path class="st0" d="M918.4,877.6c1,0.1,2.1,0.2,3.1,0.4c1.2,0.2,1.4,0.3,1.7,0.4c-1.8,1.4-35.2-0.1-37.2-1.6
		C887.4,875.5,909.1,876.6,918.4,877.6L918.4,877.6z"/>
	<path class="st0" d="M942.2,880.6c1,0,2,0.1,2.9,0.1c0.5,0,1,0.1,1.5,0.1c-2.1,0.6-34.2,0-35.1-0.6
		C913.6,879.7,932.9,880.2,942.2,880.6L942.2,880.6z"/>
	<path class="st0" d="M488.6,187.8c0,0.2,0,0.4,0,0.6c-0.3,1.5-1.2,1.6-1.7,1.2c-1.2-0.9-0.8-3.7,0.6-3.6
		C488,186,488.5,186.9,488.6,187.8L488.6,187.8z"/>
	<path class="st0" d="M484.3,226.8c0,0.2,0,0.5,0,0.8c-0.3,2-1.6,2.2-2.5,1.5c-1.6-1.4-1.2-4.9,0.6-4.7
		C483.3,224.3,484.1,225.4,484.3,226.8L484.3,226.8z"/>
	<path class="st0" d="M482.1,265.3c0.1,0.3,0.1,0.6,0.1,0.9c-0.2,2.4-1.9,2.7-3.1,1.8c-2.2-1.7-1.8-5.9,0.4-5.7
		C480.7,262.5,481.8,263.8,482.1,265.3L482.1,265.3z"/>
	<path class="st0" d="M482.3,303.5c0.1,0.4,0.1,0.7,0.2,1.1c-0.1,2.9-2.2,3.3-3.7,2.2c-2.8-2-2.7-7.1,0.2-6.9
		C480.3,300,481.8,301.6,482.3,303.5L482.3,303.5z"/>
	<path class="st0" d="M484.6,341.2c0.1,0.4,0.2,0.9,0.2,1.3c0.1,3.4-2.5,3.8-4.4,2.5c-3.6-2.3-3.9-7.8-0.5-7.9
		C481.7,337,483.8,338.8,484.6,341.2L484.6,341.2z"/>
	<path class="st0" d="M488.8,378.3c0.2,0.5,0.3,0.9,0.4,1.4c0.3,3.7-2.8,4.1-5.1,2.7c-4.3-2.5-5-8.6-1.1-8.8
		C485.2,373.6,487.7,375.6,488.8,378.3L488.8,378.3z"/>
	<path class="st0" d="M494.9,414.7c0.2,0.5,0.4,1,0.5,1.6c0.6,4.2-3,4.6-5.8,3.1c-5-2.7-6.2-9.6-1.7-9.8
		C490.5,409.5,493.6,411.8,494.9,414.7L494.9,414.7z"/>
	<path class="st0" d="M502.9,450.4c0.3,0.6,0.5,1.1,0.7,1.7c0.8,4.5-3.3,5-6.6,3.3c-5.9-3-7.6-10.4-2.4-10.6
		C497.5,444.7,501.2,447.2,502.9,450.4L502.9,450.4z"/>
	<path class="st0" d="M512.4,485.2c0.4,0.7,0.6,1.4,0.8,1.8c1.1,4.8-3.4,5.3-7.2,3.5c-6.4-3-8.9-10.5-3.7-11.2
		C505.5,478.9,510.3,481.6,512.4,485.2L512.4,485.2z"/>
	<path class="st0" d="M523.6,519.1c0.5,0.8,0.8,1.4,1,1.9c1.5,5.2-3.6,5.7-8,3.8c-7.4-3.2-10.4-11.2-4.6-12
		C515.6,512.4,521.1,515.3,523.6,519.1L523.6,519.1z"/>
	<path class="st0" d="M536.3,552.1c0.6,0.8,0.9,1.5,1.2,2.1c1.8,5.4-3.9,6-8.8,4c-8.3-3.4-12.1-11.8-5.6-12.7
		C527.2,544.9,533.3,548,536.3,552.1L536.3,552.1z"/>
	<path class="st0" d="M550.4,583.9c0.7,0.9,1.1,1.6,1.4,2.1c2.2,5.6-4,6.1-9.5,4c-8.9-3.4-13.4-11.5-7.3-12.9
		C539.3,576.2,546.7,579.5,550.4,583.9L550.4,583.9z"/>
	<path class="st0" d="M565.8,614.6c0.8,0.9,1.2,1.6,1.6,2.2c2.6,5.8-4.2,6.3-10.3,4.2c-9.8-3.5-15.1-11.9-8.4-13.3
		C553.3,606.5,561.6,610,565.8,614.6L565.8,614.6z"/>
	<path class="st0" d="M582.4,644c0.9,0.9,1.4,1.7,1.8,2.2c3,5.9-4.4,6.4-11.1,4.2c-10.9-3.6-16.9-12.2-9.6-13.7
		C568.5,635.8,577.7,639.3,582.4,644L582.4,644z"/>
	<path class="st0" d="M600,672.1c1,0.9,1.5,1.7,2,2.3c3.4,5.9-4.6,6.4-11.8,4.2c-11.8-3.6-18.5-12.3-10.7-13.7
		C584.9,663.8,594.9,667.3,600,672.1L600,672.1z"/>
	<path class="st0" d="M618.8,698.7c1.1,0.9,1.7,1.7,2.2,2.3c3.7,5.7-4.1,6.3-11.1,4.6c-12.7-3.1-21.6-11.9-14.2-14
		C601.1,690,612.8,693.6,618.8,698.7L618.8,698.7z"/>
	<path class="st0" d="M638.6,723.9c1.2,0.9,1.8,1.6,2.4,2.3c4.1,5.7-4.2,6.3-11.8,4.5c-13.7-3.1-23.5-11.9-15.7-14
		C619.3,715.2,631.9,718.8,638.6,723.9L638.6,723.9z"/>
	<path class="st0" d="M659.1,747.5c1.3,0.9,2,1.6,2.6,2.2c4.4,5.5-4.3,6.1-12.4,4.4c-13.8-2.9-24.4-11-17.8-13.4
		C637.1,738.6,651.5,742.2,659.1,747.5L659.1,747.5z"/>
	<path class="st0" d="M680.5,769.5c1.4,0.9,2.2,1.6,2.8,2.2c4.9,5.4-4.3,5.7-11.3,4.5c-15.3-2.5-28.4-10.9-21-13.4
		C656.8,760.7,672.2,764.3,680.5,769.5L680.5,769.5z"/>
	<path class="st0" d="M702.7,789.7c1.5,0.9,2.4,1.5,3.1,2.1c5.2,5.1-4.3,5.2-10.1,4.5c-15.9-1.8-31.7-9.9-25.2-12.9
		C675.7,781,693.2,784.4,702.7,789.7L702.7,789.7z"/>
	<path class="st0" d="M725.5,808.1c1.6,0.8,2.5,1.4,3.3,2c5.1,4.4-3.1,4.8-8.7,4.4c-16.1-1.2-34.5-8.8-29.4-12.1
		C695,799.5,714.9,802.8,725.5,808.1L725.5,808.1z"/>
	<path class="st0" d="M748.7,824.6c1.7,0.8,2.6,1.3,3.5,1.8c6,4.4-4.9,4.2-7.2,4.1c-16.5-0.6-38.3-8.2-32.8-11.3
		C716.6,816.6,737.5,819.7,748.7,824.6L748.7,824.6z"/>
	<path class="st0" d="M772.1,839.2c1.8,0.7,2.7,1.2,3.6,1.6c4.6,2.9-0.5,3.5-4,3.6c-14.9,0.4-41.2-6.5-37.5-9.8
		C737.4,831.8,759.7,834.5,772.1,839.2L772.1,839.2z"/>
	<path class="st0" d="M795,851.7c1.7,0.5,2.6,0.9,3.5,1.3c1,0.5,4.2,2.2-1.3,2.7c-12.6,1.2-42.6-4.9-38.7-7.9
		C761.4,845.6,782.9,847.9,795,851.7L795,851.7z"/>
	<path class="st0" d="M818.1,862.1c1.6,0.4,2.5,0.7,3.3,1c1.1,0.4,3.2,1.3,0.6,1.9c-8.5,1.7-40.6-3.1-39.1-5.8
		C784.2,857,806.8,859.2,818.1,862.1L818.1,862.1z"/>
	<path class="st0" d="M841.6,870.3c1.1,0.2,2.1,0.5,3.2,0.7c0.9,0.3,2.7,0.8,1.2,1.2c-6.4,1.5-39.4-2.2-38-4.2
		C809.1,866.4,830.7,868.1,841.6,870.3L841.6,870.3z"/>
	<path class="st0" d="M865.5,876.2c1,0.1,2.1,0.3,3.1,0.5c1.3,0.3,1.4,0.3,1.7,0.5c-1.8,1.3-35.1-1-37.1-2.6
		C834.5,873.4,856.2,875,865.5,876.2L865.5,876.2z"/>
	<path class="st0" d="M889.3,879.8c1,0.1,2,0.1,2.9,0.2c1.5,0.1,1.5,0.2,1.6,0.2c-2,0.3-34.1-0.8-35.2-1.6
		C860.7,878.2,880,879.2,889.3,879.8L889.3,879.8z"/>
</g>
</svg>
