<?xml version="1.0" encoding="utf-8"?>
<!-- Generator: Adobe Illustrator 24.0.2, SVG Export Plug-In . SVG Version: 6.00 Build 0)  -->
<svg version="1.1" id="Capa_1" xmlns="http://www.w3.org/2000/svg" xmlns:xlink="http://www.w3.org/1999/xlink" x="0px" y="0px"
	 viewBox="0 0 1920 1080" style="enable-background:new 0 0 1920 1080;" xml:space="preserve">
<style type="text/css">
	.st0{fill:#333333;}
</style>
<g>
	<polygon class="st0" points="1278,876.6 1278,876.9 1278.1,876.7 1278,876.4 1278,876.6 	"/>
	<path class="st0" d="M1273.6,842.1L1273.6,842.1c-0.1,0.2,0.3,2.5,0.5,2.6c0,0,0-0.1-0.1-1C1273.8,842.8,1273.7,842.2,1273.6,842.1
		L1273.6,842.1z"/>
	<path class="st0" d="M1266.8,808.1C1266.8,808.1,1266.8,808.1,1266.8,808.1c-0.1,0.3,0.9,4.7,1.2,4.8c0-0.1-0.1-0.8-0.3-1.9
		C1267.1,809,1266.9,808.2,1266.8,808.1L1266.8,808.1z"/>
	<path class="st0" d="M1257.6,774.5c-0.1,0.2,1.8,6.2,2.1,6.8c0,0,0.1-0.1-0.7-2.6C1258.2,776.2,1257.7,774.7,1257.6,774.5
		L1257.6,774.5z"/>
	<path class="st0" d="M1246,741.4c-0.1,0.3,2.9,7.9,3.3,8.7c0,0,0-0.1-1.2-3.4C1246.9,743.6,1246.1,741.6,1246,741.4L1246,741.4z"/>
	<path class="st0" d="M1232.2,708.9c0.1,0.3,4.2,9.4,4.7,10.4c-0.1-0.3-0.2-0.6-0.4-0.9l-3.8-8.5
		C1232.5,709.6,1232.4,709.3,1232.2,708.9L1232.2,708.9z"/>
	<path class="st0" d="M1216.7,678.1c0.8,1.4,3.8,7.1,5.4,10.2l-5.5-10.5C1216.6,677.9,1216.7,678,1216.7,678.1L1216.7,678.1z"/>
	<polygon class="st0" points="1273.1,868.9 1273.3,869.7 1273.3,869.2 1273.2,868.4 1273.1,868.9 	"/>
	<path class="st0" d="M1268.8,834.4c-0.2-0.1-0.1,0.6,0.1,1.6c0.1,0.6,0.4,1.6,0.6,1.7c0.2,0,0.1-0.8,0-1.3
		C1269.2,835.2,1268.9,834.5,1268.8,834.4L1268.8,834.4z"/>
	<path class="st0" d="M1262,800.6C1262,800.6,1261.9,800.6,1262,800.6c-0.5,0.1,0.9,5.3,1.4,5.5c0.1,0,0.2-0.4-0.2-2.2
		C1262.6,801.8,1262.1,800.7,1262,800.6L1262,800.6z"/>
	<path class="st0" d="M1252.7,767.2C1252.7,767.2,1252.7,767.2,1252.7,767.2c-0.6,0.2,1.7,7.3,2.5,7.6c0.1-0.1,0.2-0.6-0.6-3
		C1253.7,768.8,1253,767.3,1252.7,767.2L1252.7,767.2z"/>
	<path class="st0" d="M1241.2,734.3C1241.2,734.3,1241.2,734.3,1241.2,734.3c-0.5,0.3,3,9.2,3.7,9.5c0.1-0.1,0.2-0.4-1.1-3.8
		C1242.5,736.4,1241.5,734.5,1241.2,734.3L1241.2,734.3z"/>
	<path class="st0" d="M1227.4,701.9C1227.4,701.9,1227.4,701.9,1227.4,701.9c-0.4,1,4.8,11.2,5.3,11.5c0-0.1,0.2-0.5-1.7-4.6
		C1229,704.4,1227.7,702.1,1227.4,701.9L1227.4,701.9z"/>
	<path class="st0" d="M1211.4,670.3C1211.4,670.3,1211.4,670.3,1211.4,670.3c-0.2,1.2,6.5,12.8,7.1,13.1c0-0.2,0.1-0.6-2.4-5.3
		C1213.4,673.1,1211.7,670.5,1211.4,670.3L1211.4,670.3z"/>
	<path class="st0" d="M1193.4,639.4C1193.3,639.4,1193.3,639.4,1193.4,639.4c0.3,1.5,7.5,13.2,8.9,14.4c0,0,0.1,0,0.1,0
		c-0.1-0.5-1.2-2.5-3.2-5.8C1195.3,641.9,1193.6,639.6,1193.4,639.4L1193.4,639.4z"/>
	<path class="st0" d="M1173.2,609.4c0,1,10.1,14.9,10.9,15.7c0-0.1,0-0.4-4.1-6.4C1175.9,612.6,1173.5,609.6,1173.2,609.4
		L1173.2,609.4z"/>
	<path class="st0" d="M1151.2,580.3c0.3,1.1,12.2,15.9,13,16.6c0-0.2-0.1-0.5-5-6.8C1154.1,583.7,1151.5,580.5,1151.2,580.3
		L1151.2,580.3z"/>
	<path class="st0" d="M1127.2,552.2c0.7,1.1,14,16.2,15.3,17.5c-0.3-0.5-0.8-1-1.1-1.4l-7.4-8.5l-5.3-6
		C1128.1,553.2,1127.8,552.6,1127.2,552.2L1127.2,552.2z"/>
	<path class="st0" d="M1101.5,525.3c2.8,2.9,16.2,16.6,17.2,17.7L1101.5,525.3C1101.6,525.3,1101.6,525.3,1101.5,525.3L1101.5,525.3
		z"/>
	<path class="st0" d="M1075.2,500.5c2.5,2.3,13.6,12.5,17.1,15.8L1075.2,500.5C1075.2,500.5,1075.2,500.5,1075.2,500.5L1075.2,500.5
		z"/>
	<path class="st0" d="M1050.5,479.3c3.3,2.7,7.3,6,10.5,8.8l-10.7-9C1050.3,479.2,1050.4,479.3,1050.5,479.3L1050.5,479.3z"/>
	<polygon class="st0" points="1265.8,861.4 1266.1,862.4 1266.2,861.8 1266,860.8 1265.8,861.4 	"/>
	<path class="st0" d="M1261.6,827c-0.5-0.2-0.2,2.1,0.4,3.4c0.2,0.4,0.4,0.6,0.4,0.4c0.1-0.1,0.1-0.5,0-1.5
		C1262.2,827.9,1261.8,827.1,1261.6,827L1261.6,827z"/>
	<path class="st0" d="M1254.8,793.5c-0.7-0.3-0.1,3.1,0.9,5.2c0.4,0.8,0.7,1.1,0.9,0.8c0.1-0.2,0.1-0.8-0.2-2.4
		C1255.8,794.8,1255.1,793.6,1254.8,793.5L1254.8,793.5z"/>
	<path class="st0" d="M1245.6,760.5c-0.8-0.3,0.3,4.2,1.7,6.9c0.5,1,0.9,1.4,1.1,1.1c0.1-0.1,0.2-0.8-0.5-3.2
		C1247,762.2,1246,760.6,1245.6,760.5L1245.6,760.5z"/>
	<path class="st0" d="M1234.2,727.9c-0.9-0.3,0.7,4.8,2.6,8.2c0.8,1.4,1.4,2.1,1.6,1.7c0.1-0.2,0.2-1-0.9-4
		C1235.9,730,1234.6,728,1234.2,727.9L1234.2,727.9z"/>
	<path class="st0" d="M1220.5,695.8c-1.1-0.3,1.4,5.8,3.9,9.8c1,1.7,1.8,2.4,1.9,2c0.1-0.2,0.1-1.2-1.5-4.8
		C1222.7,698.3,1221,696,1220.5,695.8L1220.5,695.8z"/>
	<path class="st0" d="M1204.6,664.4c0,0-0.1,0-0.1,0c-1.1,0.8,6,13.5,7.7,13.7c0.4-0.3-0.4-2.3-2.1-5.7
		C1207.2,667.2,1205.1,664.6,1204.6,664.4L1204.6,664.4z"/>
	<path class="st0" d="M1186.6,633.8c0,0-0.1,0-0.1,0c-1,1,8,15.1,9.7,15.2c0.4-0.3-0.7-2.6-3-6.4
		C1189.6,636.8,1187.2,634,1186.6,633.8L1186.6,633.8z"/>
	<path class="st0" d="M1166.6,604c0,0-0.1,0-0.1,0c-0.8,1.2,10.2,16.5,11.9,16.6c0.3-0.4-1.1-2.9-3.9-7.1
		C1170.1,607.2,1167.2,604.1,1166.6,604L1166.6,604z"/>
	<path class="st0" d="M1144.6,575.1c0,0-0.1,0-0.1,0c-0.6,1.3,12.7,17.8,14.3,17.8c0.2-0.5-1.5-3.2-5-7.6
		C1148.5,578.4,1145.2,575.2,1144.6,575.1L1144.6,575.1z"/>
	<path class="st0" d="M1120.8,547.3c0,0-0.1,0-0.1,0c-0.3,1.5,15.1,18.6,16.6,18.5c0.1-0.5-2-3.3-6-8
		C1125,550.7,1121.4,547.4,1120.8,547.3L1120.8,547.3z"/>
	<path class="st0" d="M1095.2,520.6c0,0-0.1,0.1-0.1,0.1c1.2,2.5,16.5,17.9,18.8,18.9c0,0,0.1-0.1,0.1-0.1c-0.4-1-2.9-3.7-7.2-8.2
		C1099.7,524,1095.7,520.6,1095.2,520.6L1095.2,520.6z"/>
	<path class="st0" d="M1068.1,495.2c-0.3,1.4,19.1,18.3,20.7,18.9c0,0,0-0.1,0.1-0.1c-0.6-1-3.3-3.7-8.1-8.1
		C1074.3,499.9,1069.2,495.6,1068.1,495.2L1068.1,495.2z"/>
	<path class="st0" d="M1039.7,471.3c0.1,1.4,20.3,17.4,21.9,18c0-0.4-2.9-3.1-8.8-7.9C1046,475.7,1040.7,471.7,1039.7,471.3
		L1039.7,471.3z"/>
	<path class="st0" d="M1010.1,448.9c0.6,1.4,21,16.1,22.4,16.6c0-0.1-0.2-0.6-9.2-7.3C1016.2,452.9,1010.9,449.2,1010.1,448.9
		L1010.1,448.9z"/>
	<path class="st0" d="M979.3,427.9c1,1.3,21,14.3,22.1,14.7c-0.1-0.1-0.4-0.6-9.3-6.5C985.1,431.5,980,428.2,979.3,427.9
		L979.3,427.9z"/>
	<path class="st0" d="M947.2,408.4c1,1,19,11.6,21.3,12.7c-0.2-0.2-0.5-0.5-7.7-4.8l-5.2-3.1C952.7,411.5,947.8,408.6,947.2,408.4
		L947.2,408.4z"/>
	<path class="st0" d="M913.8,390.2c1.3,0.9,18.4,9.9,20.3,10.8c-0.1-0.1-0.1-0.1-2.6-1.5l-14.9-7.9
		C915.7,391.1,914.8,390.6,913.8,390.2L913.8,390.2z"/>
	<path class="st0" d="M879.3,373.5c1.4,0.7,17,8,18.8,8.8c-0.2-0.1-0.3-0.2-0.5-0.2l-10.7-5.1l-7-3.2
		C879.7,373.7,879.5,373.6,879.3,373.5C879.3,373.6,879.3,373.5,879.3,373.5L879.3,373.5z"/>
	<path class="st0" d="M843.6,358.4c5.7,2.3,11.4,4.6,17.1,7L843.6,358.4C843.6,358.4,843.6,358.4,843.6,358.4L843.6,358.4z"/>
	<path class="st0" d="M807.4,345c3.3,1.1,12.4,4.3,13.9,4.9l-14-4.9C807.3,345,807.3,345,807.4,345L807.4,345z"/>
	<path class="st0" d="M772.8,333.9c1.8,0.5,3.5,1.1,5.3,1.6l-5.8-1.7C772.4,333.8,772.6,333.9,772.8,333.9L772.8,333.9z"/>
	<path class="st0" d="M1256.4,853.2c-0.3-0.1-0.3,1.3,0.1,1.8c0.1,0.2,0.2,0.2,0.3,0.1c0.1-0.1,0.1-0.4,0.1-0.7
		C1256.7,853.7,1256.5,853.2,1256.4,853.2L1256.4,853.2z"/>
	<path class="st0" d="M1252,819.8c-0.7-0.2-0.3,2.7,0.5,3.9c0.3,0.4,0.6,0.5,0.7,0.2c0.2-0.4,0-1.2,0-1.5
		C1252.9,820.8,1252.3,819.9,1252,819.8L1252,819.8z"/>
	<path class="st0" d="M1245.3,786.8c-1-0.3-0.2,4,1.1,5.9c0.4,0.6,0.8,0.7,0.9,0.3c0.2-0.4,0.1-1.2-0.2-2.4
		C1246.6,788.3,1245.7,787,1245.3,786.8L1245.3,786.8z"/>
	<path class="st0" d="M1236.3,754.2c-1.3-0.3,0.3,5.4,2,7.8c0.6,0.8,1,0.9,1.2,0.4c0.1-0.5,0-1.6-0.4-3.1
		C1238,756,1236.8,754.4,1236.3,754.2L1236.3,754.2z"/>
	<path class="st0" d="M1224.9,722.1c-1.5-0.3,0.8,6.7,3.2,9.6c0.8,1,1.3,1.1,1.4,0.4c0.1-0.7-0.2-2-0.9-3.9
		C1227.2,724.2,1225.6,722.2,1224.9,722.1L1224.9,722.1z"/>
	<path class="st0" d="M1211.4,690.5c-1.7-0.3,1.7,8,4.7,11.4c0.9,1,1.5,1.2,1.6,0.6c0.1-0.4,0-1.6-1.4-4.9
		C1214.1,692.9,1212.1,690.6,1211.4,690.5L1211.4,690.5z"/>
	<path class="st0" d="M1195.7,659.5c-1.9-0.2,2.7,9.3,6.4,13c1,1.1,1.7,1.3,1.8,0.6c0.1-0.5-0.1-1.9-2-5.6
		C1198.9,662.2,1196.5,659.6,1195.7,659.5L1195.7,659.5z"/>
	<path class="st0" d="M1177.9,629.3c-2.1-0.2,3.9,10.4,8.3,14.5c1.2,1.2,2,1.4,2,0.6c0-0.6-0.3-2.1-2.8-6.3
		C1181.7,632.2,1178.8,629.4,1177.9,629.3L1177.9,629.3z"/>
	<path class="st0" d="M1158.1,599.8c-2.2-0.1,6.2,12.6,10.9,16.3c0.7,0.6,1.8,1.3,1.7,0.2c-0.1-0.6-0.6-2.4-3.7-7
		C1162.3,602.9,1159,599.9,1158.1,599.8L1158.1,599.8z"/>
	<path class="st0" d="M1136.3,571.2c-2.4,0.1,7.8,13.6,13.3,17.7c0.8,0.6,2.1,1.4,1.8,0.1c-0.2-0.7-1-2.6-4.7-7.5
		C1141,574.4,1137.2,571.2,1136.3,571.2L1136.3,571.2z"/>
	<path class="st0" d="M1112.7,543.7c-2.4,0.2,9.7,14.5,15.8,18.6c1.3,0.9,1.9,1,1.9,0.4c0-0.5-0.7-2.4-5.9-8.3
		C1117.9,546.9,1113.6,543.6,1112.7,543.7L1112.7,543.7z"/>
	<path class="st0" d="M1087.3,517.3c-2.4,0.4,12.9,16.3,18.9,19.7c1,0.6,1.5,0.6,1.3-0.1c-0.1-0.6-1.1-2.5-7-8.7
		C1092.8,520.4,1088.2,517.1,1087.3,517.3L1087.3,517.3z"/>
	<path class="st0" d="M1060.3,492.1c-2.3,0.5,16.6,18,21.7,20c0.5,0.2,0.7,0.2,0.8,0.1c0.2-0.9-2.7-4.2-8.1-9.3
		C1066.1,495.2,1061.1,491.9,1060.3,492.1L1060.3,492.1z"/>
	<path class="st0" d="M1032.3,468.6c-2,0.7,18,17.3,23,19.1c0.5,0.2,0.7,0.1,0.8,0c0-0.9-3.1-4.1-9-9
		C1038.1,471.4,1033,468.4,1032.3,468.6L1032.3,468.6z"/>
	<path class="st0" d="M1003.2,446.7c-0.6,0.7,5.9,5.9,10.4,9.2c6.5,4.8,12.7,8.5,13.5,8.3c0,0,0.1-0.1,0.1-0.1
		c-0.1-0.9-3.4-3.8-9.3-8.3C1010.3,450.3,1004.4,446.6,1003.2,446.7L1003.2,446.7z"/>
	<path class="st0" d="M973,426.2c0.1,2.4,21.6,15.4,23.3,15.3c0-0.7-3.1-3.2-9.3-7.4C979.8,429.3,974,426.1,973,426.2L973,426.2z"/>
	<path class="st0" d="M941.4,407c0.6,2.2,21,13.3,22.3,13.1c-0.1-0.7-3.2-2.8-9.2-6.4C947.7,409.6,942.3,406.8,941.4,407L941.4,407z
		"/>
	<path class="st0" d="M908.7,389.2c0.9,2,19.8,11.1,20.9,10.9c-0.2-0.6-3.2-2.4-8.8-5.4C914.2,391.2,909.4,389,908.7,389.2
		L908.7,389.2z"/>
	<path class="st0" d="M874.7,372.8c1,1.5,17.4,8.8,19.3,9c0,0,0.1-0.1,0.1-0.1c-0.5-0.6-3.5-2.2-8.4-4.5
		C880,374.5,875.8,372.8,874.7,372.8C874.7,372.8,874.7,372.8,874.7,372.8L874.7,372.8z"/>
	<path class="st0" d="M839.4,357.8c1.2,1.3,16,7.1,17.6,7.2c0,0,0-0.1,0-0.1c-0.6-0.5-3.3-1.8-7.8-3.6
		C844.1,359.2,840.3,357.8,839.4,357.8C839.5,357.8,839.5,357.8,839.4,357.8L839.4,357.8z"/>
	<path class="st0" d="M803.1,344.4c1.2,1,14.4,5.4,15.6,5.5c0,0,0-0.1,0-0.1c-0.6-0.4-3.1-1.4-7-2.8
		C807,345.4,803.8,344.4,803.1,344.4C803.1,344.4,803.1,344.4,803.1,344.4L803.1,344.4z"/>
	<path class="st0" d="M765.7,332.6c0.6,0.6,12.1,4,13.2,3.9c-0.1-0.3-3.8-1.4-6.1-2.1C768.9,333.3,766.2,332.6,765.7,332.6
		C765.7,332.6,765.7,332.6,765.7,332.6L765.7,332.6z"/>
	<path class="st0" d="M727.1,322.5c0.6,0.4,10.2,2.7,11,2.7c-0.2-0.2-3.3-1-5.1-1.5C729.7,322.9,727.5,322.4,727.1,322.5
		C727.1,322.5,727.1,322.5,727.1,322.5L727.1,322.5z"/>
	<path class="st0" d="M688.4,314.2c0.6,0.3,7.7,1.7,8.2,1.6c-0.2-0.2-2.2-0.6-4-0.9C690.3,314.4,688.6,314.2,688.4,314.2
		C688.4,314.2,688.4,314.2,688.4,314.2L688.4,314.2z"/>
	<path class="st0" d="M649.8,307.9c0,0,5.3,1,5.5,0.8c-0.2-0.1-1.1-0.3-2.7-0.5C652.2,308.2,649.9,307.8,649.8,307.9L649.8,307.9z"
		/>
	<path class="st0" d="M611.4,303.5c0.1,0.1,2.5,0.3,2.8,0.3c0,0-0.8-0.1-1.4-0.2C612.4,303.6,611.9,303.5,611.4,303.5
		C611.4,303.5,611.4,303.5,611.4,303.5L611.4,303.5z"/>
	<path class="st0" d="M1244.6,845.9c-0.5-0.2-0.4,1.4,0,2c0.2,0.3,0.4,0.4,0.5,0.1c0.1-0.3,0.1-0.6,0.1-0.7
		C1245.1,846.4,1244.8,845.9,1244.6,845.9L1244.6,845.9z"/>
	<path class="st0" d="M1240.3,813.2c-0.8-0.2-0.6,2.4,0.3,3.7c0.4,0.6,0.8,0.7,1,0.2c0.1-0.4,0.1-1.1,0-1.3
		C1241.3,814.2,1240.7,813.3,1240.3,813.2L1240.3,813.2z"/>
	<path class="st0" d="M1233.7,780.7c-1.3-0.3-0.5,4.1,1.1,6c0.6,0.7,1.1,0.7,1.3,0c0.1-0.7-0.1-1.7-0.2-2.1
		C1235.2,782.1,1234.2,780.8,1233.7,780.7L1233.7,780.7z"/>
	<path class="st0" d="M1224.8,748.7c-1.6-0.3-0.1,5.5,1.9,7.8c0.9,0.9,1.5,0.9,1.6-0.1c0.1-0.9-0.3-2.2-0.4-2.7
		C1226.9,750.4,1225.4,748.8,1224.8,748.7L1224.8,748.7z"/>
	<path class="st0" d="M1213.6,717c-2-0.3,0.3,6.9,3.2,9.8c1.1,1.1,1.9,1.1,1.9-0.2c0-1.2-0.5-2.8-0.8-3.5
		C1216.3,719.1,1214.4,717.1,1213.6,717L1213.6,717z"/>
	<path class="st0" d="M1200.3,686c-2.3-0.2,1.1,8.2,4.6,11.5c1,0.9,2.1,1.4,2.1,0c0.1-1.4-0.9-3.7-1.2-4.4
		C1203.5,688.3,1201.2,686.1,1200.3,686L1200.3,686z"/>
	<path class="st0" d="M1184.8,655.6c-2.5-0.1,2,9.5,6.2,13.1c1.5,1.3,2.4,1.2,2.4-0.1c-0.1-1.6-1.4-4.2-1.8-5.1
		C1188.7,658.1,1185.9,655.6,1184.8,655.6L1184.8,655.6z"/>
	<path class="st0" d="M1167.3,625.8c-2.8,0.1,3.9,11.8,8.7,15.1c1.5,1.1,2.3,0.8,2.1-0.6c-0.3-1.9-2-4.8-2.6-5.8
		C1171.7,628.4,1168.4,625.7,1167.3,625.8L1167.3,625.8z"/>
	<path class="st0" d="M1147.8,596.8c-3,0.2,5.5,13.1,10.9,16.6c1.7,1.1,2.5,0.8,2.1-0.8c-0.5-2.1-2.6-5.3-3.4-6.4
		C1152.8,599.6,1149,596.7,1147.8,596.8L1147.8,596.8z"/>
	<path class="st0" d="M1126.3,568.8c-3.1,0.4,7.2,14.2,13.3,17.8c1.9,1.2,2.7,0.8,2.1-1c-0.7-2.3-3.4-5.8-4.2-6.9
		C1131.9,571.6,1127.6,568.6,1126.3,568.8L1126.3,568.8z"/>
	<path class="st0" d="M1103,541.6c-3.1,0.6,9.3,15.4,16,19.1c1.9,1,2.8,0.8,2.3-0.7c-0.5-1.6-2.3-4.3-5.4-8
		C1109,544.4,1104.2,541.3,1103,541.6L1103,541.6z"/>
	<path class="st0" d="M1077.9,515.5c-3.4,0.9,12.4,17.5,19.4,20.3c1.8,0.7,2.3,0.1,1.3-1.8c-1.4-2.7-5.1-6.6-6.3-7.9
		C1084.4,518.2,1079.1,515.1,1077.9,515.5L1077.9,515.5z"/>
	<path class="st0" d="M1051.1,490.6c-3.3,1.2,14.7,18.1,22.2,20.8c1.2,0.4,2.5,0.6,1.5-1.4c-1-1.9-3.6-4.8-7.7-8.7
		C1058.1,493.2,1052.3,490.2,1051.1,490.6L1051.1,490.6z"/>
	<path class="st0" d="M1023.4,467.5c-3,1.4,18.1,18.9,24.3,20.2c1.6,0.3,1.4-0.7-0.3-2.9c-2.2-2.7-6-5.9-7.5-7.2
		C1030.3,469.8,1024.5,467,1023.4,467.5L1023.4,467.5z"/>
	<path class="st0" d="M995.1,446.2c-2.5,1.5,18.4,17.1,24,17.9c1.4,0.2,1.2-0.8-0.6-2.7c-2.3-2.5-6-5.3-7.6-6.5
		C1001.5,448,996,445.7,995.1,446.2L995.1,446.2z"/>
	<path class="st0" d="M965.6,426.2c-2,1.5,18.2,15,23.2,15.5c0.8,0.1,1.4-0.2-0.4-1.9c-2.2-2.3-6.6-5.2-8-6.2
		C971.4,427.6,966.3,425.6,965.6,426.2L965.6,426.2z"/>
	<path class="st0" d="M934.8,407.4c-1.5,1.5,17.7,13,22.2,13.3c0.7,0,1.1-0.2-0.6-1.8c-2.2-2-6.4-4.5-7.7-5.3
		C939.9,408.5,935.3,406.9,934.8,407.4L934.8,407.4z"/>
	<path class="st0" d="M902.6,390c-1.1,1.4,18.6,11.7,21.1,11.1c0.9-0.2-1.4-2.2-8.5-6.1C907.2,390.7,903,389.5,902.6,390L902.6,390z
		"/>
	<path class="st0" d="M869.3,373.9c-0.7,1.3,17.5,9.7,19.5,9c0.7-0.3-1.5-2-8.1-5.1C873.2,374.4,869.5,373.4,869.3,373.9
		L869.3,373.9z"/>
	<path class="st0" d="M834.7,359.2c-0.4,1.2,16.2,7.9,17.7,7.2c0.5-0.3-1.6-1.7-7.6-4.2C838,359.5,834.8,358.8,834.7,359.2
		L834.7,359.2z"/>
	<path class="st0" d="M798.9,346c0.4,1.3,15.1,6.3,15.8,5.4c-0.1-0.5-2.8-1.7-7-3.2C802.9,346.5,799.2,345.6,798.9,346L798.9,346z"
		/>
	<path class="st0" d="M762.2,334.5c0,0.8,12.7,4.6,13.5,3.9c0,0,0,0,0-0.1c-0.2-0.4-2.5-1.3-6.1-2.4
		C764.8,334.5,762.2,334.1,762.2,334.5L762.2,334.5z"/>
	<path class="st0" d="M724.3,324.5c0.2,0.7,10.7,3.2,11.1,2.7c0.2-0.2-1.4-0.8-5.2-1.8C726.5,324.5,724.3,324.2,724.3,324.5
		L724.3,324.5z"/>
	<path class="st0" d="M686.4,316.4c0.1,0.3,7.6,2,8.3,1.6c0-0.2-1.5-0.7-4-1.1C688.3,316.4,686.6,316.2,686.4,316.4
		C686.4,316.4,686.4,316.4,686.4,316.4L686.4,316.4z"/>
	<path class="st0" d="M648.5,310.2c0.1,0.2,5.2,1.1,5.6,0.8c0-0.1-1.1-0.4-2.7-0.6C649.8,310.1,648.6,310.1,648.5,310.2
		C648.5,310.2,648.5,310.2,648.5,310.2L648.5,310.2z"/>
	<path class="st0" d="M610.7,305.9c0.1,0.1,2.9,0.5,3,0.3c0-0.1-0.7-0.2-1.5-0.3C611.4,305.8,610.8,305.8,610.7,305.9
		C610.7,305.9,610.7,305.9,610.7,305.9L610.7,305.9z"/>
	<polygon class="st0" points="573.5,303.4 573.6,303.4 573.5,303.4 573.5,303.4 573.5,303.4 	"/>
	<path class="st0" d="M1230.6,838.8c-0.5-0.1-0.5,1.2,0,2c0.3,0.4,0.6,0.4,0.7,0c0.1-0.2,0.1-0.4,0.1-0.6
		C1231.2,839.3,1230.8,838.9,1230.6,838.8L1230.6,838.8z"/>
	<path class="st0" d="M1226.4,806.9c-0.9-0.2-0.7,2.4,0.3,3.7c0.5,0.7,1.1,0.6,1.2-0.1c0.1-0.4,0-0.8,0-1.1
		C1227.5,807.7,1226.8,807,1226.4,806.9L1226.4,806.9z"/>
	<path class="st0" d="M1219.9,775.1c-1.5-0.2-0.8,4,1,5.9c0.8,0.8,1.5,0.6,1.6-0.5c0.1-0.6-0.1-1.3-0.2-1.7
		C1221.7,776.4,1220.5,775.2,1219.9,775.1L1219.9,775.1z"/>
	<path class="st0" d="M1211.2,743.7c-1.9-0.2-0.5,5.4,1.8,7.7c1.1,1.1,1.9,0.8,2-0.7c0-0.8-0.2-1.7-0.4-2.2
		C1213.6,745.3,1212,743.8,1211.2,743.7L1211.2,743.7z"/>
	<path class="st0" d="M1200.2,712.7c-2.3-0.2-0.1,6.9,3,9.6c1.5,1.3,2.4,0.9,2.3-1c-0.1-1.1-0.4-2.1-0.6-2.7
		C1203.3,714.6,1201.2,712.8,1200.2,712.7L1200.2,712.7z"/>
	<path class="st0" d="M1187.2,682.4c-2.7-0.1,0.5,8.1,4.4,11.3c1.7,1.3,2.7,1,2.6-0.9c-0.1-1.4-0.8-3-1.1-3.7
		C1190.9,684.5,1188.3,682.4,1187.2,682.4L1187.2,682.4z"/>
	<path class="st0" d="M1172.1,652.6c-3,0.1,1.3,9.5,6,12.9c2,1.5,3.1,1,2.8-1.2c-0.2-1.6-1.2-3.4-1.6-4.2
		C1176.4,654.8,1173.3,652.5,1172.1,652.6L1172.1,652.6z"/>
	<path class="st0" d="M1154.9,623.4c-3.3,0.3,2.5,10.9,7.9,14.5c2.3,1.6,3.5,1,3-1.5c-0.4-1.8-1.6-3.9-2.1-4.8
		C1159.8,625.8,1156.2,623.3,1154.9,623.4L1154.9,623.4z"/>
	<path class="st0" d="M1135.8,595.1c-3.6,0.5,4.6,13.1,10.5,16.3c2.3,1.2,3.2,0.4,2.4-2.1c-0.6-2-2.2-4.3-2.8-5.3
		C1141.3,597.5,1137.2,594.9,1135.8,595.1L1135.8,595.1z"/>
	<path class="st0" d="M1114.7,567.5c-3.7,0.8,6.3,14.5,13,17.7c2.6,1.2,3.5,0.2,2.4-2.5c-0.9-2.2-2.7-4.7-3.5-5.7
		C1120.9,569.9,1116.2,567.2,1114.7,567.5L1114.7,567.5z"/>
	<path class="st0" d="M1091.9,541c-3.8,1,8.2,15.6,15.5,18.7c2.8,1.2,3.7,0.1,2.2-2.9c-1.2-2.4-3.4-5-4.3-6.1
		C1098.6,543.3,1093.5,540.6,1091.9,541L1091.9,541z"/>
	<path class="st0" d="M1067.3,515.5c-4,1.4,10,16.5,18.2,19.7c2.8,1.1,3.7,0.1,2.4-2.6c-1.4-2.8-4.3-5.9-5.6-7.2
		C1074.6,517.6,1068.9,514.9,1067.3,515.5L1067.3,515.5z"/>
	<path class="st0" d="M1041.1,491.1c-4.1,1.8,13.6,18.5,21.8,20.6c2.9,0.7,3-1.1,0.3-4.7c-1.8-2.4-4.1-4.6-5.5-5.9
		C1048.7,493,1042.6,490.4,1041.1,491.1L1041.1,491.1z"/>
	<path class="st0" d="M1014,468.4c-3.7,2,15.3,18.1,23.3,19.8c2.6,0.5,2.7-1,0.4-4c-2.1-2.6-5.3-5.4-6.7-6.5
		C1021.5,470,1015.3,467.7,1014,468.4L1014,468.4z"/>
	<path class="st0" d="M986.3,447.6c-3.1,2.1,15.7,16.4,23.1,17.6c2.4,0.4,2.3-1.1-0.1-3.8c-2.2-2.4-5.4-4.9-6.7-5.9
		C993.2,448.8,987.4,446.8,986.3,447.6L986.3,447.6z"/>
	<path class="st0" d="M957.5,428c-2.5,2.1,17.2,15.4,22.8,15.2c2.4-0.1,0.1-3.1-5.3-7c-0.7-0.5-1.6-1.1-2.2-1.6
		C963.7,428.8,958.4,427.3,957.5,428L957.5,428z"/>
	<path class="st0" d="M927.3,409.7c-2,2.1,16.8,13.4,21.7,13c2-0.2-0.3-2.8-5.5-6.2c-0.6-0.4-1.5-0.9-2.2-1.4
		C932.8,410.1,928,408.9,927.3,409.7L927.3,409.7z"/>
	<path class="st0" d="M895.8,392.6c-1.5,2,16.2,11.4,20.4,10.9c1.7-0.2-0.6-2.6-5.6-5.4c-0.6-0.4-1.4-0.8-2-1.1
		C900.7,392.7,896.4,391.9,895.8,392.6L895.8,392.6z"/>
	<path class="st0" d="M863.2,376.9c-1,1.9,15.3,9.5,18.8,8.8c1.5-0.3-0.9-2.3-5.5-4.6c-0.6-0.3-1.3-0.7-1.9-0.9
		C867.4,376.8,863.6,376.2,863.2,376.9L863.2,376.9z"/>
	<path class="st0" d="M829.3,362.5c-0.6,1.6,14.5,7.8,17.2,7c1.3-0.4-1.4-2.2-6.1-4.2c-0.3-0.1-0.6-0.3-0.9-0.4
		C832.9,362.3,829.5,361.9,829.3,362.5L829.3,362.5z"/>
	<path class="st0" d="M794.4,349.6c-0.3,1.4,13.1,6.2,15.3,5.4c0.9-0.3-1-1.8-6.5-3.7C797.3,349.2,794.5,349.1,794.4,349.6
		L794.4,349.6z"/>
	<path class="st0" d="M758.4,338.2c-0.1,1.3,12.3,4.9,13.2,3.8c0.3-0.3-1-1.3-5.8-2.8C760.7,337.8,758.4,337.8,758.4,338.2
		L758.4,338.2z"/>
	<path class="st0" d="M721.3,328.5c0.1,1.1,10.3,3.5,10.9,2.6c0.1-0.2-0.7-0.9-5-2C723.4,328.1,721.3,328.1,721.3,328.5L721.3,328.5
		z"/>
	<path class="st0" d="M684.2,320.6c0.2,0.8,7.8,2.2,8.1,1.5c0.1-0.2-0.8-0.7-3.8-1.3C685.4,320.2,684.1,320.3,684.2,320.6
		L684.2,320.6z"/>
	<path class="st0" d="M647.1,314.5c0.2,0.6,5.4,1.3,5.5,0.7c0-0.1-0.6-0.5-2.7-0.8C647.7,314.2,647,314.3,647.1,314.5L647.1,314.5z"
		/>
	<path class="st0" d="M610.1,310.2c0.2,0.3,2.9,0.5,3,0.3c0-0.1-0.4-0.2-1.5-0.3C610.6,310.1,610.1,310.1,610.1,310.2L610.1,310.2z"
		/>
	<polygon class="st0" points="573.7,307.8 573.8,307.8 573.7,307.8 573.6,307.8 573.7,307.8 	"/>
	<path class="st0" d="M1214.5,832.1c-0.5-0.1-0.5,1.1,0,1.7c0.3,0.3,0.6,0.3,0.7-0.1c0-0.1,0-0.2,0-0.3
		C1215.1,832.6,1214.7,832.2,1214.5,832.1L1214.5,832.1z"/>
	<path class="st0" d="M1210.4,800.8c-1-0.2-0.9,2.3,0.2,3.6c0.6,0.7,1.3,0.6,1.4-0.2c0-0.3,0-0.7,0-0.9
		C1211.7,801.7,1210.9,800.9,1210.4,800.8L1210.4,800.8z"/>
	<path class="st0" d="M1204.1,769.9c-1.6-0.2-1.1,3.5,0.7,5.4c1,1,1.9,0.8,2-0.5c0-0.5-0.1-1.1-0.1-1.4
		C1206.1,771.1,1204.8,770,1204.1,769.9L1204.1,769.9z"/>
	<path class="st0" d="M1195.6,739.3c-2-0.1-1,4.8,1.4,7.1c1.4,1.3,2.5,1,2.5-0.8c0-0.7-0.2-1.4-0.3-1.8
		C1198.2,740.8,1196.5,739.4,1195.6,739.3L1195.6,739.3z"/>
	<path class="st0" d="M1184.9,709.1c-2.5-0.1-0.8,6.1,2.4,9c1.7,1.5,3,1.2,3-0.8c0-1-0.4-2-0.6-2.6
		C1188.3,710.8,1186,709.1,1184.9,709.1L1184.9,709.1z"/>
	<path class="st0" d="M1172.2,679.5c-3,0.1-0.1,7.9,4,10.8c2.1,1.4,3.3,0.6,2.9-1.8c-0.2-1.1-0.6-2.1-0.9-2.7
		C1176.2,681.4,1173.5,679.5,1172.2,679.5L1172.2,679.5z"/>
	<path class="st0" d="M1157.4,650.5c-3.4,0.2,0.7,9.3,5.6,12.5c2.5,1.6,3.8,0.6,3.2-2.3c-0.3-1.2-0.9-2.4-1.2-3.1
		C1162.2,652.5,1158.9,650.3,1157.4,650.5L1157.4,650.5z"/>
	<path class="st0" d="M1140.7,622.1c-3.7,0.5,1.6,10.6,7.3,13.9c2.9,1.6,4.2,0.4,3.3-2.8c-0.4-1.4-1.2-2.7-1.6-3.5
		C1146.1,624.1,1142.3,621.9,1140.7,622.1L1140.7,622.1z"/>
	<path class="st0" d="M1122.1,594.5c-3.9,0.8,2.9,11.9,9.3,15.3c3,1.6,4.5,0.5,3.5-2.7c-0.6-1.8-1.7-3.5-2.4-4.5
		C1128.1,596.5,1123.8,594.2,1122.1,594.5L1122.1,594.5z"/>
	<path class="st0" d="M1101.7,567.7c-4.1,1.1,4.3,13.1,11.5,16.6c3.4,1.6,4.8,0.3,3.4-3.1c-0.8-2-2.2-3.8-3-4.9
		C1108.3,569.6,1103.4,567.2,1101.7,567.7L1101.7,567.7z"/>
	<path class="st0" d="M1079.5,541.9c-4.5,1.5,6.6,15.2,14.5,17.8c3.5,1.2,4.4-0.7,2.1-4.7c-1-1.8-2.4-3.5-3.2-4.4
		C1086.6,543.6,1081.2,541.3,1079.5,541.9L1079.5,541.9z"/>
	<path class="st0" d="M1055.6,517.1c-4.5,1.8,8.5,16,16.9,18.5c3.7,1.1,4.4-1,1.7-5.2c-1.3-1.9-2.9-3.6-3.8-4.6
		C1063.2,518.6,1057.4,516.4,1055.6,517.1L1055.6,517.1z"/>
	<path class="st0" d="M1030.4,493.5c-4.3,2.2,10.3,16.5,19.1,18.7c3.9,1,4.4-1.3,1.2-5.5c-1.5-2-3.3-3.7-4.3-4.7
		C1038.1,494.7,1032.1,492.7,1030.4,493.5L1030.4,493.5z"/>
	<path class="st0" d="M1004,471.4c-4.1,2.5,13.1,17.3,21.2,18.1c3.6,0.4,2.9-2.8-1.8-7.5c-1.1-1.1-2.2-2-3.1-2.8
		C1011.7,472.3,1005.6,470.5,1004,471.4L1004,471.4z"/>
	<path class="st0" d="M976.8,450.9c-3.6,2.6,13.9,16,21.4,16.4c3.4,0.2,2.3-2.9-2.5-7.1c-1.1-1-2.3-1.9-3.1-2.5
		C983.9,451.4,978.1,449.9,976.8,450.9L976.8,450.9z"/>
	<path class="st0" d="M948.5,431.7c-2.9,2.6,14.2,14.3,21,14.4c3,0,1.8-2.8-3-6.6c-1.1-0.9-2.2-1.6-3.1-2.2
		C954.9,431.8,949.6,430.7,948.5,431.7L948.5,431.7z"/>
	<path class="st0" d="M918.9,413.7c-2.3,2.6,14.1,12.7,20.2,12.4c2.7-0.1,1.3-2.7-3.4-5.9c-1.1-0.8-2.2-1.4-3-1.9
		C924.7,413.5,919.8,412.7,918.9,413.7L918.9,413.7z"/>
	<path class="st0" d="M888.3,397c-1.7,2.3,14,10.9,19,10.4c2.3-0.2,0.8-2.5-3.6-5.3c-1.1-0.7-2-1.2-2.8-1.6
		C893.3,396.6,888.9,396.1,888.3,397L888.3,397z"/>
	<path class="st0" d="M856.5,381.6c-1.3,2.3,14.3,9.7,17.9,8.4c1.5-0.5-0.3-2.7-6.7-5.8C860.7,381,856.9,380.8,856.5,381.6
		L856.5,381.6z"/>
	<path class="st0" d="M823.4,367.6c-0.9,2.1,13.3,8,16.3,6.7c1.2-0.5-0.6-2.4-6.4-4.9C827,366.9,823.7,366.8,823.4,367.6
		L823.4,367.6z"/>
	<path class="st0" d="M789.3,355c-0.5,1.8,12.3,6.3,14.5,5.1c1-0.5-0.8-2.1-6-4C792.3,354.3,789.5,354.3,789.3,355L789.3,355z"/>
	<path class="st0" d="M754.1,343.9c-0.2,1.5,10.8,4.8,12.6,3.7c0.7-0.5-0.9-1.7-5.4-3.1C756.5,343.2,754.2,343.3,754.1,343.9
		L754.1,343.9z"/>
	<path class="st0" d="M718.1,334.4c0,1.2,9,3.4,10.2,2.5c0.4-0.3-0.7-1.3-4.5-2.3C719.8,333.7,718.1,333.9,718.1,334.4L718.1,334.4z
		"/>
	<path class="st0" d="M681.7,326.6c0.1,1,7.1,2.3,7.9,1.5c0.3-0.3-0.6-1-3.7-1.6C683,326,681.7,326.3,681.7,326.6L681.7,326.6z"/>
	<path class="st0" d="M645.6,320.7c0.2,0.6,4.7,1.3,5.1,0.7c0.2-0.2-0.7-0.7-2.4-0.9C646.3,320.3,645.6,320.5,645.6,320.7
		L645.6,320.7z"/>
	<path class="st0" d="M609.6,316.6c0.1,0.3,2.5,0.5,2.7,0.2c0.1-0.1-0.2-0.3-1.3-0.4C609.9,316.3,609.6,316.4,609.6,316.6
		L609.6,316.6z"/>
	<polygon class="st0" points="574,314.2 574.1,314.2 574,314.1 573.9,314.1 574,314.2 	"/>
	<polygon class="st0" points="1196.1,826.2 1196.6,827.1 1197,826.5 1196.5,825.6 1196.1,826.2 	"/>
	<path class="st0" d="M1192.5,795.2c-1.1-0.2-1,2.1,0.1,3.2c0.7,0.7,1.4,0.5,1.5-0.5c0-0.2,0-0.4,0-0.5
		C1193.8,796,1193,795.3,1192.5,795.2L1192.5,795.2z"/>
	<path class="st0" d="M1186.4,765.2c-1.7-0.2-1.3,3.2,0.5,4.9c1.2,1.1,2.2,0.6,2.2-0.9c0-0.3-0.1-0.5-0.1-0.8
		C1188.4,766.3,1187.1,765.3,1186.4,765.2L1186.4,765.2z"/>
	<path class="st0" d="M1178.1,735.6c-2.2-0.1-1.4,4.4,1.2,6.5c1.5,1.2,2.8,0.8,2.7-1.1c0-0.5-0.1-0.9-0.2-1.4
		C1180.8,736.9,1179.1,735.6,1178.1,735.6L1178.1,735.6z"/>
	<path class="st0" d="M1167.7,706.2c-2.7,0-1.3,5.7,2.1,8.3c2,1.6,3.5,0.9,3.3-1.5c-0.1-0.7-0.2-1.2-0.4-1.7
		C1171.3,707.8,1168.9,706.2,1167.7,706.2L1167.7,706.2z"/>
	<path class="st0" d="M1155.4,677.4c-3.2,0.2-0.9,7,3.2,9.9c2.5,1.8,4.2,0.8,3.7-2c-0.1-0.8-0.4-1.4-0.7-2.1
		C1159.6,679.1,1156.8,677.4,1155.4,677.4L1155.4,677.4z"/>
	<path class="st0" d="M1141.1,649.3c-3.5,0.4-0.4,8.2,4.5,11.3c3,1.9,4.8,0.7,3.9-2.5c-0.2-0.9-0.6-1.6-0.9-2.3
		C1146,651,1142.7,649.1,1141.1,649.3L1141.1,649.3z"/>
	<path class="st0" d="M1124.9,621.8c-3.8,0.6,0.4,9.5,6.1,12.8c3.2,1.9,5.2,0.7,4.3-2.6c-0.4-1.3-1.1-2.5-1.5-3.3
		C1130.5,623.4,1126.6,621.5,1124.9,621.8L1124.9,621.8z"/>
	<path class="st0" d="M1106.9,595c-4.3,1,1.9,11.4,8.5,14.3c3.6,1.6,5.1-0.2,3.5-4.1c-0.5-1.2-1.1-2-1.7-3
		C1113.1,596.6,1108.7,594.6,1106.9,595L1106.9,595z"/>
	<path class="st0" d="M1087.1,569.1c-4.5,1.3,3.1,12.5,10.4,15.4c4,1.6,5.5-0.5,3.4-4.7c-0.6-1.3-1.3-2.2-2-3.2
		C1093.9,570.5,1089,568.5,1087.1,569.1L1087.1,569.1z"/>
	<path class="st0" d="M1065.7,544.1c-4.5,1.7,4.5,13.4,12.4,16.1c4.3,1.5,5.7-0.8,3.1-5.2c-0.8-1.4-1.6-2.3-2.4-3.3
		C1072.9,545.3,1067.6,543.4,1065.7,544.1L1065.7,544.1z"/>
	<path class="st0" d="M1042.7,520.2c-4.5,2,6,14.1,14.4,16.6c4.6,1.4,5.7-1.2,2.6-5.8c-1-1.4-1.9-2.4-2.8-3.4
		C1050.3,521,1044.6,519.3,1042.7,520.2L1042.7,520.2z"/>
	<path class="st0" d="M1018.4,497.4c-4.6,2.5,8.4,15.4,16.9,16.8c4.4,0.7,4.6-2.4,0.6-7.1c-0.9-1-1.8-1.9-2.5-2.6
		C1026,497.9,1020.2,496.4,1018.4,497.4L1018.4,497.4z"/>
	<path class="st0" d="M992.9,476c-4.2,2.7,9.6,15,18,16.1c4.3,0.5,4.3-2.6-0.1-7.2c-0.9-1-2-1.9-2.7-2.5
		C1000.4,476.1,994.6,474.9,992.9,476L992.9,476z"/>
	<path class="st0" d="M966.3,455.8c-3.7,2.8,10.6,14.2,18.6,14.8c4.1,0.3,3.7-2.8-0.9-7.1c-1-0.9-2-1.7-2.8-2.3
		C973.4,455.7,967.8,454.7,966.3,455.8L966.3,455.8z"/>
	<path class="st0" d="M938.7,437c-3.1,2.9,11.1,13,18.4,13.2c3.8,0.1,3.1-2.8-1.5-6.6c-1-0.8-2-1.5-2.8-2.1
		C945.1,436.5,939.9,435.9,938.7,437L938.7,437z"/>
	<path class="st0" d="M909.9,419.4c-2.6,3,12.5,12.3,18.6,11.5c2.9-0.4,1.7-3.5-5.4-7.9C915.6,418.7,910.9,418.3,909.9,419.4
		L909.9,419.4z"/>
	<path class="st0" d="M880,403.1c-2,2.8,12.3,10.7,17.6,9.7c2.6-0.5,1.2-3.3-5.6-7C885,402.2,880.8,402.1,880,403.1L880,403.1z"/>
	<path class="st0" d="M849,388.1c-1.4,2.5,12,9.1,16.4,8c2.2-0.6,0.7-3-5.5-6C853.3,387.1,849.6,387.2,849,388.1L849,388.1z"/>
	<path class="st0" d="M816.9,374.5c-1,2.3,11.3,7.5,14.9,6.3c1.8-0.6,0.2-2.7-5.4-5.1C820.5,373.4,817.3,373.6,816.9,374.5
		L816.9,374.5z"/>
	<path class="st0" d="M783.7,362.2c-0.6,2.1,10.4,6.1,13.3,4.9c1.5-0.6-0.1-2.4-5.2-4.2C786.6,361.1,784,361.4,783.7,362.2
		L783.7,362.2z"/>
	<path class="st0" d="M749.6,351.4c-0.3,1.7,9.1,4.7,11.4,3.6c1.1-0.5-0.5-2-4.7-3.3C751.9,350.4,749.7,350.8,749.6,351.4
		L749.6,351.4z"/>
	<path class="st0" d="M714.5,342.1c0,1.4,8.3,3.5,9.5,2.3c0.5-0.4-0.5-1.5-4.1-2.4C716.2,341.2,714.5,341.6,714.5,342.1L714.5,342.1
		z"/>
	<path class="st0" d="M679.3,334.6c0.1,1.1,5.8,2.2,6.9,1.4c0.6-0.4-0.5-1.1-3.1-1.7C680.4,333.9,679.3,334.2,679.3,334.6
		L679.3,334.6z"/>
	<path class="st0" d="M644.1,328.8c0.1,0.7,3.9,1.3,4.6,0.7c0.3-0.3-0.5-0.7-2.1-1C644.9,328.3,644.1,328.5,644.1,328.8L644.1,328.8
		z"/>
	<path class="st0" d="M609.2,324.8c0.1,0.3,1.8,0.5,2.1,0.2c0.1-0.1-0.3-0.3-1-0.4C609.5,324.5,609.1,324.6,609.2,324.8L609.2,324.8
		z"/>
	<polygon class="st0" points="1176.1,819.8 1176.6,820.4 1176.9,820 1176.5,819.3 1176.1,819.8 	"/>
	<path class="st0" d="M1172.6,790.1c-0.9-0.1-1,1.5-0.1,2.4c0.7,0.7,1.4,0.5,1.4-0.3c0-0.1,0-0.3,0-0.4
		C1173.8,790.7,1173.1,790.1,1172.6,790.1L1172.6,790.1z"/>
	<path class="st0" d="M1166.7,761c-1.5-0.1-1.4,2.6,0.2,4.1c1.2,1.1,2.3,0.7,2.3-0.7c0-0.2,0-0.5-0.1-0.7
		C1168.7,761.9,1167.4,761,1166.7,761L1166.7,761z"/>
	<path class="st0" d="M1158.7,732.3c-2.1-0.1-1.7,3.7,0.7,5.7c1.7,1.4,3.2,0.9,3.1-1.1c0-0.3-0.1-0.6-0.2-0.9
		C1161.5,733.4,1159.7,732.3,1158.7,732.3L1158.7,732.3z"/>
	<path class="st0" d="M1148.7,704c-2.7,0.1-1.7,4.8,1.4,7.3c2.3,1.8,4.1,1,3.8-1.6c-0.1-0.5-0.2-0.9-0.3-1.2
		C1152.3,705.3,1150,703.9,1148.7,704L1148.7,704z"/>
	<path class="st0" d="M1136.8,676.2c-3.2,0.3-1.3,6.5,2.8,9c2.7,1.6,4.5,0.5,3.8-2.4c-0.1-0.5-0.3-1-0.5-1.4
		C1141.1,677.6,1138.3,676.1,1136.8,676.2L1136.8,676.2z"/>
	<path class="st0" d="M1123,649c-3.6,0.5-0.9,7.6,3.9,10.3c3.2,1.8,5.2,0.3,4.1-3c-0.2-0.6-0.5-1.2-0.7-1.6
		C1128,650.4,1124.7,648.8,1123,649L1123,649z"/>
	<path class="st0" d="M1107.4,622.4c-4,0.8-0.3,8.8,5.3,11.6c3.7,1.8,5.7,0.1,4.3-3.7c-0.3-0.7-0.6-1.4-0.9-1.9
		C1113.1,623.8,1109.2,622.1,1107.4,622.4L1107.4,622.4z"/>
	<path class="st0" d="M1090,596.6c-4.2,1.1,0.5,10,6.9,12.8c4.2,1.9,6.3-0.2,4.3-4.4c-0.4-0.8-0.8-1.5-1.2-2.1
		C1096.3,597.7,1092,596.1,1090,596.6L1090,596.6z"/>
	<path class="st0" d="M1071,571.6c-4.4,1.4,1.5,10.9,8.5,13.7c4.6,1.8,6.6-0.6,4.2-5.1c-0.5-0.9-1-1.6-1.5-2.2
		C1077.8,572.6,1073,571,1071,571.6L1071,571.6z"/>
	<path class="st0" d="M1050.5,547.6c-4.7,1.9,3.3,12.5,10.9,14.6c4.8,1.3,6.1-1.9,2.7-6.7c-0.3-0.5-0.8-1.1-1.2-1.5
		C1057.6,548.2,1052.5,546.8,1050.5,547.6L1050.5,547.6z"/>
	<path class="st0" d="M1028.4,524.5c-4.6,2.2,4.5,13,12.5,14.8c5,1.1,6-2.3,2.1-7.2c-0.4-0.5-1-1.1-1.4-1.6
		C1035.8,524.8,1030.4,523.5,1028.4,524.5L1028.4,524.5z"/>
	<path class="st0" d="M1005,502.5c-4.4,2.5,5.8,13.3,14,14.8c5.2,0.9,5.8-2.7,1.4-7.6c-0.4-0.5-1.1-1.1-1.5-1.6
		C1012.4,502.5,1006.9,501.4,1005,502.5L1005,502.5z"/>
	<path class="st0" d="M980.4,481.7c-4.1,2.7,6.9,13.1,15,14.2c4.8,0.6,5.4-2.5,1.4-6.9c-0.8-0.9-1.7-1.6-2.4-2.2
		C988,481.6,982.4,480.3,980.4,481.7L980.4,481.7z"/>
	<path class="st0" d="M954.6,462.2c-3.6,2.9,7.8,12.5,15.7,13.2c4.6,0.4,4.9-2.7,0.6-6.9c-0.9-0.8-1.8-1.5-2.5-2.1
		C961.4,461.4,956.1,460.9,954.6,462.2L954.6,462.2z"/>
	<path class="st0" d="M927.8,443.8c-3.3,3.1,9.4,12.3,16.5,12c4.2-0.2,3.1-3.9-2.3-7.9c-0.3-0.2-0.6-0.4-0.9-0.6
		C934.1,442.8,929.1,442.6,927.8,443.8L927.8,443.8z"/>
	<path class="st0" d="M899.9,426.8c-2.7,3,9.6,11,16,10.4c3.7-0.4,2.4-3.8-2.9-7.2c-0.3-0.2-0.6-0.4-0.9-0.5
		C905.5,425.6,901,425.6,899.9,426.8L899.9,426.8z"/>
	<path class="st0" d="M870.9,410.9c-2.1,2.9,9.7,9.7,15.4,8.9c3.3-0.5,1.7-3.6-3.3-6.5c-0.3-0.1-0.6-0.3-0.8-0.5
		C875.8,409.6,871.8,409.8,870.9,410.9L870.9,410.9z"/>
	<path class="st0" d="M840.9,396.3c-1.5,2.7,9.6,8.4,14.4,7.4c2.7-0.6,1.6-3.2-4.3-6.1C845.1,394.9,841.5,395.3,840.9,396.3
		L840.9,396.3z"/>
	<path class="st0" d="M809.7,383.1c-1.1,2.4,9.2,7.1,13.3,6c2.3-0.6,1.1-3-4.4-5.3C813.6,381.7,810.3,381.9,809.7,383.1L809.7,383.1
		z"/>
	<path class="st0" d="M777.7,371.2c-0.7,2.3,9.3,6,12.1,4.5c1.4-0.7,0.1-2.6-4.5-4.3C780.5,369.8,778,370.3,777.7,371.2L777.7,371.2
		z"/>
	<path class="st0" d="M744.7,360.7c-0.4,1.9,8.1,4.6,10.3,3.2c1.1-0.7-0.2-2.1-4.1-3.3C746.8,359.4,744.8,360,744.7,360.7
		L744.7,360.7z"/>
	<path class="st0" d="M710.8,351.7c-0.1,1.5,6.7,3.3,8.3,2.2c0.8-0.6-0.4-1.7-3.5-2.5C712.3,350.6,710.8,351.1,710.8,351.7
		L710.8,351.7z"/>
	<path class="st0" d="M676.5,344.4c0,1.1,5.1,2.2,6.2,1.3c0.5-0.4-0.4-1.2-2.7-1.7C677.6,343.5,676.5,343.9,676.5,344.4L676.5,344.4
		z"/>
	<path class="st0" d="M642.6,338.8c0.1,0.7,3.2,1.2,3.8,0.6c0.3-0.3-0.4-0.8-1.8-1C643.1,338.2,642.5,338.5,642.6,338.8L642.6,338.8
		z"/>
	<polygon class="st0" points="609.5,335.1 610.3,334.9 609.5,334.6 608.7,334.8 609.5,335.1 	"/>
	<polygon class="st0" points="1154.4,813.5 1154.6,813.8 1154.8,813.6 1154.5,813.3 1154.4,813.5 	"/>
	<path class="st0" d="M1150.9,785.2c-0.8-0.1-0.8,1.1-0.1,1.8c0.6,0.5,1.2,0.3,1.2-0.4c0-0.1,0-0.1,0-0.2
		C1151.9,785.6,1151.3,785.2,1150.9,785.2L1150.9,785.2z"/>
	<path class="st0" d="M1145.2,757.2c-1.4-0.1-1.4,2.2,0.1,3.4c1.1,0.9,2.3,0.5,2.2-0.8c0-0.1,0-0.3-0.1-0.4
		C1147,757.9,1145.9,757.2,1145.2,757.2L1145.2,757.2z"/>
	<path class="st0" d="M1137.5,729.6c-2.1,0-1.8,3.2,0.5,4.9c1.7,1.3,3.3,0.6,3.1-1.3c0-0.2-0.1-0.4-0.1-0.6
		C1140.2,730.6,1138.5,729.6,1137.5,729.6L1137.5,729.6z"/>
	<path class="st0" d="M1127.9,702.4c-2.6,0.1-1.9,4.3,1.1,6.4c2.3,1.6,4.2,0.6,3.7-1.9c0-0.2-0.1-0.5-0.2-0.7
		C1131.4,703.4,1129.2,702.3,1127.9,702.4L1127.9,702.4z"/>
	<path class="st0" d="M1116.5,675.7c-3,0.3-1.8,5.4,1.9,7.6c2.8,1.7,5,0.5,4.2-2.4c-0.1-0.3-0.2-0.6-0.3-0.9
		C1120.7,676.8,1118,675.6,1116.5,675.7L1116.5,675.7z"/>
	<path class="st0" d="M1103.3,649.5c-3.5,0.6-1.7,6.4,2.9,9c3.2,1.8,5.6,0.5,4.8-2.7c-0.2-0.6-0.4-1.1-0.6-1.5
		C1108.2,650.6,1104.9,649.3,1103.3,649.5L1103.3,649.5z"/>
	<path class="st0" d="M1088.3,624c-3.8,0.8-1.2,7.4,4,10.1c3.7,1.9,6.3,0.2,5.1-3.3c-0.2-0.6-0.5-1.2-0.8-1.7
		C1093.9,625,1090.1,623.6,1088.3,624L1088.3,624z"/>
	<path class="st0" d="M1071.7,599.2c-4.1,1.1-0.6,8.4,5.2,11c4.3,2,6.9,0,5.2-4c-0.3-0.7-0.7-1.3-1-1.8
		C1077.8,600,1073.7,598.7,1071.7,599.2L1071.7,599.2z"/>
	<path class="st0" d="M1053.5,575.2c-4.5,1.5,0.6,10,7.3,12.2c4.6,1.5,6.8-1.3,4.2-5.5c-0.2-0.4-0.6-0.9-0.9-1.3
		C1060.1,575.7,1055.5,574.5,1053.5,575.2L1053.5,575.2z"/>
	<path class="st0" d="M1033.7,552.1c-4.5,1.9,1.5,10.7,8.7,12.7c5,1.4,7-1.7,3.9-6.2c-0.3-0.4-0.7-1-1.1-1.4
		C1040.7,552.3,1035.8,551.2,1033.7,552.1L1033.7,552.1z"/>
	<path class="st0" d="M1012.7,530c-4.4,2.2,2.5,11.1,10,12.8c5.3,1.2,6.9-2,3.4-6.6c-0.3-0.4-0.8-1-1.2-1.4
		C1019.7,529.8,1014.7,529,1012.7,530L1012.7,530z"/>
	<path class="st0" d="M990.2,508.8c-4.2,2.5,3.6,11.4,11.3,12.9c5.4,1,6.8-2.4,2.8-7.1c-0.4-0.4-0.9-1-1.3-1.4
		C997,508,991.9,507.7,990.2,508.8L990.2,508.8z"/>
	<path class="st0" d="M966.5,488.7c-4,2.8,5.4,12,12.9,12.5c5,0.4,5.3-3.7,0.7-8c-0.2-0.2-0.5-0.5-0.7-0.7
		C973.4,487.9,968.3,487.5,966.5,488.7L966.5,488.7z"/>
	<path class="st0" d="M941.8,469.9c-3.6,3,6.2,11.5,13.4,11.6c4.9,0.1,4.8-3.8-0.1-7.9c-0.2-0.2-0.5-0.4-0.8-0.6
		C948.3,468.7,943.3,468.6,941.8,469.9L941.8,469.9z"/>
	<path class="st0" d="M916,452.2c-3.1,3,6.8,10.7,13.6,10.6c4.5-0.1,4.1-3.9-0.8-7.5c-0.2-0.2-0.5-0.4-0.8-0.5
		C921.9,450.8,917.3,450.9,916,452.2L916,452.2z"/>
	<path class="st0" d="M889,435.6c-2.6,3,7.2,9.8,13.4,9.3c4.1-0.3,3.4-3.9-1.4-7c-0.2-0.1-0.5-0.3-0.8-0.5
		C894.3,434.1,890.1,434.3,889,435.6L889,435.6z"/>
	<path class="st0" d="M861.1,420.3c-2.1,2.9,7.4,8.7,13,8c3.7-0.5,2.7-3.7-2-6.4c-0.2-0.1-0.5-0.3-0.7-0.4
		C865.7,418.6,861.9,419,861.1,420.3L861.1,420.3z"/>
	<path class="st0" d="M832.1,406.2c-1.6,2.9,8.1,8,12.7,6.6c2.3-0.7,2-3.3-3.5-6C836,404.5,832.7,405,832.1,406.2L832.1,406.2z"/>
	<path class="st0" d="M802.1,393.4c-1.1,2.5,7.8,6.6,11.6,5.3c2.1-0.8,1.2-3.1-3.6-5.1C805.4,391.7,802.6,392.3,802.1,393.4
		L802.1,393.4z"/>
	<path class="st0" d="M771.2,381.8c-0.7,2.2,7.3,5.4,10.3,4.1c1.5-0.7,1.1-2.6-3.5-4.3C773.5,380.2,771.4,381,771.2,381.8
		L771.2,381.8z"/>
	<path class="st0" d="M739.4,371.7c-0.4,1.9,6.3,4.1,8.6,2.9c1.1-0.6,0.5-2.2-3.2-3.3C741.3,370.4,739.5,371,739.4,371.7
		L739.4,371.7z"/>
	<path class="st0" d="M706.6,363c-0.2,1.5,5.3,3.1,7.1,2c0.9-0.5,0.2-1.8-2.8-2.6C708,361.8,706.6,362.4,706.6,363L706.6,363z"/>
	<path class="st0" d="M673.7,355.9c0,1.1,3.8,1.9,4.9,1.1c0.5-0.4,0-1.2-2.1-1.7C674.6,355.1,673.7,355.5,673.7,355.9L673.7,355.9z"
		/>
	<path class="st0" d="M640.9,350.5c0.1,0.6,2.3,1,2.9,0.5c0.3-0.3-0.1-0.7-1.3-0.9C641.3,349.9,640.9,350.2,640.9,350.5L640.9,350.5
		z"/>
	<polygon class="st0" points="608.7,346.8 609.1,346.7 608.8,346.5 608.4,346.6 608.7,346.8 	"/>
	<path class="st0" d="M1127.4,780.6c-0.6-0.1-0.8,0.6-0.2,1.2c0.5,0.5,1,0.3,1-0.2c0,0,0-0.1,0-0.1
		C1128.1,781,1127.7,780.7,1127.4,780.6L1127.4,780.6z"/>
	<path class="st0" d="M1122,753.9c-1.2-0.1-1.3,1.5-0.2,2.5c1,0.8,2.1,0.5,2.1-0.5c0-0.1,0-0.2,0-0.3
		C1123.5,754.5,1122.6,753.9,1122,753.9L1122,753.9z"/>
	<path class="st0" d="M1114.7,727.5c-1.8,0-1.8,2.4,0.1,3.9c1.6,1.2,3.2,0.7,3-0.9c0-0.1-0.1-0.3-0.1-0.5
		C1117.1,728.2,1115.5,727.5,1114.7,727.5L1114.7,727.5z"/>
	<path class="st0" d="M1105.5,701.5c-2.3,0.2-2,3.4,0.5,5.1c2.1,1.5,4.2,0.7,3.8-1.4c0-0.2-0.1-0.4-0.2-0.6
		C1108.6,702.2,1106.6,701.4,1105.5,701.5L1105.5,701.5z"/>
	<path class="st0" d="M1094.6,675.9c-2.9,0.3-2.2,4.3,1.1,6.4c2.8,1.8,5.2,0.7,4.5-2c0-0.2-0.2-0.5-0.3-0.7
		C1098.6,676.7,1096,675.7,1094.6,675.9L1094.6,675.9z"/>
	<path class="st0" d="M1082,650.9c-3.3,0.6-2.1,5.3,1.8,7.6c3.4,1.9,6.1,0.5,5.1-2.7c-0.1-0.3-0.2-0.6-0.4-0.9
		C1086.6,651.5,1083.5,650.6,1082,650.9L1082,650.9z"/>
	<path class="st0" d="M1067.7,626.5c-3.8,0.9-1.7,6.6,3.2,8.8c3.7,1.6,6.3-0.2,4.9-3.6c-0.1-0.3-0.3-0.7-0.5-1
		C1073,627.1,1069.5,626.1,1067.7,626.5L1067.7,626.5z"/>
	<path class="st0" d="M1051.9,602.8c-4,1.2-1.2,7.5,4.2,9.6c4.2,1.6,6.8-0.6,5.1-4.2c-0.2-0.3-0.4-0.7-0.6-1.1
		C1057.7,603.2,1053.8,602.3,1051.9,602.8L1051.9,602.8z"/>
	<path class="st0" d="M1034.5,579.8c-4.2,1.5-0.7,8.3,5.4,10.4c4.7,1.6,7.3-0.9,5-4.9c-0.2-0.4-0.5-0.8-0.8-1.1
		C1040.9,580.2,1036.8,579,1034.5,579.8L1034.5,579.8z"/>
	<path class="st0" d="M1015.7,557.7c-4.3,1.9,0.1,9,6.6,10.9c5,1.5,7.5-1.5,4.8-5.6c-0.2-0.4-0.6-0.8-0.9-1.2
		C1022.2,557.5,1017.7,556.8,1015.7,557.7L1015.7,557.7z"/>
	<path class="st0" d="M995.5,536.5c-4.1,2.1,0.9,9.4,7.7,11.1c5.2,1.3,7.5-1.9,4.4-6.1c-0.3-0.4-0.7-0.8-1-1.2
		C1002.2,536,997.5,535.4,995.5,536.5L995.5,536.5z"/>
	<path class="st0" d="M974.2,516.2c-4.1,2.5,2.4,10.2,9.3,11.1c5.2,0.7,6.6-3.1,2.6-7.1c-0.2-0.2-0.4-0.4-0.6-0.6
		C980.8,515.4,976,515.1,974.2,516.2L974.2,516.2z"/>
	<path class="st0" d="M951.5,497c-3.8,2.7,3.2,10.1,10.1,10.7c5.1,0.4,6.1-3.4,1.9-7.3c-0.2-0.2-0.4-0.4-0.6-0.6
		C957.9,495.9,953.3,495.8,951.5,497L951.5,497z"/>
	<path class="st0" d="M927.8,478.9c-3.5,2.9,3.8,9.8,10.7,10.1c5,0.2,5.6-3.6,1.2-7.3c-0.2-0.2-0.5-0.4-0.7-0.5
		C933.8,477.4,929.3,477.6,927.8,478.9L927.8,478.9z"/>
	<path class="st0" d="M903,461.8c-3,2.9,4.6,9.3,10.9,9.2c4.7-0.1,4.9-3.8,0.5-7.1c-0.2-0.1-0.5-0.3-0.7-0.5
		C908.6,460.1,904.3,460.5,903,461.8L903,461.8z"/>
	<path class="st0" d="M877.2,445.9c-2.5,2.9,5.1,8.6,10.9,8.2c4.4-0.3,4.3-3.7-0.2-6.7c-0.2-0.1-0.5-0.3-0.6-0.4
		C882.4,444.3,878.5,444.4,877.2,445.9L877.2,445.9z"/>
	<path class="st0" d="M850.4,431.1c-2.1,2.9,6,8,11.1,7c3.2-0.6,3-3.7-1.9-6.5C854.7,429.3,851.2,429.9,850.4,431.1L850.4,431.1z"/>
	<path class="st0" d="M822.6,417.6c-1.6,2.7,6,6.9,10.4,5.8c2.8-0.7,2.4-3.4-2.3-5.7C826.2,415.7,823.3,416.4,822.6,417.6
		L822.6,417.6z"/>
	<path class="st0" d="M793.9,405.2c-1.1,2.5,5.8,5.9,9.5,4.7c2.3-0.7,1.7-3.1-2.5-4.9C796.8,403.4,794.3,404.2,793.9,405.2
		L793.9,405.2z"/>
	<path class="st0" d="M764.1,394.1c-0.8,2.2,5.4,4.8,8.5,3.7c1.9-0.7,1.2-2.8-2.6-4.2C766.5,392.5,764.5,393.2,764.1,394.1
		L764.1,394.1z"/>
	<path class="st0" d="M733.6,384.4c-0.4,1.8,4.7,3.7,7,2.6c1.3-0.6,1-2.1-2.4-3.2C735.4,383,733.8,383.7,733.6,384.4L733.6,384.4z"
		/>
	<path class="st0" d="M702.2,376c-0.2,1.3,3.9,2.6,5.6,1.8c1-0.6,0.3-1.8-2.1-2.4C703.4,374.9,702.3,375.4,702.2,376L702.2,376z"/>
	<path class="st0" d="M670.7,369.2c0,0.9,2.7,1.6,3.7,1c0.6-0.4,0.1-1.2-1.5-1.5C671.4,368.4,670.7,368.8,670.7,369.2L670.7,369.2z"
		/>
	<path class="st0" d="M639.2,363.9c0,0.4,1.4,0.8,1.9,0.4c0.3-0.2,0-0.6-0.8-0.7C639.6,363.5,639.2,363.7,639.2,363.9L639.2,363.9z"
		/>
	<polygon class="st0" points="1101.9,776.7 1102.3,777 1102.5,776.8 1102.2,776.5 1101.9,776.7 	"/>
	<path class="st0" d="M1097,751.1c-0.8,0-1,0.9-0.2,1.6c0.7,0.6,1.6,0.4,1.6-0.3c0-0.1,0-0.1,0-0.2
		C1098.2,751.5,1097.5,751.1,1097,751.1L1097,751.1z"/>
	<path class="st0" d="M1090.1,725.9c-1.5,0-1.5,1.8,0,2.9c1.4,0.9,2.8,0.4,2.5-0.9c0,0,0-0.1,0-0.2
		C1092.1,726.4,1090.8,725.9,1090.1,725.9L1090.1,725.9z"/>
	<path class="st0" d="M1081.4,701.1c-2.1,0.2-2,2.8,0.3,4.2c2,1.3,4,0.4,3.5-1.5c0-0.1-0.1-0.2-0.1-0.2
		C1084.3,701.6,1082.4,701,1081.4,701.1L1081.4,701.1z"/>
	<path class="st0" d="M1071.1,676.8c-2.6,0.3-2.1,3.6,0.7,5.2c2.6,1.5,4.9,0.3,4.1-2.1c0-0.1-0.1-0.2-0.1-0.3
		C1074.7,677.4,1072.4,676.6,1071.1,676.8L1071.1,676.8z"/>
	<path class="st0" d="M1059.1,653c-3,0.6-2.2,4.5,1.3,6.2c3.2,1.6,5.8,0.1,4.7-2.7c0-0.1-0.1-0.2-0.2-0.4
		C1063.4,653.5,1060.6,652.7,1059.1,653L1059.1,653z"/>
	<path class="st0" d="M1045.6,629.8c-3.3,0.8-2.1,5.3,2,7.2c3.6,1.6,6.4,0,5.3-3c-0.1-0.2-0.3-0.6-0.4-0.8
		C1050.5,630.1,1047.2,629.4,1045.6,629.8L1045.6,629.8z"/>
	<path class="st0" d="M1030.6,607.2c-3.6,1.1-1.8,6.1,2.9,7.9c4,1.6,6.9-0.4,5.4-3.7c-0.1-0.3-0.3-0.6-0.5-0.9
		C1035.9,607.4,1032.3,606.7,1030.6,607.2L1030.6,607.2z"/>
	<path class="st0" d="M1014.1,585.3c-3.7,1.4-1.4,6.8,3.7,8.6c4.5,1.6,7.5-0.8,5.6-4.3c-0.2-0.3-0.4-0.7-0.6-0.9
		C1020,585.4,1016.2,584.5,1014.1,585.3L1014.1,585.3z"/>
	<path class="st0" d="M996.2,564.3c-3.8,1.7-0.9,7.4,4.6,9c4.8,1.4,7.7-1.2,5.4-4.9c-0.2-0.3-0.5-0.7-0.7-1
		C1002.2,563.9,998.1,563.5,996.2,564.3L996.2,564.3z"/>
	<path class="st0" d="M977.1,544.1c-3.9,2.1,0.1,8.3,6.2,9.4c5,0.9,7.2-2.4,4.1-6.1c-0.1-0.2-0.3-0.4-0.5-0.5
		C983.2,543.3,978.9,543.1,977.1,544.1L977.1,544.1z"/>
	<path class="st0" d="M956.7,524.8c-3.8,2.4,0.8,8.5,7,9.4c5.1,0.7,7-2.8,3.6-6.5c-0.1-0.1-0.3-0.3-0.5-0.5
		C962.8,523.7,958.5,523.7,956.7,524.8L956.7,524.8z"/>
	<path class="st0" d="M935.2,506.4c-3.5,2.6,1.5,8.5,7.7,9.1c5.1,0.5,6.7-3.1,3-6.7c-0.2-0.1-0.4-0.3-0.5-0.5
		C941.1,505.1,936.9,505.2,935.2,506.4L935.2,506.4z"/>
	<path class="st0" d="M912.7,489.1c-3.1,2.7,2.2,8.3,8.2,8.6c4.9,0.2,6.1-3.4,2.3-6.7c-0.2-0.1-0.4-0.3-0.6-0.4
		C918.2,487.5,914.1,487.9,912.7,489.1L912.7,489.1z"/>
	<path class="st0" d="M889.1,472.8c-2.7,2.7,2.8,7.8,8.4,7.8c4.6,0,5.5-3.5,1.6-6.5c-0.2-0.1-0.4-0.3-0.5-0.4
		C894.1,471,890.3,471.6,889.1,472.8L889.1,472.8z"/>
	<path class="st0" d="M864.4,457.6c-2.4,2.8,3.9,7.7,9.1,7.1c3.3-0.4,4.7-3.4-0.2-6.6C868.7,455.5,865.4,456.4,864.4,457.6
		L864.4,457.6z"/>
	<path class="st0" d="M838.8,443.4c-1.9,2.7,4.2,6.9,8.8,6.1c3-0.5,3.9-3.3-0.8-6.1C842.7,441.5,839.7,442.2,838.8,443.4
		L838.8,443.4z"/>
	<path class="st0" d="M812.3,430.5c-1.5,2.5,4.2,6,8.2,5.1c2.8-0.7,2.8-3.4-1.2-5.4C815.6,428.5,813,429.3,812.3,430.5L812.3,430.5z
		"/>
	<path class="st0" d="M784.9,418.6c-1,2.3,4.2,5.1,7.6,4.1c2.4-0.7,2.1-3.1-1.5-4.7C787.5,416.8,785.3,417.6,784.9,418.6
		L784.9,418.6z"/>
	<path class="st0" d="M756.6,408c-0.7,1.9,3.9,4.1,6.6,3.2c1.9-0.7,1.5-2.6-1.7-3.9C758.6,406.4,756.9,407.2,756.6,408L756.6,408z"
		/>
	<path class="st0" d="M727.5,398.7c-0.4,1.5,3.4,3.1,5.4,2.2c1.3-0.6,1.1-2.1-1.6-3C728.9,397.3,727.6,398,727.5,398.7L727.5,398.7z
		"/>
	<path class="st0" d="M697.5,390.7c-0.2,1.2,2.9,2.2,4.2,1.4c0.7-0.5,0.5-1.5-1.5-2C698.4,389.6,697.6,390.2,697.5,390.7
		L697.5,390.7z"/>
	<path class="st0" d="M667.4,384.1c0,0.7,1.9,1.2,2.6,0.7c0.4-0.3,0.2-1-1.1-1.2C667.9,383.4,667.4,383.8,667.4,384.1L667.4,384.1z"
		/>
	<polygon class="st0" points="637.9,379.3 638.3,379.2 637.9,378.9 637.5,379.1 637.9,379.3 	"/>
	<polygon class="st0" points="1070.1,749 1070.8,749.6 1071.3,749.2 1070.5,748.6 1070.1,749 	"/>
	<path class="st0" d="M1063.9,724.8c-1.1,0-1.2,1.2-0.2,1.9c1,0.7,2.3,0.4,2.1-0.6c0,0,0-0.1,0-0.1
		C1065.5,725.1,1064.5,724.7,1063.9,724.8L1063.9,724.8z"/>
	<path class="st0" d="M1055.7,701.3c-1.6,0.2-1.7,2-0.1,3c1.6,1,3.5,0.4,3.1-1.1c0-0.1,0-0.1-0.1-0.2
		C1058.1,701.7,1056.6,701.2,1055.7,701.3L1055.7,701.3z"/>
	<path class="st0" d="M1046,678.4c-2.1,0.3-2,2.6,0.1,3.8c2.2,1.3,4.5,0.3,3.8-1.6c0-0.1-0.1-0.2-0.1-0.2
		C1049.1,678.8,1047.1,678.2,1046,678.4L1046,678.4z"/>
	<path class="st0" d="M1034.7,655.9c-2.5,0.5-2.2,3.4,0.5,4.8c2.8,1.4,5.5,0.2,4.6-2.2c0-0.1-0.1-0.2-0.1-0.3
		C1038.5,656.2,1036.1,655.6,1034.7,655.9L1034.7,655.9z"/>
	<path class="st0" d="M1022,633.9c-2.9,0.7-2.3,4.1,1,5.7c3.3,1.6,6.4-0.1,5.1-2.8c0-0.1-0.1-0.2-0.2-0.3
		C1026.3,634,1023.5,633.5,1022,633.9L1022,633.9z"/>
	<path class="st0" d="M1007.8,612.5c-3.1,1-2.1,4.8,1.6,6.3c3.6,1.5,6.8-0.3,5.5-3.1c-0.1-0.2-0.3-0.5-0.4-0.7
		C1012.5,612.3,1009.3,612,1007.8,612.5L1007.8,612.5z"/>
	<path class="st0" d="M992.3,591.8c-3.4,1.3-1.7,5.8,2.8,7.1c4.1,1.2,7-1.2,5-4.3c-0.1-0.1-0.2-0.3-0.3-0.4
		C997.3,591.3,993.8,591.2,992.3,591.8L992.3,591.8z"/>
	<path class="st0" d="M975.5,571.9c-3.4,1.6-1.2,6.2,3.5,7.4c4.4,1.1,7.2-1.7,4.9-4.8c-0.1-0.1-0.2-0.3-0.3-0.4
		C980.8,571.3,977.2,571.1,975.5,571.9L975.5,571.9z"/>
	<path class="st0" d="M957.4,552.8c-3.4,1.9-0.8,6.7,4.3,7.7c4.6,0.9,7.3-2.1,4.6-5.3c-0.1-0.1-0.3-0.3-0.4-0.4
		C962.9,551.8,959.1,551.8,957.4,552.8L957.4,552.8z"/>
	<path class="st0" d="M938.1,534.4c-3.3,2.1-0.2,7,5,7.7c4.7,0.7,7.1-2.5,4.2-5.7c-0.1-0.1-0.3-0.3-0.4-0.4
		C943.6,533.2,939.8,533.4,938.1,534.4L938.1,534.4z"/>
	<path class="st0" d="M917.8,517.1c-3.1,2.3,0.4,7,5.5,7.5c4.7,0.5,6.8-2.9,3.6-6c-0.1-0.1-0.3-0.3-0.4-0.4
		C922.9,515.4,919.2,516,917.8,517.1L917.8,517.1z"/>
	<path class="st0" d="M896.5,500.6c-2.7,2.4,1,6.8,5.9,7.1c4.6,0.3,6.3-3.2,3-6c-0.1-0.1-0.3-0.3-0.4-0.4
		C901.4,498.9,897.8,499.4,896.5,500.6L896.5,500.6z"/>
	<path class="st0" d="M874.1,485.1c-2.5,2.6,1.9,6.9,6.7,6.6c3.9-0.2,5.3-3.4,1.4-6.3C878.4,483.1,875.2,484,874.1,485.1
		L874.1,485.1z"/>
	<path class="st0" d="M850.7,470.6c-2.1,2.5,2.3,6.4,6.8,6c3.2-0.3,4.9-3.3,0.7-6C854.7,468.6,851.7,469.4,850.7,470.6L850.7,470.6z
		"/>
	<path class="st0" d="M826.5,457.2c-1.7,2.4,2.6,5.8,6.6,5.2c2.9-0.5,4.1-3.2,0.1-5.5C829.7,455.1,827.2,456.1,826.5,457.2
		L826.5,457.2z"/>
	<path class="st0" d="M801.3,444.8c-1.3,2.2,2.8,5,6.3,4.3c2.5-0.5,3.4-3-0.3-4.9C804,442.8,801.9,443.8,801.3,444.8L801.3,444.8z"
		/>
	<path class="st0" d="M775.3,433.6c-0.9,2,2.7,4.2,5.6,3.5c2.3-0.6,2.3-2.9-0.7-4.2C777.6,431.8,775.8,432.6,775.3,433.6
		L775.3,433.6z"/>
	<path class="st0" d="M748.5,423.5c-0.6,1.7,2.9,3.5,5.1,2.6c1.6-0.7,1.3-2.4-1.1-3.4C750.2,421.9,748.7,422.7,748.5,423.5
		L748.5,423.5z"/>
	<path class="st0" d="M720.9,414.6c-0.3,1.3,2.4,2.5,3.9,1.7c1-0.5,0.9-1.8-1.1-2.5C722.1,413.4,721.1,414,720.9,414.6L720.9,414.6z
		"/>
	<path class="st0" d="M692.5,406.9c-0.1,0.9,1.8,1.6,2.8,1c0.7-0.4,0.4-1.3-0.9-1.7C693.2,406.1,692.6,406.5,692.5,406.9
		L692.5,406.9z"/>
	<polygon class="st0" points="664.6,401.2 665.4,400.9 664.8,400.3 664,400.6 664.6,401.2 	"/>
	<polygon class="st0" points="1042.3,746.6 1042.4,746.6 1042.5,746.6 1042.4,746.5 1042.3,746.6 	"/>
	<path class="st0" d="M1036.3,724.2c-0.6,0-0.8,0.6-0.2,1c0.6,0.4,1.4,0.2,1.3-0.3c0,0,0,0,0-0.1
		C1037.2,724.4,1036.7,724.2,1036.3,724.2L1036.3,724.2z"/>
	<path class="st0" d="M1028.6,702.2c-1.2,0.1-1.3,1.3-0.2,1.9c1.1,0.7,2.5,0.2,2.3-0.7c0,0,0-0.1,0-0.1
		C1030.3,702.4,1029.3,702.1,1028.6,702.2L1028.6,702.2z"/>
	<path class="st0" d="M1019.5,680.5c-1.6,0.3-1.8,1.8-0.2,2.7c1.7,1,3.8,0.3,3.4-1.1c0-0.1,0-0.1-0.1-0.2
		C1021.9,680.8,1020.4,680.4,1019.5,680.5L1019.5,680.5z"/>
	<path class="st0" d="M1008.9,659.3c-2,0.4-2.1,2.5-0.1,3.6c2.3,1.2,4.9,0.2,4.2-1.6c0-0.1-0.1-0.1-0.1-0.2
		C1012.1,659.6,1010.2,659.1,1008.9,659.3L1008.9,659.3z"/>
	<path class="st0" d="M997,638.7c-2.5,0.7-2.1,3.3,0.6,4.4c2.7,1.1,5.4-0.3,4.4-2.4c0-0.1-0.1-0.2-0.1-0.3
		C1000.6,638.6,998.2,638.4,997,638.7L997,638.7z"/>
	<path class="st0" d="M983.7,618.7c-2.7,0.9-2.1,3.9,1,5c3.2,1.1,6-0.6,4.8-2.9c0-0.1-0.1-0.2-0.2-0.3
		C987.7,618.3,985,618.2,983.7,618.7L983.7,618.7z"/>
	<path class="st0" d="M969.1,599.2c-2.9,1.2-2,4.5,1.6,5.6c3.6,1.1,6.5-1.1,5-3.5c-0.1-0.1-0.1-0.2-0.2-0.3
		C973.6,598.7,970.6,598.6,969.1,599.2L969.1,599.2z"/>
	<path class="st0" d="M953.3,580.4c-2.9,1.4-1.7,4.9,2.1,5.9c3.9,1,6.8-1.5,5-4.1c-0.1-0.1-0.2-0.2-0.3-0.3
		C958,579.7,954.9,579.7,953.3,580.4L953.3,580.4z"/>
	<path class="st0" d="M936.5,562.5c-2.9,1.6-1.3,5.2,2.6,6c4,0.8,6.8-1.9,4.7-4.5c-0.1-0.1-0.2-0.2-0.3-0.3
		C941.2,561.4,938,561.6,936.5,562.5L936.5,562.5z"/>
	<path class="st0" d="M918.4,545.2c-2.8,1.8-0.9,5.5,3.2,6.1c4.1,0.7,6.8-2.3,4.4-4.9c-0.1-0.1-0.2-0.2-0.3-0.3
		C923.2,544,920.1,544.1,918.4,545.2L918.4,545.2z"/>
	<path class="st0" d="M899.3,528.8c-2.6,2-0.5,5.5,3.6,6c4.1,0.5,6.5-2.6,3.9-5.1c-0.1-0.1-0.2-0.2-0.3-0.3
		C904,527.4,900.9,527.6,899.3,528.8L899.3,528.8z"/>
	<path class="st0" d="M879.2,513.2c-2.5,2.2,0.3,5.8,4.5,5.8c3.4,0,6-2.8,2.5-5.6C883.6,511.7,880.6,512,879.2,513.2L879.2,513.2z"
		/>
	<path class="st0" d="M858.2,498.6c-2.1,2.2,0.8,5.5,4.7,5.3c3.5-0.2,5.1-3.1,1.9-5.4C862,496.8,859.2,497.5,858.2,498.6
		L858.2,498.6z"/>
	<path class="st0" d="M836.2,484.9c-1.8,2.1,1.2,5.2,4.8,4.8c3.2-0.3,4.5-3.1,1.3-5.2C839.6,483.1,837.1,483.9,836.2,484.9
		L836.2,484.9z"/>
	<path class="st0" d="M813.4,472.3c-1.4,2,1.4,4.6,4.6,4.1c2.8-0.4,3.7-3,0.8-4.7C816.1,470.4,814.1,471.3,813.4,472.3L813.4,472.3z
		"/>
	<path class="st0" d="M789.7,460.6c-1.1,1.8,1.6,4,4.3,3.4c2.1-0.4,3.1-2.7,0.3-4.2C791.9,458.8,790.2,459.7,789.7,460.6
		L789.7,460.6z"/>
	<path class="st0" d="M765.3,449.9c-0.8,1.6,1.6,3.3,3.8,2.7c1.8-0.4,2.4-2.4-0.1-3.5C766.9,448.4,765.6,449.2,765.3,449.9
		L765.3,449.9z"/>
	<path class="st0" d="M740,440.4c-0.5,1.3,1.7,2.6,3.4,1.9c1.2-0.5,1.4-1.9-0.5-2.7C741.4,439.2,740.3,439.7,740,440.4L740,440.4z"
		/>
	<path class="st0" d="M713.9,432c-0.3,1,1.4,1.8,2.5,1.3c0.9-0.4,0.8-1.5-0.5-1.9C714.7,431,714,431.5,713.9,432L713.9,432z"/>
	<path class="st0" d="M687.2,424.7c-0.1,0.5,0.8,1,1.4,0.6c0.5-0.3,0.4-0.8-0.4-1C687.6,424.2,687.2,424.5,687.2,424.7L687.2,424.7z
		"/>
	<polygon class="st0" points="660.4,418.9 660.4,418.8 660.4,418.8 660.3,418.8 660.4,418.9 	"/>
	<polygon class="st0" points="1007.1,724.2 1007.2,724.2 1007.3,724.2 1007.2,724.1 1007.1,724.2 	"/>
	<path class="st0" d="M1000,703.5c-0.6,0.1-0.7,0.6-0.2,0.9c0.6,0.4,1.4,0.1,1.3-0.4c0,0,0,0,0-0.1
		C1001,703.6,1000.4,703.5,1000,703.5L1000,703.5z"/>
	<path class="st0" d="M991.5,683.3c-1.1,0.2-1.2,1.1-0.2,1.7c1.1,0.6,2.6,0.1,2.3-0.8c0,0,0-0.1,0-0.1
		C993.2,683.5,992.2,683.2,991.5,683.3L991.5,683.3z"/>
	<path class="st0" d="M981.7,663.6c-1.6,0.3-1.7,1.7-0.2,2.4c1.7,0.8,3.7,0,3.2-1.2c0,0,0-0.1-0.1-0.1
		C984,663.5,982.5,663.4,981.7,663.6L981.7,663.6z"/>
	<path class="st0" d="M970.6,644.3c-1.8,0.5-1.8,2.2,0,3c2.1,0.9,4.5-0.2,3.8-1.7c0-0.1-0.1-0.1-0.1-0.2
		C973.5,644.3,971.8,644,970.6,644.3L970.6,644.3z"/>
	<path class="st0" d="M958.2,625.6c-2.1,0.7-1.9,2.8,0.3,3.6c2.5,0.9,5.2-0.5,4.2-2.3c0-0.1-0.1-0.1-0.1-0.2
		C961.5,625.3,959.4,625.2,958.2,625.6L958.2,625.6z"/>
	<path class="st0" d="M944.7,607.4c-2.3,0.9-1.9,3.3,0.6,4.1c2.9,0.9,5.7-0.8,4.6-2.8c0-0.1-0.1-0.2-0.2-0.2
		C948.3,606.9,946,606.9,944.7,607.4L944.7,607.4z"/>
	<path class="st0" d="M930,589.9c-2.4,1.2-1.8,3.7,1,4.4c3.2,0.9,6.1-1.2,4.6-3.3c-0.1-0.1-0.1-0.2-0.2-0.2
		C933.9,589.1,931.3,589.2,930,589.9L930,589.9z"/>
	<path class="st0" d="M914.3,573.1c-2.4,1.3-1.6,3.9,1.4,4.6c3.3,0.7,6.2-1.6,4.5-3.7c-0.1-0.1-0.1-0.2-0.2-0.2
		C918.2,572.1,915.6,572.4,914.3,573.1L914.3,573.1z"/>
	<path class="st0" d="M897.4,556.9c-2.4,1.6-1.1,4.4,2.2,4.8c3.3,0.3,5.9-2.1,3.7-4.4C901.3,555.7,898.7,556.1,897.4,556.9
		L897.4,556.9z"/>
	<path class="st0" d="M879.6,541.6c-2.2,1.7-0.7,4.5,2.6,4.7c3.3,0.2,5.6-2.4,3.3-4.6C883.4,540.2,880.8,540.7,879.6,541.6
		L879.6,541.6z"/>
	<path class="st0" d="M860.9,527.1c-2,1.8-0.4,4.4,2.8,4.4c3.1,0,5.2-2.6,2.7-4.6C864.4,525.5,862,526.2,860.9,527.1L860.9,527.1z"
		/>
	<path class="st0" d="M841.3,513.4c-1.8,1.8,0.1,4.3,3,4.2c3-0.1,4.7-2.7,2.2-4.5C844.4,511.7,842.2,512.4,841.3,513.4L841.3,513.4z
		"/>
	<path class="st0" d="M820.8,500.6c-1.4,1.7,0.4,3.9,3.1,3.7c2.7-0.2,3.9-2.7,1.9-4.1c-0.1,0-0.2-0.1-0.3-0.2
		C823.5,498.9,821.6,499.7,820.8,500.6L820.8,500.6z"/>
	<path class="st0" d="M799.4,488.6c-1.2,1.6,0.6,3.5,3.1,3.2c2.4-0.3,3.2-2.6,1.4-3.8c-0.1,0-0.2-0.1-0.2-0.1
		C801.7,487,800,487.8,799.4,488.6L799.4,488.6z"/>
	<path class="st0" d="M777.3,477.7c-0.8,1.4,0.8,3,2.8,2.6c2-0.4,2.5-2.3,0.9-3.3c-0.1,0-0.1-0.1-0.2-0.1
		C779,476.2,777.7,477,777.3,477.7L777.3,477.7z"/>
	<path class="st0" d="M754.5,467.7c-0.6,1.2,0.9,2.3,2.4,2c1.4-0.3,2-1.9,0.3-2.7C755.7,466.4,754.7,467.1,754.5,467.7L754.5,467.7z
		"/>
	<path class="st0" d="M730.8,458.7c-0.3,0.9,0.9,1.8,2,1.3c0.9-0.3,1.1-1.5-0.1-2C731.7,457.8,731,458.3,730.8,458.7L730.8,458.7z"
		/>
	<path class="st0" d="M706.5,450.8c-0.1,0.5,0.6,1,1.2,0.7c0.5-0.2,0.5-0.9-0.2-1.1C707,450.3,706.6,450.5,706.5,450.8L706.5,450.8z
		"/>
	<polygon class="st0" points="681.6,444.2 681.9,444.1 681.7,443.9 681.5,444 681.6,444.2 	"/>
	<polygon class="st0" points="970,705.4 970.1,705.5 970.2,705.4 970.1,705.4 970,705.4 	"/>
	<polygon class="st0" points="961.8,687.2 962.7,687.6 963.3,687.1 962.3,686.7 961.8,687.2 	"/>
	<path class="st0" d="M953.2,668.5c-0.9,0.2-1,0.9-0.3,1.3c0.9,0.5,2.3,0,2.1-0.7c0,0,0-0.1,0-0.1
		C954.6,668.4,953.7,668.3,953.2,668.5L953.2,668.5z"/>
	<path class="st0" d="M942.9,650.6c-1.2,0.4-1.3,1.4-0.1,1.9c1.3,0.5,3.1-0.2,2.6-1.3C944.9,650.5,943.6,650.4,942.9,650.6
		L942.9,650.6z"/>
	<path class="st0" d="M931.5,633.3c-1.4,0.5-1.7,1.8-0.2,2.4c1.8,0.7,4-0.4,3.4-1.6c0,0,0-0.1-0.1-0.1
		C933.9,633,932.4,632.9,931.5,633.3L931.5,633.3z"/>
	<path class="st0" d="M919,616.5c-1.6,0.7-1.6,2.2,0,2.7c2,0.7,4.5-0.7,3.7-2c0,0-0.1-0.1-0.1-0.1C921.8,616,920,616.1,919,616.5
		L919,616.5z"/>
	<path class="st0" d="M905.5,600.2c-1.8,0.9-1.5,2.7,0.5,3.2c2.3,0.5,4.8-1.1,3.6-2.7C908.4,599.5,906.5,599.7,905.5,600.2
		L905.5,600.2z"/>
	<path class="st0" d="M890.9,584.6c-1.8,1.1-1.4,3,0.8,3.3c2.4,0.4,4.9-1.4,3.5-3.1C894,583.7,892,584.1,890.9,584.6L890.9,584.6z"
		/>
	<path class="st0" d="M875.4,569.7c-1.8,1.2-1.2,3.1,1.1,3.4c2.5,0.3,4.9-1.7,3.3-3.3C878.4,568.6,876.4,569.1,875.4,569.7
		L875.4,569.7z"/>
	<path class="st0" d="M859,555.5c-1.7,1.3-0.9,3.2,1.3,3.4c2.5,0.2,4.7-1.9,3-3.5C861.9,554.3,859.9,554.8,859,555.5L859,555.5z"/>
	<path class="st0" d="M841.6,541.9c-1.4,1.3-0.8,3.3,1.6,3.3c2.4,0.1,4.5-2.2,2.7-3.7C844.3,540.6,842.4,541.2,841.6,541.9
		L841.6,541.9z"/>
	<path class="st0" d="M823.5,529.2c-1.3,1.3-0.3,3,1.7,3c2.3,0,3.8-2.1,2.3-3.4c-0.1,0-0.1-0.1-0.2-0.1
		C825.9,527.9,824.2,528.5,823.5,529.2L823.5,529.2z"/>
	<path class="st0" d="M804.5,517.3c-1.1,1.3-0.1,2.8,1.8,2.7c2-0.2,3.4-2.2,1.7-3.3C806.5,515.9,805.1,516.6,804.5,517.3
		L804.5,517.3z"/>
	<path class="st0" d="M784.8,506.3c-0.7,1.1,0,2.4,1.7,2.2c1.7-0.2,2.7-2,1.1-2.9C786.4,505,785.2,505.6,784.8,506.3L784.8,506.3z"
		/>
	<path class="st0" d="M764.3,496.1c-0.6,1,0.4,2,1.7,1.7c1.2-0.3,1.8-1.7,0.6-2.4C765.4,495,764.6,495.6,764.3,496.1L764.3,496.1z"
		/>
	<path class="st0" d="M743,486.8c-0.3,0.7,0.4,1.5,1.3,1.2c0.9-0.3,1.2-1.3,0.2-1.8C743.9,486,743.2,486.4,743,486.8L743,486.8z"/>
	<polygon class="st0" points="721.5,479.1 722.3,478.8 722,478.1 721.2,478.4 721.5,479.1 	"/>
	<polygon class="st0" points="698.7,471.2 698.8,471.2 698.8,471.1 698.7,471.1 698.7,471.2 	"/>
	<polygon class="st0" points="923.1,674.2 923.7,674.4 924,674.1 923.4,673.9 923.1,674.2 	"/>
	<path class="st0" d="M914,657.6c-0.7,0.2-0.8,0.7-0.2,0.9c0.7,0.3,1.8-0.1,1.5-0.7C915.1,657.5,914.5,657.5,914,657.6L914,657.6z"
		/>
	<path class="st0" d="M903.7,641.7c-1,0.3-0.9,1-0.2,1.2c0.9,0.3,2.4-0.3,2-1C905.1,641.5,904.2,641.6,903.7,641.7L903.7,641.7z"/>
	<path class="st0" d="M892.2,626.3c-1.1,0.5-1.2,1.4-0.1,1.7c1.3,0.4,3.1-0.5,2.5-1.4C894,625.9,892.8,626,892.2,626.3L892.2,626.3z
		"/>
	<path class="st0" d="M879.9,611.4c-1.2,0.6-1.1,1.6,0,1.9c1.3,0.3,3.4-0.6,2.5-1.7C881.8,611,880.6,611.1,879.9,611.4L879.9,611.4z
		"/>
	<path class="st0" d="M866.5,597.1c-1.3,0.7-1.2,1.9,0.2,2.1c1.7,0.3,3.5-1,2.8-2c0,0-0.1-0.1-0.1-0.1
		C868.6,596.4,867.3,596.7,866.5,597.1L866.5,597.1z"/>
	<path class="st0" d="M852.3,583.4c-1.2,0.8-1,2,0.3,2.2c1.7,0.2,3.7-1.2,2.6-2.3C854.4,582.6,853.1,582.9,852.3,583.4L852.3,583.4z
		"/>
	<path class="st0" d="M837.3,570.3c-1.2,0.9-0.9,2.1,0.5,2.2c1.7,0.2,3.4-1.4,2.5-2.4c0,0-0.1-0.1-0.1-0.1
		C839.3,569.4,837.9,569.9,837.3,570.3L837.3,570.3z"/>
	<path class="st0" d="M821.4,557.9c-1,0.9-0.7,2,0.7,2.1c1.7,0.1,3.1-1.5,2.2-2.4c0,0-0.1-0.1-0.1-0.1
		C823.3,557,822,557.4,821.4,557.9L821.4,557.9z"/>
	<path class="st0" d="M804.8,546.2c-0.9,0.9-0.5,2,0.8,1.9c1.5,0,2.8-1.6,1.7-2.4C806.4,545.3,805.4,545.7,804.8,546.2L804.8,546.2z
		"/>
	<path class="st0" d="M787.4,535.3c-0.7,0.8-0.2,1.8,0.9,1.6c1.2-0.2,2.1-1.5,1.2-2.2C788.8,534.4,787.9,534.8,787.4,535.3
		L787.4,535.3z"/>
	<path class="st0" d="M769.3,525.1c-0.5,0.7,0,1.5,0.8,1.3c0.9-0.2,1.6-1.3,0.8-1.8C770.3,524.3,769.7,524.7,769.3,525.1
		L769.3,525.1z"/>
	<path class="st0" d="M750.5,515.7c-0.3,0.5,0.1,1,0.7,0.9c0.6-0.1,1.1-0.9,0.4-1.3C751.2,515.2,750.7,515.4,750.5,515.7
		L750.5,515.7z"/>
	<polygon class="st0" points="731.3,507.6 731.7,507.4 731.6,507 731.2,507.2 731.3,507.6 	"/>
	<polygon class="st0" points="874.4,651.1 874.8,651.2 875,650.9 874.6,650.9 874.4,651.1 	"/>
	<polygon class="st0" points="863.9,637.5 864.8,637.5 865.2,637 864.3,636.9 863.9,637.5 	"/>
	<path class="st0" d="M853.1,623.4c-0.6,0.3-0.6,0.7-0.2,0.9c0.7,0.2,1.7-0.4,1.4-0.9C854.1,623.2,853.4,623.3,853.1,623.4
		L853.1,623.4z"/>
	<path class="st0" d="M841.1,610.5c-0.6,0.4-0.7,0.9-0.1,1.1c0.7,0.1,2.1-0.5,1.6-1.1C842.2,610.1,841.4,610.2,841.1,610.5
		L841.1,610.5z"/>
	<path class="st0" d="M828.2,598.1c-0.6,0.4-0.7,1,0,1.1c0.9,0.1,2.1-0.7,1.6-1.3C829.4,597.6,828.7,597.7,828.2,598.1L828.2,598.1z
		"/>
	<path class="st0" d="M814.6,586.2c-0.6,0.4-0.6,1.1,0.1,1.1c0.9,0.1,2-0.8,1.5-1.4C815.8,585.7,815.1,585.9,814.6,586.2
		L814.6,586.2z"/>
	<path class="st0" d="M800.3,575c-0.5,0.5-0.4,1,0.2,1.1c0.8,0.1,1.7-0.9,1.3-1.3c0,0,0,0-0.1,0C801.3,574.4,800.7,574.6,800.3,575
		L800.3,575z"/>
	<path class="st0" d="M785.3,564.3c-0.4,0.4-0.3,0.9,0.3,0.9c0.7,0,1.3-0.8,0.9-1.2C786.1,563.9,785.6,564,785.3,564.3L785.3,564.3z
		"/>
	<polygon class="st0" points="769.5,555 770.3,554.8 770.4,554.1 769.6,554.4 769.5,555 	"/>
	<polygon class="st0" points="753.2,545.4 753.6,545.3 753.6,545 753.2,545.1 753.2,545.4 	"/>
	<polygon class="st0" points="803.2,613.7 803.3,613.7 803.4,613.6 803.2,613.6 803.2,613.7 	"/>
	<polygon class="st0" points="791.1,603.1 791.2,603.1 791.2,603 791.1,603 791.1,603.1 	"/>
	<polygon class="st0" points="778.3,593 778.4,593 778.4,592.9 778.3,593 778.3,593 	"/>
</g>
</svg>
