<?xml version="1.0"?>
<svg xmlns="http://www.w3.org/2000/svg" xmlns:xlink="http://www.w3.org/1999/xlink" xmlns:svgjs="http://svgjs.com/svgjs" version="1.1" width="512" height="512" x="0" y="0" viewBox="0 0 512 512" style="enable-background:new 0 0 512 512" xml:space="preserve" class=""><g>
<g xmlns="http://www.w3.org/2000/svg">
	<ellipse style="" cx="256" cy="256" rx="248.459" ry="248.5" fill="#faebd7" data-original="#66d15f" class=""/>
	<path style="" d="M405.273,57.34c31.283,41.567,49.832,93.264,49.832,149.298c0,137.243-111.239,248.5-248.459,248.5   c-56.024,0-107.713-18.552-149.273-49.841C102.711,465.54,174.804,504.5,256,504.5c137.22,0,248.459-111.257,248.459-248.5   C504.459,174.791,465.506,102.686,405.273,57.34z" fill="#ffc0b1" data-original="#53bc77" class=""/>
	<path style="" d="M284.344,122.768l-10.42,101.61c-0.131,1.273,0.868,2.38,2.148,2.38h60.85   c1.698,0,2.732,1.87,1.829,3.308L237.524,391.359c-2.769,4.412-9.597,2.058-9.06-3.124l11.79-113.664   c0.132-1.274-0.867-2.383-2.148-2.383h-63.03c-1.736,0-2.762-1.945-1.782-3.379L275.39,119.489   C278.27,115.278,284.865,117.693,284.344,122.768z" fill="#d4ffdf" data-original="#d4ffdf" class=""/>
	<g>
		<path style="" d="M252.518,200.66c-1.432,13.962,9.522,26.098,23.555,26.098h0c-1.28,0-2.279-1.107-2.148-2.38    l10.42-101.61c0.52-5.075-6.075-7.491-8.954-3.279l-17.115,25.032L252.518,200.66z" fill="#b1ffc5" data-original="#b1ffc5" class=""/>
		<path style="" d="M336.923,226.759h-23.839c1.698,0,2.732,1.87,1.829,3.308l-83.91,133.7l-2.538,24.469    c-0.538,5.182,6.291,7.536,9.06,3.124l101.228-161.293C339.655,228.628,338.621,226.759,336.923,226.759z" fill="#b1ffc5" data-original="#b1ffc5" class=""/>
	</g>
</g>
<g xmlns="http://www.w3.org/2000/svg">
	<path d="M436.569,74.56C388.257,26.465,324.159,0,256.018,0c-0.205,0-0.41,0.001-0.615,0.001   C187.034,0.16,122.819,26.938,74.588,75.403S-0.118,188.217,0.041,256.597c0.145,62.27,22.905,122.233,64.086,168.846   c2.743,3.104,7.482,3.396,10.586,0.655c3.104-2.743,3.397-7.482,0.655-10.587c-38.766-43.878-60.19-100.327-60.327-158.949   c-0.15-64.373,24.773-124.952,70.179-170.577S191.076,15.15,255.438,15.001c0.196,0,0.382-0.001,0.579-0.001   c64.143,0,124.491,24.916,169.969,70.19c45.617,45.412,70.823,105.874,70.973,170.248c0.15,64.373-24.773,124.952-70.179,170.577   s-105.856,70.834-170.219,70.983c-0.19,0-0.377,0.001-0.567,0.001c-58.531,0-114.94-21.232-158.889-59.818   c-3.114-2.734-7.852-2.425-10.584,0.688c-2.733,3.112-2.425,7.852,0.688,10.584C133.9,489.447,193.815,512.002,255.995,512   c0.198,0,0.404-0.001,0.602-0.001c68.369-0.159,132.584-26.938,180.815-75.402s74.706-112.813,74.547-181.193   S485.025,122.799,436.569,74.56z" fill="#000000" data-original="#000000" style="" class=""/>
	<path d="M283.719,110.603c-5.424-1.983-11.26-0.115-14.521,4.653l-102.094,149.32c-2.029,2.967-2.247,6.783-0.571,9.961   c1.677,3.178,4.95,5.152,8.543,5.152h57.106l-11.179,107.772c-0.599,5.776,2.816,11.132,8.306,13.024   c1.346,0.464,2.722,0.687,4.078,0.687c4.174,0,8.158-2.114,10.488-5.826l65.074-103.687c2.202-3.509,1.143-8.138-2.366-10.34   c-3.508-2.202-8.138-1.142-10.339,2.365l-59.177,94.29l10.646-102.632c0.281-2.716-0.606-5.437-2.435-7.464s-4.443-3.19-7.173-3.19   h-52.909l90.649-132.581l-9.383,91.504c-0.279,2.715,0.609,5.434,2.438,7.459s4.442,3.188,7.171,3.188h51.193l-10.832,17.259   c-2.202,3.509-1.143,8.138,2.366,10.34c3.507,2.201,8.137,1.142,10.339-2.365l15.965-25.438c1.868-2.977,1.972-6.735,0.271-9.811   c-1.7-3.074-4.939-4.984-8.453-4.984h-54.934l9.816-95.726C292.395,117.785,289.145,112.589,283.719,110.603z" fill="#000000" data-original="#000000" style="" class=""/>
</g>















</g></svg>
